<svg width="156" height="163" viewBox="0 0 156 163" fill="none" xmlns="http://www.w3.org/2000/svg">
<path d="M90.2031 13.8922C91.4978 13.3115 92.9032 13.1834 94.283 12.9699C102.111 11.7573 109.836 12.0135 117.366 14.7804C122.57 16.6933 127.204 19.5285 131.318 23.2433C136.028 27.4961 139.699 32.5773 142.842 38.0513C144.503 40.9548 145.976 43.9523 147.331 47.0096C147.493 47.3768 147.603 47.7611 147.74 48.1368C148.08 51.0489 149.034 53.8329 149.324 56.7706C149.963 63.1669 150.244 69.5119 149.349 75.9339C148.191 84.2089 146.096 92.1766 142.646 99.7599C140.363 104.773 137.825 109.615 132.553 112.279C129.163 113.996 125.645 114.986 121.855 115.2C116.599 115.499 111.369 115.089 106.123 114.867C100.245 114.611 94.4364 115.439 88.6784 116.669C85.2288 117.403 81.8218 118.249 78.2614 118.454C72.6057 118.787 67.7933 116.84 63.3556 113.637C54.591 107.301 47.7173 99.3585 43.1774 89.478C40.6136 83.8844 39.4211 78.0005 40.2047 71.9116C40.9543 66.1216 44.3358 61.8859 49.1993 58.803C52.7512 56.5485 56.4989 54.6271 60.0678 52.4153C67.41 47.8635 72.6228 41.3306 77.1201 34.123C80.8678 28.1195 84.607 22.1075 88.0226 15.8991C88.5422 14.9597 89.445 14.5156 90.2116 13.8922H90.2031Z" fill="#6A81B8"/>
<path d="M90.2032 13.8922C88.4826 16.9068 86.8046 19.9469 85.0244 22.9273C82.631 26.941 80.1779 30.9206 77.7334 34.9001C75.8084 38.0342 73.696 41.0573 71.3026 43.8328C67.8955 47.7867 64.003 51.2453 59.4376 53.867C56.2009 55.7201 52.9642 57.5904 49.7701 59.5204C45.2813 62.236 42.3001 66.1045 41.1758 71.3053C41.048 71.886 40.9799 72.4923 40.9543 73.0901C40.9203 74.0893 40.9799 75.097 40.9288 76.0961C40.7925 78.9484 41.4313 81.6641 42.249 84.3626C44.0292 90.1953 46.9848 95.3961 50.69 100.187C52.4446 102.458 54.2333 104.713 56.3457 106.652C59.7868 109.811 63.3216 112.86 67.4441 115.123C70.2208 116.652 73.1765 117.557 76.4131 117.557C79.3006 117.557 82.1199 117.249 84.9137 116.549C88.7296 115.601 92.5966 114.935 96.4892 114.371C97.0172 114.295 97.5539 114.312 98.0905 114.312C99.0274 114.312 99.9388 114.201 100.867 114.073C103.048 113.765 105.262 113.774 107.451 114.056C108.516 114.192 109.564 114.278 110.628 114.312C112.817 114.389 115.032 114.056 117.204 114.628C117.451 114.696 117.749 114.705 117.996 114.628C119.436 114.209 120.918 114.431 122.366 114.278C125.015 113.996 127.647 113.603 130.091 112.399C131.522 111.69 132.936 110.973 134.282 110.093C136.539 108.607 137.944 106.455 139.29 104.209C142.348 99.1194 144.341 93.5856 145.959 87.9323C147.041 84.1577 147.978 80.3148 148.293 76.3694C148.37 75.4385 148.481 74.5077 148.694 73.6025C149.205 71.4248 149.06 69.213 149.06 67.0183C149.06 64.9517 149.239 62.868 148.702 60.8355C148.83 57.9405 147.97 55.148 147.833 52.2872C147.808 51.826 147.637 51.3734 147.578 50.9122C147.45 49.9814 147.314 49.0506 147.731 48.1539C149.809 52.7312 151.343 57.4879 152.629 62.3385C154.051 67.7015 155.031 73.1413 155.593 78.6751C156.078 83.483 156.121 88.2909 155.789 93.0818C155.405 98.6924 154.264 104.192 152.484 109.529C151.768 111.681 150.934 113.791 150.133 115.917C149.971 116.344 149.707 116.737 149.486 117.147C146.658 119.461 143.924 121.878 141.104 124.201C136.53 127.975 131.727 131.238 125.722 132.297C122.229 132.911 118.695 132.937 115.194 133.168C108.746 133.586 102.588 135.174 96.4806 137.113C90.4842 139.017 84.3941 140.452 78.0485 140.042C66.0472 139.265 55.4258 134.91 45.9371 127.574C36.7381 120.469 29.1574 111.946 23.6891 101.673C20.3843 95.4558 18.0505 88.9058 17.5735 81.7238C16.9432 72.3386 19.4048 64.1489 26.1848 57.522C29.5833 54.2001 33.6547 51.7406 37.8199 49.4434C42.726 46.7363 47.6407 44.0292 51.6184 39.9642C52.9642 38.5893 54.2674 37.1632 55.3065 35.5235C56.8056 34.0461 58.4325 32.7908 60.6045 32.5004C62.061 31.4244 63.2023 30.0239 64.3948 28.6917C67.8785 24.7805 71.9755 21.6378 76.5068 19.0673C80.2205 16.9665 84.1386 15.3354 88.2782 14.268C88.917 14.1057 89.5729 14.0203 90.2287 13.9008L90.2032 13.8922Z" fill="#6A81B8"/>
<path d="M55.7664 35.737C55.3491 37.2827 54.2588 38.4015 53.2452 39.5287C50.5025 42.586 47.2403 45.0113 43.714 47.0779C40.9543 48.6919 38.135 50.212 35.4008 51.8773C32.9563 53.3632 30.6139 54.9943 28.3482 56.7791C25.3841 59.1105 23.2036 62.014 21.4405 65.242C20.1969 67.5307 19.4899 70.0585 18.9192 72.6119C18.4934 74.5163 18.6296 76.4719 18.1527 78.3592C18.0845 78.6154 18.1101 78.8972 18.1271 79.1619C18.5785 84.226 19.2344 89.2474 21.2105 93.9956C22.0026 95.9085 22.7351 97.8555 23.6635 99.7001C25.8355 103.996 28.4079 108.052 31.3805 111.844C32.9477 113.842 34.5235 115.823 36.3633 117.574C36.6955 117.89 37.0106 118.257 37.2662 118.641C37.7176 119.325 38.2627 119.88 38.9356 120.349C39.4211 120.691 39.8896 121.084 40.2984 121.519C44.1058 125.524 48.6116 128.65 53.2878 131.468C58.8583 134.824 64.8888 137.198 71.3451 138.274C72.9124 138.531 74.4881 138.804 76.0979 138.855C77.4863 138.898 78.8577 139.231 80.2631 139.239C82.4095 139.248 84.5048 138.864 86.6087 138.599C90.1264 138.146 93.4909 137.045 96.8639 135.986C100.808 134.747 104.777 133.586 108.874 132.954C110.645 132.681 112.426 132.484 114.223 132.339C116.548 132.151 118.882 132.151 121.19 131.921C123.822 131.656 126.463 131.366 129.026 130.503C131.795 129.572 134.265 128.155 136.607 126.507C139.001 124.824 141.249 122.937 143.455 120.99C144.997 119.623 146.624 118.351 148.234 117.044C148.429 116.882 148.694 116.763 148.941 116.694C149.273 116.609 149.4 116.865 149.469 117.138C149.418 117.335 149.4 117.54 149.315 117.719C146.351 124.209 142.578 130.162 137.595 135.311C132.723 140.35 126.897 143.663 120.091 145.251C117.885 145.764 115.679 146.293 113.516 146.985C110.177 148.052 107.111 149.641 104.334 151.776C102.477 153.193 100.646 154.645 98.7974 156.071C94.3938 159.479 89.3684 161.187 83.8575 161.767C76.2768 162.57 68.9517 161.349 61.7543 159.188C50.5707 155.824 40.5029 150.281 31.3294 143.074C28.1779 140.597 25.1712 137.95 22.3518 135.098C15.4866 128.163 9.75429 120.401 5.68288 111.477C3.19573 106.037 1.41555 100.366 0.597864 94.4396C-0.909753 83.4574 0.376406 72.8254 5.1122 62.7313C8.80884 54.8576 14.3112 48.5297 21.7215 43.9267C22.2326 43.6107 22.7181 43.2691 23.2206 42.9361C23.3484 41.8345 24.2002 41.416 25.0434 40.989C29.5577 38.7003 34.4043 37.4962 39.3785 36.813C41.8742 36.4715 44.3613 35.942 46.9081 36.1726C48.1091 35.8993 49.3356 35.831 50.5281 35.5406C51.6439 35.5406 52.7256 35.1819 53.8414 35.1649C54.5484 35.1478 55.315 34.9428 55.7579 35.7627L55.7664 35.737Z" fill="#6A81B8"/>
<path d="M46.9507 36.7618C43.927 37.2144 40.8777 37.4108 37.871 37.9403C32.9222 38.8028 28.195 40.2802 23.7658 42.6714C23.5954 42.7653 23.3995 42.8336 23.2207 42.9105C15.904 38.9224 10.572 32.9787 6.49208 25.8138C5.62329 24.2937 4.9504 22.6968 4.67783 20.9546C4.4223 19.315 4.63524 17.7608 5.71698 16.42C6.71354 16.3431 7.65048 16.6335 8.5789 16.9153C10.6231 18.0682 12.8633 18.7001 15.0863 19.3748C15.8529 19.6054 16.6195 19.8188 17.3435 20.1604C17.8631 20.4081 18.2549 20.7668 18.1782 21.3816C18.1016 21.9538 17.5905 22.0392 17.1391 22.1502C15.7167 22.5003 14.2772 22.748 13.1017 22.9786C14.9075 22.4747 17.1135 22.5003 19.03 21.3218C19.6518 20.9376 20.461 21.0998 21.1764 21.3389C24.1576 22.321 27.0195 23.5764 29.8474 24.9342C30.4606 25.2331 31.0228 25.7028 31.0143 26.4372C31.0143 27.3595 30.137 27.3168 29.5407 27.4961C25.4864 28.7515 21.3127 28.7088 18.6126 28.7173C21.8919 28.7771 26.6362 28.6832 31.1676 26.9837C32.1386 26.6165 32.9137 26.5567 33.8166 26.9837C35.8012 27.9402 37.7262 28.9906 39.6085 30.1349C40.3155 30.5705 40.9203 31.1341 40.8095 32.0564C40.6988 32.9616 39.8385 33.1495 39.1827 33.3373C36.0652 34.2084 32.9393 35.0965 30.3329 35.2076C33.5696 34.8233 37.4195 34.2084 41.0054 32.509C41.7379 32.1589 42.4364 32.0991 43.1178 32.415C44.5743 33.0812 45.9371 33.9351 47.1722 34.9428C47.8366 35.4894 48.5265 36.3348 46.9592 36.7533L46.9507 36.7618Z" fill="#6A81B8"/>
<path d="M50.1618 0.68969C52.6404 -0.258228 55.085 -0.300927 57.4529 1.0142C59.0627 1.90234 59.9741 3.33703 60.4937 5.06207C61.141 7.2141 61.1155 9.41737 60.8344 11.6036C60.5022 14.1826 60.0082 16.736 59.659 19.3065C59.1309 23.2262 58.9775 27.1374 60.0082 31.0145C60.0933 31.3305 60.1019 31.6721 60.153 31.9966C59.6675 32.5175 59.0457 32.5261 58.492 32.2784C52.7852 29.7506 47.6065 26.5824 44.9065 20.5703C43.7736 18.0511 43.1263 15.4038 43.3477 12.6027C43.5607 10.0408 44.2421 9.32343 46.7207 9.04161C50.0511 8.65732 52.8534 6.93228 55.5279 5.64277C53.4581 6.82981 50.9454 7.63255 48.3476 8.17055C47.3425 8.38405 46.2693 8.46091 45.6219 7.47883C45.0172 6.56507 45.6134 5.71963 46.0308 4.87419C46.9507 3.00398 48.3902 1.67177 50.1703 0.672611L50.1618 0.68969Z" fill="#6A81B8"/>
<path d="M8.16151 17.59C7.59934 17.4619 7.03718 17.3423 6.48354 17.1971C6.08321 17.0947 5.82768 16.8128 5.70844 16.42C6.45798 14.9939 7.72711 14.1655 9.10696 13.4652C11.4323 12.2867 13.9109 11.5438 16.4406 10.9631C22.0367 9.68211 27.6157 9.64795 33.1948 11.1083C35.1964 11.6377 37.0618 12.5002 38.9186 13.3969C39.6341 13.7214 39.7448 14.3705 39.7874 15.0536C40.0855 20.0153 41.772 24.473 44.6339 28.5038C45.1705 29.2553 45.7497 29.9983 45.7242 31.006C45.409 32.2186 44.5487 32.1247 43.6885 31.7746C42.5982 31.339 41.7294 30.5448 41.3631 29.4432C40.2303 26.0529 38.1265 23.2604 36.0567 20.4337C36.0056 20.3227 35.9204 20.2288 35.8097 20.1604C35.9204 20.2031 36.0056 20.2885 36.0482 20.4252C37.7602 22.5687 39.2082 24.8659 40.4944 27.2826C40.7584 27.7779 41.0565 28.2391 40.6732 28.7515C40.2473 29.3151 39.583 29.3407 39.0293 29.076C36.5081 27.8804 33.9102 26.7959 31.7638 24.9769C30.6054 23.9948 30.3839 22.3295 29.4044 21.0998C28.0757 19.4346 26.5936 17.9145 25.5289 16.6079C26.8917 18.0853 28.5782 19.8701 29.9495 21.9196C30.2988 22.4406 30.665 22.9444 30.2306 23.5507C29.8218 24.1229 29.1659 24.1485 28.5952 23.9521C25.6993 22.97 22.8033 21.9709 20.0095 20.7411C18.6126 20.1263 18.6382 18.145 17.369 17.6156C17.4031 17.6497 17.6161 17.8205 17.7779 18.034C18.1527 18.5208 19.0215 18.888 18.4252 19.6737C17.9482 20.3056 17.2583 20.0494 16.5939 19.853C13.8002 19.0332 10.9894 18.2902 8.16151 17.5985V17.59Z" fill="#6A81B8"/>
<path d="M45.426 31.1939C44.5572 29.9385 43.6544 28.7002 42.8282 27.4107C40.9884 24.5157 39.7874 21.3646 39.1656 17.9828C38.8845 16.4627 39.0123 14.9255 38.9016 13.4055C39.0549 12.6881 39.2082 11.9793 39.37 11.262C40.1366 7.86313 42.0446 5.21579 44.8128 3.2004C46.4141 2.03045 48.1261 0.99713 50.1533 0.689697C48.8246 2.35496 47.4532 3.9946 46.4311 5.8819C46.2097 6.28327 45.7923 6.69318 46.0819 7.15433C46.4141 7.70087 47.0529 7.56424 47.5384 7.44468C49.0205 7.07747 50.5366 6.82127 51.9676 6.23203C53.6285 5.54884 55.332 4.94252 57.0185 4.31057C57.1974 4.24225 57.4188 4.21663 57.4955 4.45575C57.5296 4.55823 57.4699 4.73756 57.3933 4.81442C56.9248 5.28411 56.4819 5.81358 55.9368 6.18079C53.5859 7.72649 51.1414 9.06724 48.3476 9.68211C47.4873 9.86998 46.6355 9.8956 45.7667 9.94684C44.932 9.99808 44.7872 10.1774 44.5317 10.9802C43.8077 13.2517 44.208 15.4721 44.7872 17.6924C45.8264 21.6805 48.1687 24.7634 51.3969 27.2143C54.0714 29.2468 56.993 30.8181 60.1274 31.9966C60.2722 32.1589 60.417 32.3126 60.5618 32.4748C59.1564 33.8583 57.487 34.8404 55.7494 35.7285C53.9777 35.8566 52.2657 36.4629 50.477 36.4031C48.058 35.3698 45.9201 34.0718 45.409 31.1768L45.426 31.1939Z" fill="#6A81B8"/>
<path d="M137.391 48.6492C137.587 50.3401 137.348 51.9712 136.897 53.6023C135.295 59.2983 129.699 62.236 125.56 62.1592C122.425 62.0994 119.683 61.049 117.093 59.4606C115.5 58.487 114.018 57.3427 112.715 55.9849C110.995 54.2086 109.189 52.5177 107.494 50.7158C105.705 48.8115 103.644 47.2145 101.762 45.4212C101.216 44.9002 100.552 44.6099 99.8365 44.3964C98.6781 44.0548 97.6049 43.5168 96.5147 43.0215C95.1944 42.4237 94.1042 41.5441 93.2524 40.4339C91.7107 38.4441 91.0464 36.2494 91.8385 33.6875C92.7584 30.69 94.7089 28.6063 97.3153 27.0777C99.7514 25.6601 102.324 24.5584 105.143 24.1656C106.659 23.9521 108.201 23.5593 109.691 23.6959C111.872 23.8838 114.069 24.029 116.216 24.5755C120.415 25.6515 124.137 27.6071 127.578 30.2459C130.168 32.2357 132.238 34.661 134.009 37.3254C135.721 39.8959 136.854 42.7824 137.374 45.8481C137.527 46.7534 137.399 47.7184 137.399 48.6492H137.391Z" fill="#6A81B8"/>
<path d="M128.677 70.9295C128.311 68.3505 129.776 66.5913 131.624 65.02C131.82 64.8492 132.059 64.6955 132.306 64.6101C134.469 63.8757 136.667 63.6707 138.66 64.9688C141.138 66.5828 142.603 68.88 142.689 71.9458C142.74 73.8075 142.28 75.4471 141.317 77.0697C139.495 80.1184 133.668 81.4164 130.977 76.7878C130.713 76.3267 130.449 75.8485 130.117 75.4471C129.035 74.1576 128.49 72.7058 128.686 70.921L128.677 70.9295Z" fill="#6A81B8"/>
<path d="M45.4261 31.1938C45.6305 31.3646 45.8605 31.5013 46.0223 31.7062C47.1722 33.1665 48.4413 34.4987 49.9063 35.6431C50.1533 35.8395 50.2981 36.1555 50.494 36.4202C49.3101 36.5312 48.1602 36.9241 46.9507 36.7703C47.1211 36.5312 47.6321 36.2836 47.1807 35.9761C45.7497 35.0026 44.2762 34.0888 42.8026 33.1751C42.249 32.8249 41.6613 32.8506 41.0906 33.1665C40.0259 33.7387 38.9016 34.1486 37.7517 34.4987C34.3361 35.5406 30.8439 35.8566 27.2921 35.5577C27.2495 35.5577 27.2154 35.4808 27.0962 35.3442C27.6328 35.0282 28.1864 34.8489 28.7827 34.8489C30.4691 34.8489 32.079 34.4048 33.6973 34.0291C35.3157 33.6533 36.934 33.2349 38.5438 32.8164C39.0549 32.6798 39.5574 32.4919 40.0515 32.2955C40.2814 32.2101 40.3496 31.766 40.1622 31.6038C39.9663 31.433 39.7619 31.2451 39.5319 31.1255C37.3769 29.93 35.2049 28.7515 33.05 27.5559C32.6071 27.3082 32.1812 27.2485 31.7127 27.4107C31.142 27.6071 30.5714 27.7779 30.0092 27.9829C27.5987 28.8454 25.1201 29.2382 22.5648 29.2126C20.2395 29.1955 17.9142 29.298 15.64 28.6063C15.64 28.3757 15.87 28.4013 16.0148 28.4099C18.4934 28.6148 20.9209 28.0683 23.3825 27.9231C25.6226 27.7865 27.8798 27.4278 30.0603 26.7958C30.2562 26.7361 30.4862 26.6763 30.4436 26.4457C30.4095 26.2835 30.2562 26.0785 30.1029 26.0102C27.1728 24.7292 24.2683 23.3714 21.2616 22.2868C20.2054 21.9025 19.2174 21.9367 18.1527 22.3466C15.9551 23.1921 13.6554 23.5251 11.313 23.5678C10.9894 23.5678 10.6572 23.4995 10.3335 23.4397C10.1802 23.4141 10.1206 23.286 10.1632 23.1237C10.1802 23.064 10.2143 23.0042 10.2654 22.97C10.3761 22.9102 10.5039 22.8248 10.6231 22.8163C13.0251 22.654 15.3163 21.9282 17.6331 21.4158C17.6672 20.8948 17.3009 20.8351 17.0028 20.7326C14.669 19.9384 12.3266 19.1698 9.98429 18.3756C9.35399 18.1621 8.68962 18.0426 8.17004 17.5814C9.72025 17.5387 11.2108 17.9145 12.7014 18.2304C14.3283 18.572 15.9381 19.0246 17.5564 19.4089C17.7268 19.4516 17.9312 19.3833 18.2804 19.3491C17.4372 17.9742 16.0573 17.1886 15.0949 15.6514C16.9091 16.3175 17.9823 17.4106 18.8852 18.6062C19.6518 19.631 20.5632 20.2458 21.7641 20.6045C23.9447 21.2364 26.057 22.0563 28.1438 22.9444C28.5697 23.1237 29.0211 23.2518 29.4726 23.3714C29.5748 23.397 29.7537 23.3372 29.8218 23.2518C29.8899 23.175 29.9155 22.97 29.8559 22.8932C29.5407 22.4662 29.1915 22.0648 28.8764 21.6378C27.2921 19.4943 25.6908 17.3594 23.868 15.4038C23.7999 15.3269 23.8169 15.1732 23.7913 15.0536C23.9106 15.0536 24.0639 14.9853 24.132 15.0365C24.8816 15.6002 25.6482 16.1382 26.3381 16.753C28.5442 18.7257 30.4606 20.9375 31.7723 23.619C32.0705 24.2339 32.4623 24.7378 33.0926 25.0708C35.1027 26.1212 37.0958 27.1972 39.0975 28.2562C39.336 28.3842 39.583 28.4867 39.83 28.5636C39.9407 28.5977 40.1026 28.5636 40.1963 28.5038C40.3751 28.3586 40.3411 28.1537 40.2388 27.9743C40.1451 27.8035 40.0259 27.6327 39.9237 27.462C38.6886 25.3953 37.4536 23.3458 36.2441 21.2706C36.0141 20.8778 35.9119 20.4081 35.7501 19.9725C37.8795 21.5353 39.2593 23.7044 40.5284 25.9504C41.1502 27.0435 41.6613 28.1878 42.1979 29.3236C42.7175 30.4253 43.6629 30.9889 44.7106 31.4244C44.9661 31.5354 45.2216 31.3817 45.4261 31.1938Z" fill="#6A81B8"/>
</svg>
