<svg width="164" height="171" viewBox="0 0 164 171" fill="none" xmlns="http://www.w3.org/2000/svg">
<g filter="url(#filter0_d_24_6612)">
<path d="M94.2016 13.8942C95.4963 13.3135 96.9017 13.1854 98.2815 12.9719C106.109 11.7593 113.835 12.0155 121.364 14.7824C126.568 16.6953 131.202 19.5305 135.316 23.2453C140.026 27.4981 143.697 32.5793 146.84 38.0533C148.501 40.9569 149.975 43.9543 151.329 47.0116C151.491 47.3788 151.602 47.7631 151.738 48.1388C152.079 51.0509 153.033 53.8349 153.322 56.7726C153.961 63.1689 154.242 69.5139 153.348 75.9359C152.189 84.2109 150.094 92.1786 146.644 99.7619C144.362 104.775 141.824 109.617 136.551 112.281C133.161 113.998 129.643 114.988 125.853 115.202C120.598 115.501 115.368 115.091 110.121 114.869C104.244 114.613 98.4348 115.441 92.6769 116.671C89.2273 117.405 85.8202 118.251 82.2599 118.456C76.6042 118.789 71.7917 116.842 67.3541 113.639C58.5894 107.303 51.7157 99.3605 47.1759 89.48C44.6121 83.8864 43.4196 78.0025 44.2032 71.9136C44.9528 66.1236 48.3343 61.8879 53.1978 58.805C56.7496 56.5505 60.4974 54.6291 64.0663 52.4173C71.4084 47.8656 76.6212 41.3326 81.1185 34.125C84.8663 28.1215 88.6055 22.1095 92.0211 15.9011C92.5406 14.9617 93.4435 14.5176 94.2101 13.8942H94.2016Z" fill="#FF526B"/>
<path d="M94.2016 13.8942C92.481 16.9088 90.803 19.9489 89.0229 22.9293C86.6294 26.943 84.1763 30.9226 81.7318 34.9021C79.8068 38.0362 77.6944 41.0593 75.301 43.8348C71.894 47.7887 68.0014 51.2473 63.436 53.869C60.1993 55.7222 56.9626 57.5924 53.7685 59.5224C49.2797 62.238 46.2985 66.1066 45.1742 71.3073C45.0464 71.888 44.9783 72.4943 44.9528 73.0921C44.9187 74.0913 44.9783 75.099 44.9272 76.0981C44.7909 78.9504 45.4297 81.6661 46.2474 84.3647C48.0276 90.1973 50.9832 95.3981 54.6884 100.189C56.443 102.46 58.2317 104.715 60.3441 106.654C63.7852 109.813 67.32 112.862 71.4425 115.125C74.2193 116.654 77.1749 117.559 80.4116 117.559C83.299 117.559 86.1184 117.251 88.9121 116.551C92.728 115.603 96.595 114.937 100.488 114.373C101.016 114.297 101.552 114.314 102.089 114.314C103.026 114.314 103.937 114.203 104.866 114.075C107.046 113.767 109.261 113.776 111.45 114.058C112.514 114.194 113.562 114.28 114.627 114.314C116.816 114.391 119.03 114.058 121.202 114.63C121.449 114.698 121.748 114.707 121.995 114.63C123.434 114.211 124.916 114.433 126.364 114.28C129.013 113.998 131.645 113.605 134.09 112.401C135.52 111.692 136.934 110.975 138.28 110.095C140.537 108.609 141.943 106.457 143.289 104.211C146.346 99.1214 148.339 93.5876 149.958 87.9343C151.04 84.1597 151.977 80.3168 152.292 76.3714C152.368 75.4406 152.479 74.5097 152.692 73.6045C153.203 71.4269 153.058 69.215 153.058 67.0203C153.058 64.9537 153.237 62.87 152.701 60.8375C152.828 57.9425 151.968 55.15 151.832 52.2892C151.806 51.828 151.636 51.3754 151.576 50.9143C151.448 49.9834 151.312 49.0526 151.73 48.1559C153.808 52.7332 155.341 57.4899 156.627 62.3405C158.05 67.7035 159.029 73.1434 159.591 78.6771C160.077 83.4851 160.119 88.293 159.787 93.0838C159.404 98.6944 158.263 104.194 156.482 109.531C155.767 111.683 154.932 113.793 154.131 115.919C153.97 116.346 153.706 116.739 153.484 117.149C150.656 119.463 147.922 121.88 145.103 124.203C140.529 127.977 135.725 131.24 129.72 132.299C126.228 132.913 122.693 132.939 119.192 133.17C112.744 133.588 106.586 135.176 100.479 137.115C94.4826 139.019 88.3926 140.454 82.0469 140.044C70.0456 139.267 59.4242 134.912 49.9356 127.576C40.7365 120.471 33.1559 111.948 27.6876 101.675C24.3827 95.4578 22.0489 88.9078 21.5719 81.7258C20.9416 72.3406 23.4032 64.1509 30.1832 57.5241C33.5817 54.2021 37.6532 51.7426 41.8183 49.4454C46.7244 46.7383 51.6391 44.0312 55.6168 39.9662C56.9626 38.5913 58.2658 37.1652 59.3049 35.5255C60.804 34.0482 62.4309 32.7928 64.6029 32.5024C66.0594 31.4264 67.2007 30.0259 68.3932 28.6937C71.8769 24.7825 75.9739 21.6398 80.5053 19.0693C84.2189 16.9686 88.137 15.3375 92.2766 14.27C92.9154 14.1077 93.5713 14.0223 94.2271 13.9028L94.2016 13.8942Z" fill="#FF526B"/>
<path d="M59.7648 35.739C59.3475 37.2848 58.2572 38.4035 57.2436 39.5307C54.5009 42.588 51.2387 45.0133 47.7124 47.0799C44.9527 48.6939 42.1334 50.214 39.3992 51.8793C36.9547 53.3652 34.6123 54.9963 32.3466 56.7811C29.3825 59.1125 27.202 62.016 25.4389 65.2441C24.1953 67.5327 23.4883 70.0605 22.9177 72.6139C22.4918 74.5183 22.6281 76.4739 22.1511 78.3612C22.0829 78.6174 22.1085 78.8992 22.1255 79.1639C22.577 84.228 23.2328 89.2494 25.2089 93.9976C26.001 95.9105 26.7335 97.8576 27.662 99.7022C29.834 103.998 32.4063 108.054 35.3789 111.846C36.9462 113.844 38.5219 115.825 40.3617 117.576C40.6939 117.892 41.0091 118.259 41.2646 118.643C41.716 119.327 42.2611 119.882 42.934 120.351C43.4195 120.693 43.888 121.086 44.2969 121.521C48.1042 125.527 52.61 128.652 57.2862 131.47C62.8567 134.826 68.8872 137.2 75.3435 138.276C76.9108 138.533 78.4865 138.806 80.0964 138.857C81.4847 138.9 82.8561 139.233 84.2615 139.241C86.4079 139.25 88.5032 138.866 90.6071 138.601C94.1249 138.148 97.4893 137.047 100.862 135.988C104.806 134.749 108.775 133.588 112.872 132.956C114.644 132.683 116.424 132.486 118.221 132.341C120.546 132.153 122.88 132.153 125.189 131.923C127.821 131.658 130.461 131.368 133.025 130.505C135.793 129.574 138.263 128.157 140.605 126.509C142.999 124.826 145.248 122.939 147.454 120.992C148.995 119.626 150.622 118.353 152.232 117.046C152.428 116.884 152.692 116.765 152.939 116.696C153.271 116.611 153.399 116.867 153.467 117.14C153.416 117.337 153.399 117.542 153.314 117.721C150.35 124.211 146.576 130.164 141.593 135.313C136.721 140.352 130.895 143.665 124.09 145.253C121.884 145.766 119.678 146.295 117.514 146.987C114.175 148.054 111.109 149.643 108.332 151.778C106.475 153.195 104.644 154.647 102.796 156.073C98.3922 159.481 93.3668 161.189 87.8559 161.769C80.2752 162.572 72.9501 161.351 65.7527 159.19C54.5691 155.826 44.5013 150.283 35.3278 143.076C32.1763 140.599 29.1696 137.952 26.3502 135.1C19.4851 128.165 13.7527 120.403 9.68129 111.479C7.19415 106.039 5.41397 100.368 4.59628 94.4416C3.08866 83.4594 4.37482 72.8274 9.11061 62.7334C12.8073 54.8597 18.3096 48.5317 25.7199 43.9287C26.231 43.6127 26.7165 43.2712 27.219 42.9381C27.3468 41.8365 28.1986 41.418 29.0418 40.991C33.5561 38.7024 38.4027 37.4982 43.3769 36.8151C45.8726 36.4735 48.3597 35.944 50.9065 36.1746C52.1075 35.9013 53.334 35.833 54.5265 35.5426C55.6423 35.5426 56.724 35.184 57.8398 35.1669C58.5468 35.1498 59.3134 34.9448 59.7563 35.7647L59.7648 35.739Z" fill="#FF304D"/>
<path d="M50.9491 36.7638C47.9253 37.2164 44.876 37.4128 41.8693 37.9423C36.9206 38.8048 32.1933 40.2822 27.7641 42.6734C27.5938 42.7673 27.3979 42.8356 27.219 42.9125C19.9024 38.9244 14.5704 32.9807 10.4904 25.8158C9.62164 24.2957 8.94875 22.6988 8.67618 20.9567C8.42066 19.317 8.6336 17.7628 9.71533 16.422C10.7119 16.3452 11.6488 16.6355 12.5772 16.9173C14.6215 18.0702 16.8616 18.7021 19.0847 19.3768C19.8513 19.6074 20.6179 19.8209 21.3419 20.1625C21.8614 20.4101 22.2533 20.7688 22.1766 21.3836C22.0999 21.9558 21.5889 22.0412 21.1374 22.1522C19.715 22.5024 18.2755 22.75 17.1001 22.9806C18.9058 22.4767 21.1119 22.5024 23.0284 21.3239C23.6501 20.9396 24.4593 21.1018 25.1748 21.3409C28.156 22.323 31.0179 23.5784 33.8457 24.9362C34.459 25.2351 35.0211 25.7048 35.0126 26.4392C35.0126 27.3615 34.1353 27.3188 33.5391 27.4981C29.4847 28.7535 25.3111 28.7108 22.611 28.7193C25.8903 28.7791 30.6346 28.6852 35.1659 26.9858C36.137 26.6185 36.9121 26.5588 37.8149 26.9858C39.7995 27.9422 41.7245 28.9926 43.6069 30.1369C44.3139 30.5725 44.9186 31.1361 44.8079 32.0584C44.6972 32.9636 43.8369 33.1515 43.181 33.3394C40.0636 34.2104 36.9376 35.0986 34.3312 35.2096C37.5679 34.8253 41.4179 34.2104 45.0038 32.511C45.7363 32.1609 46.4347 32.1011 47.1162 32.4171C48.5727 33.0832 49.9355 33.9371 51.1705 34.9448C51.8349 35.4914 52.5248 36.3368 50.9576 36.7553L50.9491 36.7638Z" fill="#00D100"/>
<path d="M54.1602 0.691704C56.6389 -0.256213 59.0834 -0.298912 61.4513 1.01622C63.0611 1.90436 63.9725 3.33904 64.4921 5.06408C65.1394 7.21611 65.1139 9.41938 64.8328 11.6056C64.5006 14.1846 64.0066 16.738 63.6574 19.3085C63.1293 23.2282 62.976 27.1395 64.0066 31.0165C64.0918 31.3325 64.1003 31.6741 64.1514 31.9986C63.6659 32.5195 63.0441 32.5281 62.4905 32.2804C56.7837 29.7526 51.605 26.5844 48.9049 20.5724C47.772 18.0531 47.1247 15.4058 47.3461 12.6047C47.5591 10.0428 48.2405 9.32544 50.7191 9.04363C54.0495 8.65934 56.8518 6.9343 59.5263 5.64479C57.4565 6.83182 54.9439 7.63456 52.346 8.17257C51.3409 8.38606 50.2677 8.46292 49.6203 7.48084C49.0156 6.56709 49.6118 5.72165 50.0292 4.87621C50.9491 3.00599 52.3886 1.67378 54.1688 0.674625L54.1602 0.691704Z" fill="#AB4736"/>
<path d="M12.1599 17.592C11.5977 17.4639 11.0355 17.3443 10.4819 17.1991C10.0816 17.0967 9.82603 16.8149 9.70679 16.422C10.4563 14.9959 11.7255 14.1675 13.1053 13.4673C15.4306 12.2888 17.9092 11.5458 20.439 10.9651C26.035 9.68412 31.6141 9.64996 37.1931 11.1103C39.1947 11.6397 41.0601 12.5023 42.9169 13.3989C43.6324 13.7234 43.7431 14.3725 43.7857 15.0557C44.0839 20.0173 45.7703 24.4751 48.6323 28.5058C49.1689 29.2573 49.7481 30.0003 49.7225 31.008C49.4074 32.2207 48.5471 32.1267 47.6868 31.7766C46.5965 31.3411 45.7278 30.5469 45.3615 29.4452C44.2287 26.0549 42.1248 23.2624 40.055 20.4357C40.0039 20.3247 39.9187 20.2308 39.808 20.1625C39.9187 20.2052 40.0039 20.2906 40.0465 20.4272C41.7585 22.5707 43.2065 24.8679 44.4927 27.2846C44.7567 27.78 45.0549 28.2411 44.6716 28.7535C44.2457 29.3171 43.5813 29.3427 43.0277 29.078C40.5065 27.8824 37.9086 26.7979 35.7622 24.9789C34.6038 23.9968 34.3823 22.3316 33.4028 21.1018C32.074 19.4366 30.592 17.9165 29.5273 16.6099C30.8901 18.0873 32.5766 19.8721 33.9479 21.9217C34.2971 22.4426 34.6634 22.9464 34.229 23.5528C33.8201 24.1249 33.1643 24.1505 32.5936 23.9541C29.6976 22.972 26.8016 21.9729 24.0079 20.7432C22.611 20.1283 22.6365 18.1471 21.3674 17.6176C21.4015 17.6518 21.6144 17.8225 21.7762 18.036C22.151 18.5228 23.0198 18.89 22.4236 19.6757C21.9466 20.3076 21.2567 20.0514 20.5923 19.855C17.7985 19.0352 14.9877 18.2922 12.1599 17.6005V17.592Z" fill="#00E500"/>
<path d="M49.4244 31.1959C48.5556 29.9405 47.6527 28.7023 46.8265 27.4127C44.9867 24.5178 43.7857 21.3666 43.1639 17.9848C42.8829 16.4647 43.0106 14.9276 42.8999 13.4075C43.0532 12.6901 43.2065 11.9813 43.3684 11.264C44.135 7.86514 46.0429 5.2178 48.8111 3.20241C50.4124 2.03246 52.1245 0.999144 54.1517 0.691711C52.8229 2.35697 51.4516 3.99661 50.4295 5.88391C50.208 6.28528 49.7906 6.69519 50.0802 7.15634C50.4124 7.70289 51.0513 7.56625 51.5368 7.44669C53.0188 7.07948 54.535 6.82329 55.9659 6.23404C57.6268 5.55086 59.3304 4.94453 61.0169 4.31259C61.1957 4.24427 61.4172 4.21865 61.4938 4.45776C61.5279 4.56024 61.4683 4.73958 61.3916 4.81643C60.9232 5.28612 60.4802 5.81559 59.9351 6.1828C57.5843 7.72851 55.1397 9.06925 52.3459 9.68412C51.4857 9.872 50.6339 9.89761 49.7651 9.94885C48.9304 10.0001 48.7856 10.1794 48.53 10.9822C47.806 13.2538 48.2064 15.4741 48.7856 17.6945C49.8247 21.6825 52.1671 24.7654 55.3952 27.2163C58.0698 29.2488 60.9913 30.8201 64.1258 31.9986C64.2706 32.1609 64.4154 32.3146 64.5602 32.4768C63.1548 33.8603 61.4853 34.8424 59.7477 35.7305C57.9761 35.8586 56.264 36.4649 54.4753 36.4052C52.0563 35.3718 49.9184 34.0738 49.4074 31.1788L49.4244 31.1959Z" fill="#943D2F"/>
<path d="M141.389 48.6512C141.585 50.3421 141.346 51.9732 140.895 53.6043C139.294 59.3004 133.698 62.2381 129.558 62.1612C126.424 62.1014 123.681 61.051 121.092 59.4626C119.499 58.4891 118.017 57.3448 116.714 55.9869C114.993 54.2106 113.187 52.5198 111.492 50.7179C109.704 48.8135 107.642 47.2166 105.76 45.4232C105.215 44.9023 104.55 44.6119 103.835 44.3984C102.677 44.0568 101.603 43.5188 100.513 43.0235C99.1929 42.4257 98.1026 41.5461 97.2508 40.436C95.7092 38.4462 95.0448 36.2515 95.8369 33.6895C96.7568 30.692 98.7073 28.6083 101.314 27.0797C103.75 25.6621 106.322 24.5605 109.141 24.1676C110.658 23.9541 112.199 23.5613 113.69 23.6979C115.87 23.8858 118.068 24.031 120.214 24.5775C124.413 25.6536 128.136 27.6092 131.577 30.248C134.166 32.2377 136.236 34.663 138.008 37.3275C139.72 39.8979 140.852 42.7844 141.372 45.8502C141.525 46.7554 141.398 47.7204 141.398 48.6512H141.389Z" fill="#FF7487"/>
<path d="M132.675 70.9316C132.309 68.3526 133.774 66.5934 135.623 65.022C135.818 64.8512 136.057 64.6975 136.304 64.6121C138.467 63.8777 140.665 63.6728 142.658 64.9708C145.137 66.5848 146.602 68.882 146.687 71.9478C146.738 73.8095 146.278 75.4491 145.316 77.0717C143.493 80.1204 137.667 81.4185 134.975 76.7899C134.711 76.3287 134.447 75.8505 134.115 75.4491C133.033 74.1596 132.488 72.7079 132.684 70.923L132.675 70.9316Z" fill="#FF7487"/>
<path d="M49.4245 31.1959C49.6289 31.3667 49.8589 31.5033 50.0207 31.7083C51.1706 33.1686 52.4397 34.5008 53.9047 35.6451C54.1517 35.8415 54.2965 36.1575 54.4925 36.4222C53.3085 36.5333 52.1586 36.9261 50.9491 36.7724C51.1195 36.5333 51.6305 36.2856 51.1791 35.9782C49.7481 35.0046 48.2746 34.0909 46.8011 33.1771C46.2474 32.827 45.6597 32.8526 45.089 33.1686C44.0243 33.7407 42.9 34.1507 41.7501 34.5008C38.3346 35.5426 34.8423 35.8586 31.2905 35.5597C31.2479 35.5597 31.2138 35.4829 31.0946 35.3462C31.6312 35.0303 32.1848 34.8509 32.7811 34.8509C34.4676 34.8509 36.0774 34.4069 37.6957 34.0311C39.3141 33.6553 40.9324 33.2369 42.5422 32.8185C43.0533 32.6818 43.5558 32.4939 44.0499 32.2975C44.2798 32.2121 44.348 31.7681 44.1606 31.6058C43.9647 31.435 43.7603 31.2471 43.5303 31.1276C41.3753 29.932 39.2033 28.7535 37.0484 27.5579C36.6055 27.3103 36.1796 27.2505 35.7111 27.4128C35.1404 27.6092 34.5698 27.78 34.0076 27.9849C31.5971 28.8474 29.1185 29.2403 26.5632 29.2147C24.2379 29.1976 21.9126 29.3001 19.6384 28.6083C19.6384 28.3778 19.8684 28.4034 20.0132 28.4119C22.4918 28.6169 24.9193 28.0703 27.3809 27.9251C29.621 27.7885 31.8782 27.4298 34.0587 26.7979C34.2546 26.7381 34.4846 26.6783 34.442 26.4478C34.4079 26.2855 34.2546 26.0805 34.1013 26.0122C31.1712 24.7313 28.2667 23.3734 25.26 22.2889C24.2038 21.9046 23.2158 21.9387 22.1511 22.3487C19.9536 23.1941 17.6538 23.5271 15.3115 23.5698C14.9878 23.5698 14.6556 23.5015 14.3319 23.4418C14.1786 23.4161 14.119 23.288 14.1616 23.1258C14.1786 23.066 14.2127 23.0062 14.2638 22.9721C14.3745 22.9123 14.5023 22.8269 14.6215 22.8183C17.0235 22.6561 19.3147 21.9302 21.6315 21.4178C21.6656 20.8969 21.2993 20.8371 21.0012 20.7346C18.6674 19.9404 16.3251 19.1719 13.9827 18.3776C13.3524 18.1642 12.688 18.0446 12.1685 17.5834C13.7187 17.5407 15.2092 17.9165 16.6998 18.2325C18.3267 18.5741 19.9365 19.0267 21.5549 19.411C21.7252 19.4537 21.9296 19.3853 22.2789 19.3512C21.4356 17.9763 20.0558 17.1906 19.0933 15.6535C20.9075 16.3196 21.9807 17.4127 22.8836 18.6082C23.6502 19.633 24.5616 20.2479 25.7626 20.6065C27.9431 21.2385 30.0554 22.0583 32.1423 22.9464C32.5681 23.1258 33.0196 23.2539 33.471 23.3734C33.5732 23.3991 33.7521 23.3393 33.8202 23.2539C33.8884 23.177 33.9139 22.9721 33.8543 22.8952C33.5391 22.4682 33.1899 22.0668 32.8748 21.6399C31.2905 19.4964 29.6892 17.3614 27.8664 15.4058C27.7983 15.3289 27.8153 15.1752 27.7898 15.0557C27.909 15.0557 28.0623 14.9873 28.1305 15.0386C28.88 15.6022 29.6466 16.1402 30.3365 16.7551C32.5426 18.7278 34.459 20.9396 35.7708 23.6211C36.0689 24.236 36.4607 24.7398 37.091 25.0729C39.1011 26.1232 41.0943 27.1993 43.0959 28.2582C43.3344 28.3863 43.5814 28.4888 43.8284 28.5656C43.9391 28.5998 44.101 28.5656 44.1947 28.5059C44.3735 28.3607 44.3395 28.1557 44.2373 27.9764C44.1436 27.8056 44.0243 27.6348 43.9221 27.464C42.687 25.3974 41.452 23.3478 40.2425 21.2726C40.0125 20.8798 39.9103 20.4101 39.7485 19.9746C41.8779 21.5374 43.2577 23.7065 44.5269 25.9525C45.1486 27.0455 45.6597 28.1899 46.1963 29.3257C46.7159 30.4273 47.6613 30.9909 48.709 31.4265C48.9645 31.5375 49.2201 31.3838 49.4245 31.1959Z" fill="#00B600"/>
</g>
<defs>
<filter id="filter0_d_24_6612" x="-0.00158691" y="0.00201416" width="164.004" height="170.015" filterUnits="userSpaceOnUse" color-interpolation-filters="sRGB">
<feFlood flood-opacity="0" result="BackgroundImageFix"/>
<feColorMatrix in="SourceAlpha" type="matrix" values="0 0 0 0 0 0 0 0 0 0 0 0 0 0 0 0 0 0 127 0" result="hardAlpha"/>
<feOffset dy="4"/>
<feGaussianBlur stdDeviation="2"/>
<feComposite in2="hardAlpha" operator="out"/>
<feColorMatrix type="matrix" values="0 0 0 0 0 0 0 0 0 0 0 0 0 0 0 0 0 0 0.25 0"/>
<feBlend mode="normal" in2="BackgroundImageFix" result="effect1_dropShadow_24_6612"/>
<feBlend mode="normal" in="SourceGraphic" in2="effect1_dropShadow_24_6612" result="shape"/>
</filter>
</defs>
</svg>
