<svg width="1440" height="900" viewBox="0 0 1440 900" fill="none" xmlns="http://www.w3.org/2000/svg">
<g clip-path="url(#clip0_24_6433)">
<path d="M1440 -3.05176e-05V900H0V-3.05176e-05H1440Z" fill="#A9C4F8"/>
<g style="mix-blend-mode:multiply" opacity="0.15">
<path d="M476.987 156.689C480.768 217.991 496.807 280.228 481.03 340.032C459.804 420.536 380.578 487.608 296.91 519.882C244.216 540.203 190.128 563.596 152.958 603.69C120.32 638.885 104.328 684.426 103.242 729.571C102.447 762.216 106.472 796.725 116.152 829.056C116.667 830.794 117.209 832.515 117.771 834.237C120.588 843.068 123.857 851.717 127.573 860.104C130.786 867.355 134.409 874.465 138.613 881.311C140.206 883.902 148.912 900.003 152.247 900.003H0V394.506C11.1683 383.314 23.5751 373.151 37.4141 364.486C97.0189 327.155 176.152 321.567 236.588 285.305C300.114 247.196 333.839 180.83 355.297 115.671C367.88 77.4222 377.467 38.1125 390.463 0.00299072H529.115C484.323 37.9545 473.53 100.631 476.984 156.692L476.987 156.689Z" fill="#AC9FDE" style="mix-blend-mode:multiply"/>
</g>
<g style="mix-blend-mode:multiply" opacity="0.15">
<path d="M1440 447.638V900H835.467C854.231 885.928 876.606 874.92 899.535 867.61C954.26 850.153 1013.56 848.408 1070.68 838.616C1127.8 828.824 1186.95 808.238 1218.81 765.206C1257.15 713.448 1245.62 645.087 1265.29 585.711C1288.42 515.891 1359.15 460.451 1440 447.638Z" fill="#AC9FDE" style="mix-blend-mode:multiply"/>
</g>
<g style="mix-blend-mode:multiply" opacity="0.15">
<path d="M1440 0.00296021V242.726C1410.02 244.448 1380.25 247.841 1351.21 254.564C1299.92 266.44 1250.5 289.646 1217.9 326.621C1161.19 390.953 1165 482.876 1119.29 553.722C1067.09 634.616 957.8 674.8 852.807 682.386C788.573 687.024 720.289 680.604 667.303 648.175C629.612 625.108 601.978 589.526 591.17 550.148C575.658 493.636 594.571 433.608 625.515 382.295C656.462 330.985 698.947 285.945 735.352 237.512C771.75 189.079 802.796 135.039 806.202 76.9668C807.723 50.9762 802.57 24.08 791.112 0.00296021H1101.58C1102.02 1.7455 1102.43 3.4933 1102.81 5.25163C1113.78 56.5039 1098.13 111.739 1061.13 152.372C1016.87 200.969 947.989 225.917 893.449 265.511C863.934 286.937 838.557 312.802 818.74 341.656C797.338 372.814 782.317 411.305 796.746 445.453C808.503 473.273 837.908 492.728 869.189 503.565C889.933 510.751 912.421 514.855 934.564 512.662C996.146 506.555 1038.87 454.666 1060.03 403.177C1081.19 351.685 1089.49 295.366 1122.04 248.752C1156.82 198.939 1214.97 166.271 1262.42 125.445C1297.85 94.9582 1327.6 59.5967 1363.39 29.4419C1376.04 18.7945 1389.7 8.73408 1404.26 0.00296021H1440Z" fill="#AC9FDE" style="mix-blend-mode:multiply"/>
</g>
</g>
<g opacity="0.64">
<path d="M1447.31 104.919V311.811C1412.99 291.716 1388.6 254.196 1386.67 214.23C1384.55 170.383 1409.62 126.855 1447.31 104.919Z" fill="white"/>
<path d="M1447.31 -14.1286V82.5543C1429.38 65.598 1420.74 38.375 1428.12 14.5877C1431.61 3.36251 1438.47 -6.4753 1447.31 -14.1236V-14.1286Z" fill="white"/>
<path d="M1404.5 105.549C1417.19 92.8473 1417.19 72.2535 1404.5 59.5516C1391.81 46.8497 1371.23 46.8496 1358.54 59.5515C1345.85 72.2534 1345.85 92.8474 1358.54 105.549C1371.23 118.251 1391.81 118.251 1404.5 105.549Z" fill="white"/>
<path d="M1351.12 169.273C1354.1 158.851 1348.08 147.981 1337.67 144.992C1327.25 142.004 1316.39 148.03 1313.41 158.451C1310.42 168.873 1316.44 179.743 1326.85 182.732C1337.27 185.72 1348.13 179.694 1351.12 169.273Z" fill="white"/>
<path d="M1444 773.663V901H1318.23C1318 900.066 1317.91 899.107 1317.98 898.148C1318.44 891.683 1325.5 888.108 1331.56 885.816C1326.88 887.268 1321.91 882.155 1322.68 877.32C1323.46 872.491 1328.67 869.179 1333.54 869.566C1323.57 867.47 1316.36 858.791 1311.29 849.933C1308.72 845.445 1306.42 840.414 1307.13 835.294C1307.79 830.57 1310.94 826.55 1314.52 823.401C1324.88 814.314 1341.1 811.128 1352.74 818.506C1349.89 815.083 1350.35 809.767 1352.78 806.036C1355.2 802.297 1359.16 799.865 1363.16 797.928C1369.18 795.018 1375.75 792.909 1382.42 793.231C1389.09 793.553 1395.86 796.629 1399.47 802.26C1392.81 791.129 1399.25 775.235 1410.96 769.677C1421.47 764.683 1434.33 767.054 1444 773.665L1444 773.663Z" fill="white"/>
</g>
<path d="M-90.1083 967.237L-79.4454 980.405L-79.4454 975.453C-77.0801 976.189 -74.5652 976.252 -71.9037 975.391C-68.8484 974.402 -66.4343 972.374 -64.5495 970.354C-62.635 968.301 -60.8653 965.814 -59.211 963.311C-58.0898 961.615 -57.0118 959.905 -55.9288 958.188C-53.6305 954.543 -51.3094 950.862 -48.5044 947.196C-44.4981 941.959 -40.0459 937.546 -34.6506 934.842L-34.6486 934.842C-32.7839 933.906 -31.543 933.805 -30.7134 933.908C-29.8589 934.013 -28.862 934.407 -27.623 935.395C-24.8736 937.587 -22.2085 941.593 -18.8918 947.106C-18.5408 947.689 -18.1831 948.288 -17.8182 948.899C-15.0041 953.613 -11.7669 959.035 -7.96239 963.337C-3.56224 968.313 2.38222 972.711 10.4404 972.711C18.0407 972.711 23.7161 969.406 28.0681 965.008C32.1077 960.925 35.2399 955.647 37.9198 951.131L38.1051 950.819C41.0107 945.925 43.4538 941.876 46.3537 938.945C49.0346 936.235 51.7988 934.801 55.4511 934.801C59.1033 934.801 61.8675 936.235 64.5485 938.945C67.4483 941.876 69.8914 945.925 72.797 950.819L72.9823 951.131C75.6621 955.647 78.7944 960.925 82.8341 965.008C87.186 969.406 92.8613 972.711 100.462 972.711C108.062 972.711 113.737 969.406 118.089 965.008C122.129 960.925 125.261 955.647 127.941 951.131L128.126 950.819C131.032 945.925 133.475 941.876 136.375 938.945C139.056 936.235 141.82 934.801 145.472 934.801C149.125 934.801 151.889 936.235 154.57 938.945C157.47 941.876 159.913 945.925 162.818 950.819L163.004 951.131C165.683 955.647 168.816 960.925 172.855 965.008C177.207 969.406 182.883 972.711 190.483 972.711C198.083 972.711 203.759 969.406 208.111 965.008C212.15 960.925 215.282 955.647 217.962 951.131L218.148 950.819C221.053 945.925 223.496 941.876 226.396 938.945C229.077 936.235 231.841 934.801 235.494 934.801C239.146 934.801 241.911 936.235 244.594 938.946C247.495 941.877 249.939 945.926 252.846 950.82L253.033 951.136C255.713 955.65 258.845 960.926 262.882 965.007C267.233 969.405 272.906 972.711 280.504 972.711C288.102 972.711 293.775 969.405 298.125 965.006C302.161 960.925 305.291 955.649 307.969 951.134L308.156 950.818C311.061 945.924 313.504 941.875 316.403 938.945C319.084 936.235 321.848 934.801 325.5 934.801C329.152 934.801 331.916 936.235 334.597 938.945C337.497 941.876 339.94 945.925 342.846 950.819L343.031 951.131C345.711 955.647 348.843 960.925 352.883 965.008C357.235 969.406 362.91 972.711 370.511 972.711C378.111 972.711 383.786 969.406 388.138 965.008C392.178 960.925 395.31 955.647 397.99 951.131L398.175 950.819C401.081 945.925 403.524 941.876 406.424 938.945C409.105 936.235 411.869 934.801 415.521 934.801C419.174 934.801 421.938 936.235 424.619 938.945C427.519 941.876 429.962 945.925 432.867 950.819L433.053 951.132C435.733 955.647 438.865 960.925 442.904 965.008C447.256 969.406 452.932 972.711 460.532 972.711C468.132 972.711 473.808 969.406 478.16 965.008C482.199 960.925 485.331 955.647 488.011 951.131L488.197 950.819C491.102 945.925 493.545 941.876 496.445 938.945C499.126 936.235 501.89 934.801 505.543 934.801C509.195 934.801 511.959 936.235 514.64 938.945C517.54 941.876 519.983 945.925 522.889 950.819L523.074 951.132C525.754 955.647 528.886 960.925 532.926 965.008C537.277 969.406 542.953 972.711 550.553 972.711C558.154 972.711 563.829 969.406 568.181 965.008C572.22 960.925 575.353 955.647 578.033 951.131L578.218 950.819C581.123 945.925 583.567 941.876 586.466 938.945C589.147 936.235 591.912 934.801 595.564 934.801C599.216 934.801 601.98 936.235 604.661 938.945C607.561 941.876 610.004 945.925 612.91 950.819L613.095 951.131C615.775 955.647 618.907 960.925 622.947 965.008C627.299 969.406 632.974 972.711 640.574 972.711C648.175 972.711 653.85 969.406 658.202 965.008C662.242 960.925 665.374 955.647 668.054 951.131L668.239 950.819C671.145 945.925 673.588 941.876 676.488 938.945C679.169 936.235 681.933 934.801 685.585 934.801C688.5 934.801 691.8 936.673 695.875 941.378C699.076 945.074 701.989 949.586 705.055 954.335C705.845 955.559 706.645 956.798 707.463 958.043C709.38 960.962 711.396 963.901 713.498 966.428C715.563 968.91 718.007 971.362 720.889 972.972C723.949 974.681 727.619 975.484 731.563 974.302C735.265 973.193 738.39 970.573 741.111 967.206L741.111 967.206C745.736 961.486 746.263 954.829 745.146 948.547C744.063 942.459 741.316 936.003 738.508 929.84C737.862 928.424 737.21 927.017 736.56 925.612C734.266 920.661 731.991 915.751 730.11 910.685C727.716 904.24 726.162 898.038 726.162 892.083C726.162 885.935 727.299 881.555 728.891 878.009C730.534 874.349 732.74 871.366 735.385 867.831L735.516 867.656C738.05 864.27 740.991 860.34 743.217 855.386C745.532 850.232 747 844.174 747 836.41C747 828.647 745.533 822.589 743.217 817.435C740.99 812.479 738.047 808.549 735.511 805.162L735.384 804.992C732.739 801.458 730.533 798.478 728.891 794.822C727.299 791.28 726.162 786.906 726.162 780.765C726.162 774.624 727.299 770.25 728.891 766.708C730.533 763.052 732.739 760.071 735.384 756.537L735.512 756.367C738.047 752.98 740.99 749.05 743.217 744.094C745.533 738.941 747 732.883 747 725.119C747 717.355 745.533 711.297 743.217 706.144C740.99 701.188 738.047 697.257 735.512 693.871L735.384 693.7C732.739 690.166 730.533 687.186 728.891 683.53C727.299 679.988 726.162 675.614 726.162 669.473C726.162 663.332 727.299 658.958 728.891 655.416C730.533 651.76 732.739 648.78 735.384 645.246L735.512 645.075C738.047 641.689 740.99 637.758 743.217 632.802C745.533 627.649 747 621.591 747 613.827C747 606.063 745.532 600.007 743.216 594.855C740.99 589.903 738.049 585.976 735.514 582.592L735.383 582.418C732.738 578.886 730.533 575.907 728.891 572.25C727.299 568.707 726.162 564.33 726.162 558.181C726.162 552.033 727.299 547.655 728.891 544.112C730.533 540.456 732.738 537.477 735.383 533.945L735.514 533.771C738.049 530.387 740.99 526.46 743.216 521.508C745.532 516.356 747 510.299 747 502.536C747 494.772 745.533 488.714 743.217 483.56C740.99 478.604 738.047 474.674 735.512 471.287L735.384 471.117C732.739 467.583 730.533 464.603 728.891 460.947C727.299 457.405 726.162 453.031 726.162 446.89C726.162 440.749 727.299 436.375 728.891 432.833C730.533 429.177 732.739 426.197 735.384 422.663L735.512 422.492C738.047 419.106 740.99 415.175 743.217 410.219C745.533 405.066 747 399.008 747 391.244C747 383.48 745.533 377.425 743.216 372.275C740.989 367.324 738.047 363.4 735.512 360.02L735.382 359.846C732.737 356.318 730.532 353.342 728.89 349.689C727.299 346.149 726.162 341.774 726.162 335.625C726.162 329.477 727.299 325.099 728.891 321.556C730.533 317.9 732.738 314.921 735.383 311.389L735.514 311.214C738.049 307.831 740.99 303.904 743.216 298.952C745.533 293.8 747 287.743 747 279.979C747 272.216 745.533 266.158 743.217 261.004C740.99 256.048 738.047 252.118 735.511 248.731L735.384 248.561C732.739 245.027 730.533 242.047 728.891 238.391C727.299 234.849 726.162 230.475 726.162 224.334C726.162 218.193 727.299 213.819 728.891 210.277C730.533 206.621 732.739 203.64 735.384 200.107L735.511 199.936C738.047 196.55 740.99 192.619 743.217 187.663C745.533 182.51 747 176.452 747 168.688C747 160.924 745.533 154.866 743.217 149.713C740.99 144.757 738.047 140.826 735.511 137.439L735.384 137.269C732.739 133.735 730.533 130.755 728.891 127.099C727.299 123.557 726.162 119.183 726.162 113.042C726.162 106.901 727.299 102.527 728.891 98.9852C730.533 95.3291 732.739 92.3488 735.384 88.8149L735.511 88.6448C738.047 85.258 740.99 81.3277 743.217 76.3715C745.533 71.218 747 65.1601 747 57.3963C747 49.6326 745.533 43.5746 743.217 38.4211C740.99 33.465 738.047 29.5347 735.511 26.1479L735.384 25.9778C732.739 22.4438 730.533 19.4636 728.891 15.8074C727.299 12.2654 726.162 7.89144 726.162 1.75054C726.162 -4.19694 727.715 -10.3941 730.107 -16.8359C731.987 -21.8952 734.258 -26.7993 736.548 -31.7451C737.2 -33.1529 737.854 -34.5641 738.501 -35.9832C741.308 -42.1448 744.052 -48.5999 745.133 -54.6876C746.249 -60.9698 745.72 -67.6255 741.097 -73.3455L741.095 -73.3473C738.372 -76.7137 735.245 -79.333 731.544 -80.4415C727.6 -81.6225 723.93 -80.8199 720.869 -79.1106C717.988 -77.5011 715.544 -75.0484 713.48 -72.5666C711.378 -70.0393 709.363 -67.0996 707.447 -64.1809C706.63 -62.937 705.832 -61.699 705.043 -60.4768C701.977 -55.7261 699.065 -51.2132 695.864 -47.5165C691.791 -42.8133 688.489 -40.9405 685.57 -40.9405C681.913 -40.9405 679.145 -42.3756 676.463 -45.0852C673.561 -48.0159 671.117 -52.0648 668.211 -56.9589C668.148 -57.0639 668.086 -57.1694 668.023 -57.2754C665.343 -61.7898 662.211 -67.0656 658.172 -71.1468C653.82 -75.5452 648.145 -78.85 640.545 -78.85C632.945 -78.85 627.269 -75.5454 622.916 -71.1476C618.875 -67.0652 615.741 -61.7878 613.059 -57.2722C612.997 -57.1676 612.935 -57.0634 612.874 -56.9596C609.966 -52.0653 607.521 -48.0159 604.62 -45.0847C601.937 -42.3745 599.172 -40.9405 595.519 -40.9405C591.867 -40.9405 589.103 -42.3743 586.422 -45.0839C583.522 -48.0147 581.079 -52.0637 578.173 -56.9581L577.987 -57.2711C575.308 -61.7865 572.176 -67.0642 568.136 -71.1467C563.784 -75.5452 558.109 -78.85 550.509 -78.85C542.908 -78.85 537.233 -75.5452 532.881 -71.1467C528.841 -67.0642 525.709 -61.7865 523.03 -57.2711L522.844 -56.9581C519.938 -52.0637 517.495 -48.0147 514.595 -45.0839C511.914 -42.3743 509.15 -40.9405 505.498 -40.9405C501.846 -40.9405 499.081 -42.3743 496.4 -45.0839C493.501 -48.0147 491.058 -52.0637 488.152 -56.9582L487.966 -57.2707C485.287 -61.7863 482.154 -67.0641 478.115 -71.1467C473.763 -75.5452 468.088 -78.85 460.487 -78.85C452.886 -78.85 447.212 -75.5448 442.863 -71.145C438.826 -67.0618 435.697 -61.7835 433.021 -57.2682L432.836 -56.9551C429.934 -52.0605 427.494 -48.0123 424.598 -45.0822C421.92 -42.3739 419.158 -40.9405 415.506 -40.9405C411.854 -40.9405 409.09 -42.3743 406.409 -45.0839C403.509 -48.0147 401.066 -52.0637 398.16 -56.9582L397.975 -57.2707C395.295 -61.7863 392.163 -67.0641 388.123 -71.1467C383.771 -75.5452 378.096 -78.85 370.496 -78.85C362.898 -78.85 357.225 -75.5439 352.875 -71.1454C348.84 -67.0641 345.71 -61.7883 343.032 -57.274L342.844 -56.9574C339.939 -52.0633 337.497 -48.0144 334.597 -45.0838C331.916 -42.3743 329.152 -40.9405 325.5 -40.9405C321.848 -40.9405 319.084 -42.3743 316.403 -45.0839C313.503 -48.0147 311.06 -52.0637 308.154 -56.9582L307.969 -57.2707C305.289 -61.7863 302.157 -67.0641 298.117 -71.1467C293.765 -75.5452 288.09 -78.85 280.489 -78.85C272.889 -78.85 267.214 -75.5452 262.862 -71.1467C258.822 -67.0641 255.69 -61.7864 253.01 -57.2709L252.825 -56.9582C249.919 -52.0637 247.476 -48.0147 244.576 -45.0839C241.895 -42.3743 239.131 -40.9405 235.479 -40.9405C231.826 -40.9405 229.062 -42.3743 226.381 -45.0839C223.482 -48.0147 221.038 -52.0637 218.133 -56.9582L217.947 -57.2707C215.267 -61.7863 212.135 -67.0641 208.096 -71.1467C203.744 -75.5452 198.068 -78.85 190.468 -78.85C182.868 -78.85 177.192 -75.5452 172.84 -71.1467C168.801 -67.0641 165.669 -61.7863 162.989 -57.2707L162.803 -56.9582C159.898 -52.0637 157.455 -48.0147 154.555 -45.0839C151.874 -42.3743 149.11 -40.9405 145.457 -40.9405C141.805 -40.9405 139.041 -42.3743 136.36 -45.0839C133.46 -48.0147 131.017 -52.0637 128.112 -56.9582L127.926 -57.2707C125.246 -61.7863 122.114 -67.0641 118.074 -71.1467C113.723 -75.5452 108.047 -78.8501 100.447 -78.8501C92.8465 -78.8501 87.1711 -75.5452 82.8192 -71.1467C78.7797 -67.0641 75.6475 -61.7863 72.9677 -57.2707L72.7822 -56.9582C69.8766 -52.0637 67.4335 -48.0147 64.5336 -45.0839C61.8527 -42.3743 59.0885 -40.9405 55.4362 -40.9405C51.7839 -40.9405 49.0198 -42.3743 46.3388 -45.0839C43.439 -48.0147 40.9958 -52.0637 38.0903 -56.9582L37.9048 -57.2707C35.2249 -61.7863 32.0928 -67.0641 28.0532 -71.1467C23.7013 -75.5452 18.0259 -78.8501 10.4256 -78.8501C2.8252 -78.8501 -2.8501 -75.5452 -7.20209 -71.1467C-11.2415 -67.0642 -14.3736 -61.7866 -17.0533 -57.2712L-17.2391 -56.9582C-20.1447 -52.0637 -22.5878 -48.0147 -25.4877 -45.0839C-28.1686 -42.3743 -30.9328 -40.9405 -34.5851 -40.9405C-37.4998 -40.9405 -40.8001 -42.8123 -44.8746 -47.5168C-48.0758 -51.2128 -50.9885 -55.7245 -54.0546 -60.4738C-54.8445 -61.6974 -55.6447 -62.9368 -56.4625 -64.182C-58.3795 -67.1008 -60.3956 -70.0404 -62.4982 -72.5676C-64.5629 -75.0492 -67.0069 -77.5015 -69.8885 -79.1107C-72.9487 -80.8197 -76.619 -81.6228 -80.5628 -80.4414C-84.2646 -79.3325 -87.3898 -76.7123 -90.1115 -73.3455C-94.7358 -67.6248 -95.2633 -60.9683 -94.1458 -54.6858C-93.0628 -48.5978 -90.3165 -42.1419 -87.5076 -35.9791C-86.8626 -34.5638 -86.2105 -33.1562 -85.56 -31.752C-83.2662 -26.8007 -80.9915 -21.8906 -79.1097 -16.8245C-76.7159 -10.3793 -75.1617 -4.17695 -75.1617 1.77758C-75.1617 7.92612 -76.2994 12.3037 -77.891 15.8471C-79.5337 19.5045 -81.7387 22.4845 -84.3841 26.0183L-84.5115 26.1886C-87.0473 29.5754 -89.9902 33.506 -92.2172 38.4642C-94.5328 43.6197 -95.9999 49.6808 -95.9999 57.4505C-95.9999 65.2142 -94.5325 71.2722 -92.2169 76.4256C-89.9899 81.3819 -87.0471 85.3123 -84.5114 88.6991L-84.3841 88.869C-81.7386 92.4029 -79.5335 95.3832 -77.8906 99.0393C-76.2991 102.581 -75.1618 106.955 -75.1618 113.096C-75.1618 119.237 -76.2991 123.611 -77.8906 127.153C-79.5335 130.809 -81.7387 133.79 -84.3841 137.323L-84.5114 137.493C-87.0471 140.88 -89.9899 144.811 -92.2169 149.767C-94.5325 154.92 -95.9999 160.978 -95.9999 168.742C-95.9999 176.506 -94.5325 182.562 -92.2164 187.714C-89.9901 192.667 -87.0485 196.594 -84.5138 199.977L-84.3833 200.152C-81.7382 203.683 -79.5335 206.662 -77.8909 210.319C-76.2995 213.862 -75.1618 218.239 -75.1618 224.388C-75.1618 230.529 -76.2991 234.901 -77.8902 238.44C-79.5327 242.094 -81.7374 245.071 -84.3833 248.604L-84.5076 248.77C-87.0444 252.156 -89.989 256.087 -92.2172 261.048C-94.5329 266.203 -96 272.264 -96 280.034C-96 287.797 -94.5325 293.854 -92.2164 299.006C-89.9902 303.958 -87.0486 307.885 -84.514 311.269L-84.3833 311.443C-81.7382 314.975 -79.5335 317.954 -77.8909 321.611C-76.2995 325.153 -75.1618 329.531 -75.1618 335.679C-75.1618 341.828 -76.2994 346.203 -77.8905 349.744C-79.5327 353.398 -81.737 356.374 -84.3824 359.904L-84.5097 360.074C-87.0455 363.458 -89.9892 367.385 -92.2167 372.342C-94.5329 377.496 -96 383.556 -96 391.325C-96 399.095 -94.5329 405.156 -92.2172 410.311C-89.9891 415.271 -87.0446 419.202 -84.5078 422.589L-84.3833 422.755C-81.7374 426.288 -79.5327 429.265 -77.8902 432.919C-76.2991 436.458 -75.1618 440.83 -75.1618 446.971C-75.1618 453.112 -76.2991 457.484 -77.8902 461.023C-79.5327 464.677 -81.7374 467.654 -84.3833 471.187L-84.5078 471.353C-87.0445 474.74 -89.9891 478.671 -92.2172 483.631C-94.5329 488.786 -96 494.847 -96 502.617C-96 510.386 -94.5329 516.448 -92.2172 521.603C-89.9892 526.563 -87.0448 530.493 -84.508 533.88L-84.3833 534.047C-81.7374 537.579 -79.5327 540.557 -77.8902 544.21C-76.2991 547.75 -75.1618 552.122 -75.1618 558.263C-75.1618 564.411 -76.2994 568.787 -77.8905 572.327C-79.5327 575.981 -81.737 578.957 -84.3824 582.488L-84.51 582.658C-87.0457 586.041 -89.9893 589.969 -92.2167 594.925C-94.5329 600.079 -96 606.139 -96 613.908C-96 621.678 -94.5329 627.739 -92.2172 632.894C-89.9892 637.854 -87.0448 641.785 -84.508 645.172L-84.3833 645.338C-81.7374 648.871 -79.5327 651.848 -77.8902 655.502C-76.2991 659.042 -75.1618 663.413 -75.1618 669.554C-75.1618 675.695 -76.2991 680.067 -77.8902 683.606C-79.5327 687.26 -81.7374 690.237 -84.3833 693.77L-84.5069 693.935C-87.044 697.322 -89.9889 701.253 -92.2172 706.214C-94.5329 711.369 -96 717.43 -96 725.2C-96 732.97 -94.5329 739.031 -92.2172 744.186C-89.9891 749.146 -87.0445 753.077 -84.5078 756.464L-84.3833 756.63C-81.7374 760.163 -79.5327 763.14 -77.8902 766.794C-76.2991 770.333 -75.1618 774.705 -75.1618 780.846C-75.1618 786.987 -76.2991 791.359 -77.8902 794.898C-79.5327 798.552 -81.7374 801.529 -84.3833 805.062L-84.5076 805.228C-87.0444 808.614 -89.9891 812.545 -92.2172 817.506C-94.5329 822.661 -96 828.722 -96 836.492C-96 844.261 -94.5329 850.322 -92.2172 855.478C-89.9889 860.438 -87.044 864.37 -84.5069 867.756L-84.3833 867.921C-81.7374 871.454 -79.5328 874.432 -77.8902 878.085C-76.2991 881.625 -75.1618 885.997 -75.1618 892.137C-75.1618 898.085 -76.7156 904.283 -79.1097 910.727C-80.9909 915.791 -83.265 920.7 -85.5583 925.65C-86.2094 927.055 -86.862 928.464 -87.5077 929.881C-90.3165 936.043 -93.0628 942.499 -94.1457 948.585C-95.2632 954.865 -94.7367 961.522 -90.1083 967.237Z" fill="#CDDBFF" stroke="white" stroke-width="12"/>
<path d="M210 -4.00003C204.704 3.36625 195.765 7.93717 186.676 9.1774C178.569 10.2892 169.825 8.89641 163.376 3.8604C164.201 13.276 159.141 22.9653 150.927 27.6791C142.714 32.3954 131.785 31.8988 124.04 26.4461C127.169 28.5632 127.589 33.294 125.788 36.6078C123.994 39.9215 120.575 42.0313 117.111 43.5308C105.74 48.4602 92.2215 48.1768 81.0642 42.7847C86.1926 47.4307 91.3744 52.13 95.2068 57.8903C99.0391 63.6409 101.427 70.6559 100.342 77.482C98.3886 89.768 85.4669 97.9797 73.0112 98.5659C61.5554 99.1061 50.5341 94.6878 40.2311 89.4871C44.6047 92.6094 46.527 99.0237 44.6873 104.22C42.4956 110.375 36.0711 114.427 29.552 114.921C23.0256 115.423 16.5623 112.819 11.3344 108.897C12.5261 117.085 7.3516 125.434 0 129V-4.00003H210Z" fill="white" fill-opacity="0.5"/>
<path d="M52.0044 190.221C63.4837 185.462 68.9349 172.291 64.18 160.802C59.4251 149.313 46.2647 143.858 34.7854 148.616C23.306 153.375 17.8546 166.546 22.6095 178.035C27.3644 189.524 40.525 194.979 52.0044 190.221Z" fill="white"/>
<path d="M673.004 856.22C684.484 851.462 689.935 838.291 685.18 826.802C680.425 815.313 667.265 809.858 655.785 814.616C644.306 819.375 638.855 832.546 643.61 844.035C648.364 855.524 661.525 860.979 673.004 856.22Z" fill="white"/>
<path d="M1374.74 630.613L1383.7 637.286C1384.37 637.789 1385.29 637.797 1385.98 637.312L1395.1 630.84C1396.63 629.751 1398.66 631.261 1398.05 633.043L1394.48 643.641C1394.21 644.437 1394.48 645.316 1395.15 645.819L1404.12 652.492C1405.62 653.614 1404.81 656.01 1402.94 655.991L1391.76 655.867C1390.92 655.858 1390.17 656.39 1389.9 657.188L1386.33 667.786C1385.73 669.569 1383.2 669.538 1382.64 667.745L1379.31 657.07C1379.06 656.267 1378.32 655.718 1377.48 655.709L1366.31 655.585C1364.43 655.564 1363.68 653.151 1365.21 652.062L1374.33 645.59C1375.01 645.104 1375.31 644.232 1375.05 643.428L1371.73 632.753C1371.17 630.96 1373.23 629.495 1374.74 630.617L1374.74 630.613Z" fill="white"/>
<path d="M1383.32 610.417C1388.04 612.006 1393.16 609.463 1394.75 604.736C1396.34 600.01 1393.8 594.89 1389.08 593.301C1384.36 591.713 1379.24 594.256 1377.65 598.982C1376.06 603.709 1378.6 608.828 1383.32 610.417Z" fill="white"/>
<path d="M1367.08 589.348C1370.23 590.409 1373.65 588.711 1374.71 585.555C1375.77 582.4 1374.08 578.982 1370.93 577.921C1367.77 576.86 1364.36 578.558 1363.3 581.714C1362.23 584.869 1363.93 588.287 1367.08 589.348Z" fill="white"/>
<path d="M77.0924 723.957L77.6675 737.576C77.7107 738.6 78.408 739.478 79.3929 739.754L92.508 743.415C94.7126 744.029 94.842 747.109 92.6973 747.908L79.9368 752.665C78.9783 753.022 78.3577 753.958 78.4008 754.982L78.9759 768.601C79.0718 770.889 76.1866 771.964 74.7655 770.17L66.3041 759.492C65.6691 758.688 64.5883 758.389 63.6298 758.746L50.8693 763.503C48.7246 764.302 46.8124 761.889 48.0776 759.979L55.6069 748.623C56.1724 747.769 56.1245 746.648 55.4895 745.845L47.028 735.167C45.607 733.373 47.3084 730.804 49.513 731.42L62.6281 735.081C63.613 735.357 64.665 734.963 65.2306 734.112L72.7598 722.755C74.0251 720.846 76.9918 721.673 77.0876 723.962L77.0924 723.957Z" fill="white"/>
<path d="M43.642 696.384C47.1646 692.858 52.8774 692.858 56.4 696.384C59.9226 699.911 59.9226 705.63 56.4 709.156C52.8774 712.682 47.1646 712.682 43.642 709.156C40.1193 705.63 40.1193 699.911 43.642 696.384Z" fill="white"/>
<path d="M86.9988 700.057C90.3246 700.057 93.0208 697.358 93.0208 694.028C93.0208 690.699 90.3246 688 86.9988 688C83.6729 688 80.9768 690.699 80.9768 694.028C80.9768 697.358 83.6729 700.057 86.9988 700.057Z" fill="white"/>
<path d="M413.484 39.6224C420.276 39.6224 425.782 34.1104 425.782 27.3112C425.782 20.5119 420.276 15 413.484 15C406.692 15 401.186 20.5119 401.186 27.3112C401.186 34.1104 406.692 39.6224 413.484 39.6224Z" fill="white"/>
<path d="M405.298 47.1957C405.298 50.5949 402.545 53.3513 399.149 53.3513C395.753 53.3513 393 50.5949 393 47.1957C393 43.7965 395.753 41.0401 399.149 41.0401C402.545 41.0401 405.298 43.7965 405.298 47.1957Z" fill="white"/>
<defs>
<clipPath id="clip0_24_6433">
<rect width="1440" height="900" fill="white"/>
</clipPath>
</defs>
</svg>
