<svg width="164" height="181" viewBox="0 0 164 181" fill="none" xmlns="http://www.w3.org/2000/svg">
<path d="M142.286 77.4383C148.743 101.65 152.708 126.581 154.233 151.562C154.894 162.18 149.251 168.131 138.575 169.362C113.716 172.286 88.6535 173.363 63.6417 172.645C50.7291 172.286 18.7019 175.569 11.5847 161.411C8.43279 155.153 9.39869 147.612 10.3138 140.944C11.3305 133.659 11.8897 126.581 12.6523 119.245C14.5332 101.496 19.5661 84.1582 25.2598 67.2816C28.8184 56.817 32.7329 46.3012 39.1891 37.3243C47.9839 25.1157 58.8122 20.5503 73.0974 17.9342C99.7359 13.1123 121.138 16.2414 131.357 43.3773C135.525 54.5087 139.185 65.8966 142.236 77.387L142.286 77.4383Z" fill="#6A81B8"/>
<path d="M163.689 136.635C163.485 128.376 163.028 119.912 160.029 112.269C159.673 111.345 159.215 110.319 158.402 109.755C157.436 109.088 156.216 109.14 155.097 109.191C151.691 109.396 148.234 109.601 144.828 109.806L149.2 148.946C153.013 152.434 159.622 151.254 162.164 146.637C163.79 143.662 163.79 140.02 163.689 136.583V136.635Z" fill="#6A81B8"/>
<path d="M162.774 119.604C163.638 119.502 164.146 118.63 163.943 117.809C163.435 115.808 162.825 113.859 162.062 111.961C161.655 110.935 161.147 109.858 160.232 109.191C159.164 108.473 157.792 108.473 156.521 108.575C152.657 108.781 148.743 109.037 144.879 109.242L146.252 121.246C151.793 120.938 157.283 120.322 162.774 119.553V119.604Z" fill="#6A81B8"/>
<path d="M0.248028 136.891C0.451376 128.632 0.908909 120.168 3.90829 112.525C4.26415 111.602 4.72168 110.576 5.53507 110.012C6.50097 109.345 7.72106 109.396 8.83947 109.447C12.2455 109.653 15.7025 109.858 19.1085 110.063L14.7366 149.202C10.9238 152.691 4.36582 151.511 1.77314 146.894C0.146354 143.919 0.146354 140.277 0.248028 136.84V136.891Z" fill="#6A81B8"/>
<path d="M1.21392 119.912C0.349694 119.809 -0.158676 118.937 0.0446719 118.117C0.553041 116.116 1.16308 114.167 1.92564 112.269C2.33233 111.243 2.8407 110.166 3.75577 109.499C4.82335 108.781 6.19594 108.781 7.46687 108.883C11.3305 109.088 15.2449 109.345 19.1085 109.55L17.7359 121.553C12.1947 121.246 6.70431 120.63 1.21392 119.861V119.912Z" fill="#6A81B8"/>
<path d="M139.846 86.0561C146.048 109.909 149.861 134.429 151.285 159.051C151.895 169.516 146.506 175.364 136.288 176.595C112.445 179.467 88.3993 180.545 64.4551 179.826C52.0509 179.467 21.3453 182.75 14.5332 168.746C11.5338 162.591 12.398 155.153 13.3131 148.587C14.3298 141.405 14.7874 134.429 15.5499 127.247C17.3292 109.755 22.1587 92.7247 27.6491 76.0533C31.0552 65.7427 34.8171 55.3807 41.0192 46.5577C49.4582 34.5543 59.8289 30.0402 73.5549 27.4754C99.075 22.7048 119.613 25.7826 129.425 52.5594C133.441 63.5369 136.949 74.7196 139.846 86.0561Z" fill="#6A81B8"/>
<path d="M151.285 159.103C149.81 134.48 145.998 109.96 139.846 86.1075C136.898 74.7709 133.441 63.5882 129.425 52.6107C126.73 45.2753 123.273 39.7353 119.105 35.6828C122.104 44.6597 125.358 53.5341 128.154 62.5623C131.204 72.4112 133.187 82.4654 134.966 92.6221C136.745 102.779 138.27 113.141 138.423 123.451C138.626 136.327 134.254 152.434 122.104 158.846C121.494 159.154 120.935 158.846 120.732 158.333C95.0589 162.078 69.2338 157.359 43.5103 156.897C43.0527 156.897 42.7477 156.64 42.646 156.281C32.1736 155.358 22.2604 150.946 13.7706 144.74C13.6181 146.022 13.4656 147.356 13.2623 148.638C12.3472 155.153 11.483 162.642 14.4823 168.798C21.2945 182.802 52.0509 179.519 64.4042 179.878C88.3993 180.596 112.445 179.519 136.237 176.646C146.455 175.415 151.844 169.567 151.234 159.103H151.285Z" fill="#6A81B8"/>
<path d="M130.441 148.535C131.153 140.995 131.051 133.352 130.187 125.811C129.577 120.528 130.34 113.962 124.9 111.294C123.223 110.473 121.392 110.268 119.562 110.114C114.58 109.704 109.598 109.601 104.616 109.499C84.2815 109.191 63.9467 109.755 43.6628 111.14C38.3249 111.499 36.2914 113.243 35.0713 118.732C33.1395 127.453 32.4786 136.429 32.987 145.355C33.1904 149.1 33.8512 152.998 36.1389 155.82C38.3249 158.538 41.6801 159.769 44.9337 160.693C52.4067 162.847 60.1848 163.719 67.912 164.335C84.3323 165.566 100.905 165.309 117.071 162.232C121.291 161.411 125.917 160.129 128.306 156.384C129.781 154.076 130.187 151.254 130.441 148.484V148.535Z" fill="#6A81B8"/>
<path d="M130.136 125.811C129.628 121.656 130.035 116.629 127.493 113.397C128.459 121.451 129.171 129.607 126.324 137.302C120.122 153.973 101.82 157.615 86.0608 157.666C68.3696 157.666 49.8141 155.974 33.3429 149.151C33.7496 151.613 34.563 153.973 36.0881 155.82C38.2741 158.538 41.6293 159.769 44.8829 160.693C52.3559 162.847 60.134 163.719 67.8612 164.335C84.2815 165.566 100.854 165.31 117.021 162.232C121.24 161.411 125.866 160.129 128.255 156.384C129.73 154.076 130.136 151.254 130.391 148.484C131.102 140.944 131.001 133.3 130.136 125.76V125.811Z" fill="#6A81B8"/>
<path d="M85.1457 162.334C84.6882 162.334 84.2306 162.334 83.7223 162.334L83.4172 162.027L83.7223 161.719C84.2306 161.719 84.739 161.719 85.2982 161.719H86.0608L86.3658 162.027L86.0608 162.334H85.2982H85.1457ZM88.3993 162.283L88.0942 161.975L88.3993 161.667C89.1618 161.667 89.9244 161.667 90.6869 161.667L90.9919 161.975L90.6869 162.283C89.9244 162.283 89.1618 162.283 88.3993 162.283ZM81.4346 162.283C80.6721 162.283 79.9095 162.283 79.1469 162.232L78.8419 161.924L79.1469 161.616C79.9095 161.616 80.6721 161.616 81.4346 161.667L81.7396 161.975L81.4346 162.283ZM93.0254 162.18L92.7204 161.924L92.9746 161.616C93.7371 161.616 94.4997 161.565 95.2622 161.514C95.4148 161.514 95.5673 161.616 95.5673 161.77L95.3131 162.078C94.5505 162.078 93.788 162.129 93.0254 162.18ZM76.8593 162.18C76.0967 162.18 75.3342 162.129 74.5716 162.078L74.3174 161.77L74.6225 161.514C75.385 161.514 76.1476 161.565 76.9101 161.616L77.1643 161.924L76.8593 162.18ZM97.6008 161.924L97.2957 161.667L97.5499 161.36C98.3125 161.36 99.075 161.257 99.8376 161.206L100.143 161.462L99.8884 161.77C99.1259 161.821 98.3633 161.873 97.6008 161.924ZM72.2331 161.924C71.4706 161.924 70.708 161.821 69.9455 161.77L69.6913 161.462L69.9963 161.206C70.7588 161.257 71.5214 161.308 72.284 161.36L72.5381 161.667L72.2331 161.924ZM67.607 161.616C66.8444 161.565 66.0818 161.514 65.3193 161.411L65.0651 161.103L65.3701 160.847C66.1327 160.898 66.8952 161.001 67.6578 161.052L67.912 161.36L67.607 161.616ZM102.227 161.565L101.922 161.308L102.176 161.001C102.939 160.949 103.701 160.847 104.464 160.795L104.769 161.052L104.515 161.36C103.752 161.462 102.989 161.514 102.227 161.616V161.565ZM63.0316 161.257C62.2691 161.206 61.5065 161.103 60.744 161.001L60.4898 160.693L60.7948 160.436C61.5574 160.539 62.3199 160.59 63.0825 160.693L63.3367 161.001L63.0316 161.257ZM106.802 161.103L106.497 160.847L106.751 160.539C107.514 160.436 108.277 160.334 109.039 160.231L109.344 160.488L109.09 160.795C108.327 160.898 107.565 161.001 106.802 161.103ZM58.4055 160.693C57.6429 160.59 56.8804 160.488 56.1178 160.385L55.8636 160.026L56.2195 159.769C56.982 159.872 57.7446 159.975 58.5071 160.077L58.7613 160.385L58.4563 160.642L58.4055 160.693ZM111.378 160.436L111.073 160.18L111.327 159.821C112.089 159.718 112.852 159.564 113.614 159.462C113.767 159.462 113.919 159.564 113.97 159.718L113.716 160.077C112.954 160.231 112.191 160.334 111.428 160.436H111.378ZM53.8301 159.975C53.0676 159.821 52.305 159.667 51.5425 159.513L51.2883 159.154L51.6441 158.949C52.4067 159.103 53.1693 159.257 53.881 159.359L54.1352 159.718L53.8301 159.975ZM115.953 159.667L115.648 159.41L115.902 159.051C116.715 158.897 117.478 158.744 118.139 158.538L118.495 158.744L118.291 159.103C117.58 159.308 116.868 159.462 116.004 159.616H115.953V159.667ZM49.3057 159.051H49.2548C48.4923 158.846 47.7297 158.692 47.018 158.487L46.8146 158.128L47.1705 157.923C47.9331 158.128 48.6448 158.282 49.4073 158.487L49.6107 158.846L49.3057 159.051ZM120.427 158.487L120.172 158.282L120.325 157.923C121.087 157.615 121.748 157.307 122.358 156.948L122.765 157.051L122.663 157.461C122.002 157.82 121.291 158.179 120.528 158.436H120.427V158.487ZM44.8828 157.872H44.7812C43.9678 157.615 43.2561 157.307 42.5952 156.999L42.4427 156.589L42.8494 156.435C43.5102 156.743 44.1711 156.999 44.9845 157.256L45.1879 157.615L44.9337 157.82L44.8828 157.872ZM124.341 156.127L124.138 156.025V155.614C124.646 155.153 125.053 154.691 125.409 154.178L125.612 153.922L126.019 153.819L126.12 154.229L125.917 154.537C125.561 155.101 125.104 155.614 124.595 156.076H124.392L124.341 156.127ZM40.7142 155.922H40.5617C39.9008 155.409 39.2908 154.896 38.7316 154.332V153.922H39.1383C39.6466 154.435 40.2058 154.948 40.8667 155.358L40.9684 155.768L40.7142 155.922ZM37.5623 152.537L37.3081 152.383C36.9523 151.716 36.6473 150.998 36.3422 150.177L36.5456 149.818L36.9014 150.023C37.1556 150.793 37.4606 151.459 37.8165 152.126L37.7148 152.537H37.5623ZM126.832 152.229H126.73L126.527 151.818C126.73 151.152 126.934 150.433 127.086 149.613L127.442 149.356L127.696 149.715C127.544 150.587 127.34 151.306 127.137 152.024L126.883 152.229H126.832ZM36.088 148.125L35.783 147.869C35.6305 147.15 35.5288 146.381 35.478 145.509L35.7322 145.201L36.0372 145.458C36.088 146.278 36.1897 147.048 36.3422 147.766L36.088 148.125ZM127.696 147.663L127.442 147.356C127.544 146.535 127.595 145.765 127.645 144.996L127.95 144.74L128.205 145.047C128.154 145.817 128.052 146.586 128.001 147.356L127.696 147.663ZM35.6305 143.508L35.3255 143.252C35.3255 142.482 35.2747 141.713 35.2238 140.892L35.5288 140.585L35.8339 140.892C35.8339 141.662 35.8339 142.431 35.8847 143.201L35.6305 143.508ZM128.052 142.944L127.798 142.636C127.798 141.867 127.849 141.097 127.9 140.328L128.205 140.02L128.51 140.328C128.51 141.097 128.51 141.867 128.408 142.688L128.103 142.944H128.052ZM35.5288 138.84L35.2238 138.533C35.2238 137.763 35.2238 136.994 35.2747 136.173L35.5797 135.865L35.8847 136.173C35.8847 136.942 35.8847 137.712 35.8339 138.481L35.5288 138.789V138.84ZM128.154 138.327L127.849 138.02C127.849 137.25 127.849 136.481 127.849 135.711L128.154 135.404C128.154 135.404 128.459 135.506 128.459 135.711C128.459 136.481 128.459 137.25 128.459 138.071L128.154 138.379V138.327ZM35.7322 134.172L35.478 133.865C35.5288 133.095 35.5797 132.326 35.6813 131.556L35.9864 131.3L36.2406 131.608C36.1897 132.377 36.088 133.147 36.0372 133.916L35.7322 134.172ZM128.001 133.659L127.696 133.403C127.696 132.634 127.595 131.864 127.544 131.095L127.798 130.787L128.103 131.043C128.154 131.813 128.205 132.582 128.255 133.352L128.001 133.659ZM36.1389 129.556L35.8847 129.248C35.9864 128.479 36.088 127.709 36.1897 126.94L36.5456 126.683L36.7998 127.042C36.6981 127.812 36.5964 128.581 36.4947 129.351L36.1897 129.607L36.1389 129.556ZM127.595 128.991L127.29 128.735C127.239 128.171 127.188 127.658 127.086 127.094C127.086 126.888 127.035 126.632 126.985 126.375L127.239 126.068L127.544 126.324C127.544 126.324 127.544 126.786 127.645 126.991C127.696 127.555 127.798 128.068 127.849 128.632L127.595 128.94V128.991ZM36.7998 124.939L36.5456 124.58C36.6981 123.811 36.8506 123.041 37.0031 122.272L37.359 122.066L37.5623 122.426C37.4098 123.195 37.2573 123.964 37.1048 124.683L36.7998 124.939ZM127.188 124.375L126.883 124.118C126.832 123.349 126.781 122.579 126.679 121.81L126.934 121.502L127.239 121.759C127.34 122.528 127.391 123.349 127.442 124.118L127.188 124.426V124.375ZM37.8165 120.374H37.7657L37.5623 120.015C37.8165 119.143 38.0707 118.424 38.3757 117.758L38.7824 117.604L38.9349 118.014C38.6299 118.63 38.3757 119.296 38.1724 120.168L37.8673 120.374H37.8165ZM126.578 119.758L126.273 119.553C126.069 118.732 125.815 118.065 125.51 117.45L125.612 117.039L126.019 117.142C126.374 117.809 126.629 118.527 126.832 119.399L126.629 119.758H126.578ZM39.9008 116.321L39.6975 116.219V115.808C40.2567 115.244 40.9176 114.834 41.7309 114.526L42.0868 114.68L41.9343 115.039C41.2226 115.347 40.6125 115.706 40.1042 116.219L39.9008 116.321ZM124.392 115.706L124.188 115.603C123.68 115.141 123.07 114.731 122.358 114.372L122.206 113.962L122.613 113.808C123.375 114.167 124.036 114.577 124.595 115.141V115.552L124.392 115.654V115.706ZM44.1203 114.526L43.8153 114.269L44.0694 113.91C44.5778 113.859 45.137 113.756 45.7471 113.756H46.4079L46.713 114.013L46.4588 114.321H45.8487C45.2387 114.423 44.6795 114.475 44.222 114.526H44.1203ZM48.6956 114.167L48.3906 113.91L48.6448 113.602C49.4073 113.602 50.1699 113.5 50.9324 113.449L51.2375 113.705L50.9833 114.013C50.2207 114.013 49.4582 114.115 48.6956 114.167ZM53.3218 113.91L53.0168 113.654L53.2709 113.346C54.0335 113.346 54.796 113.243 55.5586 113.243C55.7619 113.243 55.8636 113.346 55.8636 113.5L55.6094 113.808C54.8469 113.808 54.0843 113.91 53.3218 113.91ZM120.223 113.756H120.172C119.359 113.602 118.546 113.5 117.936 113.449L117.681 113.141L117.986 112.884C118.647 112.936 119.461 113.038 120.325 113.192L120.528 113.551L120.223 113.808V113.756ZM57.9479 113.654L57.6429 113.397L57.8971 113.09C58.6597 113.09 59.4222 113.038 60.1848 112.987C60.3881 112.987 60.4898 113.09 60.4898 113.243L60.2356 113.551C59.473 113.551 58.7105 113.602 57.9479 113.654ZM62.5233 113.449L62.2182 113.192L62.4724 112.884C63.235 112.884 63.9975 112.833 64.7601 112.782C64.9634 112.782 65.0651 112.884 65.0651 113.038L64.7601 113.346C63.9975 113.346 63.235 113.397 62.4724 113.449H62.5233ZM115.648 113.295C114.885 113.243 114.123 113.192 113.36 113.141L113.106 112.833L113.411 112.577C114.174 112.577 114.936 112.679 115.699 112.73L115.953 113.038L115.648 113.295ZM67.1494 113.295L66.8444 112.987L67.1494 112.679C67.912 112.679 68.6745 112.628 69.4371 112.577L69.7421 112.884L69.4371 113.192C68.6745 113.192 67.912 113.192 67.1494 113.295ZM71.7756 113.141L71.4706 112.833L71.7756 112.525C72.5381 112.525 73.3007 112.525 74.0632 112.474L74.3683 112.782L74.0632 113.09C73.3007 113.09 72.5381 113.09 71.7756 113.141ZM111.022 113.038C110.259 113.038 109.497 112.987 108.734 112.987L108.429 112.679L108.734 112.371C109.497 112.371 110.259 112.371 111.022 112.423L111.327 112.73L111.022 113.038ZM76.4017 112.987L76.0967 112.679L76.4017 112.371C77.1643 112.371 77.9268 112.371 78.6894 112.371L78.9944 112.679L78.6894 112.987C77.9268 112.987 77.1643 112.987 76.4017 112.987ZM106.446 112.936C105.684 112.936 104.921 112.936 104.159 112.936L103.854 112.628L104.159 112.32C104.921 112.32 105.684 112.32 106.446 112.32L106.751 112.628L106.446 112.936ZM81.0279 112.884L80.7229 112.577L81.0279 112.269C81.7905 112.269 82.553 112.269 83.3156 112.269L83.6206 112.577L83.3156 112.884C82.553 112.884 81.7905 112.884 81.0279 112.884ZM101.82 112.833C101.058 112.833 100.295 112.833 99.5326 112.833L99.2275 112.525L99.5326 112.217C100.295 112.217 101.058 112.217 101.82 112.217L102.125 112.525L101.82 112.833ZM85.6541 112.833L85.3491 112.525L85.6541 112.217C86.4166 112.217 87.1792 112.217 87.9417 112.217L88.2468 112.525L87.9417 112.833C87.1792 112.833 86.4166 112.833 85.6541 112.833ZM97.1941 112.833C96.4315 112.833 95.6689 112.833 94.9064 112.833L94.6014 112.525L94.9064 112.217C95.6689 112.217 96.4315 112.217 97.1941 112.217L97.4991 112.525L97.1941 112.833ZM90.2802 112.833L89.9752 112.525L90.2802 112.217C91.0428 112.217 91.8053 112.217 92.5679 112.217L92.8729 112.525L92.5679 112.833C91.8053 112.833 91.0428 112.833 90.2802 112.833Z" fill="#6A81B8"/>
<path d="M95.8215 126.119C76.8593 126.119 58.2022 125.708 38.6808 124.836V124.272C68.2679 125.555 95.7707 125.862 125.358 125.195V125.76C115.343 125.965 105.531 126.068 95.8215 126.068V126.119Z" fill="#6A81B8"/>
<path d="M118.749 132.172C118.952 133.659 119.664 134.788 121.392 134.634C122.46 134.532 124.087 134.224 124.189 132.941C124.341 130.889 123.273 128.735 122.155 127.093C121.24 125.76 120.223 124.529 119.562 126.478C119.105 127.76 118.495 130.274 118.749 132.172Z" fill="#6A81B8"/>
<path d="M113.462 64.768C116.309 63.1778 115.699 56.9709 112.852 55.6372C111.733 55.1243 110.513 55.1243 109.293 55.1756C90.6361 55.432 71.9281 55.7398 53.2709 55.9963C51.9492 55.9963 50.5766 56.0476 49.4582 56.7658C47.3738 58.0482 47.8314 62.2032 49.509 63.6395C50.6274 64.5628 52.1525 64.6141 53.576 64.6141C72.6907 64.768 91.7545 64.9732 110.869 65.1271C111.733 65.1271 112.699 65.1271 113.462 64.7167V64.768Z" fill="#6A81B8"/>
<path d="M25.0056 76.1559H24.9039L24.7514 75.7455C25.0056 75.0274 25.2598 74.2579 25.5648 73.5398L25.9207 73.3859L26.0732 73.745C25.819 74.4631 25.5648 75.2326 25.2598 75.9507L25.0056 76.1559ZM26.6324 71.7444H26.5307L26.3782 71.334C26.6324 70.6159 26.9374 69.8464 27.1916 69.1283L27.5474 68.9744L27.6999 69.3334C27.4458 70.0516 27.1407 70.8211 26.8866 71.5392L26.6324 71.7444ZM137.05 67.7432L136.796 67.5381C136.593 66.7686 136.339 66.0505 136.135 65.281L136.339 64.9219L136.694 65.1271C136.898 65.8966 137.152 66.6147 137.355 67.3842L137.152 67.7432H137.05ZM28.2592 67.3842H28.1575L28.005 66.9738C28.31 66.2556 28.5642 65.4862 28.8692 64.768L29.2251 64.6142L29.3776 64.9732C29.0725 65.6914 28.8184 66.4095 28.5133 67.179L28.2592 67.3842ZM135.678 63.2291L135.423 63.024C135.169 62.2545 134.966 61.5364 134.712 60.7669L134.915 60.4078L135.271 60.613C135.525 61.3825 135.728 62.1006 135.983 62.8701L135.779 63.2291H135.678ZM29.9876 62.9727H29.8859L29.7334 62.5623C30.0384 61.8441 30.3435 61.126 30.6485 60.4078L31.0552 60.2539L31.2077 60.6643C30.9027 61.3825 30.5977 62.1006 30.2926 62.8188L30.0384 63.024L29.9876 62.9727ZM134.203 58.7663L133.949 58.5611C133.695 57.843 133.441 57.0735 133.187 56.3554L133.339 55.9963L133.695 56.1502C133.949 56.8684 134.203 57.6378 134.458 58.356L134.254 58.715H134.153L134.203 58.7663ZM31.8177 58.6637H31.7161L31.5636 58.2534C31.8686 57.5352 32.2244 56.8171 32.5295 56.0989L32.9362 55.945L33.0887 56.3554C32.7328 57.0735 32.4278 57.7917 32.1228 58.5099L31.8686 58.6637H31.8177ZM33.8512 54.4061H33.6987L33.5462 53.9957C33.9021 53.2776 34.2579 52.6107 34.6138 51.8926L35.0205 51.79L35.1221 52.2004C34.7663 52.8672 34.4104 53.5854 34.0546 54.3035L33.8004 54.4574L33.8512 54.4061ZM132.627 54.3548L132.373 54.1496C132.119 53.4315 131.814 52.7133 131.509 51.9952L131.662 51.6361L132.068 51.79C132.373 52.5081 132.627 53.2263 132.932 53.9957L132.78 54.3548H132.678H132.627ZM36.0372 50.2511H35.8847L35.783 49.7894C36.1897 49.1226 36.5456 48.4044 36.9523 47.7376L37.359 47.635L37.4606 48.0453C37.0539 48.7122 36.6981 49.379 36.2914 50.0972L36.0372 50.2511ZM130.848 49.9946L130.594 49.8407C130.289 49.1226 129.984 48.4044 129.628 47.6863L129.781 47.2759L130.187 47.4298C130.543 48.1479 130.848 48.8661 131.153 49.5842L131.001 49.9946H130.899H130.848ZM38.4265 46.1986H38.274L38.1724 45.737C38.5791 45.0701 39.0366 44.4033 39.4941 43.7877H39.9008L39.9517 44.1468C39.4941 44.7623 39.0874 45.4292 38.6807 46.0961L38.4265 46.2499V46.1986ZM128.865 45.7883L128.611 45.6344C128.255 44.9162 127.9 44.2494 127.544 43.5825L127.645 43.1721L128.052 43.2747C128.408 43.9416 128.815 44.6597 129.171 45.3779L129.018 45.7883H128.865ZM41.0701 42.3514H40.9176L40.8667 41.8897C41.3243 41.2742 41.8326 40.6073 42.2902 40.0431H42.6968V40.4021C42.2393 41.0177 41.7309 41.6332 41.2734 42.2488L41.0192 42.3514H41.0701ZM126.629 41.6332L126.374 41.4794C125.968 40.8125 125.561 40.1456 125.154 39.4788L125.256 39.0684L125.663 39.171C126.069 39.8379 126.476 40.5047 126.883 41.1716L126.781 41.582H126.629V41.6332ZM44.0186 38.7093H43.8153V38.1964C44.3236 37.5808 44.8828 37.0165 45.3912 36.4523H45.7979V36.8627C45.2895 37.4269 44.7303 37.9912 44.222 38.5554L44.0186 38.658V38.7093ZM124.036 37.7347L123.782 37.6321C123.324 36.9653 122.867 36.3497 122.409 35.7341V35.3238H122.867C123.324 35.9393 123.833 36.5549 124.29 37.2217V37.6321L124.036 37.6834V37.7347ZM47.2213 35.3238L47.018 35.2212V34.8108C47.5772 34.2465 48.1872 33.7336 48.7465 33.2206H49.1531V33.6823C48.5939 34.1952 47.9839 34.7082 47.4247 35.2212L47.2213 35.3238ZM121.189 33.99L120.986 33.8875C120.477 33.2719 119.969 32.7076 119.461 32.1434V31.733H119.867C120.376 32.2973 120.935 32.9128 121.443 33.4771V33.8875L121.24 33.9387L121.189 33.99ZM50.7799 32.246L50.5257 32.1434V31.733C50.7799 31.5791 51.0341 31.3739 51.2375 31.22C51.6442 30.9122 52.0508 30.6045 52.4575 30.348H52.8642L52.8134 30.8096C52.4067 31.1174 52 31.3739 51.5933 31.6817C51.39 31.8356 51.1358 32.0408 50.9324 32.1947H50.7291L50.7799 32.246ZM117.986 30.5532L117.783 30.4506C117.224 29.9376 116.665 29.3733 116.105 28.8604V28.45H116.512C117.071 28.963 117.681 29.5272 118.241 30.0402V30.4506L118.037 30.5532H117.986ZM54.5927 29.5785L54.3385 29.4246L54.4402 29.0143C55.1011 28.6039 55.7619 28.1935 56.4737 27.8344L56.8804 27.937L56.7787 28.3474C56.1178 28.7065 55.4061 29.1169 54.796 29.5272H54.6435L54.5927 29.5785ZM114.529 27.4754H114.326C113.716 26.9111 113.106 26.4494 112.445 26.0391L112.343 25.6287L112.75 25.5261C113.411 25.9878 114.021 26.4494 114.631 26.9111V27.3215L114.428 27.4241L114.529 27.4754ZM58.6597 27.3215L58.4055 27.1676L58.558 26.7572C59.2697 26.3981 59.9814 26.0904 60.6931 25.7826L61.0998 25.9365L60.9473 26.3468C60.2356 26.6546 59.5239 27.0137 58.863 27.3215H58.7105H58.6597ZM62.93 25.4235L62.6758 25.2183L62.8283 24.8592C63.54 24.5515 64.3026 24.295 65.0143 24.0385L65.3701 24.2437L65.1668 24.6028C64.4551 24.8592 63.6925 25.1157 62.9808 25.4235H62.8791H62.93ZM110.666 24.8079H110.513C109.852 24.3976 109.141 24.0385 108.48 23.7307L108.327 23.3203L108.734 23.1664C109.446 23.4742 110.157 23.8846 110.818 24.2437L110.92 24.654L110.666 24.8079ZM67.3528 23.8846L67.0986 23.6794L67.3019 23.3203C68.0137 23.1152 68.7762 22.8587 69.5388 22.7048L69.8946 22.91L69.6913 23.269C68.9287 23.4742 68.1662 23.6794 67.4545 23.8846H67.3528ZM106.446 22.8587H106.345C105.633 22.5509 104.87 22.3457 104.159 22.1405L103.955 21.7814L104.311 21.5762C105.074 21.7814 105.836 22.0379 106.548 22.2944L106.701 22.6535L106.446 22.8587ZM71.8773 22.7048L71.5722 22.4996L71.7756 22.1405C72.5381 21.9866 73.3007 21.8327 74.0633 21.6788L74.4191 21.9353L74.1649 22.2944C73.4024 22.4483 72.6398 22.6022 71.8773 22.7561H71.8264L71.8773 22.7048ZM76.4526 21.8327L76.1476 21.5762L76.4018 21.2172C77.1643 21.1146 77.9269 20.9607 78.7403 20.8581L79.0453 21.1146L78.7911 21.4224C78.0285 21.525 77.266 21.6275 76.5034 21.7814L76.4526 21.8327ZM101.922 21.5762C101.21 21.4224 100.448 21.2685 99.6342 21.1659L99.3801 20.8068L99.7359 20.5503C100.549 20.6529 101.312 20.8068 102.024 20.9607L102.227 21.3198L101.922 21.5762ZM81.0788 21.2172L80.7737 20.9607L81.0279 20.6529C81.7905 20.5503 82.553 20.499 83.2647 20.4477H83.3156L83.6206 20.7042L83.3664 21.012H83.3156C82.553 21.0633 81.8413 21.1659 81.0788 21.2172ZM97.3466 20.8581C96.584 20.8068 95.8215 20.7042 95.0589 20.7042L94.8047 20.3964C94.8047 20.3964 94.9064 20.0886 95.1097 20.1399C95.9231 20.1399 96.6857 20.2425 97.4483 20.2938L97.7024 20.6016L97.3974 20.8581H97.3466ZM85.7049 20.8068L85.3999 20.5503L85.6541 20.2425C86.4166 20.2425 87.23 20.1399 87.9926 20.0886L88.2976 20.3451L88.0434 20.6529C87.2809 20.6529 86.5183 20.7555 85.7049 20.8068ZM90.3819 20.6016L90.0769 20.2938L90.3819 19.9861C91.1445 19.9861 91.9579 19.9861 92.7204 19.9861L93.0254 20.2938L92.7204 20.6016C91.9579 20.6016 91.1953 20.6016 90.3819 20.6016Z" fill="#6A81B8"/>
<path d="M67.8612 22.397C67.0986 19.9348 66.5394 17.4725 66.1327 14.9077C66.031 14.2408 65.9294 13.6766 65.8785 12.9584C65.8277 12.2916 65.726 11.5221 65.8277 10.6501C65.8785 9.82932 66.1327 8.80338 66.5394 7.93134C66.9461 7.0593 67.5561 6.28985 68.217 5.67429C69.4879 4.44317 70.9114 3.77631 72.1823 3.21205C72.8432 2.95556 73.4532 2.75038 74.0633 2.54519C74.6733 2.34 75.2834 2.13482 75.8934 1.98093C78.3844 1.26277 80.9263 0.749806 83.5189 0.390729C86.1116 0.082949 88.7043 -0.070941 91.297 0.0316523C91.9579 0.0316523 92.5679 0.082949 93.2796 0.134246C93.9914 0.185542 94.8047 0.288136 95.7198 0.595916C96.1773 0.749806 96.6857 0.954992 97.1432 1.26277C97.6008 1.57055 98.0583 1.92963 98.4142 2.28871C99.1259 3.05816 99.5326 3.82761 99.8884 4.59706C101.109 7.36708 101.414 10.3423 101.261 13.0097C101.058 15.7284 100.498 18.242 99.8376 20.6529C99.5834 21.6275 98.5667 22.1918 97.6008 21.9353C96.7366 21.6788 96.2282 20.8581 96.279 20.0374C96.4824 17.5751 96.6857 15.2155 96.584 12.9584C96.4824 10.7014 96.0248 8.64949 95.1606 6.9567C94.9573 6.54633 94.7539 6.28985 94.6014 6.18725L94.4489 6.08466L94.1947 5.98207C94.1947 5.98207 93.5338 5.87947 93.0254 5.82818C92.4662 5.82818 91.8562 5.82818 91.297 5.82818C88.9585 5.82818 86.6708 5.93077 84.3832 6.23855C82.0955 6.49503 79.8078 6.9567 77.571 7.52097C77.0118 7.67486 76.4526 7.82875 75.8934 7.98264C75.3342 8.13653 74.775 8.29042 74.3175 8.4956C73.3516 8.85468 72.4873 9.26505 71.9281 9.72672C71.6739 9.93191 71.4706 10.1884 71.3181 10.3936C71.1656 10.5988 71.0639 10.8552 71.0131 11.2143C70.9622 11.5734 70.9114 12.0864 70.9114 12.5993C70.9114 13.1636 70.9114 13.7792 70.9622 14.3434C71.0639 16.7544 71.2672 19.114 71.5214 21.525C71.6231 22.5509 70.9114 23.4742 69.8946 23.5768C69.0304 23.6794 68.217 23.1152 67.9628 22.2944L67.8612 22.397Z" fill="#6A81B8"/>
<path d="M33.7496 84.4147C36.5965 72.1035 41.2226 60.3565 47.5264 49.4816C48.4923 47.8402 45.9505 46.3525 45.0354 47.994C38.5791 59.1254 33.8513 71.1288 30.9536 83.6452C30.5469 85.4919 33.3429 86.2614 33.7496 84.4147Z" fill="#6A81B8"/>
<path d="M51.8984 44.2494C52.4576 43.5825 53.0168 42.967 53.576 42.3001C54.0844 41.7359 54.186 40.7612 53.576 40.197C53.0168 39.684 52.0509 39.5814 51.4917 40.197C50.9325 40.8638 50.3733 41.4794 49.8141 42.1462C49.3057 42.7105 49.204 43.6851 49.8141 44.2494C50.3733 44.7624 51.3392 44.865 51.8984 44.2494Z" fill="#6A81B8"/>
<path d="M6.2468 115.706C6.45015 114.936 6.90768 114.218 7.51772 113.756C8.12777 113.295 8.48363 112.474 8.02609 111.756C7.67023 111.14 6.6535 110.781 6.04345 111.243C4.77253 112.166 3.85746 113.397 3.39993 114.936C2.89156 116.732 5.68759 117.552 6.19596 115.706H6.2468Z" fill="#6A81B8"/>
<path d="M43.0019 147.715C42.5952 142.021 42.5952 136.378 43.0019 130.684C43.1544 128.786 40.2059 128.786 40.1042 130.684C39.6975 136.378 39.6975 142.021 40.1042 147.715C40.2567 149.613 43.1544 149.613 43.0019 147.715Z" fill="#6A81B8"/>
</svg>
