<svg width="164" height="182" viewBox="0 0 164 182" fill="none" xmlns="http://www.w3.org/2000/svg">
<path d="M142.293 78.3554C148.749 102.567 152.714 127.498 154.239 152.479C154.9 163.097 149.257 169.048 138.581 170.279C113.722 173.203 88.6595 174.28 63.6478 173.562C50.7352 173.203 18.7079 176.486 11.5907 162.328C8.43883 156.07 9.40473 148.529 10.3198 141.861C11.3365 134.576 11.8957 127.498 12.6583 120.162C14.5393 102.413 19.5721 85.0752 25.2659 68.1986C28.8244 57.7341 32.7389 47.2183 39.1952 38.2414C47.99 26.0328 58.8182 21.4674 73.1034 18.8512C99.742 14.0293 121.144 17.1584 131.363 44.2944C135.531 55.4257 139.191 66.8136 142.242 78.3041L142.293 78.3554Z" fill="#BF007B"/>
<path d="M163.695 137.552C163.492 129.293 163.034 120.829 160.035 113.186C159.679 112.262 159.221 111.237 158.408 110.672C157.442 110.005 156.222 110.057 155.104 110.108C151.697 110.313 148.241 110.518 144.834 110.724L149.206 149.863C153.019 153.351 159.628 152.171 162.17 147.555C163.797 144.579 163.797 140.937 163.695 137.5V137.552Z" fill="#F9C978"/>
<path d="M162.78 120.521C163.644 120.419 164.152 119.547 163.949 118.726C163.441 116.725 162.831 114.776 162.068 112.878C161.661 111.852 161.153 110.775 160.238 110.108C159.17 109.39 157.798 109.39 156.527 109.492C152.663 109.698 148.749 109.954 144.885 110.159L146.258 122.163C151.799 121.855 157.289 121.239 162.78 120.47V120.521Z" fill="#BA97C1"/>
<path d="M0.254132 137.808C0.45748 129.549 0.915012 121.085 3.91439 113.442C4.27025 112.519 4.72778 111.493 5.54117 110.929C6.50708 110.262 7.72716 110.313 8.84558 110.364C12.2517 110.57 15.7086 110.775 19.1146 110.98L14.7427 150.119C10.9299 153.608 4.37192 152.428 1.77924 147.811C0.152458 144.836 0.152458 141.194 0.254132 137.757V137.808Z" fill="#F9C978"/>
<path d="M1.22003 120.829C0.355797 120.726 -0.152572 119.854 0.0507754 119.034C0.559145 117.033 1.16919 115.084 1.93174 113.186C2.33844 112.16 2.84681 111.083 3.76187 110.416C4.82945 109.698 6.20205 109.698 7.47297 109.8C11.3366 110.005 15.251 110.262 19.1146 110.467L17.742 122.47C12.2008 122.163 6.71042 121.547 1.22003 120.778V120.829Z" fill="#BA97C1"/>
<path d="M139.852 86.9732C146.054 110.826 149.867 135.346 151.291 159.968C151.901 170.433 146.512 176.281 136.294 177.512C112.451 180.384 88.4054 181.462 64.4612 180.744C52.057 180.384 21.3514 183.667 14.5393 169.663C11.5399 163.508 12.4041 156.07 13.3192 149.504C14.3359 142.322 14.7935 135.346 15.556 128.164C17.3353 110.672 22.1648 93.6418 27.6552 76.9704C31.0613 66.6597 34.8232 56.2978 41.0253 47.4748C49.4643 35.4713 59.835 30.9572 73.561 28.3924C99.0811 23.6218 119.619 26.6996 129.431 53.4765C133.447 64.454 136.955 75.6366 139.852 86.9732Z" fill="#FF97DA"/>
<path d="M151.291 160.02C149.816 135.397 146.004 110.877 139.852 87.0245C136.904 75.6879 133.447 64.5053 129.431 53.5278C126.737 46.1924 123.28 40.6523 119.111 36.5999C122.11 45.5768 125.364 54.4511 128.16 63.4793C131.21 73.3283 133.193 83.3824 134.972 93.5392C136.751 103.696 138.277 114.058 138.429 124.368C138.632 137.244 134.26 153.351 122.11 159.763C121.5 160.071 120.941 159.763 120.738 159.25C95.0651 162.995 69.2399 158.276 43.5164 157.814C43.0589 157.814 42.7539 157.557 42.6522 157.198C32.1798 156.275 22.2666 151.863 13.7768 145.657C13.6243 146.939 13.4718 148.273 13.2684 149.555C12.3534 156.07 11.4891 163.559 14.4885 169.715C21.3007 183.719 52.057 180.436 64.4104 180.795C88.4054 181.513 112.451 180.436 136.243 177.563C146.461 176.332 151.85 170.484 151.24 160.02H151.291Z" fill="#EA66C5"/>
<path d="M130.448 149.453C131.159 141.912 131.058 134.269 130.193 126.728C129.583 121.445 130.346 114.879 124.906 112.211C123.229 111.39 121.399 111.185 119.568 111.031C114.586 110.621 109.604 110.518 104.622 110.416C84.2876 110.108 63.9528 110.672 43.6689 112.057C38.331 112.416 36.2975 114.16 35.0774 119.649C33.1456 128.37 32.4847 137.347 32.9931 146.272C33.1965 150.017 33.8573 153.915 36.145 156.737C38.331 159.455 41.6862 160.686 44.9398 161.61C52.4128 163.764 60.1909 164.636 67.9181 165.252C84.3384 166.483 100.911 166.227 117.077 163.149C121.297 162.328 125.923 161.046 128.312 157.301C129.787 154.993 130.193 152.171 130.448 149.401V149.453Z" fill="#F9C978"/>
<path d="M130.143 126.728C129.634 122.573 130.041 117.546 127.499 114.314C128.465 122.368 129.177 130.524 126.33 138.219C120.128 154.89 101.826 158.532 86.0669 158.583C68.3757 158.583 49.8202 156.891 33.349 150.068C33.7557 152.53 34.5691 154.89 36.0942 156.737C38.2802 159.455 41.6354 160.687 44.889 161.61C52.362 163.764 60.1401 164.636 67.8673 165.252C84.2876 166.483 100.86 166.227 117.027 163.149C121.246 162.328 125.872 161.046 128.262 157.301C129.736 154.993 130.143 152.171 130.397 149.401C131.108 141.861 131.007 134.217 130.143 126.677V126.728Z" fill="#F8AC50"/>
<path d="M85.1519 163.251C84.6943 163.251 84.2368 163.251 83.7284 163.251L83.4234 162.944L83.7284 162.636C84.2368 162.636 84.7452 162.636 85.3044 162.636H86.0669L86.3719 162.944L86.0669 163.251H85.3044H85.1519ZM88.4054 163.2L88.1004 162.892L88.4054 162.585C89.168 162.585 89.9305 162.585 90.6931 162.585L90.9981 162.892L90.6931 163.2C89.9305 163.2 89.168 163.2 88.4054 163.2ZM81.4408 163.2C80.6782 163.2 79.9157 163.2 79.1531 163.149L78.8481 162.841L79.1531 162.533C79.9157 162.533 80.6782 162.533 81.4408 162.585L81.7458 162.892L81.4408 163.2ZM93.0316 163.097L92.7266 162.841L92.9808 162.533C93.7433 162.533 94.5059 162.482 95.2684 162.431C95.4209 162.431 95.5734 162.533 95.5734 162.687L95.3193 162.995C94.5567 162.995 93.7941 163.046 93.0316 163.097ZM76.8654 163.097C76.1029 163.097 75.3403 163.046 74.5778 162.995L74.3236 162.687L74.6286 162.431C75.3912 162.431 76.1537 162.482 76.9163 162.533L77.1705 162.841L76.8654 163.097ZM97.6069 162.841L97.3019 162.585L97.5561 162.277C98.3186 162.277 99.0812 162.174 99.8437 162.123L100.149 162.379L99.8946 162.687C99.132 162.738 98.3695 162.79 97.6069 162.841ZM72.2393 162.841C71.4767 162.841 70.7142 162.738 69.9516 162.687L69.6974 162.379L70.0025 162.123C70.765 162.174 71.5276 162.225 72.2901 162.277L72.5443 162.585L72.2393 162.841ZM67.6131 162.533C66.8506 162.482 66.088 162.431 65.3255 162.328L65.0713 162.02L65.3763 161.764C66.1388 161.815 66.9014 161.918 67.664 161.969L67.9181 162.277L67.6131 162.533ZM102.233 162.482L101.928 162.225L102.182 161.918C102.945 161.866 103.707 161.764 104.47 161.712L104.775 161.969L104.521 162.277C103.758 162.379 102.996 162.431 102.233 162.533V162.482ZM63.0378 162.174C62.2752 162.123 61.5127 162.02 60.7501 161.918L60.4959 161.61L60.801 161.353C61.5635 161.456 62.3261 161.507 63.0886 161.61L63.3428 161.918L63.0378 162.174ZM106.808 162.02L106.503 161.764L106.758 161.456C107.52 161.353 108.283 161.251 109.045 161.148L109.35 161.405L109.096 161.712C108.334 161.815 107.571 161.918 106.808 162.02ZM58.4116 161.61C57.6491 161.507 56.8865 161.405 56.124 161.302L55.8698 160.943L56.2256 160.687C56.9882 160.789 57.7508 160.892 58.5133 160.994L58.7675 161.302L58.4625 161.559L58.4116 161.61ZM111.384 161.353L111.079 161.097L111.333 160.738C112.095 160.635 112.858 160.481 113.621 160.379C113.773 160.379 113.926 160.481 113.976 160.635L113.722 160.994C112.96 161.148 112.197 161.251 111.435 161.353H111.384ZM53.8363 160.892C53.0738 160.738 52.3112 160.584 51.5486 160.43L51.2945 160.071L51.6503 159.866C52.4129 160.02 53.1754 160.174 53.8871 160.276L54.1413 160.635L53.8363 160.892ZM115.959 160.584L115.654 160.327L115.908 159.968C116.722 159.814 117.484 159.661 118.145 159.455L118.501 159.661L118.298 160.02C117.586 160.225 116.874 160.379 116.01 160.533H115.959V160.584ZM49.3118 159.968H49.261C48.4984 159.763 47.7359 159.609 47.0242 159.404L46.8208 159.045L47.1767 158.84C47.9392 159.045 48.6509 159.199 49.4135 159.404L49.6168 159.763L49.3118 159.968ZM120.433 159.404L120.179 159.199L120.331 158.84C121.094 158.532 121.754 158.224 122.365 157.865L122.771 157.968L122.67 158.378C122.009 158.737 121.297 159.096 120.534 159.353H120.433V159.404ZM44.889 158.789H44.7873C43.9739 158.532 43.2622 158.224 42.6013 157.917L42.4488 157.506L42.8555 157.352C43.5164 157.66 44.1773 157.917 44.9907 158.173L45.194 158.532L44.9398 158.737L44.889 158.789ZM124.347 157.044L124.144 156.942V156.531C124.652 156.07 125.059 155.608 125.415 155.095L125.618 154.839L126.025 154.736L126.126 155.146L125.923 155.454C125.567 156.019 125.11 156.531 124.601 156.993H124.398L124.347 157.044ZM40.7204 156.839H40.5679C39.907 156.326 39.2969 155.813 38.7377 155.249V154.839H39.1444C39.6528 155.352 40.212 155.865 40.8729 156.275L40.9746 156.685L40.7204 156.839ZM37.5685 153.454L37.3143 153.3C36.9584 152.633 36.6534 151.915 36.3484 151.094L36.5517 150.735L36.9076 150.94C37.1618 151.71 37.4668 152.376 37.8227 153.043L37.721 153.454H37.5685ZM126.838 153.146H126.736L126.533 152.736C126.736 152.069 126.94 151.351 127.092 150.53L127.448 150.273L127.702 150.632C127.55 151.504 127.347 152.223 127.143 152.941L126.889 153.146H126.838ZM36.0942 149.042L35.7892 148.786C35.6367 148.068 35.535 147.298 35.4842 146.426L35.7384 146.118L36.0434 146.375C36.0942 147.196 36.1959 147.965 36.3484 148.683L36.0942 149.042ZM127.702 148.581L127.448 148.273C127.55 147.452 127.601 146.683 127.652 145.913L127.957 145.657L128.211 145.964C128.16 146.734 128.058 147.503 128.007 148.273L127.702 148.581ZM35.6367 144.425L35.3317 144.169C35.3317 143.4 35.2808 142.63 35.23 141.809L35.535 141.502L35.84 141.809C35.84 142.579 35.84 143.348 35.8909 144.118L35.6367 144.425ZM128.058 143.861L127.804 143.553C127.804 142.784 127.855 142.015 127.906 141.245L128.211 140.937L128.516 141.245C128.516 142.015 128.516 142.784 128.414 143.605L128.109 143.861H128.058ZM35.535 139.757L35.23 139.45C35.23 138.68 35.23 137.911 35.2808 137.09L35.5858 136.782L35.8909 137.09C35.8909 137.86 35.8909 138.629 35.84 139.398L35.535 139.706V139.757ZM128.16 139.245L127.855 138.937C127.855 138.167 127.855 137.398 127.855 136.628L128.16 136.321C128.16 136.321 128.465 136.423 128.465 136.628C128.465 137.398 128.465 138.167 128.465 138.988L128.16 139.296V139.245ZM35.7384 135.089L35.4842 134.782C35.535 134.012 35.5858 133.243 35.6875 132.473L35.9925 132.217L36.2467 132.525C36.1959 133.294 36.0942 134.064 36.0434 134.833L35.7384 135.089ZM128.007 134.577L127.702 134.32C127.702 133.551 127.601 132.781 127.55 132.012L127.804 131.704L128.109 131.96C128.16 132.73 128.211 133.499 128.262 134.269L128.007 134.577ZM36.145 130.473L35.8909 130.165C35.9925 129.396 36.0942 128.626 36.1959 127.857L36.5517 127.6L36.8059 127.959C36.7043 128.729 36.6026 129.498 36.5009 130.268L36.1959 130.524L36.145 130.473ZM127.601 129.909L127.296 129.652C127.245 129.088 127.194 128.575 127.092 128.011C127.092 127.805 127.042 127.549 126.991 127.292L127.245 126.985L127.55 127.241C127.55 127.241 127.55 127.703 127.652 127.908C127.702 128.472 127.804 128.985 127.855 129.549L127.601 129.857V129.909ZM36.8059 125.856L36.5517 125.497C36.7043 124.728 36.8568 123.958 37.0093 123.189L37.3651 122.983L37.5685 123.343C37.416 124.112 37.2635 124.881 37.1109 125.6L36.8059 125.856ZM127.194 125.292L126.889 125.035C126.838 124.266 126.787 123.496 126.686 122.727L126.94 122.419L127.245 122.676C127.347 123.445 127.397 124.266 127.448 125.035L127.194 125.343V125.292ZM37.8227 121.291H37.7718L37.5685 120.932C37.8227 120.06 38.0769 119.341 38.3819 118.675L38.7886 118.521L38.9411 118.931C38.6361 119.547 38.3819 120.213 38.1785 121.086L37.8735 121.291H37.8227ZM126.584 120.675L126.279 120.47C126.076 119.649 125.821 118.982 125.516 118.367L125.618 117.956L126.025 118.059C126.381 118.726 126.635 119.444 126.838 120.316L126.635 120.675H126.584ZM39.907 117.238L39.7036 117.136V116.725C40.2628 116.161 40.9237 115.751 41.7371 115.443L42.093 115.597L41.9405 115.956C41.2287 116.264 40.6187 116.623 40.1103 117.136L39.907 117.238ZM124.398 116.623L124.195 116.52C123.686 116.058 123.076 115.648 122.365 115.289L122.212 114.879L122.619 114.725C123.381 115.084 124.042 115.494 124.601 116.058V116.469L124.398 116.571V116.623ZM44.1264 115.443L43.8214 115.186L44.0756 114.827C44.584 114.776 45.1432 114.673 45.7532 114.673H46.4141L46.7191 114.93L46.4649 115.238H45.8549C45.2449 115.34 44.6857 115.392 44.2281 115.443H44.1264ZM48.7018 115.084L48.3968 114.827L48.6509 114.52C49.4135 114.52 50.176 114.417 50.9386 114.366L51.2436 114.622L50.9894 114.93C50.2269 114.93 49.4643 115.032 48.7018 115.084ZM53.3279 114.827L53.0229 114.571L53.2771 114.263C54.0396 114.263 54.8022 114.16 55.5648 114.16C55.7681 114.16 55.8698 114.263 55.8698 114.417L55.6156 114.725C54.853 114.725 54.0905 114.827 53.3279 114.827ZM120.229 114.673H120.179C119.365 114.52 118.552 114.417 117.942 114.366L117.688 114.058L117.993 113.801C118.653 113.853 119.467 113.955 120.331 114.109L120.534 114.468L120.229 114.725V114.673ZM57.9541 114.571L57.6491 114.314L57.9033 114.007C58.6658 114.007 59.4284 113.955 60.1909 113.904C60.3943 113.904 60.4959 114.007 60.4959 114.16L60.2418 114.468C59.4792 114.468 58.7167 114.52 57.9541 114.571ZM62.5294 114.366L62.2244 114.109L62.4786 113.801C63.2411 113.801 64.0037 113.75 64.7662 113.699C64.9696 113.699 65.0713 113.801 65.0713 113.955L64.7662 114.263C64.0037 114.263 63.2411 114.314 62.4786 114.366H62.5294ZM115.654 114.212C114.891 114.16 114.129 114.109 113.366 114.058L113.112 113.75L113.417 113.494C114.18 113.494 114.942 113.596 115.705 113.647L115.959 113.955L115.654 114.212ZM67.1556 114.212L66.8506 113.904L67.1556 113.596C67.9181 113.596 68.6807 113.545 69.4432 113.494L69.7483 113.801L69.4432 114.109C68.6807 114.109 67.9181 114.109 67.1556 114.212ZM71.7817 114.058L71.4767 113.75L71.7817 113.442C72.5443 113.442 73.3069 113.442 74.0694 113.391L74.3744 113.699L74.0694 114.007C73.3069 114.007 72.5443 114.007 71.7817 114.058ZM111.028 113.955C110.265 113.955 109.503 113.904 108.74 113.904L108.435 113.596L108.74 113.288C109.503 113.288 110.265 113.288 111.028 113.34L111.333 113.647L111.028 113.955ZM76.4079 113.904L76.1029 113.596L76.4079 113.288C77.1705 113.288 77.933 113.288 78.6956 113.288L79.0006 113.596L78.6956 113.904C77.933 113.904 77.1705 113.904 76.4079 113.904ZM106.453 113.853C105.69 113.853 104.927 113.853 104.165 113.853L103.86 113.545L104.165 113.237C104.927 113.237 105.69 113.237 106.453 113.237L106.758 113.545L106.453 113.853ZM81.0341 113.801L80.7291 113.494L81.0341 113.186C81.7966 113.186 82.5592 113.186 83.3217 113.186L83.6268 113.494L83.3217 113.801C82.5592 113.801 81.7966 113.801 81.0341 113.801ZM101.826 113.75C101.064 113.75 100.301 113.75 99.5387 113.75L99.2337 113.442L99.5387 113.135C100.301 113.135 101.064 113.135 101.826 113.135L102.131 113.442L101.826 113.75ZM85.6602 113.75L85.3552 113.442L85.6602 113.135C86.4228 113.135 87.1853 113.135 87.9479 113.135L88.2529 113.442L87.9479 113.75C87.1853 113.75 86.4228 113.75 85.6602 113.75ZM97.2002 113.75C96.4377 113.75 95.6751 113.75 94.9126 113.75L94.6075 113.442L94.9126 113.135C95.6751 113.135 96.4377 113.135 97.2002 113.135L97.5052 113.442L97.2002 113.75ZM90.2864 113.75L89.9814 113.442L90.2864 113.135C91.049 113.135 91.8115 113.135 92.5741 113.135L92.8791 113.442L92.5741 113.75C91.8115 113.75 91.049 113.75 90.2864 113.75Z" fill="white"/>
<path d="M95.8276 127.036C76.8654 127.036 58.2083 126.626 38.6869 125.753V125.189C68.274 126.472 95.7768 126.779 125.364 126.113V126.677C115.349 126.882 105.537 126.985 95.8276 126.985V127.036Z" fill="#BA97C1"/>
<path d="M118.755 133.089C118.958 134.577 119.67 135.705 121.399 135.551C122.466 135.449 124.093 135.141 124.195 133.858C124.347 131.806 123.28 129.652 122.161 128.011C121.246 126.677 120.229 125.446 119.569 127.395C119.111 128.677 118.501 131.191 118.755 133.089Z" fill="#BA97C1"/>
<path d="M113.468 65.6851C116.315 64.0949 115.705 57.888 112.858 56.5543C111.74 56.0413 110.52 56.0413 109.299 56.0926C90.6423 56.3491 71.9343 56.6569 53.2771 56.9134C51.9553 56.9134 50.5827 56.9647 49.4643 57.6828C47.38 58.9652 47.8375 63.1203 49.5152 64.5566C50.6336 65.4799 52.1587 65.5312 53.5821 65.5312C72.6968 65.6851 91.7607 65.8903 110.875 66.0442C111.74 66.0442 112.705 66.0442 113.468 65.6338V65.6851Z" fill="#F9C978"/>
<path d="M25.0118 77.073H24.9101L24.7576 76.6626C25.0118 75.9444 25.2659 75.175 25.571 74.4568L25.9268 74.3029L26.0793 74.662C25.8251 75.3802 25.571 76.1496 25.2659 76.8678L25.0118 77.073ZM26.6385 72.6614H26.5369L26.3844 72.2511C26.6385 71.5329 26.9436 70.7635 27.1977 70.0453L27.5536 69.8914L27.7061 70.2505C27.4519 70.9687 27.1469 71.7381 26.8927 72.4563L26.6385 72.6614ZM137.056 68.6603L136.802 68.4551C136.599 67.6857 136.345 66.9675 136.141 66.1981L136.345 65.839L136.701 66.0442C136.904 66.8136 137.158 67.5318 137.361 68.3012L137.158 68.6603H137.056ZM28.2653 68.3012H28.1636L28.0111 67.8909C28.3162 67.1727 28.5703 66.4032 28.8754 65.6851L29.2312 65.5312L29.3837 65.8903C29.0787 66.6084 28.8245 67.3266 28.5195 68.096L28.2653 68.3012ZM135.684 64.1462L135.43 63.941C135.175 63.1716 134.972 62.4534 134.718 61.684L134.921 61.3249L135.277 61.5301C135.531 62.2995 135.735 63.0177 135.989 63.7871L135.785 64.1462H135.684ZM29.9938 63.8897H29.8921L29.7396 63.4793C30.0446 62.7612 30.3496 62.043 30.6547 61.3249L31.0614 61.171L31.2139 61.5814C30.9088 62.2995 30.6038 63.0177 30.2988 63.7358L30.0446 63.941L29.9938 63.8897ZM134.21 59.6834L133.955 59.4782C133.701 58.76 133.447 57.9906 133.193 57.2724L133.345 56.9134L133.701 57.0673C133.955 57.7854 134.21 58.5549 134.464 59.273L134.26 59.6321H134.159L134.21 59.6834ZM31.8239 59.5808H31.7222L31.5697 59.1704C31.8747 58.4523 32.2306 57.7341 32.5356 57.016L32.9423 56.8621L33.0948 57.2724C32.739 57.9906 32.434 58.7088 32.1289 59.4269L31.8747 59.5808H31.8239ZM33.8574 55.3232H33.7049L33.5524 54.9128C33.9082 54.1946 34.2641 53.5278 34.6199 52.8096L35.0266 52.707L35.1283 53.1174C34.7724 53.7843 34.4166 54.5024 34.0607 55.2206L33.8065 55.3745L33.8574 55.3232ZM132.634 55.2719L132.379 55.0667C132.125 54.3485 131.82 53.6304 131.515 52.9122L131.668 52.5532L132.074 52.707C132.379 53.4252 132.634 54.1433 132.939 54.9128L132.786 55.2719H132.684H132.634ZM36.0434 51.1681H35.8909L35.7892 50.7065C36.1959 50.0396 36.5517 49.3215 36.9584 48.6546L37.3651 48.552L37.4668 48.9624C37.0601 49.6292 36.7043 50.2961 36.2976 51.0142L36.0434 51.1681ZM130.854 50.9117L130.6 50.7578C130.295 50.0396 129.99 49.3215 129.634 48.6033L129.787 48.1929L130.193 48.3468C130.549 49.065 130.854 49.7831 131.159 50.5013L131.007 50.9117H130.905H130.854ZM38.4327 47.1157H38.2802L38.1785 46.654C38.5852 45.9872 39.0428 45.3203 39.5003 44.7048H39.907L39.9578 45.0638C39.5003 45.6794 39.0936 46.3463 38.6869 47.0131L38.4327 47.167V47.1157ZM128.872 46.7053L128.617 46.5514C128.262 45.8333 127.906 45.1664 127.55 44.4996L127.652 44.0892L128.058 44.1918C128.414 44.8587 128.821 45.5768 129.177 46.295L129.024 46.7053H128.872ZM41.0762 43.2685H40.9237L40.8729 42.8068C41.3304 42.1912 41.8388 41.5244 42.2963 40.9601H42.703V41.3192C42.2455 41.9347 41.7371 42.5503 41.2796 43.1659L41.0254 43.2685H41.0762ZM126.635 42.5503L126.381 42.3964C125.974 41.7296 125.567 41.0627 125.161 40.3958L125.262 39.9855L125.669 40.0881C126.076 40.7549 126.482 41.4218 126.889 42.0886L126.787 42.499H126.635V42.5503ZM44.0248 39.6264H43.8214V39.1134C44.3298 38.4979 44.889 37.9336 45.3974 37.3693H45.8041V37.7797C45.2957 38.344 44.7365 38.9082 44.2281 39.4725L44.0248 39.5751V39.6264ZM124.042 38.6518L123.788 38.5492C123.33 37.8823 122.873 37.2667 122.415 36.6512V36.2408H122.873C123.33 36.8564 123.839 37.4719 124.296 38.1388V38.5492L124.042 38.6005V38.6518ZM47.2275 36.2408L47.0242 36.1382V35.7278C47.5834 35.1636 48.1934 34.6506 48.7526 34.1376H49.1593V34.5993C48.6001 35.1123 47.9901 35.6252 47.4309 36.1382L47.2275 36.2408ZM121.195 34.9071L120.992 34.8045C120.484 34.1889 119.975 33.6247 119.467 33.0604V32.65H119.874C120.382 33.2143 120.941 33.8299 121.449 34.3941V34.8045L121.246 34.8558L121.195 34.9071ZM50.7861 33.163L50.5319 33.0604V32.65C50.7861 32.4962 51.0403 32.291 51.2436 32.1371C51.6503 31.8293 52.057 31.5215 52.4637 31.265H52.8704L52.8196 31.7267C52.4129 32.0345 52.0062 32.291 51.5995 32.5987C51.3961 32.7526 51.142 32.9578 50.9386 33.1117H50.7353L50.7861 33.163ZM117.993 31.4702L117.789 31.3676C117.23 30.8547 116.671 30.2904 116.112 29.7774V29.3671H116.518C117.077 29.88 117.688 30.4443 118.247 30.9573V31.3676L118.043 31.4702H117.993ZM54.5989 30.4956L54.3447 30.3417L54.4464 29.9313C55.1072 29.5209 55.7681 29.1106 56.4798 28.7515L56.8865 28.8541L56.7849 29.2645C56.124 29.6235 55.4123 30.0339 54.8022 30.4443H54.6497L54.5989 30.4956ZM114.536 28.3924H114.332C113.722 27.8282 113.112 27.3665 112.451 26.9561L112.35 26.5457L112.756 26.4431C113.417 26.9048 114.027 27.3665 114.637 27.8282V28.2385L114.434 28.3411L114.536 28.3924ZM58.6658 28.2385L58.4116 28.0846L58.5641 27.6743C59.2759 27.3152 59.9876 27.0074 60.6993 26.6996L61.106 26.8535L60.9535 27.2639C60.2418 27.5717 59.53 27.9307 58.8692 28.2385H58.7167H58.6658ZM62.9361 26.3406L62.6819 26.1354L62.8344 25.7763C63.5462 25.4685 64.3087 25.212 65.0204 24.9555L65.3763 25.1607L65.173 25.5198C64.4612 25.7763 63.6987 26.0328 62.987 26.3406H62.8853H62.9361ZM110.672 25.725H110.52C109.859 25.3146 109.147 24.9555 108.486 24.6478L108.334 24.2374L108.74 24.0835C109.452 24.3913 110.164 24.8017 110.825 25.1607L110.926 25.5711L110.672 25.725ZM67.3589 24.8017L67.1048 24.5965L67.3081 24.2374C68.0198 24.0322 68.7824 23.7757 69.5449 23.6218L69.9008 23.827L69.6974 24.1861C68.9349 24.3913 68.1723 24.5965 67.4606 24.8017H67.3589ZM106.453 23.7757H106.351C105.639 23.4679 104.877 23.2628 104.165 23.0576L103.962 22.6985L104.317 22.4933C105.08 22.6985 105.843 22.955 106.554 23.2115L106.707 23.5705L106.453 23.7757ZM71.8834 23.6218L71.5784 23.4166L71.7818 23.0576C72.5443 22.9037 73.3069 22.7498 74.0694 22.5959L74.4253 22.8524L74.1711 23.2115C73.4085 23.3653 72.646 23.5192 71.8834 23.6731H71.8326L71.8834 23.6218ZM76.4588 22.7498L76.1537 22.4933L76.4079 22.1342C77.1705 22.0316 77.933 21.8777 78.7464 21.7752L79.0514 22.0316L78.7973 22.3394C78.0347 22.442 77.2721 22.5446 76.5096 22.6985L76.4588 22.7498ZM101.928 22.4933C101.216 22.3394 100.454 22.1855 99.6404 22.0829L99.3862 21.7239L99.7421 21.4674C100.555 21.57 101.318 21.7239 102.03 21.8777L102.233 22.2368L101.928 22.4933ZM81.0849 22.1342L80.7799 21.8777L81.0341 21.57C81.7966 21.4674 82.5592 21.4161 83.2709 21.3648H83.3217L83.6268 21.6213L83.3726 21.929H83.3217C82.5592 21.9803 81.8475 22.0829 81.0849 22.1342ZM97.3527 21.7752C96.5902 21.7239 95.8276 21.6213 95.0651 21.6213L94.8109 21.3135C94.8109 21.3135 94.9126 21.0057 95.1159 21.057C95.9293 21.057 96.6919 21.1596 97.4544 21.2109L97.7086 21.5187L97.4036 21.7752H97.3527ZM85.7111 21.7239L85.4061 21.4674L85.6602 21.1596C86.4228 21.1596 87.2362 21.057 87.9987 21.0057L88.3038 21.2622L88.0496 21.57C87.287 21.57 86.5245 21.6726 85.7111 21.7239ZM90.3881 21.5187L90.0831 21.2109L90.3881 20.9031C91.1506 20.9031 91.964 20.9031 92.7266 20.9031L93.0316 21.2109L92.7266 21.5187C91.964 21.5187 91.2015 21.5187 90.3881 21.5187Z" fill="white"/>
<path d="M67.8673 23.3141C67.1047 20.8518 66.5455 18.3896 66.1388 15.8247C66.0371 15.1579 65.9355 14.5936 65.8846 13.8755C65.8338 13.2086 65.7321 12.4392 65.8338 11.5671C65.8846 10.7464 66.1388 9.72044 66.5455 8.84839C66.9522 7.97635 67.5622 7.2069 68.2231 6.59134C69.494 5.36022 70.9175 4.69336 72.1884 4.1291C72.8493 3.87262 73.4593 3.66743 74.0694 3.46224C74.6794 3.25706 75.2895 3.05187 75.8995 2.89798C78.3905 2.17983 80.9324 1.66686 83.525 1.30778C86.1177 1 88.7104 0.846112 91.3031 0.948706C91.964 0.948706 92.574 1 93.2857 1.0513C93.9975 1.1026 94.8109 1.20519 95.7259 1.51297C96.1834 1.66686 96.6918 1.87205 97.1494 2.17983C97.6069 2.48761 98.0644 2.84668 98.4203 3.20576C99.132 3.97521 99.5387 4.74466 99.8945 5.51411C101.115 8.28413 101.42 11.2593 101.267 13.9268C101.064 16.6455 100.505 19.159 99.8437 21.57C99.5895 22.5446 98.5728 23.1089 97.6069 22.8524C96.7427 22.5959 96.2343 21.7752 96.2851 20.9544C96.4885 18.4922 96.6918 16.1325 96.5901 13.8755C96.4885 11.6184 96.0309 9.56655 95.1667 7.87376C94.9634 7.46338 94.76 7.2069 94.6075 7.10431L94.455 7.00171L94.2008 6.89912C94.2008 6.89912 93.5399 6.79653 93.0316 6.74523C92.4723 6.74523 91.8623 6.74523 91.3031 6.74523C88.9646 6.74523 86.6769 6.84782 84.3893 7.1556C82.1016 7.41209 79.814 7.87376 77.5771 8.43802C77.0179 8.59191 76.4587 8.7458 75.8995 8.89969C75.3403 9.05358 74.7811 9.20747 74.3236 9.41265C73.3577 9.77173 72.4934 10.1821 71.9342 10.6438C71.68 10.849 71.4767 11.1054 71.3242 11.3106C71.1717 11.5158 71.07 11.7723 71.0192 12.1314C70.9683 12.4905 70.9175 13.0034 70.9175 13.5164C70.9175 14.0807 70.9175 14.6962 70.9683 15.2605C71.07 17.6714 71.2733 20.0311 71.5275 22.442C71.6292 23.4679 70.9175 24.3913 69.9007 24.4939C69.0365 24.5965 68.2231 24.0322 67.9689 23.2115L67.8673 23.3141Z" fill="#F9C978"/>
<path d="M33.7556 85.3317C36.6025 73.0205 41.2287 61.2736 47.5325 50.3987C48.4984 48.7572 45.9565 47.2696 45.0414 48.9111C38.5851 60.0425 33.8573 72.0459 30.9596 84.5623C30.5529 86.409 33.3489 87.1784 33.7556 85.3317Z" fill="white"/>
<path d="M51.9045 45.1664C52.4637 44.4996 53.0229 43.884 53.5821 43.2172C54.0905 42.6529 54.1921 41.6783 53.5821 41.114C53.0229 40.601 52.057 40.4984 51.4978 41.114C50.9386 41.7809 50.3794 42.3964 49.8202 43.0633C49.3118 43.6275 49.2101 44.6022 49.8202 45.1664C50.3794 45.6794 51.3453 45.782 51.9045 45.1664Z" fill="white"/>
<path d="M6.25284 116.623C6.45619 115.853 6.91372 115.135 7.52377 114.673C8.13381 114.212 8.48967 113.391 8.03214 112.673C7.67628 112.057 6.65954 111.698 6.04949 112.16C4.77857 113.083 3.86351 114.314 3.40597 115.853C2.8976 117.649 5.69364 118.469 6.202 116.623H6.25284Z" fill="white"/>
<path d="M43.008 148.632C42.6013 142.938 42.6013 137.295 43.008 131.601C43.1605 129.703 40.212 129.703 40.1103 131.601C39.7036 137.295 39.7036 142.938 40.1103 148.632C40.2628 150.53 43.1605 150.53 43.008 148.632Z" fill="white"/>
</svg>
