<svg width="175" height="196" viewBox="0 0 175 196" fill="none" xmlns="http://www.w3.org/2000/svg">
<path d="M16.7105 42.2724C18.8415 40.6528 21.2025 39.3954 23.4936 38.0575C34.4386 31.6596 45.6737 25.7949 57.0489 20.2219C64.4123 16.6105 71.8557 13.1702 79.3791 9.89078C82.3705 8.58304 85.3719 7.28536 88.3633 5.98768C89.4538 5.93738 89.8539 6.78238 90.2141 7.5469C93.9558 15.4537 97.8176 23.3102 101.499 31.2472C103.27 35.0698 105.131 38.8421 106.952 42.6346C111.344 51.7887 115.736 60.953 120.128 70.1072C126.831 84.0798 133.524 98.0626 140.167 112.065C142.368 116.713 144.819 121.24 146.77 126.018C147.17 127.004 147.79 127.939 147.24 129.066C145.85 130.796 143.729 131.179 141.838 131.843C136.005 133.885 130.002 135.263 123.809 135.625C122.359 135.705 120.938 136.108 119.457 135.997C118.517 135.927 117.607 135.826 116.926 135.072C116.256 134.569 116.006 133.794 115.626 132.939C115.646 133.734 115.836 134.428 115.456 135.062C114.255 136.49 112.614 136.037 111.164 135.927C103.54 135.313 96.0168 134.106 88.7734 131.49C79.2791 128.06 70.8052 122.93 63.2418 116.24C58.2395 111.824 53.5573 107.096 49.2053 102.036C48.2449 100.92 46.8843 99.9337 47.0944 98.133C48.3149 96.9359 49.0553 96.8957 50.2158 98.1129C51.2763 99.2295 52.3468 100.336 53.4473 101.392C54.3277 102.237 55.3782 102.7 56.5487 102.257C57.7493 101.805 57.7493 100.598 57.8193 99.5313C57.9927 96.6811 59.5101 95.2526 62.3714 95.2459C64.0421 95.2459 65.913 95.427 66.6533 93.4654C67.3737 91.544 65.873 90.3972 64.7224 89.1901C64.3022 88.7475 63.792 88.4256 63.2918 88.0936C61.671 87.0474 60.8707 85.6994 61.3309 83.6875C61.571 82.6514 61.511 81.5449 61.3609 80.4785C61.1008 78.5873 59.9803 77.9637 58.2495 78.6879C57.3191 79.0803 56.5187 79.6738 55.7683 80.3478C54.2276 81.736 52.5969 82.0881 50.646 81.0419C49.1853 80.2572 47.4545 79.4122 45.9539 80.6697C44.3531 82.0177 45.1035 83.8887 45.5837 85.5485C46.6442 89.2203 45.5437 91.705 42.3622 92.6707C41.7119 92.4997 41.4318 91.9263 41.1016 91.4434C36.0894 84.1805 31.5373 76.6358 27.5254 68.7793C27.1953 68.1254 26.8051 67.4917 26.8051 66.7171C27.0952 65.3188 28.3258 64.9466 29.3763 64.4135C37.9402 60.0979 46.4941 55.7623 55.078 51.497C59.2499 49.4247 63.3018 47.1211 67.4837 45.0589C68.7643 44.4252 69.1044 43.7109 68.4041 42.3831C67.3036 40.3209 66.3332 38.1983 65.4028 36.0456C64.5824 34.1644 64.1922 34.0538 62.3414 34.9793C55.2381 38.49 48.1749 42.0813 41.0916 45.6323C35.5591 48.4087 30.0366 51.2153 24.494 53.9717C23.4936 54.4746 22.4831 55.0983 21.2926 54.5048C19.0816 51.8491 18.4013 48.449 16.9606 45.4311C16.4904 44.4553 15.9001 43.3689 16.7205 42.2422L16.7105 42.2724Z" fill="#6A81B8"/>
<path d="M16.7104 42.2724C17.6809 45.1494 18.9615 47.9057 20.122 50.7123C20.6222 51.9296 21.0824 53.1669 21.5626 54.3941C20.8723 56.054 21.5626 57.4724 22.363 58.8606C23.8837 61.5062 25.1243 64.3229 27.0552 66.7171C27.6854 67.049 27.9656 67.6627 28.2657 68.2562C30.3066 72.2196 32.3976 76.163 34.7187 79.9554C36.8396 83.4159 39.1207 86.7758 41.3217 90.186C41.7819 90.9103 42.3822 91.5742 42.3622 92.5198C42.8524 92.9121 42.7723 93.4352 42.7223 93.9784C42.4822 96.3323 42.9024 96.8756 45.2135 97.2276C46.0438 97.3484 46.9743 97.1874 47.4945 98.1028C47.9047 99.5112 49.0352 100.427 49.8956 101.493C52.967 105.285 56.4886 108.655 59.9702 112.055C65.2826 117.236 71.1153 121.733 77.6083 125.374C81.9903 127.829 86.5323 129.831 91.2945 131.37C94.8461 132.516 98.4678 133.372 102.149 133.945C104.511 134.317 106.872 134.619 109.263 134.79C110.713 134.891 112.154 135.182 113.625 135.132C114.165 135.112 114.695 135.092 115.125 134.72C115.616 134.609 115.866 134.931 116.046 135.293C116.926 137.053 116.206 140.574 114.685 142.023C113.175 143.461 110.984 143.542 108.783 142.254C107.462 141.48 106.271 140.252 104.931 138.16C105.991 140.101 107.192 141.278 108.572 142.224C111.944 144.507 115.436 143.059 116.306 139.085C116.516 138.1 116.686 137.124 116.556 136.108C116.466 135.434 116.446 134.76 117.136 134.337C117.597 134.87 118.147 135.172 118.877 135.132C119.277 135.112 119.677 135.162 120.068 135.132C122.239 134.921 124.41 134.689 126.581 134.458C128.962 134.206 131.293 133.724 133.634 133.221C137.215 132.456 140.707 131.42 144.089 129.992C145.069 129.579 146.11 129.318 147 128.694C148.05 128.694 148.481 129.489 148.871 130.273C151.232 135.062 153.423 139.92 155.814 144.689C156.364 145.795 156.554 146.982 155.874 148.149C151.932 151.117 147.65 153.521 143.288 155.834C134.934 160.261 126.951 165.371 118.507 169.636C109.303 174.284 100.309 179.414 90.4842 182.754C86.0521 184.253 81.5501 185.249 76.8979 185.601C76.2877 185.651 75.7374 185.902 75.1371 185.933C68.5341 185.953 64.2121 182.432 61.2308 176.839C59.57 173.71 58.2194 170.431 56.6587 167.242C56.3385 166.578 56.0884 165.894 56.0584 165.14C56.7887 163.611 58.1294 163.309 59.63 163.359C61.651 164.214 62.2312 164.083 62.7615 162.655C63.2917 161.226 62.6414 159.939 61.1507 159.325C59.57 158.681 59.1798 159.637 58.9597 160.894C57.7892 162.162 56.4086 162.796 54.6678 162.393C53.8674 161.91 53.6073 161.045 53.2071 160.281C50.5659 155.241 48.3249 150.01 45.7737 144.93C45.3535 144.095 44.9133 143.25 45.2235 142.244C45.9438 140.906 47.1744 140.645 48.535 140.705C49.3253 140.856 50.0157 142.093 50.9361 140.906C51.7765 139.84 51.5764 138.794 50.876 137.798C50.3858 137.094 49.6355 136.872 48.7851 136.933C47.8347 137.003 48.0247 137.868 47.7246 138.401C46.6741 139.498 45.3935 139.87 43.9129 139.608C42.9324 139.176 42.4722 138.291 42.012 137.405C39.4808 132.446 37.3198 127.306 34.7387 122.356C34.3085 121.531 33.9683 120.646 34.4385 119.691C35.1589 118.725 36.1393 118.433 37.2898 118.534C38.0902 118.685 38.6705 120.002 39.7009 119.007C40.4313 118.302 40.7014 117.447 40.3412 116.492C39.921 115.355 39.0606 114.651 37.8701 114.49C36.5695 114.309 36.8596 115.606 36.3994 116.22C35.2989 117.186 34.0784 117.739 32.5877 117.276C31.5672 116.522 31.2071 115.335 30.7268 114.258C28.5058 109.339 26.0447 104.541 23.6636 99.7023C23.1934 98.7466 22.6732 97.791 23.1134 96.6543C23.7937 95.5678 24.7941 95.3063 25.9847 95.4672C26.745 95.6181 27.3553 96.8051 28.2557 95.8797C28.876 95.2459 29.2962 94.4713 28.956 93.5257C28.5758 92.4695 27.8955 91.6044 26.795 91.373C25.6345 91.1215 25.8946 92.2079 25.7045 92.8417C24.574 94.1595 23.1334 94.592 21.4526 94.3607C20.192 93.3447 19.9019 91.7553 19.2316 90.3972C17.0706 86.0314 14.8896 81.6756 12.7286 77.3098C12.2584 76.3541 11.7181 75.4085 12.0983 74.2718C12.7886 73.2658 13.8091 73.0948 14.9296 73.1552C15.9001 73.6179 16.9305 74.5635 17.7509 72.9741C18.3412 71.8273 17.7909 70.2278 16.6604 69.7048C15.2398 69.0408 14.3794 69.3828 13.7491 70.8717C12.9087 71.8877 11.8782 72.2901 10.5876 71.8575C9.53715 71.0427 9.18699 69.7852 8.63674 68.6686C7.28612 65.9324 5.81545 63.2465 4.6249 60.4198C4.13468 59.263 3.9646 58.1463 4.31476 56.9493C3.86455 53.8308 5.10512 51.3662 7.19608 49.1833C8.7768 47.5335 10.6076 46.2057 12.4585 44.908C13.8191 43.9523 15.1897 43.0067 16.7004 42.3026L16.7104 42.2724Z" fill="#6A81B8"/>
<path d="M155.344 147.908C155.504 146.972 155.454 146.067 155.024 145.181C152.452 139.85 149.891 134.508 147.32 129.177C147.23 128.996 147.1 128.845 146.99 128.684C146.04 126.622 145.129 124.539 144.149 122.487C137.976 109.581 131.783 96.6744 125.61 83.768C120.788 73.6984 115.986 63.6187 111.164 53.5491C106.231 43.2381 101.299 32.917 96.3768 22.606C94.0458 17.7171 91.7347 12.8181 89.4136 7.92915C89.1035 7.26522 88.7233 6.64153 88.3732 5.98766C88.3832 5.32373 88.7934 4.88111 89.2536 4.47873C91.5846 2.45676 94.3159 1.32003 97.3373 0.877412C98.1376 0.756697 98.938 0.837174 99.6283 1.34015C100.779 1.94372 101.229 3.08045 101.759 4.15682C109.123 19.1455 116.136 34.3052 123.459 49.304C127.441 57.4623 130.833 65.9023 135.025 73.9599C135.485 74.8552 135.955 75.7304 136.575 76.5251C139.727 83.597 143.168 90.528 146.6 97.4691C146.79 98.7668 147.61 99.7828 148.09 100.95C151.052 108.122 155.254 114.691 157.985 121.964C158.105 122.276 158.405 122.477 158.585 122.769C161.427 128.613 164.308 134.448 166.899 140.413C167.509 142.033 166.839 143.693 167.109 145.322C167.129 147.193 167.569 149.125 166.359 150.825C166.289 151.288 166.199 151.73 165.929 152.133C163.798 155.261 160.936 157.354 157.265 158.299C156.664 158.45 156.084 158.42 155.564 158.048C154.663 157.635 154.663 156.82 154.643 156.016C154.623 155.291 154.844 154.557 154.603 153.833C154.443 152.857 154.834 151.911 154.794 150.936C154.794 150.463 154.864 150 154.834 149.527C154.764 148.904 155.084 148.401 155.354 147.887L155.344 147.908Z" fill="#6A81B8"/>
<path d="M157.865 123.061C157.685 122.779 157.475 122.517 157.335 122.226C153.603 114.419 149.881 106.603 146.16 98.7869C145.989 98.4248 145.869 98.0425 145.719 97.6703C146.4 97.1975 146.98 97.5798 147.57 97.9017C148.751 98.5555 149.881 98.5455 150.872 97.5697C151.932 96.5235 151.862 95.3465 151.252 94.069C149.061 89.4818 146.74 84.9651 144.279 80.5188C140.897 74.3724 137.486 68.2462 133.544 62.4317C132.063 60.2488 130.452 58.1464 129.172 55.9836C131.163 62.1501 133.394 68.3769 136.055 74.4428C136.425 75.2878 136.825 76.2133 135.845 76.9879C135.525 76.4044 135.165 75.8411 134.874 75.2375C128.822 62.6229 122.779 50.0082 116.736 37.3936C113.465 30.5732 110.213 23.7428 106.942 16.9224C104.681 12.2145 102.41 7.51674 100.149 2.80887C99.9184 2.32601 99.6283 1.86328 99.6183 1.31C100.979 0.978037 102.34 0.676251 103.69 0.324168C105.001 0.00226239 106.331 -0.00779714 107.662 0.00226239C111.054 0.0425005 113.655 1.59167 115.616 4.28762C116.206 5.09239 116.676 5.98769 117.116 6.88299C122.039 16.9828 126.931 27.0926 131.843 37.2024C132.373 38.2889 132.904 39.3652 133.424 40.4517C137.606 49.0526 141.798 57.6434 145.969 66.2544C151.052 76.7263 156.124 87.1983 161.196 97.6703C163.437 102.308 165.688 106.935 167.92 111.573C168.21 112.176 168.57 112.739 168.67 113.424C168.88 114.188 168.44 114.711 167.94 115.144C164.898 117.799 161.917 120.526 158.615 122.849C158.395 123.01 158.125 123.051 157.865 123.061Z" fill="#6A81B8"/>
<path d="M155.434 153.702C155.474 155.15 155.524 156.609 155.564 158.068C155.484 158.852 154.864 159.164 154.293 159.506C151.662 161.086 149.051 162.685 146.39 164.204C140.897 167.343 135.305 170.31 129.702 173.268C122.579 177.03 115.476 180.843 108.242 184.414C101.729 187.633 95.0662 190.52 88.1731 192.823C84.5114 194.051 80.7897 195.097 76.9579 195.66C74.4468 196.032 71.8756 196.203 69.4045 195.67C64.8424 194.695 61.5209 191.968 59.4399 187.753C58.0893 187.019 57.429 185.731 56.7887 184.414C55.228 181.718 53.9174 178.901 52.4867 176.135C51.6664 174.535 50.956 172.906 50.4658 171.175C50.5359 169.727 50.9961 168.55 52.5568 168.157C53.8474 168.248 54.2476 169.304 54.7478 170.24C56.9288 174.304 58.6095 178.619 60.7605 182.704C64.8924 190.54 70.1948 191.757 77.128 190.711C85.4318 189.464 93.0853 186.154 100.699 182.754C107.692 179.625 114.485 176.054 121.198 172.382C131.473 166.769 141.948 161.498 151.802 155.13C152.362 154.768 152.913 154.396 153.413 153.953C154.033 153.551 154.673 153.209 155.414 153.692L155.434 153.702Z" fill="#6A81B8"/>
<path d="M157.865 123.061C157.945 122.507 158.215 122.065 158.665 121.743C162.197 119.208 165.348 116.21 168.68 113.424C169.45 114.289 169.71 115.425 170.221 116.431C171.341 118.624 172.452 120.827 173.282 123.161C173.462 123.664 173.642 124.167 173.852 124.66C174.933 127.235 174.683 129.74 173.512 132.205C173.372 132.506 173.222 132.808 173.082 133.11C172.882 133.442 173.062 133.844 172.902 134.186C171.731 136.46 170.021 138.23 167.96 139.679C167.379 140.091 166.829 140.645 166.029 140.192C164.968 138.039 163.908 135.897 162.867 133.734C161.397 130.676 159.936 127.607 158.475 124.539C158.245 124.056 158.075 123.553 157.885 123.061H157.865Z" fill="#6A81B8"/>
<path d="M52.717 168.439C51.8366 169.204 51.3763 170.21 51.0362 171.296C51.0962 172.835 51.0562 174.374 51.2263 175.893C51.4964 178.368 52.4068 180.551 54.6478 181.939C55.6683 182.573 56.5387 183.408 57.4791 184.152C58.3795 185.218 58.9898 186.436 59.44 187.753C53.7374 187.914 48.335 183.75 47.0744 177.624C46.4341 174.525 47.0744 171.678 48.2949 168.882C48.535 168.328 48.8252 167.805 49.0853 167.262C49.0853 167.172 49.0853 167.081 49.0853 166.991C49.0853 166.809 49.0853 166.628 49.1053 166.447C49.3454 165.24 50.5059 164.798 51.1562 163.922C52.1067 162.786 53.0571 161.659 54.7779 162.031C56.0885 161.538 57.3991 161.035 58.7097 160.542C59.46 159.416 60.4705 159.446 61.481 160.019C62.4614 160.583 62.7515 161.538 62.4214 162.615C62.0312 163.852 61.0908 164.174 59.9002 163.983C58.6297 164.003 57.5192 164.516 56.4387 165.14C55.7884 166.92 54.5278 168.017 52.6869 168.429L52.717 168.439Z" fill="#6A81B8"/>
<path d="M32.8078 116.975C33.9483 116.572 35.0888 116.16 36.2293 115.757C37.0697 114.661 38.0902 114.56 39.1807 115.305C40.1011 115.938 40.4112 116.884 40.0411 117.93C39.6109 119.178 38.6304 119.389 37.4599 119.107C36.4694 119.178 35.549 119.469 34.7086 119.992C33.9283 121.552 32.3676 122.296 31.187 123.443C30.2966 124.268 29.9965 125.435 29.4262 126.451C27.7154 129.418 28.7559 134.528 31.5872 136.681C32.6277 137.466 33.5881 138.442 34.9688 138.653C36.0693 139.488 36.9897 140.413 36.3194 141.972C36.2994 142.496 36.1893 142.888 35.509 142.807C31.4071 142.335 28.2357 140.363 26.1347 136.772C23.7136 132.627 23.7836 128.382 25.7746 124.097C26.0547 123.493 26.4048 122.92 26.725 122.336C26.4048 120.616 27.6854 119.831 28.7259 118.916C29.8664 117.799 30.8169 116.311 32.7978 116.944L32.8078 116.975Z" fill="#6A81B8"/>
<path d="M48.595 141.379C47.5145 141.52 46.474 141.741 45.5736 142.415C44.6832 143.924 43.1725 144.799 41.9719 145.996C41.1516 146.952 40.8514 148.219 40.1311 149.235C38.5604 154.305 40.4913 158.953 46.2939 161.136C48.1448 162.595 48.4949 163.52 47.9047 165.27C44.1029 165.562 38.3903 162.685 36.3994 157.796C35.8892 156.559 35.549 155.281 35.489 153.933C35.3789 151.449 35.519 149.004 36.6695 146.731C37.0597 145.966 37.5099 145.222 37.9301 144.477C37.5499 142.747 39.0106 142.123 39.901 141.148C41.0015 140.041 42.052 138.854 43.8628 139.216C45.0433 138.824 46.2339 138.421 47.4144 138.029C48.2048 136.953 49.1852 137.013 50.1657 137.647C51.0161 138.19 51.3662 139.045 51.0861 140.051C50.7259 141.319 49.7655 141.56 48.605 141.389L48.595 141.379Z" fill="#6A81B8"/>
<path d="M10.7277 71.4954C11.6481 71.1634 12.5585 70.8214 13.4789 70.4894C14.7395 69.3929 16.1502 69.2823 17.0906 70.2379C17.8209 70.9723 17.971 71.8575 17.5308 72.783C17.0206 73.8493 16.1101 74.0505 15.0397 73.7588C14.1492 73.8694 13.2989 74.0907 12.5085 74.5535C11.8482 76.0624 10.2074 76.5553 9.22699 77.7323C7.9364 78.5873 7.60625 80.056 6.96596 81.3135C5.38524 83.8485 6.52576 89.7534 9.35705 91.5541C10.4776 92.2683 11.5481 93.063 12.7786 93.5861C13.8091 94.6122 14.8095 95.6584 13.9792 97.288C13.719 97.5093 13.4189 97.6401 13.0688 97.5798C5.92549 96.3726 1.50346 90.8801 1.96367 83.9793C2.12375 81.575 2.70401 79.2211 4.33476 77.2897C4.45481 77.1388 4.52484 76.9376 4.61489 76.7666C4.17468 75.147 5.33521 74.3724 6.30566 73.4872C7.64627 72.5214 8.68675 70.8717 10.7277 71.4853V71.4954Z" fill="#6A81B8"/>
<path d="M21.4827 93.9382C22.7933 93.4956 24.1039 93.053 25.4145 92.6204C26.1248 91.6245 27.0152 91.8056 27.8456 92.3689C28.696 92.9423 28.9861 93.8376 28.656 94.8335C28.2458 96.0708 27.2753 96.3324 26.1048 96.1312C25.1343 96.101 24.274 96.4028 23.4836 96.9561C22.6632 98.4248 21.0525 99.0283 20.002 100.246C18.8515 101.312 18.4813 102.841 17.6909 104.118C16.0302 108.917 18.4713 113.806 23.4736 115.687C24.8042 116.622 25.7947 117.699 25.1143 119.5C24.5341 119.982 23.8538 119.902 23.2135 119.751C18.0811 118.584 14.3794 115.425 13.2889 109.993C12.6186 106.653 12.9588 103.334 14.8196 100.326C15.0297 99.984 15.2298 99.642 15.4399 99.3C15.0597 97.4389 16.5304 96.6644 17.5609 95.6182C18.7414 94.7631 19.6819 93.3447 21.4827 93.9483V93.9382Z" fill="#6A81B8"/>
<path d="M17.0806 103.736C17.4508 102.197 18.2612 100.93 19.3817 99.8532C20.3921 99.9639 20.7923 100.749 21.1825 101.523C23.8337 106.734 26.3949 111.995 28.846 117.307C29.1661 118.011 29.2562 118.695 29.1561 119.439C28.3458 120.415 27.5354 121.391 26.725 122.356C26.0747 121.934 25.8146 121.25 25.5645 120.566C25.4244 120.204 25.4244 119.781 25.1143 119.489C24.504 118.353 24.1138 117.085 23.1634 116.15C22.0429 115.365 21.2425 114.319 20.7323 113.061C19.5417 110.134 17.4008 107.599 17.0406 104.31C17.0206 104.108 17.0006 103.917 17.0706 103.726L17.0806 103.736Z" fill="#6A81B8"/>
<path d="M17.991 96.2418C17.1206 97.2377 16.1401 98.1531 15.4498 99.2999C14.9896 99.1188 14.7695 98.7265 14.5594 98.304C14.3893 97.962 14.1792 97.63 13.9892 97.288C13.5189 96.1714 13.1288 95.0045 12.3484 94.0388C9.28701 91.0913 8.15649 87.0474 6.32566 83.3958C5.93548 82.6212 6.05553 81.7058 6.1956 80.8507C6.73584 79.5329 7.47618 78.3459 8.49665 77.3399C9.33703 77.2796 9.64717 77.9234 9.9273 78.5069C12.4785 83.6976 15.2397 88.7877 17.5408 94.1092C17.8409 94.8134 17.9009 95.5175 17.981 96.2418H17.991Z" fill="#6A81B8"/>
<path d="M40.2712 141.721C39.4908 142.636 38.7004 143.552 37.9201 144.467C37.3598 144.206 37.1097 143.703 36.9196 143.16C36.7796 142.747 36.6795 142.304 36.3294 142.003C35.8491 141.017 35.479 139.961 34.6786 139.156C33.5881 138.442 32.8378 137.466 32.2675 136.279C31.2871 134.227 30.2666 132.195 29.2361 130.163C28.5458 128.805 28.2757 127.406 28.6859 125.907C29.2461 124.891 29.7063 123.815 30.6568 123.081C31.7072 123.101 32.1074 123.906 32.5176 124.67C35.1688 129.68 37.3898 134.901 39.931 139.971C40.2111 140.534 40.2412 141.117 40.2912 141.721H40.2712Z" fill="#6A81B8"/>
<path d="M10.7277 71.4954C9.33702 72.1694 8.09645 73.0747 6.8759 74.0103C6.13556 73.9298 5.66534 73.4771 5.3552 72.8534C4.08462 70.2782 2.60394 67.8136 1.78357 65.0271C1.43341 63.83 1.36338 62.6832 1.96365 61.5566L1.93364 61.5968C2.01367 61.5063 2.0637 61.4057 2.0637 61.2749C2.54391 59.6754 2.99412 58.0659 4.32473 56.9191C5.70536 61.1844 7.90637 65.0674 9.80724 69.1012C10.1774 69.8758 10.6876 70.6001 10.7277 71.5055V71.4954Z" fill="#6A81B8"/>
<path d="M47.8947 165.26C47.4545 163.932 46.8943 162.655 45.9638 161.589C44.9033 160.844 44.163 159.848 43.6128 158.671C42.5723 156.428 41.4418 154.235 40.3112 152.032C39.781 150.986 39.6609 149.879 39.5409 148.753C39.9411 147.515 40.5313 146.389 41.5318 145.513C42.6523 145.383 43.0025 146.268 43.4027 147.012C46.1539 152.183 48.3849 157.615 51.0862 162.816C51.3763 163.369 51.3963 163.963 51.4163 164.566C50.776 165.351 50.1357 166.135 49.4954 166.92C49.3554 167.021 49.2253 167.141 49.1053 167.262C48.7051 166.588 48.3049 165.924 47.9047 165.25L47.8947 165.26Z" fill="#6A81B8"/>
<path d="M172.642 133.945C172.782 133.663 172.922 133.382 173.072 133.1C173.642 134.156 174.102 135.253 174.533 136.379C175.323 138.452 175.053 140.433 174.232 142.395C174.002 142.948 173.742 143.491 173.422 143.994C171.721 146.67 169.47 148.803 166.919 150.644C166.769 150.754 166.549 150.775 166.359 150.835C166.389 148.984 166.429 147.123 166.459 145.272C166.839 144.186 167.509 143.32 168.29 142.496C170.001 140.695 171.181 138.572 171.891 136.188C172.071 135.504 172.502 134.911 172.632 134.207C172.632 134.116 172.642 134.036 172.652 133.945H172.642Z" fill="#6A81B8"/>
<path d="M1.96365 61.5465C2.19375 63.6691 2.84405 65.681 3.74446 67.6023C4.75492 69.7551 5.82541 71.8777 6.87589 74.0103C6.13555 74.9458 5.20513 75.7204 4.61486 76.7766C4.17466 76.7766 3.85451 76.5755 3.66442 76.1831C2.44387 73.6079 1.13327 71.0829 0.312891 68.3367C-0.457461 65.7413 0.232854 63.5182 1.96365 61.5465Z" fill="#6A81B8"/>
<path d="M2.06378 61.2749C2.10379 61.4157 2.06378 61.5264 1.93372 61.5968C1.94372 61.4761 1.98374 61.3755 2.06378 61.2749Z" fill="#6A81B8"/>
<path d="M27.0452 66.7271C26.3849 66.9082 25.8346 67.0289 25.3944 66.194C23.7437 63.0051 22.0029 59.8665 20.3221 56.6978C19.7318 55.5812 19.7718 55.5409 20.8924 54.8267C21.1125 54.6859 21.3326 54.535 21.5527 54.3942C22.333 54.032 23.1334 53.7 23.9037 53.3178C36.5795 46.9602 49.2553 40.5925 61.9411 34.2449C65.0826 32.6756 64.6824 32.6957 66.1431 35.6331C67.2436 37.8462 68.294 40.0794 69.3745 42.3026C69.6046 42.7854 69.8447 43.2582 70.0548 43.7512C70.335 44.4151 70.2449 44.6465 69.5646 45.0488C69.2245 45.25 68.8543 45.421 68.5041 45.6021C55.3181 52.2817 42.1321 58.9612 28.946 65.6508C28.2957 65.9827 27.6755 66.3549 27.0352 66.7171L27.0452 66.7271Z" fill="#6A81B8"/>
<path d="M47.4845 98.0928C46.7542 98.0928 46.0239 98.0928 45.2935 98.1028C44.5432 98.1129 43.8429 97.9419 43.1626 97.6502C41.7919 97.0566 41.2017 95.8294 41.6119 94.3707C41.7919 93.737 42.0921 93.1334 42.3422 92.5097C43.2126 91.5038 44.063 90.4676 44.9634 89.4919C45.4936 88.9185 45.5337 88.3753 45.2735 87.6711C44.7833 86.3533 44.3331 85.0254 44.163 83.6171C44.083 82.9431 44.053 82.2892 44.213 81.6253C44.5732 80.1566 45.5236 79.3317 47.0343 79.2211C47.7046 79.1708 48.375 79.201 49.0052 79.4323C49.8756 79.7542 50.7761 80.0359 51.6064 80.4484C53.5273 81.3939 53.0171 81.3839 54.6778 80.0259C55.8684 79.0501 57.0289 78.0441 58.4996 77.5009C59.9402 76.9678 61.1508 77.4305 61.8511 78.7785C62.1613 79.382 62.3213 80.0259 62.3413 80.7099C62.3814 81.8466 62.3713 82.9834 62.1713 84.11C62.1112 84.442 62.0412 84.7639 61.9612 85.0959C61.8211 85.6994 62.0512 86.1219 62.5514 86.4539C63.2718 86.9368 63.9921 87.4196 64.6724 87.9628C65.7729 88.838 66.7834 89.8138 67.4137 91.1115C68.4141 93.1636 67.6938 94.9643 65.5728 95.8193C64.8725 96.101 64.1522 96.1613 63.4218 96.1714C62.0912 96.2016 60.7606 96.1312 59.44 95.8998C58.9398 95.8093 58.7097 96.0306 58.7097 96.5738C58.7097 97.5797 58.7497 98.5857 58.7497 99.5816C58.7497 100.396 58.6496 101.181 58.2995 101.925C57.7793 103.042 56.9789 103.525 55.7483 103.465C54.9279 103.424 54.1676 103.153 53.5273 102.65C52.797 102.076 52.0866 101.463 51.4464 100.789C50.756 100.064 50.1558 99.2597 49.5155 98.4851C49.0553 97.9285 48.3783 97.7943 47.4845 98.0827V98.0928Z" fill="#6A81B8"/>
<path d="M95.6165 104.259C94.9963 104.249 94.3059 103.877 93.6456 103.394C92.8853 102.841 92.295 102.117 91.6647 101.422C91.2045 100.919 90.9444 100.93 90.5242 101.422C90.2241 101.775 89.954 102.157 89.6438 102.519C89.4237 102.77 89.2036 103.022 88.9535 103.243C87.1327 104.863 85.4219 104.33 84.8116 101.936C84.5115 100.759 84.5415 99.5413 84.6315 98.3443C84.7015 97.449 84.4815 96.8253 83.6411 96.3726C82.8807 95.9602 82.2404 95.3465 81.7402 94.6222C80.8898 93.3648 81.1799 92.1677 82.5005 91.4132C83.3309 90.9404 84.2613 90.8298 85.1718 90.6185C85.4919 90.5481 85.8321 90.5079 86.1622 90.5079C86.8425 90.5079 87.2527 90.196 87.5128 89.5422C87.833 88.7374 88.1731 87.9326 88.6133 87.1882C90.124 84.6532 92.1149 84.613 93.7057 87.0776C94.0959 87.6912 94.406 88.3753 94.6761 89.0492C94.9362 89.683 95.3164 90.015 96.0267 90.0049C96.7571 90.0049 97.4874 90.0552 98.2177 90.0753C98.828 90.0954 99.4083 90.2262 99.9485 90.4878C100.909 90.9606 101.289 91.7553 101.039 92.8015C100.829 93.6766 100.239 94.3204 99.6684 94.9844C99.0581 95.6885 97.9176 96.0205 97.7675 96.946C97.6375 97.7407 98.0977 98.6259 98.2277 99.481C98.3678 100.406 98.4078 101.352 98.2077 102.278C97.9276 103.565 97.0272 104.289 95.5965 104.249L95.6165 104.259Z" fill="#6A81B8"/>
<path d="M52.7169 168.439C53.5673 166.88 54.9079 165.884 56.4686 165.15C57.4991 166.719 58.1994 168.459 59.0198 170.139C60.2003 172.533 61.2708 174.988 62.5414 177.342C64.6023 181.164 67.6938 183.78 71.9757 184.756C73.0062 184.987 74.0867 184.997 75.1372 185.108C79.4391 185.832 83.531 184.534 87.7029 183.87C94.0358 182.854 99.3182 179.444 104.871 176.597C108.592 174.686 112.254 172.654 116.026 170.833C116.686 170.521 117.346 170.179 118.057 170.029C118.597 169.918 119.197 169.988 119.477 170.501C119.818 171.135 119.477 171.698 118.917 172.03C117.376 172.936 115.866 173.922 114.245 174.696C112.314 175.823 110.193 176.577 108.232 177.664C110.223 176.577 112.364 175.773 114.345 174.656C123.519 169.043 133.274 164.496 142.528 159.033C145.389 157.343 148.421 155.975 151.392 154.487C152.192 154.084 153.083 153.561 153.943 154.436C153.533 154.99 152.903 155.251 152.342 155.603C145.87 159.718 139.196 163.47 132.453 167.121C125.31 170.994 118.167 174.867 110.984 178.67C103.26 182.754 95.3364 186.405 87.0326 189.152C83.8712 190.198 80.6597 191.053 77.3682 191.596C75.1872 191.948 72.9862 191.989 70.7952 191.757C68.0539 191.455 65.7529 190.117 63.7319 188.307C62.2213 186.959 61.0707 185.329 60.1803 183.508C58.0594 179.112 55.9284 174.726 53.7774 170.34C53.4573 169.687 53.2271 168.972 52.7069 168.429L52.7169 168.439Z" fill="#6A81B8"/>
<path d="M113.905 174.525C115.476 173.509 117.046 172.513 118.607 171.487C118.867 171.316 119.237 171.095 119.017 170.723C118.857 170.461 118.537 170.622 118.287 170.723C115.005 172.04 111.854 173.64 108.783 175.4C107.332 176.225 105.891 177.06 104.431 177.845C101.849 179.243 99.2482 180.591 96.6671 181.979C95.1864 182.784 93.6057 183.287 92.0049 183.74C88.9235 184.615 85.7921 185.249 82.6206 185.631C80.3896 185.892 78.1086 186.074 75.8775 185.41C75.6274 185.339 75.3873 185.208 75.1472 185.098C80.6697 184.866 85.9021 183.317 91.0645 181.496C97.5475 179.203 103.82 176.386 109.903 173.197C121.719 167.011 133.454 160.663 145.039 154.034C147.87 152.414 150.652 150.674 153.453 148.994C154.083 148.622 154.724 148.26 155.354 147.898C155.484 148.451 155.484 148.994 155.394 149.557C153.943 151.459 151.662 152.263 149.941 153.722C149.971 153.692 149.961 153.742 149.991 153.722C151.172 152.807 152.403 152.022 153.603 151.197C154.123 150.845 154.684 150.342 155.414 150.815C155.554 151.77 155.534 152.736 155.454 153.692C154.964 153.943 154.463 154.185 153.973 154.436C153.283 154.466 152.703 154.819 152.112 155.11C148.311 157.022 144.469 158.883 140.707 160.864C137.416 162.605 134.204 164.486 130.953 166.307C129.732 166.991 128.532 167.695 127.291 168.349C123.289 170.451 119.277 172.533 115.256 174.616C114.965 174.767 114.625 174.827 114.315 174.938C113.895 175.078 113.815 174.887 113.915 174.525H113.905Z" fill="#6A81B8"/>
<path d="M29.1662 119.439C28.5659 118.956 28.3658 118.232 28.0457 117.578C25.1544 111.673 22.273 105.758 19.3817 99.8532C20.4422 98.4449 21.7428 97.3886 23.4836 96.9561C23.7337 97.5697 23.9638 98.1934 24.2539 98.7869C26.8351 104.108 29.4263 109.43 32.0075 114.751C32.3576 115.466 32.8078 116.14 32.7978 116.985C31.4972 117.669 30.3167 118.544 29.1562 119.449L29.1662 119.439Z" fill="#6A81B8"/>
<path d="M51.4163 164.576C50.6859 164.335 50.5259 163.631 50.2357 163.047C48.2448 158.983 46.2639 154.909 44.283 150.835C43.6427 149.517 43.0024 148.199 42.3421 146.892C42.102 146.419 41.8119 145.976 41.5417 145.523C42.5222 144.015 43.8428 142.938 45.5736 142.405C48.1448 147.727 50.7159 153.058 53.2871 158.38C53.6373 159.094 53.9874 159.818 54.3376 160.532C54.5777 161.015 54.7978 161.498 54.7978 162.041C53.6073 162.806 52.4367 163.59 51.4063 164.576H51.4163Z" fill="#6A81B8"/>
<path d="M17.991 96.2418C17.5809 96.0809 17.3908 95.7187 17.2207 95.3667C14.3094 89.3611 11.408 83.3455 8.50671 77.34C9.60722 76.0624 10.8878 75.0564 12.5185 74.5535C13.439 76.4849 14.3494 78.4163 15.2798 80.3377C17.1707 84.2408 19.0815 88.1439 20.9724 92.0571C21.2625 92.6506 21.6627 93.224 21.4926 93.9483C20.2321 94.5619 19.1116 95.4069 17.991 96.2519V96.2418Z" fill="#6A81B8"/>
<path d="M40.2713 141.721C39.6109 141.53 39.4309 140.916 39.1707 140.393C38.2003 138.432 37.2599 136.45 36.2994 134.488C34.4186 130.686 32.5377 126.883 30.6469 123.081C31.6373 121.572 32.9979 120.556 34.7087 120.002C34.9988 120.666 35.259 121.35 35.5791 122.004C38.1303 127.255 40.6814 132.496 43.2326 137.747C43.4627 138.22 43.6528 138.723 43.8529 139.206C42.6323 140.011 41.3517 140.715 40.2813 141.721H40.2713Z" fill="#6A81B8"/>
<path d="M59.9302 163.993C60.4004 163.771 60.8906 163.59 61.3308 163.309C61.9211 162.937 62.1512 162.242 61.9611 161.568C61.781 160.935 61.3508 160.502 60.7105 160.462C60.0602 160.422 59.3999 160.522 58.7396 160.552C58.2094 160.08 58.1894 159.516 58.4795 158.933C58.7196 158.43 59.1498 158.128 59.7201 158.048C60.9707 157.867 62.7115 158.732 63.4218 159.939C64.1321 161.136 64.1021 162.343 63.3718 163.52C63.1617 163.852 62.8815 164.144 62.5714 164.385C61.9411 164.878 61.2608 164.989 60.5605 164.486C60.3504 164.335 60.1503 164.154 59.9402 163.993H59.9302Z" fill="#6A81B8"/>
<path d="M37.46 119.117C37.8301 118.966 38.2003 118.836 38.5505 118.654C39.3908 118.222 39.711 117.498 39.4709 116.693C39.2708 116.019 38.5905 115.516 37.7901 115.546C37.2699 115.556 36.7496 115.687 36.2194 115.757C35.8092 115.103 35.8592 114.49 36.3695 113.916C36.8097 113.413 37.3899 113.323 38.0102 113.403C40.6214 113.725 42.2421 116.854 40.9015 118.986C40.5014 119.62 40.0011 120.153 39.1907 120.224C38.3304 120.294 37.8401 119.781 37.46 119.107V119.117Z" fill="#6A81B8"/>
<path d="M26.1147 96.1211C26.5249 95.93 26.9651 95.769 27.3553 95.5376C27.9855 95.1654 28.2957 94.4713 28.1456 93.8678C27.9655 93.1636 27.5253 92.6807 26.805 92.5801C26.3548 92.5198 25.8946 92.6003 25.4344 92.6204C25.0142 92.4997 24.704 92.2784 24.7341 91.7854C24.7941 90.7795 25.6545 90.0854 26.6449 90.2262C28.5658 90.4978 30.1966 92.6606 29.9164 94.592C29.8664 94.914 29.7564 95.2359 29.6163 95.5376C29.2861 96.2217 28.7959 96.7649 28.0256 96.9259C27.2152 97.0969 26.6049 96.7649 26.1347 96.1211H26.1147Z" fill="#6A81B8"/>
<path d="M48.595 141.379C49.0653 141.148 49.5955 140.977 50.0057 140.665C50.5059 140.272 50.716 139.689 50.4859 139.045C50.2758 138.432 49.8656 137.979 49.1953 137.949C48.605 137.919 48.0048 137.999 47.4045 138.029C46.9843 137.013 47.1144 136.41 47.8647 136.057C49.2353 135.404 51.2463 136.259 52.0466 137.838C52.837 139.407 52.3167 141.218 50.8861 141.993C49.9256 142.506 49.2453 142.043 48.605 141.389L48.595 141.379Z" fill="#6A81B8"/>
<path d="M15.0397 73.7588C15.5199 73.5576 16.0301 73.4067 16.4803 73.1451C17.0406 72.8132 17.2807 72.0487 17.0906 71.4049C16.9005 70.7812 16.4703 70.419 15.83 70.3084C15.0397 70.1776 14.2693 70.4291 13.489 70.4894C13.1488 70.1675 13.1488 69.7953 13.3489 69.403C13.609 68.89 14.0492 68.5781 14.5795 68.4675C15.9401 68.1757 17.0806 68.7089 18.011 69.6444C18.8714 70.5096 19.1115 71.606 18.7514 72.7931C18.6613 73.1049 18.5113 73.4168 18.3212 73.6884C17.931 74.2618 17.3907 74.6541 16.6904 74.7245C15.9401 74.7949 15.4699 74.302 15.0497 73.7588H15.0397Z" fill="#6A81B8"/>
<path d="M135.855 77.008C135.895 76.3944 135.755 75.821 135.495 75.2576C132.833 69.4734 130.703 63.488 128.722 57.4523C128.451 56.6274 128.131 55.8226 127.841 54.9977C127.751 54.7462 127.641 54.4847 127.641 54.2332C127.641 54.0622 127.751 53.8308 127.891 53.7403C128.031 53.6498 128.311 53.6296 128.441 53.7202C128.712 53.9012 128.952 54.1427 129.132 54.4143C132.743 59.7961 136.555 65.0472 139.777 70.6806C142.028 74.6239 144.129 78.6578 146.38 82.6112C148.331 86.0415 150.001 89.6227 151.792 93.1334C152.062 93.6666 152.362 94.2098 152.522 94.7832C153.243 97.2578 150.962 99.7627 148.461 99.2798C147.79 99.149 147.23 98.807 146.71 98.3644C146.41 98.1129 146.06 97.9117 145.719 97.6904C144.469 95.1956 143.208 92.7109 141.988 90.2061C140.307 86.7356 138.656 83.255 136.995 79.7744C136.565 78.8791 136.085 78.0039 135.855 77.0181V77.008Z" fill="#6A81B8"/>
<path d="M172.702 136.319C171.731 140.091 169.48 142.958 166.459 145.282C166.289 143.592 166.429 141.872 166.019 140.202C168.16 138.522 170.221 136.762 171.911 134.599C172.111 134.347 172.402 134.166 172.652 133.955V133.925C173.042 134.71 172.952 135.514 172.712 136.319H172.702Z" fill="#6A81B8"/>
<path d="M155.394 150.815C153.623 151.881 151.852 152.927 150.081 154.014C149.511 154.366 148.961 154.738 148.271 154.819C148.421 154.607 148.541 154.336 148.741 154.185C150.782 152.626 152.773 150.996 155.004 149.688C155.114 149.628 155.254 149.598 155.374 149.557C155.374 149.98 155.374 150.392 155.384 150.815H155.394Z" fill="#6A81B8"/>
<path d="M157.895 106.311C157.895 106.523 157.895 106.593 157.895 106.653C157.845 108.434 157.065 109.591 155.634 110.044C154.073 110.536 152.693 110.023 151.702 108.514C151.082 107.559 150.642 106.543 150.652 105.346C150.652 103.857 151.212 102.821 152.603 102.177C154.013 101.513 155.194 101.925 156.284 102.791C157.455 103.706 158.045 104.933 157.895 106.321V106.311Z" fill="#6A81B8"/>
<path d="M57.489 184.152C54.9679 183.619 52.9169 182.331 51.6263 180.078C50.0156 177.281 49.7055 174.324 51.0361 171.296C53.1871 175.581 55.338 179.867 57.489 184.152Z" fill="#6A81B8"/>
<path d="M28.676 125.907C28.6059 126.813 28.9861 127.597 29.3863 128.372C30.8569 131.289 32.3176 134.217 33.7683 137.154C34.0884 137.808 34.3786 138.482 34.6787 139.156C31.007 138.663 27.6555 134.549 27.8656 130.957C27.9656 129.237 27.7855 127.487 28.686 125.907H28.676Z" fill="#6A81B8"/>
<path d="M39.5509 148.763C39.851 149.276 40.1712 149.789 40.4413 150.312C42.032 153.46 43.6127 156.609 45.1835 159.768C45.4736 160.361 45.7137 160.985 45.9738 161.589C40.2912 160.482 37.9101 154.819 38.9506 150.644C39.1107 150 39.1907 149.336 39.5509 148.753V148.763Z" fill="#6A81B8"/>
<path d="M6.1957 80.8508C6.32576 81.7259 6.73594 82.4905 7.12612 83.265C8.59679 86.2527 10.0775 89.2303 11.5381 92.218C11.8283 92.8115 12.0784 93.4352 12.3485 94.0388C11.7983 93.8175 11.228 93.6163 10.6878 93.3548C7.40625 91.7855 5.5454 89.2404 5.48537 85.5184C5.45536 83.9189 5.36532 82.3094 6.1957 80.8407V80.8508Z" fill="#6A81B8"/>
<path d="M17.0806 103.736C19.1816 107.84 21.3226 111.925 23.1734 116.15C18.1311 115.033 15.62 109.873 16.4604 105.617C16.5904 104.974 16.6504 104.279 17.0806 103.726V103.736Z" fill="#6A81B8"/>
<path d="M172.702 136.319C172.682 135.524 172.662 134.72 172.642 133.925C173.282 134.71 173.222 135.504 172.702 136.319Z" fill="#6A81B8"/>
<path d="M113.905 174.525C114.035 174.666 114.175 174.797 114.305 174.938C113.865 175.219 113.445 175.551 112.964 175.773C111.114 176.648 109.243 177.503 107.382 178.348C107.212 178.428 107.012 178.509 106.842 178.297C106.842 178.257 106.842 178.167 106.862 178.157C109.203 176.939 111.554 175.732 113.905 174.515V174.525Z" fill="#6A81B8"/>
<path d="M125.49 167.282C125.68 166.92 125.99 166.669 126.32 166.447C132.393 162.353 138.566 158.43 145.229 155.352C145.589 155.191 145.959 155.06 146.34 154.939C146.41 154.919 146.55 155.04 146.63 155.12C146.66 155.14 146.63 155.271 146.59 155.301C146.39 155.472 146.19 155.643 145.969 155.794C142.628 158.098 139.186 160.231 135.635 162.202C132.954 163.691 130.232 165.069 127.511 166.457C126.861 166.789 126.24 167.192 125.49 167.262V167.282Z" fill="#6A81B8"/>
<path d="M148.281 154.819C148.191 154.889 148.09 154.969 148 155.04C147.9 154.718 148.191 154.909 148.281 154.819Z" fill="#6A81B8"/>
<path d="M125.49 167.282C125.4 167.353 125.31 167.433 125.21 167.504C125.11 167.182 125.4 167.363 125.49 167.282Z" fill="#6A81B8"/>
</svg>
