<svg width="175" height="196" viewBox="0 0 175 196" fill="none" xmlns="http://www.w3.org/2000/svg">
<path d="M16.7077 42.2702C18.8387 40.6506 21.1997 39.3931 23.4908 38.0552C34.4358 31.6574 45.6709 25.7926 57.0461 20.2197C64.4095 16.6083 71.8529 13.1679 79.3763 9.88852C82.3677 8.58078 85.3691 7.2831 88.3604 5.98542C89.4509 5.93512 89.8511 6.78012 90.2113 7.54465C93.953 15.4514 97.8148 23.3079 101.496 31.2449C103.267 35.0675 105.128 38.8399 106.949 42.6323C111.341 51.7865 115.733 60.9507 120.125 70.1049C126.828 84.0776 133.521 98.0603 140.164 112.063C142.365 116.711 144.816 121.238 146.767 126.016C147.167 127.002 147.788 127.937 147.237 129.064C145.847 130.794 143.726 131.176 141.835 131.84C136.002 133.882 129.999 135.261 123.807 135.623C122.356 135.703 120.935 136.106 119.455 135.995C118.514 135.924 117.604 135.824 116.924 135.069C116.253 134.566 116.003 133.792 115.623 132.937C115.643 133.731 115.833 134.426 115.453 135.059C114.252 136.488 112.612 136.035 111.161 135.924C103.537 135.311 96.0139 134.104 88.7706 131.488C79.2763 128.058 70.8024 122.928 63.239 116.238C58.2367 111.822 53.5545 107.094 49.2025 102.034C48.2421 100.917 46.8815 99.9314 47.0916 98.1308C48.3121 96.9337 49.0525 96.8934 50.213 98.1106C51.2735 99.2273 52.344 100.334 53.4445 101.39C54.3249 102.235 55.3754 102.698 56.5459 102.255C57.7464 101.802 57.7464 100.595 57.8165 99.529C57.9899 96.6788 59.5073 95.2504 62.3686 95.2437C64.0393 95.2437 65.9102 95.4248 66.6505 93.4631C67.3708 91.5418 65.8702 90.395 64.7196 89.1878C64.2994 88.7452 63.7892 88.4233 63.289 88.0913C61.6682 87.0452 60.8679 85.6972 61.3281 83.6853C61.5682 82.6491 61.5082 81.5426 61.3581 80.4763C61.098 78.5851 59.9775 77.9614 58.2467 78.6857C57.3162 79.078 56.5159 79.6715 55.7655 80.3455C54.2248 81.7337 52.5941 82.0858 50.6432 81.0396C49.1825 80.255 47.4517 79.41 45.9511 80.6674C44.3503 82.0154 45.1007 83.8865 45.5809 85.5463C46.6414 89.218 45.5409 91.7027 42.3594 92.6684C41.7091 92.4974 41.429 91.924 41.0988 91.4412C36.0865 84.1782 31.5345 76.6335 27.5226 68.777C27.1925 68.1232 26.8023 67.4894 26.8023 66.7148C27.0924 65.3166 28.323 64.9444 29.3735 64.4112C37.9374 60.0957 46.4913 55.76 55.0752 51.4948C59.2471 49.4225 63.299 47.1189 67.4809 45.0567C68.7615 44.4229 69.1016 43.7087 68.4013 42.3808C67.3008 40.3186 66.3304 38.1961 65.3999 36.0433C64.5796 34.1622 64.1894 34.0515 62.3385 34.977C55.2353 38.4878 48.1721 42.079 41.0888 45.63C35.5563 48.4065 30.0338 51.2131 24.4912 53.9694C23.4908 54.4724 22.4803 55.0961 21.2898 54.5026C19.0788 51.8468 18.3985 48.4467 16.9578 45.4289C16.4876 44.4531 15.8973 43.3667 16.7177 42.24L16.7077 42.2702Z" fill="#FF6ECB"/>
<path d="M16.7077 42.2701C17.6782 45.1472 18.9588 47.9035 20.1193 50.7101C20.6195 51.9273 21.0797 53.1646 21.56 54.3919C20.8696 56.0517 21.56 57.4701 22.3603 58.8583C23.881 61.504 25.1216 64.3206 27.0525 66.7148C27.6828 67.0468 27.9629 67.6604 28.263 68.2539C30.304 72.2174 32.3949 76.1607 34.716 79.9532C36.8369 83.4136 39.118 86.7735 41.319 90.1837C41.7792 90.908 42.3795 91.5719 42.3595 92.5175C42.8497 92.9098 42.7697 93.4329 42.7196 93.9762C42.4795 96.3301 42.8997 96.8733 45.2108 97.2254C46.0411 97.3461 46.9716 97.1851 47.4918 98.1006C47.902 99.5089 49.0325 100.424 49.8929 101.491C52.9643 105.283 56.4859 108.653 59.9675 112.053C65.2799 117.234 71.1126 121.73 77.6056 125.372C81.9876 127.826 86.5297 129.828 91.2918 131.367C94.8435 132.514 98.4651 133.369 102.147 133.943C104.508 134.315 106.869 134.617 109.26 134.788C110.711 134.888 112.151 135.18 113.622 135.13C114.162 135.11 114.693 135.089 115.123 134.717C115.613 134.607 115.863 134.929 116.043 135.291C116.924 137.051 116.203 140.572 114.683 142.02C113.172 143.459 110.981 143.539 108.78 142.252C107.459 141.477 106.269 140.25 104.928 138.158C105.989 140.099 107.189 141.276 108.57 142.222C111.941 144.505 115.433 143.057 116.303 139.083C116.513 138.097 116.683 137.121 116.553 136.105C116.463 135.431 116.443 134.757 117.134 134.335C117.594 134.868 118.144 135.17 118.874 135.13C119.275 135.11 119.675 135.16 120.065 135.13C122.236 134.918 124.407 134.687 126.578 134.456C128.959 134.204 131.29 133.721 133.631 133.218C137.213 132.454 140.704 131.418 144.086 129.989C145.066 129.577 146.107 129.315 146.997 128.692C148.048 128.692 148.478 129.486 148.868 130.271C151.229 135.059 153.42 139.918 155.811 144.686C156.362 145.793 156.552 146.98 155.871 148.147C151.93 151.114 147.648 153.519 143.286 155.832C134.932 160.258 126.948 165.369 118.504 169.634C109.3 174.281 100.306 179.412 90.4815 182.752C86.0494 184.25 81.5474 185.246 76.8953 185.598C76.285 185.649 75.7347 185.9 75.1344 185.93C68.5314 185.95 64.2095 182.43 61.2281 176.837C59.5673 173.708 58.2167 170.429 56.656 167.24C56.3359 166.576 56.0857 165.892 56.0557 165.137C56.7861 163.608 58.1267 163.306 59.6274 163.357C61.6483 164.212 62.2285 164.081 62.7588 162.653C63.289 161.224 62.6387 159.937 61.1481 159.323C59.5673 158.679 59.1772 159.635 58.9571 160.892C57.7865 162.16 56.4059 162.793 54.6651 162.391C53.8647 161.908 53.6046 161.043 53.2044 160.279C50.5632 155.239 48.3222 150.008 45.771 144.928C45.3508 144.093 44.9106 143.248 45.2208 142.242C45.9411 140.904 47.1717 140.642 48.5323 140.703C49.3226 140.854 50.013 142.091 50.9334 140.904C51.7738 139.838 51.5737 138.791 50.8734 137.795C50.3831 137.091 49.6328 136.87 48.7824 136.93C47.832 137.001 48.0221 137.866 47.7219 138.399C46.6714 139.496 45.3909 139.868 43.9102 139.606C42.9297 139.174 42.4695 138.288 42.0093 137.403C39.4781 132.444 37.3172 127.303 34.736 122.354C34.3058 121.529 33.9656 120.644 34.4358 119.688C35.1562 118.723 36.1366 118.431 37.2871 118.531C38.0875 118.682 38.6678 120 39.6982 119.004C40.4286 118.3 40.6987 117.445 40.3385 116.489C39.9184 115.353 39.058 114.648 37.8674 114.488C36.5668 114.306 36.857 115.604 36.3967 116.218C35.2962 117.183 34.0757 117.737 32.585 117.274C31.5645 116.52 31.2044 115.333 30.7241 114.256C28.5031 109.337 26.042 104.539 23.6609 99.7C23.1907 98.7444 22.6705 97.7887 23.1107 96.652C23.791 95.5656 24.7914 95.304 25.982 95.465C26.7423 95.6159 27.3526 96.8029 28.253 95.8774C28.8733 95.2437 29.2935 94.4691 28.9533 93.5235C28.5732 92.4672 27.8929 91.6021 26.7924 91.3707C25.6318 91.1192 25.8919 92.2057 25.7019 92.8394C24.5713 94.1572 23.1307 94.5898 21.4499 94.3584C20.1893 93.3424 19.8992 91.753 19.2289 90.395C17.0679 86.0291 14.8869 81.6733 12.7259 77.3075C12.2557 76.3518 11.7155 75.4063 12.0956 74.2695C12.7859 73.2636 13.8064 73.0926 14.9269 73.1529C15.8974 73.6157 16.9278 74.5613 17.7482 72.9718C18.3385 71.8251 17.7882 70.2256 16.6577 69.7025C15.2371 69.0386 14.3767 69.3806 13.7464 70.8694C12.906 71.8854 11.8755 72.2878 10.5849 71.8552C9.53446 71.0404 9.1843 69.783 8.63405 68.6664C7.28343 65.9302 5.81276 63.2443 4.62222 60.4175C4.13199 59.2607 3.96191 58.1441 4.31207 56.947C3.86187 53.8285 5.10244 51.364 7.19339 49.181C8.77411 47.5313 10.605 46.2034 12.4558 44.9057C13.8164 43.9501 15.187 43.0045 16.6977 42.3003L16.7077 42.2701Z" fill="#FF4FC0"/>
<path d="M155.341 147.905C155.501 146.97 155.451 146.064 155.021 145.179C152.45 139.848 149.889 134.506 147.317 129.174C147.227 128.993 147.097 128.843 146.987 128.682C146.037 126.619 145.126 124.537 144.146 122.485C137.973 109.579 131.78 96.6721 125.608 83.7657C120.785 73.6961 115.983 63.6165 111.161 53.5469C106.229 43.2359 101.296 32.9148 96.3741 22.6038C94.0431 17.7148 91.732 12.8158 89.411 7.92689C89.1008 7.26296 88.7206 6.63927 88.3705 5.9854C88.3805 5.32147 88.7907 4.87885 89.2509 4.47647C91.5819 2.4545 94.3132 1.31777 97.3346 0.875153C98.1349 0.754439 98.9353 0.834915 99.6256 1.33789C100.776 1.94146 101.226 3.07819 101.757 4.15456C109.12 19.1433 116.133 34.303 123.457 49.3018C127.438 57.46 130.83 65.9 135.022 73.9577C135.482 74.853 135.952 75.7282 136.573 76.5229C139.724 83.5947 143.166 90.5257 146.597 97.4668C146.787 98.7645 147.608 99.7805 148.088 100.947C151.049 108.12 155.251 114.689 157.982 121.962C158.102 122.274 158.402 122.475 158.583 122.767C161.424 128.611 164.305 134.446 166.896 140.411C167.507 142.031 166.836 143.69 167.106 145.32C167.126 147.191 167.567 149.123 166.356 150.823C166.286 151.285 166.196 151.728 165.926 152.13C163.795 155.259 160.934 157.351 157.262 158.297C156.662 158.448 156.081 158.418 155.561 158.045C154.661 157.633 154.661 156.818 154.641 156.013C154.621 155.289 154.841 154.555 154.601 153.83C154.441 152.855 154.831 151.909 154.791 150.933C154.791 150.46 154.861 149.998 154.831 149.525C154.761 148.901 155.081 148.398 155.351 147.885L155.341 147.905Z" fill="#00C1D5"/>
<path d="M157.862 123.058C157.682 122.777 157.472 122.515 157.332 122.223C153.6 114.417 149.879 106.601 146.157 98.7846C145.987 98.4225 145.867 98.0402 145.717 97.668C146.397 97.1952 146.977 97.5775 147.568 97.8994C148.748 98.5533 149.879 98.5432 150.869 97.5674C151.93 96.5212 151.859 95.3443 151.249 94.0667C149.058 89.4796 146.737 84.9628 144.276 80.5165C140.894 74.3702 137.483 68.2439 133.541 62.4295C132.06 60.2466 130.45 58.1441 129.169 55.9813C131.16 62.1478 133.391 68.3747 136.052 74.4406C136.422 75.2856 136.823 76.211 135.842 76.9856C135.522 76.4022 135.162 75.8388 134.872 75.2353C128.819 62.6206 122.776 50.006 116.733 37.3913C113.462 30.5709 110.21 23.7405 106.939 16.9201C104.678 12.2123 102.407 7.51448 100.146 2.80661C99.9157 2.32376 99.6256 1.86102 99.6156 1.30774C100.976 0.975779 102.337 0.673993 103.687 0.321909C104.998 4.0913e-06 106.329 -0.0100554 107.659 4.09153e-06C111.051 0.0402422 113.652 1.58941 115.613 4.28537C116.203 5.09013 116.673 5.98543 117.114 6.88073C122.036 16.9805 126.928 27.0903 131.84 37.2002C132.371 38.2866 132.901 39.363 133.421 40.4494C137.603 49.0503 141.795 57.6411 145.967 66.2521C151.049 76.7241 156.121 87.1961 161.194 97.668C163.435 102.305 165.686 106.933 167.917 111.57C168.207 112.174 168.567 112.737 168.667 113.421C168.877 114.186 168.437 114.709 167.937 115.141C164.895 117.797 161.914 120.523 158.613 122.847C158.392 123.008 158.122 123.048 157.862 123.058Z" fill="#FF6ECB"/>
<path d="M155.431 153.7C155.471 155.148 155.521 156.607 155.561 158.065C155.481 158.85 154.861 159.162 154.291 159.504C151.659 161.083 149.048 162.683 146.387 164.202C140.894 167.34 135.302 170.308 129.699 173.265C122.576 177.028 115.473 180.84 108.24 184.411C101.727 187.63 95.0635 190.518 88.1704 192.821C84.5087 194.048 80.787 195.095 76.9552 195.658C74.4441 196.03 71.8729 196.201 69.4018 195.668C64.8397 194.692 61.5182 191.966 59.4372 187.751C58.0866 187.017 57.4263 185.729 56.786 184.411C55.2253 181.715 53.9147 178.899 52.4841 176.132C51.6637 174.533 50.9534 172.903 50.4631 171.173C50.5332 169.724 50.9934 168.548 52.5541 168.155C53.8447 168.246 54.2449 169.302 54.7451 170.238C56.9261 174.302 58.6069 178.617 60.7578 182.701C64.8897 190.538 70.1922 191.755 77.1253 190.709C85.4291 189.461 93.0826 186.152 100.696 182.752C107.689 179.623 114.482 176.052 121.195 172.38C131.47 166.767 141.945 161.496 151.799 155.128C152.36 154.766 152.91 154.394 153.41 153.951C154.03 153.549 154.671 153.207 155.411 153.69L155.431 153.7Z" fill="#FB39B2"/>
<path d="M157.862 123.058C157.942 122.505 158.212 122.062 158.663 121.74C162.194 119.205 165.346 116.208 168.677 113.421C169.448 114.286 169.708 115.423 170.218 116.429C171.338 118.622 172.449 120.825 173.279 123.159C173.459 123.662 173.64 124.165 173.85 124.658C174.93 127.233 174.68 129.738 173.509 132.202C173.369 132.504 173.219 132.806 173.079 133.108C172.879 133.44 173.059 133.842 172.899 134.184C171.729 136.458 170.018 138.228 167.957 139.677C167.377 140.089 166.826 140.642 166.026 140.19C164.966 138.037 163.905 135.894 162.865 133.731C161.394 130.673 159.933 127.605 158.473 124.537C158.242 124.054 158.072 123.551 157.882 123.058H157.862Z" fill="#FF4FC0"/>
<path d="M52.7141 168.437C51.8337 169.201 51.3735 170.207 51.0334 171.294C51.0934 172.833 51.0534 174.372 51.2235 175.891C51.4936 178.366 52.404 180.549 54.645 181.937C55.6655 182.571 56.5359 183.405 57.4763 184.15C58.3767 185.216 58.987 186.433 59.4372 187.751C53.7346 187.912 48.3321 183.748 47.0716 177.621C46.4313 174.523 47.0716 171.676 48.2921 168.88C48.5322 168.326 48.8224 167.803 49.0825 167.26C49.0825 167.169 49.0825 167.079 49.0825 166.988C49.0825 166.807 49.0825 166.626 49.1025 166.445C49.3426 165.238 50.5031 164.795 51.1534 163.92C52.1039 162.783 53.0543 161.657 54.7751 162.029C56.0857 161.536 57.3963 161.033 58.7069 160.54C59.4572 159.413 60.4677 159.444 61.4782 160.017C62.4586 160.58 62.7487 161.536 62.4186 162.612C62.0284 163.85 61.088 164.172 59.8974 163.981C58.6269 164.001 57.5163 164.514 56.4359 165.137C55.7856 166.918 54.525 168.014 52.6841 168.427L52.7141 168.437Z" fill="#0044A4"/>
<path d="M32.8051 116.972C33.9456 116.57 35.0861 116.157 36.2266 115.755C37.067 114.659 38.0875 114.558 39.178 115.302C40.0984 115.936 40.4086 116.882 40.0384 117.928C39.6082 119.175 38.6277 119.387 37.4572 119.105C36.4668 119.175 35.5463 119.467 34.706 119.99C33.9256 121.549 32.3649 122.294 31.1843 123.441C30.2939 124.265 29.9938 125.432 29.4235 126.448C27.7128 129.416 28.7532 134.526 31.5845 136.679C32.625 137.464 33.5854 138.439 34.9661 138.651C36.0666 139.486 36.987 140.411 36.3167 141.97C36.2967 142.493 36.1866 142.886 35.5063 142.805C31.4044 142.332 28.233 140.361 26.132 136.769C23.7109 132.625 23.781 128.38 25.7719 124.094C26.052 123.491 26.4022 122.917 26.7223 122.334C26.4022 120.614 27.6827 119.829 28.7232 118.914C29.8637 117.797 30.8142 116.308 32.7951 116.942L32.8051 116.972Z" fill="#0044A4"/>
<path d="M48.5923 141.377C47.5118 141.518 46.4713 141.739 45.5709 142.413C44.6805 143.922 43.1698 144.797 41.9693 145.994C41.1489 146.95 40.8487 148.217 40.1284 149.233C38.5577 154.303 40.4886 158.951 46.2912 161.134C48.1421 162.592 48.4922 163.518 47.902 165.268C44.1002 165.56 38.3876 162.683 36.3967 157.794C35.8865 156.557 35.5463 155.279 35.4863 153.931C35.3762 151.446 35.5163 149.002 36.6668 146.728C37.057 145.964 37.5072 145.219 37.9274 144.475C37.5472 142.745 39.0079 142.121 39.8983 141.145C40.9988 140.039 42.0493 138.852 43.8601 139.214C45.0407 138.822 46.2312 138.419 47.4117 138.027C48.2021 136.951 49.1825 137.011 50.163 137.645C51.0134 138.188 51.3635 139.043 51.0834 140.049C50.7233 141.316 49.7628 141.558 48.6023 141.387L48.5923 141.377Z" fill="#0044A4"/>
<path d="M10.725 71.4931C11.6454 71.1611 12.5558 70.8191 13.4763 70.4872C14.7368 69.3907 16.1475 69.28 17.0879 70.2357C17.8182 70.97 17.9683 71.8553 17.5281 72.7807C17.0179 73.847 16.1075 74.0482 15.037 73.7565C14.1466 73.8672 13.2962 74.0885 12.5058 74.5512C11.8455 76.0601 10.2048 76.5531 9.22431 77.73C7.93372 78.5851 7.60357 80.0538 6.96327 81.3112C5.38255 83.8462 6.52307 89.7512 9.35437 91.5518C10.4749 92.2661 11.5454 93.0608 12.7759 93.5839C13.8064 94.6099 14.8069 95.6561 13.9765 97.2858C13.7164 97.5071 13.4162 97.6378 13.0661 97.5775C5.9228 96.3703 1.50078 90.8778 1.96099 83.977C2.12106 81.5728 2.70133 79.2188 4.33207 77.2874C4.45213 77.1365 4.52216 76.9353 4.6122 76.7643C4.172 75.1447 5.33253 74.3701 6.30297 73.4849C7.64359 72.5192 8.68406 70.8694 10.725 71.4831V71.4931Z" fill="#0044A4"/>
<path d="M21.4799 93.936C22.7905 93.4933 24.1011 93.0507 25.4117 92.6182C26.122 91.6223 27.0124 91.8033 27.8428 92.3667C28.6932 92.9401 28.9833 93.8354 28.6531 94.8313C28.243 96.0686 27.2725 96.3301 26.102 96.1289C25.1315 96.0988 24.2711 96.4005 23.4808 96.9538C22.6604 98.4225 21.0497 99.0261 19.9992 100.243C18.8487 101.31 18.4785 102.839 17.6881 104.116C16.0274 108.915 18.4685 113.804 23.4708 115.685C24.8014 116.62 25.7918 117.697 25.1115 119.497C24.5313 119.98 23.851 119.9 23.2107 119.749C18.0783 118.582 14.3766 115.423 13.2861 109.991C12.6158 106.651 12.956 103.332 14.8168 100.324C15.0269 99.9817 15.227 99.6397 15.4371 99.2977C15.0569 97.4367 16.5276 96.6621 17.5581 95.6159C18.7386 94.7608 19.679 93.3425 21.4799 93.946V93.936Z" fill="#0044A4"/>
<path d="M17.0779 103.734C17.4481 102.195 18.2585 100.927 19.379 99.851C20.3894 99.9616 20.7896 100.746 21.1798 101.521C23.831 106.732 26.3922 111.993 28.8433 117.304C29.1635 118.008 29.2535 118.692 29.1534 119.437C28.3431 120.413 27.5327 121.388 26.7223 122.354C26.072 121.932 25.8119 121.248 25.5618 120.564C25.4217 120.201 25.4217 119.779 25.1116 119.487C24.5013 118.35 24.1111 117.083 23.1607 116.147C22.0402 115.363 21.2398 114.317 20.7296 113.059C19.5391 110.132 17.3981 107.597 17.0379 104.307C17.0179 104.106 16.9979 103.915 17.0679 103.724L17.0779 103.734Z" fill="#FB39B2"/>
<path d="M17.9883 96.2396C17.1179 97.2354 16.1375 98.1509 15.4471 99.2977C14.9869 99.1166 14.7668 98.7243 14.5567 98.3018C14.3867 97.9597 14.1766 97.6278 13.9865 97.2857C13.5163 96.1691 13.1261 95.0022 12.3457 94.0365C9.28432 91.0891 8.15381 87.0451 6.32297 83.3935C5.93279 82.6189 6.05285 81.7035 6.19291 80.8485C6.73316 79.5307 7.4735 78.3436 8.49396 77.3377C9.33435 77.2773 9.64449 77.9211 9.92462 78.5046C12.4758 83.6953 15.237 88.7854 17.5381 94.1069C17.8382 94.8111 17.8983 95.5153 17.9783 96.2396H17.9883Z" fill="#FB39B2"/>
<path d="M40.2685 141.719C39.4881 142.634 38.6978 143.55 37.9174 144.465C37.3572 144.203 37.107 143.7 36.9169 143.157C36.7769 142.745 36.6768 142.302 36.3267 142C35.8465 141.015 35.4763 139.958 34.6759 139.154C33.5854 138.439 32.8351 137.464 32.2648 136.277C31.2844 134.224 30.2639 132.192 29.2334 130.16C28.5431 128.802 28.273 127.404 28.6832 125.905C29.2434 124.889 29.7036 123.813 30.6541 123.078C31.7046 123.099 32.1047 123.903 32.5149 124.668C35.1661 129.677 37.3872 134.898 39.9283 139.968C40.2085 140.532 40.2385 141.115 40.2885 141.719H40.2685Z" fill="#FB3BB2"/>
<path d="M10.725 71.4931C9.33434 72.1671 8.09377 73.0725 6.87321 74.008C6.13287 73.9275 5.66266 73.4749 5.35251 72.8512C4.08193 70.2759 2.60126 67.8113 1.78088 65.0249C1.43072 63.8278 1.36069 62.681 1.96096 61.5543L1.93095 61.5946C2.01099 61.504 2.06101 61.4034 2.06101 61.2726C2.54123 59.6732 2.99144 58.0637 4.32204 56.9169C5.70267 61.1821 7.90368 65.0651 9.80455 69.099C10.1747 69.8736 10.685 70.5978 10.725 71.5032V71.4931Z" fill="#FFEDB0"/>
<path d="M47.8919 165.258C47.4517 163.93 46.8914 162.653 45.961 161.586C44.9005 160.842 44.1602 159.846 43.6099 158.669C42.5695 156.426 41.439 154.233 40.3084 152.03C39.7782 150.984 39.6581 149.877 39.5381 148.75C39.9383 147.513 40.5285 146.386 41.529 145.511C42.6495 145.38 42.9997 146.266 43.3999 147.01C46.1511 152.181 48.3821 157.613 51.0834 162.814C51.3735 163.367 51.3935 163.96 51.4135 164.564C50.7732 165.349 50.1329 166.133 49.4926 166.918C49.3526 167.018 49.2225 167.139 49.1025 167.26C48.7023 166.586 48.3021 165.922 47.9019 165.248L47.8919 165.258Z" fill="#FB3BB2"/>
<path d="M172.639 133.943C172.779 133.661 172.919 133.379 173.069 133.098C173.64 134.154 174.1 135.25 174.53 136.377C175.32 138.449 175.05 140.431 174.23 142.393C174 142.946 173.74 143.489 173.419 143.992C171.719 146.668 169.468 148.801 166.916 150.642C166.766 150.752 166.546 150.772 166.356 150.833C166.386 148.982 166.426 147.121 166.456 145.27C166.836 144.183 167.507 143.318 168.287 142.493C169.998 140.693 171.178 138.57 171.889 136.186C172.069 135.502 172.499 134.908 172.629 134.204C172.629 134.114 172.639 134.033 172.649 133.943H172.639Z" fill="#FA3BB2"/>
<path d="M1.96096 61.5443C2.19107 63.6668 2.84136 65.6787 3.74177 67.6001C4.75224 69.7528 5.82273 71.8754 6.87321 74.008C6.13287 74.9436 5.20244 75.7181 4.61217 76.7744C4.17197 76.7744 3.85182 76.5732 3.66174 76.1809C2.44118 73.6056 1.13058 71.0807 0.310206 68.3344C-0.460147 65.7391 0.230169 63.5159 1.96096 61.5443Z" fill="#FA3BB2"/>
<path d="M2.06097 61.2726C2.10099 61.4135 2.06097 61.5241 1.93091 61.5945C1.94091 61.4738 1.98093 61.3732 2.06097 61.2726Z" fill="#FA3BB2"/>
<path d="M27.0424 66.7249C26.3821 66.906 25.8318 67.0267 25.3916 66.1917C23.7409 63.0029 22.0001 59.8643 20.3193 56.6955C19.729 55.5789 19.769 55.5387 20.8896 54.8245C21.1097 54.6836 21.3298 54.5327 21.5499 54.3919C22.3302 54.0298 23.1306 53.6978 23.9009 53.3155C36.5767 46.9579 49.2525 40.5902 61.9383 34.2426C65.0798 32.6734 64.6796 32.6935 66.1402 35.6309C67.2407 37.844 68.2912 40.0772 69.3717 42.3003C69.6018 42.7832 69.8419 43.256 70.052 43.7489C70.3322 44.4128 70.2421 44.6442 69.5618 45.0466C69.2216 45.2478 68.8515 45.4188 68.5013 45.5999C55.3153 52.2794 42.1293 58.9589 28.9432 65.6485C28.2929 65.9805 27.6727 66.3527 27.0324 66.7148L27.0424 66.7249Z" fill="#FFFBE7"/>
<path d="M47.4817 98.0905C46.7514 98.0905 46.0211 98.0905 45.2907 98.1006C44.5404 98.1106 43.8401 97.9396 43.1598 97.6479C41.7891 97.0544 41.1989 95.8271 41.6091 94.3685C41.7891 93.7347 42.0893 93.1312 42.3394 92.5075C43.2098 91.5015 44.0602 90.4654 44.9606 89.4896C45.4908 88.9162 45.5308 88.373 45.2707 87.6688C44.7805 86.351 44.3303 85.0232 44.1602 83.6149C44.0802 82.9409 44.0502 82.287 44.2102 81.6231C44.5704 80.1544 45.5208 79.3295 47.0315 79.2188C47.7018 79.1685 48.3721 79.1987 49.0024 79.4301C49.8728 79.752 50.7732 80.0337 51.6036 80.4461C53.5245 81.3917 53.0143 81.3816 54.675 80.0236C55.8656 79.0478 57.0261 78.0419 58.4968 77.4987C59.9374 76.9655 61.148 77.4282 61.8483 78.7762C62.1584 79.3798 62.3185 80.0236 62.3385 80.7076C62.3785 81.8444 62.3685 82.9811 62.1685 84.1078C62.1084 84.4397 62.0384 84.7616 61.9584 85.0936C61.8183 85.6972 62.0484 86.1197 62.5486 86.4516C63.269 86.9345 63.9893 87.4174 64.6696 87.9606C65.7701 88.8357 66.7806 89.8115 67.4108 91.1092C68.4113 93.1613 67.691 94.962 65.57 95.8171C64.8697 96.0987 64.1494 96.1591 63.419 96.1691C62.0884 96.1993 60.7578 96.1289 59.4372 95.8975C58.937 95.807 58.7069 96.0283 58.7069 96.5715C58.7069 97.5775 58.7469 98.5834 58.7469 99.5793C58.7469 100.394 58.6468 101.179 58.2967 101.923C57.7764 103.04 56.9761 103.523 55.7455 103.462C54.9251 103.422 54.1648 103.15 53.5245 102.647C52.7942 102.074 52.0838 101.46 51.4435 100.786C50.7532 100.062 50.153 99.2574 49.5127 98.4828C49.0525 97.9262 48.3755 97.7921 47.4817 98.0805V98.0905Z" fill="#FFCF00"/>
<path d="M95.6137 104.257C94.9935 104.247 94.3031 103.875 93.6428 103.392C92.8825 102.839 92.2922 102.114 91.6619 101.42C91.2017 100.917 90.9416 100.927 90.5214 101.42C90.2213 101.772 89.9511 102.155 89.641 102.517C89.4209 102.768 89.2008 103.02 88.9507 103.241C87.1299 104.861 85.4191 104.327 84.8088 101.933C84.5087 100.756 84.5387 99.5391 84.6287 98.342C84.6987 97.4467 84.4786 96.823 83.6383 96.3703C82.8779 95.9579 82.2376 95.3443 81.7374 94.62C80.887 93.3625 81.1771 92.1654 82.4977 91.411C83.3281 90.9382 84.2585 90.8275 85.169 90.6163C85.4891 90.5459 85.8293 90.5056 86.1594 90.5056C86.8397 90.5056 87.2499 90.1938 87.51 89.5399C87.8302 88.7351 88.1703 87.9304 88.6105 87.186C90.1212 84.651 92.1121 84.6107 93.7029 87.0753C94.093 87.6889 94.4032 88.373 94.6733 89.047C94.9334 89.6807 95.3136 90.0127 96.0239 90.0026C96.7543 90.0026 97.4846 90.0529 98.2149 90.0731C98.8252 90.0932 99.4055 90.224 99.9457 90.4855C100.906 90.9583 101.286 91.753 101.036 92.7992C100.826 93.6744 100.236 94.3182 99.6656 94.9821C99.0553 95.6863 97.9148 96.0183 97.7647 96.9437C97.6347 97.7384 98.0949 98.6237 98.2249 99.4787C98.365 100.404 98.405 101.35 98.2049 102.275C97.9248 103.563 97.0244 104.287 95.5937 104.247L95.6137 104.257Z" fill="#FFCF00"/>
<path d="M52.7141 168.437C53.5645 166.878 54.9051 165.882 56.4658 165.147C57.4963 166.717 58.1966 168.457 59.017 170.137C60.1975 172.531 61.268 174.986 62.5386 177.34C64.5995 181.162 67.691 183.778 71.9729 184.753C73.0034 184.985 74.0839 184.995 75.1344 185.106C79.4363 185.83 83.5282 184.532 87.7001 183.868C94.033 182.852 99.3154 179.442 104.868 176.595C108.59 174.684 112.251 172.652 116.023 170.831C116.683 170.519 117.344 170.177 118.054 170.026C118.594 169.916 119.194 169.986 119.475 170.499C119.815 171.133 119.475 171.696 118.914 172.028C117.374 172.933 115.863 173.919 114.242 174.694C112.311 175.821 110.19 176.575 108.229 177.661C110.22 176.575 112.361 175.77 114.342 174.654C123.516 169.04 133.271 164.494 142.525 159.031C145.386 157.341 148.418 155.973 151.389 154.484C152.19 154.082 153.08 153.559 153.94 154.434C153.53 154.987 152.9 155.249 152.34 155.601C145.867 159.715 139.194 163.467 132.451 167.119C125.307 170.992 118.164 174.865 110.981 178.667C103.257 182.752 95.3336 186.403 87.0298 189.149C83.8683 190.196 80.6569 191.051 77.3654 191.594C75.1844 191.946 72.9834 191.986 70.7924 191.755C68.0511 191.453 65.7501 190.115 63.7291 188.304C62.2185 186.957 61.0679 185.327 60.1775 183.506C58.0566 179.11 55.9256 174.724 53.7746 170.338C53.4544 169.684 53.2243 168.97 52.7041 168.427L52.7141 168.437Z" fill="#FFEEB0"/>
<path d="M113.902 174.523C115.473 173.507 117.044 172.511 118.604 171.485C118.864 171.314 119.235 171.093 119.014 170.72C118.854 170.459 118.534 170.62 118.284 170.72C115.003 172.038 111.851 173.638 108.78 175.398C107.329 176.223 105.888 177.058 104.428 177.843C101.847 179.241 99.2454 180.589 96.6642 181.977C95.1836 182.782 93.6028 183.285 92.0021 183.737C88.9207 184.613 85.7893 185.246 82.6178 185.629C80.3868 185.89 78.1058 186.071 75.8747 185.407C75.6246 185.337 75.3845 185.206 75.1444 185.095C80.6669 184.864 85.8993 183.315 91.0617 181.494C97.5446 179.201 103.818 176.384 109.9 173.195C121.716 167.008 133.451 160.661 145.036 154.032C147.868 152.412 150.649 150.672 153.45 148.992C154.081 148.62 154.721 148.257 155.351 147.895C155.481 148.449 155.481 148.992 155.391 149.555C153.94 151.456 151.659 152.261 149.939 153.72C149.969 153.69 149.959 153.74 149.989 153.72C151.169 152.804 152.4 152.02 153.6 151.195C154.121 150.843 154.681 150.34 155.411 150.813C155.551 151.768 155.531 152.734 155.451 153.69C154.961 153.941 154.461 154.183 153.97 154.434C153.28 154.464 152.7 154.816 152.11 155.108C148.308 157.019 144.466 158.88 140.704 160.862C137.413 162.602 134.201 164.484 130.95 166.304C129.729 166.988 128.529 167.692 127.288 168.346C123.286 170.449 119.275 172.531 115.253 174.613C114.963 174.764 114.622 174.825 114.312 174.935C113.892 175.076 113.812 174.885 113.912 174.523H113.902Z" fill="#FFFBE7"/>
<path d="M29.1634 119.437C28.5631 118.954 28.363 118.23 28.0429 117.576C25.1515 111.671 22.2702 105.756 19.3789 99.8509C20.4394 98.4426 21.74 97.3864 23.4808 96.9538C23.7309 97.5674 23.961 98.1911 24.2511 98.7846C26.8323 104.106 29.4235 109.428 32.0047 114.749C32.3548 115.463 32.805 116.137 32.795 116.982C31.4944 117.666 30.3139 118.542 29.1534 119.447L29.1634 119.437Z" fill="#FFEEB0"/>
<path d="M51.4136 164.574C50.6832 164.333 50.5232 163.628 50.233 163.045C48.2421 158.981 46.2612 154.907 44.2803 150.833C43.64 149.515 42.9997 148.197 42.3394 146.889C42.0993 146.417 41.8092 145.974 41.5391 145.521C42.5195 144.012 43.8401 142.936 45.5709 142.403C48.1421 147.724 50.7133 153.056 53.2844 158.377C53.6346 159.092 53.9848 159.816 54.3349 160.53C54.575 161.013 54.7951 161.496 54.7951 162.039C53.6046 162.804 52.434 163.588 51.4036 164.574H51.4136Z" fill="#FFEEB0"/>
<path d="M17.9882 96.2396C17.5781 96.0786 17.388 95.7165 17.2179 95.3644C14.3066 89.3588 11.4052 83.3432 8.50391 77.3377C9.60441 76.0601 10.885 75.0542 12.5157 74.5512C13.4362 76.4826 14.3466 78.4141 15.277 80.3354C17.1679 84.2385 19.0787 88.1416 20.9696 92.0548C21.2597 92.6483 21.6599 93.2217 21.4898 93.946C20.2293 94.5596 19.1088 95.4046 17.9882 96.2496V96.2396Z" fill="#FFEEB0"/>
<path d="M40.2684 141.719C39.6081 141.528 39.4281 140.914 39.1679 140.391C38.1975 138.429 37.2571 136.448 36.2966 134.486C34.4158 130.683 32.5349 126.881 30.644 123.078C31.6345 121.569 32.9951 120.553 34.7059 120C34.996 120.664 35.2562 121.348 35.5763 122.002C38.1275 127.253 40.6786 132.494 43.2298 137.745C43.4599 138.218 43.65 138.721 43.8501 139.204C42.6295 140.009 41.3489 140.713 40.2784 141.719H40.2684Z" fill="#FFEEB0"/>
<path d="M59.9274 163.991C60.3976 163.769 60.8878 163.588 61.328 163.306C61.9183 162.934 62.1484 162.24 61.9583 161.566C61.7782 160.932 61.348 160.5 60.7077 160.46C60.0574 160.419 59.3971 160.52 58.7368 160.55C58.2066 160.077 58.1866 159.514 58.4767 158.931C58.7168 158.428 59.147 158.126 59.7173 158.045C60.9679 157.864 62.7087 158.729 63.419 159.937C64.1293 161.134 64.0993 162.341 63.369 163.518C63.1589 163.85 62.8787 164.141 62.5686 164.383C61.9383 164.876 61.258 164.986 60.5577 164.483C60.3476 164.333 60.1475 164.151 59.9374 163.991H59.9274Z" fill="#FFCB00"/>
<path d="M37.4572 119.115C37.8273 118.964 38.1975 118.833 38.5476 118.652C39.388 118.22 39.7082 117.495 39.4681 116.691C39.268 116.017 38.5877 115.514 37.7873 115.544C37.2671 115.554 36.7468 115.685 36.2166 115.755C35.8064 115.101 35.8564 114.488 36.3667 113.914C36.8069 113.411 37.3871 113.321 38.0074 113.401C40.6186 113.723 42.2393 116.852 40.8987 118.984C40.4985 119.618 39.9983 120.151 39.1879 120.222C38.3275 120.292 37.8373 119.779 37.4572 119.105V119.115Z" fill="#FFCB00"/>
<path d="M26.112 96.1188C26.5222 95.9277 26.9624 95.7668 27.3526 95.5354C27.9829 95.1632 28.293 94.4691 28.1429 93.8655C27.9629 93.1613 27.5227 92.6785 26.8023 92.5779C26.3521 92.5175 25.8919 92.598 25.4317 92.6181C25.0115 92.4974 24.7014 92.2761 24.7314 91.7832C24.7914 90.7772 25.6518 90.0831 26.6422 90.224C28.5631 90.4956 30.1939 92.6584 29.9137 94.5898C29.8637 94.9117 29.7537 95.2336 29.6136 95.5354C29.2835 96.2194 28.7932 96.7626 28.0229 96.9236C27.2125 97.0946 26.6022 96.7627 26.132 96.1188H26.112Z" fill="#FFCC00"/>
<path d="M48.5922 141.377C49.0624 141.145 49.5927 140.974 50.0029 140.663C50.5031 140.27 50.7132 139.687 50.4831 139.043C50.273 138.429 49.8628 137.977 49.1925 137.946C48.6022 137.916 48.002 137.997 47.4017 138.027C46.9815 137.011 47.1116 136.407 47.8619 136.055C49.2325 135.401 51.2434 136.256 52.0438 137.836C52.8342 139.405 52.3139 141.216 50.8833 141.99C49.9228 142.503 49.2425 142.041 48.6022 141.387L48.5922 141.377Z" fill="#FFCB00"/>
<path d="M15.037 73.7565C15.5172 73.5553 16.0274 73.4044 16.4776 73.1429C17.0379 72.8109 17.278 72.0464 17.0879 71.4026C16.8978 70.7789 16.4676 70.4168 15.8273 70.3061C15.037 70.1753 14.2666 70.4268 13.4863 70.4872C13.1461 70.1653 13.1461 69.7931 13.3462 69.4007C13.6063 68.8877 14.0465 68.5759 14.5768 68.4652C15.9374 68.1735 17.0779 68.7066 18.0083 69.6422C18.8687 70.5073 19.1088 71.6038 18.7487 72.7908C18.6586 73.1027 18.5086 73.4145 18.3185 73.6861C17.9283 74.2595 17.3881 74.6518 16.6877 74.7222C15.9374 74.7927 15.4672 74.2997 15.047 73.7565H15.037Z" fill="#FFCA00"/>
<path d="M135.852 77.0057C135.892 76.3921 135.752 75.8187 135.492 75.2554C132.831 69.4711 130.7 63.4857 128.719 57.45C128.449 56.6251 128.129 55.8204 127.839 54.9955C127.748 54.744 127.638 54.4824 127.638 54.231C127.638 54.0599 127.748 53.8286 127.889 53.738C128.029 53.6475 128.309 53.6274 128.439 53.7179C128.709 53.899 128.949 54.1404 129.129 54.412C132.741 59.7939 136.553 65.045 139.774 70.6783C142.025 74.6216 144.126 78.6555 146.377 82.6089C148.328 86.0392 149.999 89.6204 151.789 93.1312C152.06 93.6643 152.36 94.2076 152.52 94.7809C153.24 97.2556 150.959 99.7604 148.458 99.2776C147.788 99.1468 147.227 98.8048 146.707 98.3621C146.407 98.1106 146.057 97.9095 145.717 97.6881C144.466 95.1934 143.206 92.7087 141.985 90.2038C140.304 86.7333 138.653 83.2527 136.993 79.7721C136.562 78.8768 136.082 78.0016 135.852 77.0158V77.0057Z" fill="#FF9CE7"/>
<path d="M172.699 136.317C171.728 140.089 169.477 142.956 166.456 145.28C166.286 143.59 166.426 141.87 166.016 140.2C168.157 138.52 170.218 136.759 171.909 134.597C172.109 134.345 172.399 134.164 172.649 133.953V133.923C173.039 134.707 172.949 135.512 172.709 136.317H172.699Z" fill="#FFF9E6"/>
<path d="M155.391 150.813C153.62 151.879 151.849 152.925 150.079 154.011C149.508 154.364 148.958 154.736 148.268 154.816C148.418 154.605 148.538 154.333 148.738 154.183C150.779 152.623 152.77 150.994 155.001 149.686C155.111 149.626 155.251 149.595 155.371 149.555C155.371 149.978 155.371 150.39 155.381 150.813H155.391Z" fill="#FFEFB8"/>
<path d="M157.892 106.309C157.892 106.52 157.892 106.591 157.892 106.651C157.842 108.432 157.062 109.589 155.631 110.041C154.07 110.534 152.69 110.021 151.699 108.512C151.079 107.557 150.639 106.541 150.649 105.343C150.649 103.855 151.209 102.819 152.6 102.175C154.01 101.511 155.191 101.923 156.281 102.788C157.452 103.704 158.042 104.931 157.892 106.319V106.309Z" fill="#FF9CE7"/>
<path d="M57.4863 184.15C54.9652 183.617 52.9142 182.329 51.6237 180.076C50.0129 177.279 49.7028 174.322 51.0334 171.294C53.1844 175.579 55.3354 179.864 57.4863 184.15Z" fill="#7064B4"/>
<path d="M28.6731 125.905C28.6031 126.811 28.9833 127.595 29.3835 128.37C30.8541 131.287 32.3148 134.214 33.7655 137.152C34.0856 137.806 34.3758 138.48 34.6759 139.154C31.0042 138.661 27.6527 134.546 27.8628 130.955C27.9628 129.235 27.7827 127.484 28.6831 125.905H28.6731Z" fill="#7064B4"/>
<path d="M39.5482 148.76C39.8483 149.273 40.1685 149.787 40.4386 150.31C42.0293 153.458 43.6101 156.607 45.1808 159.766C45.4709 160.359 45.711 160.983 45.9711 161.586C40.2885 160.48 37.9075 154.816 38.9479 150.642C39.108 149.998 39.188 149.334 39.5482 148.75V148.76Z" fill="#7064B4"/>
<path d="M6.19289 80.8485C6.32295 81.7237 6.73314 82.4882 7.12331 83.2628C8.59399 86.2505 10.0747 89.2281 11.5353 92.2158C11.8255 92.8093 12.0756 93.433 12.3457 94.0366C11.7955 93.8152 11.2252 93.6141 10.6849 93.3525C7.40344 91.7832 5.54259 89.2382 5.48256 85.5161C5.45255 83.9167 5.36251 82.3071 6.19289 80.8384V80.8485Z" fill="#7163B4"/>
<path d="M17.0778 103.734C19.1788 107.838 21.3198 111.922 23.1706 116.147C18.1283 115.031 15.6172 109.87 16.4575 105.615C16.5876 104.971 16.6476 104.277 17.0778 103.724V103.734Z" fill="#7064B4"/>
<path d="M172.699 136.317C172.679 135.522 172.659 134.717 172.639 133.923C173.279 134.707 173.219 135.502 172.699 136.317Z" fill="#FF4FC0"/>
<path d="M113.902 174.523C114.032 174.664 114.172 174.794 114.302 174.935C113.862 175.217 113.442 175.549 112.962 175.77C111.111 176.645 109.24 177.5 107.379 178.345C107.209 178.426 107.009 178.506 106.839 178.295C106.839 178.255 106.839 178.164 106.859 178.154C109.2 176.937 111.551 175.73 113.902 174.513V174.523Z" fill="#FFF5D4"/>
<path d="M125.487 167.28C125.678 166.918 125.988 166.666 126.318 166.445C132.391 162.351 138.563 158.428 145.226 155.349C145.587 155.188 145.957 155.058 146.337 154.937C146.407 154.917 146.547 155.038 146.627 155.118C146.657 155.138 146.627 155.269 146.587 155.299C146.387 155.47 146.187 155.641 145.967 155.792C142.625 158.096 139.184 160.228 135.632 162.2C132.951 163.689 130.23 165.067 127.508 166.455C126.858 166.787 126.238 167.189 125.487 167.26V167.28Z" fill="#FFEEB1"/>
<path d="M148.278 154.816C148.188 154.887 148.088 154.967 147.998 155.038C147.898 154.716 148.188 154.907 148.278 154.816Z" fill="#FFEFB8"/>
<path d="M125.487 167.28C125.397 167.35 125.307 167.431 125.207 167.501C125.107 167.179 125.397 167.361 125.487 167.28Z" fill="#FFEEB1"/>
</svg>
