<svg width="151" height="195" viewBox="0 0 151 195" fill="none" xmlns="http://www.w3.org/2000/svg">
<path d="M80.9348 30.794C68.5869 37.7113 71.416 50.9087 71.416 50.9087C71.416 50.9087 81.1927 60.2227 93.5406 53.3054C105.889 46.3882 115.787 26.0611 115.787 26.0611C115.787 26.0611 93.2827 23.8767 80.9348 30.794Z" fill="#19C600"/>
<path d="M58.8784 32.546C72.1516 37.4534 71.4159 50.9314 71.4159 50.9314C71.4159 50.9314 63.2092 61.6486 49.936 56.7413C36.6627 51.834 23.7156 33.2969 23.7156 33.2969C23.7156 33.2969 45.6051 27.6311 58.8784 32.5385V32.546Z" fill="#19C600"/>
<path d="M80.1611 9.9284C80.055 9.98908 79.9412 10.0877 79.8274 10.1635C79.5923 10.2925 79.3572 10.5428 79.1145 10.7779C78.9931 10.8992 78.8642 10.9978 78.7428 11.1344L78.3939 11.5743C77.8933 12.1204 77.4837 12.8561 77.0362 13.5539C76.6115 14.2744 76.2626 15.1012 75.853 15.89C74.4119 19.2045 73.5549 23.012 72.8722 26.8651C72.273 30.7485 71.8862 34.738 71.7497 38.7579C71.7118 40.7679 71.5601 42.793 71.6208 44.8105L71.7042 50.9011L70.3162 44.9547C69.8232 42.9675 69.535 40.9499 69.133 38.9324C68.3972 34.8897 67.9042 30.7864 67.6464 26.592C67.4947 22.3901 67.4795 18.1047 68.3366 13.6525C68.6172 12.5375 68.8296 11.415 69.1936 10.2773C69.5956 9.13959 69.9521 7.99429 70.5589 6.849L70.9836 5.98434C71.1353 5.69612 71.3325 5.4079 71.507 5.11968C71.871 4.54324 72.2275 3.9668 72.7281 3.40553C72.9632 3.1249 73.1908 2.83668 73.4487 2.55605L74.3285 1.72173C74.6016 1.44868 75.0263 1.16804 75.3828 0.91016C75.5496 0.78122 75.7923 0.63711 76.0502 0.493L76.4295 0.288213C76.4295 0.288213 76.6115 0.197196 76.7404 0.151688L77.1273 -6.67572e-06C77.1273 -6.67572e-06 81.2913 2.16922 80.1611 9.92081V9.9284Z" fill="#19C600"/>
<path d="M124.539 177.376C123.129 178.544 121.687 179.667 120.193 180.736H120.186C117.963 182.337 115.642 183.801 113.238 185.143C105.327 189.55 96.4455 192.561 86.9039 193.797L83.3618 194.252C43.1097 199.456 6.26312 171.028 1.07516 130.776L0.612495 127.219C-4.34033 88.8399 21.2657 53.5709 58.5446 45.8724C60.365 45.4856 62.2232 45.1671 64.0966 44.9319L67.6387 44.4768C107.891 39.2737 144.737 67.7013 149.925 107.953L150.388 111.511C153.725 137.375 143.175 161.828 124.547 177.384L124.539 177.376Z" fill="#FFA300"/>
<g opacity="0.1">
<path d="M120.186 180.736C117.963 182.337 115.642 183.801 113.238 185.143C105.327 189.55 96.4455 192.561 86.9039 193.797L83.3618 194.252C43.1097 199.456 6.26311 171.028 1.07516 130.776L0.612495 127.219C-4.34033 88.8399 21.2657 53.5709 58.5446 45.8724L59.3941 46.0772C59.3941 46.0772 59.4017 46.0772 59.4169 46.0848H59.4396C59.4396 46.0848 59.4851 46.0999 59.5079 46.1075C59.561 46.1227 59.6292 46.1379 59.7127 46.1606C59.7354 46.1606 59.743 46.1606 59.7658 46.1758C59.7127 46.2213 59.6292 46.2668 59.561 46.3199C59.4396 46.4109 59.3107 46.5019 59.1893 46.593C59.159 46.6157 59.1211 46.6385 59.0907 46.6612C58.4005 47.1618 57.2021 48.0265 55.67 49.2855C55.6245 49.3159 55.579 49.3614 55.5259 49.3993C55.4728 49.4524 55.4045 49.5131 55.3211 49.5662C55.1998 49.6648 55.0632 49.7785 54.9267 49.8847C54.8964 49.9075 54.8357 49.953 54.7598 50.0213C39.8331 62.3692 -1.06373 103.478 34.0687 159.719C44.8239 176.936 79.8046 195.238 120.186 180.736Z" fill="#683924"/>
<path d="M58.9997 45.9711C59.6899 46.1607 59.6444 46.1531 59.7581 46.1834C58.1502 45.7284 59.0376 45.9862 58.9997 45.9711Z" fill="#7D5543"/>
<path d="M21.7434 96.5081C21.7889 96.3868 21.8344 96.2502 21.8799 96.144C21.8648 96.0985 21.8117 96.2654 21.7434 96.5081Z" fill="#7D5543"/>
<path d="M48.9043 55.5658C48.563 55.9147 47.9866 56.4608 47.4784 56.9993C47.7363 56.7414 48.161 56.3091 48.9043 55.5658Z" fill="#7D5543"/>
<path d="M52.052 177.179C51.9913 177.134 51.9231 177.081 51.8548 177.028C50.7854 176.603 51.2329 176.83 52.052 177.179Z" fill="#7D5543"/>
<path d="M120.026 178.613C118.517 179.113 117.083 179.576 115.726 180.168C115.771 180.099 115.847 179.978 116.272 179.758C115.513 180.077 114.694 180.372 113.852 180.645C113.01 180.919 112.146 181.199 111.243 181.336C109.438 181.662 107.618 181.935 105.942 182.223C105.115 182.39 104.296 182.451 103.522 182.542C102.764 182.633 102.058 182.731 101.421 182.86C100.147 183.118 99.1608 183.475 98.6071 183.998C97.1736 184.316 95.7249 184.461 94.2686 184.703C99.9572 184.559 93.4647 185.5 95.8235 185.682C93.5557 185.886 89.9833 185.431 92.7441 185.219L93.1764 185.272C93.4267 185.037 93.1006 184.923 92.4862 184.863C91.8719 184.825 90.9769 184.84 90.0439 184.764C88.1705 184.65 86.2061 184.582 86.2971 184.286C85.6069 184.256 84.9091 184.271 84.2189 184.195L82.1634 183.945C80.7906 183.778 79.4253 183.626 78.0752 183.421C76.7327 183.141 75.4054 182.853 74.0781 182.572C73.4106 182.428 72.7508 182.314 72.0909 182.14L70.1492 181.563C68.8674 181.169 67.5704 180.812 66.3113 180.395C65.075 179.917 63.8387 179.439 62.5948 178.962C61.3433 178.529 60.1753 177.953 58.9845 177.407C57.8164 176.83 56.5877 176.375 55.4728 175.723C55.7231 176.087 55.9734 176.481 56.2464 176.823C55.1694 176.277 54.1379 175.655 53.0684 175.071C52.3099 174.479 52.1962 174.039 54.4412 175.298C53.9331 174.813 52.9546 174.365 52.0672 174.039C51.1798 173.743 50.4744 173.425 50.3986 173.485C46.3104 170.512 52.4313 173.963 51.1495 173.099L49.3671 171.999L49.7311 172.317C48.199 171.567 47.8274 171.817 45.4154 169.852C43.9364 168.571 44.8466 168.957 44.255 168.464C44.3005 168.434 44.0729 168.298 43.36 167.713C42.2905 166.667 41.1452 165.681 40.1213 164.589C40.3792 165.157 40.7584 165.635 41.0845 166.166C40.6901 165.863 40.2654 165.544 39.9392 165.226C39.6207 164.884 39.3401 164.604 39.1429 164.399C38.756 164.005 38.6802 164.012 39.1884 164.975C39.0063 164.611 38.7029 164.149 38.2934 163.603C38.0886 163.33 37.861 163.049 37.6259 162.73C37.368 162.435 37.1177 162.093 36.8902 161.722C36.4048 160.993 35.8663 160.212 35.2974 159.408C34.7437 158.581 34.2507 157.633 33.7198 156.754C33.1888 155.866 32.6655 154.979 32.1725 154.144C31.9222 153.727 31.6871 153.318 31.4444 152.931C31.2396 152.536 31.05 152.134 30.8679 151.77C30.1322 150.314 29.5861 149.207 29.4268 148.752C29.0324 148.137 28.6684 147.523 28.3043 146.901C27.9857 146.256 27.6899 145.581 27.3865 144.906C26.8101 143.518 26.1502 142.077 25.5662 140.424C25.771 141.273 25.5207 141.933 24.6257 139.028C25.2173 139.415 24.876 138.065 24.3678 136.313C24.2465 135.88 24.0872 135.425 23.981 134.947C23.8824 134.47 23.7762 133.984 23.6852 133.529C23.5032 132.596 23.3818 131.732 23.3818 131.11C23.4121 131.656 23.2908 131.413 23.1012 130.806C22.8964 130.184 22.6385 129.191 22.4792 128.22C22.0924 126.271 21.7283 124.473 21.7435 126.202C21.3946 123.707 22.0165 126.013 21.88 124.101C20.8257 118.208 21.1671 110.942 22.2668 103.66C22.2138 103.539 21.88 104.738 22.0165 103.152L23.1998 99.4055C23.4728 97.9871 23.1087 97.9871 24.0189 95.5524C23.8521 95.8937 23.67 96.2654 23.8824 95.3856C26.0516 88.4455 29.1538 81.6496 33.0599 75.2557C34.0004 73.6401 35.1002 72.1232 36.1393 70.5532C37.2543 69.0438 38.3313 67.5117 39.5221 66.0554C41.6762 63.3173 43.9971 60.7082 46.4014 58.2356C46.3559 58.2811 46.3256 58.3114 46.2877 58.3342C46.4242 58.1673 46.7883 57.7805 47.2054 57.333C47.1068 57.4012 47.3419 57.1206 47.3419 57.0751C48.8058 55.6188 50.3152 54.1929 51.8397 52.8049C52.3479 52.2588 54.3806 50.4991 55.8444 49.2628C56.1023 49.0353 56.2388 48.9215 56.3071 48.876C56.3223 48.8684 56.3223 48.8533 56.3223 48.8533C56.2767 48.876 56.0265 49.0656 55.6851 49.3159C55.6396 49.3463 55.5941 49.3918 55.541 49.4297C55.4879 49.4828 55.4197 49.5435 55.3362 49.5966C55.2149 49.6952 55.0784 49.8089 54.9418 49.9151C54.9115 49.9379 54.8508 49.9834 54.775 50.0517C54.0241 50.6433 53.2429 51.2576 53.2201 51.2576C51.0281 53.2221 47.2813 56.2787 44.0805 59.8966C43.9667 60.018 43.8985 60.0787 43.8681 60.1014C43.9136 60.0256 44.5583 59.2974 44.255 59.5781C43.8606 60.0559 43.4131 60.5565 42.8214 61.1936C42.245 61.8383 41.5396 62.6271 40.6219 63.6586L40.8115 63.4083C38.301 66.3285 36.602 68.5053 34.8878 70.811C33.204 73.1471 31.4216 75.5818 29.2448 79.3514L29.7075 78.8736C28.7745 80.4892 28.4939 80.7925 28.0692 81.551C27.7203 82.5825 28.2512 81.3841 28.9414 80.2313C29.442 79.3666 29.9426 78.4944 30.0184 78.4944C30.0184 78.5247 29.9957 78.6309 29.9198 78.8129C29.5558 79.3135 28.9338 80.2692 28.2739 81.4676C27.6368 82.6963 26.8784 84.1222 26.1957 85.5785C25.5586 87.0424 24.9215 88.4835 24.3982 89.6515C23.9355 90.8423 23.5335 91.7525 23.2756 92.1014C22.2896 94.8167 23.761 91.3732 22.8129 94.0961L22.4716 94.7864L22.4261 95.5372C21.8573 97.3424 21.4249 98.2147 21.2884 98.2526C21.4325 97.8202 21.6373 96.9935 21.7738 96.5157C21.5615 97.0921 21.3112 97.7975 21.114 98.556C20.9471 99.3144 20.7651 100.111 20.6058 100.869C20.3555 102.015 20.1659 103.061 20.0597 103.676C20.2038 102.902 20.4238 102.144 20.6134 101.385C20.1507 103.312 19.9459 105.39 19.6046 107.506C19.4226 108.56 19.3998 109.652 19.3012 110.729C19.233 111.822 19.0888 112.906 19.0964 113.998V117.26C19.0964 117.806 19.0888 118.337 19.1116 118.875C19.1571 119.406 19.2026 119.93 19.2481 120.468C19.3467 121.515 19.4529 122.546 19.5439 123.555C19.6198 124.564 19.8852 125.52 20.0521 126.46L20.0824 125.869C20.6589 128.72 20.7651 129.888 21.0381 131.094C21.1519 131.709 21.2732 132.331 21.4477 133.195C21.5463 133.628 21.6525 134.113 21.789 134.697C21.9104 135.274 22.0848 135.933 22.3579 136.684L22.2593 136.48C22.7826 137.648 23.3742 139.248 23.8824 140.932C23.5562 140.181 23.7155 140.932 23.8369 141.637C24.0037 142.32 24.1554 142.934 23.6776 141.979C24.9822 144.876 25.3387 145.581 25.6041 146.006C25.9075 146.438 26.0213 146.651 27.1817 148.41L27.3714 149.374C28.1981 150.542 28.3574 150.602 29.8212 153.416C28.4711 151.179 30.3446 155.426 28.7973 152.938C28.9414 153.333 29.1007 153.712 29.2372 154.076C29.4192 154.425 29.5861 154.766 29.7606 155.1C30.1019 155.745 30.428 156.352 30.7617 156.92C31.4216 158.035 32.036 158.976 32.5897 159.825C33.113 160.69 33.7805 161.395 34.228 162.116C34.7134 162.821 35.0547 163.572 35.396 164.308C36.0635 164.771 36.1772 164.702 35.9952 164.361C35.9042 164.194 35.7373 163.967 35.5174 163.694C35.3353 163.398 35.1078 163.072 34.8802 162.715C34.19 161.684 33.3936 160.591 33.3026 160.409C33.3254 160.409 33.3709 160.462 33.4467 160.553C33.1433 159.886 33.6288 160.341 34.3417 161.168C35.0699 161.972 35.9193 163.246 36.6323 164.02C37.3377 164.824 37.7473 165.681 38.4375 166.849C38.8243 167.403 39.287 168.017 39.9165 168.737C40.4929 169.375 41.1528 170.194 42.0933 170.952C41.8809 170.793 41.7672 170.747 41.4486 170.489C42.1767 171.218 43.0187 171.786 43.8757 172.401C44.7252 173.023 45.6126 173.698 46.5759 174.509C48.0322 174.858 49.2533 176.337 49.9511 176.011L45.7264 173.379C46.9551 174.092 48.2142 174.654 49.6249 175.389C51.0357 176.117 52.6892 176.83 54.6005 178.135C54.2289 178.089 52.9395 177.581 52.0672 177.194C53.167 178.014 54.3806 178.408 55.5638 179.166C55.2149 179.417 53.8572 178.727 52.2568 177.824C51.4529 177.384 50.5654 176.906 49.7235 176.436C48.8968 175.928 48.1004 175.473 47.395 175.139C47.9411 175.662 49.1774 176.398 50.1331 176.876C51.0888 177.339 51.688 177.672 50.8461 177.612C52.0369 177.748 53.1822 178.431 54.4943 179.227C55.8368 179.94 57.3765 180.736 59.1817 181.176L58.7949 181.457C59.0755 181.548 59.5003 181.692 60.0009 181.829C60.5014 181.95 61.0475 182.109 61.5481 182.307C60.8807 182.238 60.1981 182.193 59.5306 182.117C61.0172 182.443 62.3369 183.035 63.6263 183.664C64.271 183.968 64.9082 184.324 65.5756 184.559C66.2582 184.794 66.9409 184.999 67.6538 185.151C64.7337 184.332 64.4834 184.013 64.6351 183.899C64.7716 183.778 65.3405 183.763 64.2028 183.171C65.9549 183.725 67.1229 183.945 67.9269 184.294C68.746 184.597 69.2466 184.908 69.77 185.227C70.2933 185.53 70.8394 185.917 71.7799 186.251C72.6673 186.546 73.8657 186.873 75.7088 187.214C74.427 186.933 72.1895 186.182 73.7671 186.326C75.2992 186.713 77.3092 187.373 78.2497 187.699C83.7335 188.291 77.4685 187.146 79.8273 187.168C81.6249 187.919 82.5427 187.312 84.9243 187.35V187.805C88.0264 188.078 88.4587 187.851 88.8 187.639C88.9669 187.525 89.1186 187.426 89.5737 187.381C89.8012 187.358 90.1046 187.35 90.5294 187.373C90.9465 187.396 91.4926 187.419 92.1904 187.419C91.4092 187.692 90.6204 187.874 89.8316 188.056L91.2954 188.025L92.7593 187.881L92.1601 188.435C93.7605 188.177 94.8072 188.063 95.8387 188.003C96.362 187.98 96.8854 187.972 97.4618 187.972H98.4023C98.7284 187.95 99.0925 187.927 99.4793 187.896C98.7284 187.661 99.7979 186.986 102.521 186.622C104.425 186.653 101.535 187.199 105.418 186.63C104.591 187.039 103.666 187.54 101.922 187.32C101.762 187.487 101.08 187.73 100.92 187.896C102.983 187.927 106.055 187.396 107.428 187.001C106.882 187.1 106.237 187.206 105.896 187.214L111.327 185.348C112.244 185.34 111.585 185.629 110.932 185.917C111.501 185.773 111.956 185.598 112.487 185.416C112.722 185.348 112.973 185.257 113.261 185.158C115.665 183.816 117.986 182.352 120.208 180.752H120.216C121.718 179.682 123.159 178.56 124.562 177.392C122.651 177.809 121.483 178.127 120.042 178.628L120.026 178.613ZM43.8454 168.328L44.346 168.836C42.9959 167.941 43.4131 168.146 43.8454 168.328Z" fill="#7D5543"/>
<path d="M54.9495 50.0365L56.6636 48.603L55.5487 49.5131L54.9495 50.0365Z" fill="#7D5543"/>
<path d="M58.2563 47.2984L58.6811 46.9875C59.0376 46.7068 59.3941 46.4414 59.7581 46.1835C59.341 46.4717 58.5597 47.0709 58.2563 47.2984Z" fill="#7D5543"/>
</g>
<path d="M106.776 61.4286C106.48 64.9631 103.386 67.5874 99.8511 67.2992C96.3166 67.011 93.6923 63.9088 93.9805 60.3744C94.2763 56.8399 97.3709 54.2156 100.905 54.5038C104.44 54.792 107.064 57.8942 106.776 61.4286Z" fill="white"/>
<path d="M118.305 68.1563C118.123 70.3558 116.196 71.9865 113.997 71.8045C111.797 71.6225 110.166 69.696 110.348 67.4964C110.53 65.2968 112.457 63.6661 114.656 63.8481C116.856 64.0302 118.487 65.9567 118.305 68.1563Z" fill="white"/>
</svg>
