<svg width="180" height="121" viewBox="0 0 180 121" fill="none" xmlns="http://www.w3.org/2000/svg">
<path d="M67.3 18.4C67.95 18.73 68.62 19.02 69.26 19.38C100.59 36.93 131.92 54.49 163.25 72.04C164.24 72.59 165.22 73.15 166.2 73.71C166.78 74.04 167.36 74.37 167.67 75.01C167.78 76.77 167.21 77.45 165.34 77.63C163.75 77.78 162.15 77.66 160.56 77.74C157.5 77.88 154.98 79.25 152.72 81.2C151.28 81.53 150.13 80.76 148.98 80.13C141.99 76.29 135 72.45 128.02 68.59C120.81 64.61 113.59 60.64 106.38 56.65C93.77 49.67 81.11 42.77 68.5 35.77C65.07 33.87 61.64 31.97 58.17 30.14C57.12 29.58 55.97 29.12 55.62 27.79C55.54 27 55.91 26.38 56.42 25.85C59.04 23.13 61.97 20.79 65.22 18.88C65.85 18.51 66.52 18.21 67.29 18.41L67.3 18.4Z" fill="#FFCF00"/>
<path d="M67.3 18.4C66.95 18.92 66.41 19.18 65.89 19.48C62.12 21.68 58.83 24.45 55.93 27.71C55.8 29.37 54.6 30.4 53.65 31.57C48.43 38.03 44.97 45.31 43.33 53.45C43.08 54.14 42.95 54.91 42.11 55.19C41.05 55.32 39.99 55.32 38.93 55.3C35.57 55.22 33.86 53.55 33.57 50.19C33.2 45.91 34.13 41.88 35.83 38C36.17 37.21 36.54 36.43 36.66 35.39C35.93 35.59 35.72 36.18 35.43 36.61C33.56 39.35 31.84 42.19 30.28 45.12C29.78 46.05 29.25 47.2 27.96 46.91C26.64 46.62 26.48 45.4 26.37 44.22C25.85 38.25 27.61 32.82 30.28 27.6C31.33 25.55 32.72 23.63 32.98 21.24C35.12 17.1 38.5 14.03 41.9 10.98C43.03 9.97001 44.22 9.01001 45.57 8.28001C46.34 7.86001 47.09 7.41001 47.96 8.03001C48.83 7.71001 49.7 7.39001 50.59 7.12001C53.23 6.34001 57.02 7.65001 58.42 10.19C58.86 10.98 59.46 11.25 60.32 11.41C62.47 11.8 64.32 12.74 65.8 14.44C66.82 15.61 67.43 16.85 67.29 18.42L67.3 18.4Z" fill="#0044A4"/>
<path d="M143.21 120.59C142.28 120.65 141.56 120.13 140.81 119.72C129.46 113.57 118.11 107.43 106.76 101.28C85.81 89.94 64.87 78.59 43.92 67.25C43.57 67.06 43.2 66.91 42.84 66.74C40.6 64.51 40.99 61.81 41.47 59.09C42.42 57.91 43.49 58.5 44.54 58.91C49.81 61.01 54.68 63.89 59.67 66.54C65.66 69.71 71.59 72.99 77.56 76.19C90.79 83.29 104.05 90.33 117.21 97.58C123.96 101.3 130.76 104.92 137.37 108.89C138.64 109.65 139.6 110.77 140.83 111.56C142.21 113.42 143.3 115.46 144.39 117.49C145.32 119.22 144.94 120 143.21 120.59Z" fill="#FFB200"/>
<path d="M152.33 80.88C153.01 80.15 153.59 79.35 154.41 78.74C156.26 77.35 158.4 76.97 160.62 76.88C161.95 76.82 163.28 76.84 164.61 76.81C165.07 76.8 165.54 76.76 166 76.68C166.94 76.52 167.59 76.03 167.68 75C168.35 75.35 168.76 75.97 169.21 76.53C171.89 79.85 173.91 83.57 175.55 87.48C176.39 89.49 177.1 91.56 177.86 93.6C177.57 94.64 176.77 95.22 175.91 95.74C171.23 98.57 167.97 102.61 165.82 107.58C165.5 108.31 165.14 109.02 164.39 109.42C163.2 110.37 161.75 110.64 160.32 110.77C153.96 111.33 147.94 110.27 142.46 106.84C141.57 106.28 140.6 105.78 140.41 104.57C140.75 102.53 142.49 102.36 144 102C145.8 101.57 147.68 101.52 149.49 101.05C153.3 100.04 154.77 97.52 153.83 93.7C153.07 90.6 151.29 87.84 150.89 84.63C150.7 83.11 150.71 81.68 152.34 80.87L152.33 80.88Z" fill="#FFDBCA"/>
<path d="M47.96 8.02001C46.52 8.57001 45.26 9.43001 44.05 10.36C40.21 13.35 36.88 16.85 33.97 20.74C33.85 20.9 33.79 21.09 33.7 21.26C31.14 26.05 28.65 30.88 26.32 35.8C26.09 36.29 25.71 36.67 25.19 36.89C23.95 37.25 23.01 36.62 22.09 35.95C14.7 30.54 10.83 23.1 9.60002 14.17C9.32002 12.12 8.35002 10.05 9.56002 7.98001C13.23 3.75001 17.83 1.10001 23.34 0.220009C26.11 -0.219991 28.9 0.0300093 31.65 0.660009C34.65 1.34001 37.51 2.40001 40.3 3.67001C42.54 4.69001 44.71 5.84001 46.91 6.94001C47.38 7.18001 47.91 7.38001 47.96 8.02001Z" fill="#FF6ECB"/>
<path d="M9.56999 7.98001C10.1 12.27 10.74 16.54 12.04 20.67C13.4 24.99 15.66 28.78 18.91 31.97C20.15 33.18 21.39 34.38 22.82 35.37C23.52 35.86 24.17 36.49 25.12 36.45C25.97 37.27 25.54 38.19 25.23 39.04C23.58 43.61 22.51 48.31 22.08 53.14C22.02 53.82 21.92 54.46 21.28 54.87C21.1 56.85 21.08 56.88 19.45 55.96C15.45 53.71 11.54 51.32 8.13999 48.2C4.17999 44.55 1.42999 40.17 0.429992 34.8C-0.630008 29.13 0.329992 23.69 2.47999 18.44C3.94999 14.86 5.88999 11.53 8.67999 8.77001C8.95999 8.49001 9.26999 8.24001 9.56999 7.98001Z" fill="#FF4FC0"/>
<path d="M21.2801 54.87C21.1201 51.24 21.8001 47.73 22.6501 44.23C23.2901 41.58 24.2601 39.03 25.1101 36.45C25.3901 35.85 25.6801 35.26 25.9501 34.65C27.8501 30.25 30.2601 26.14 32.9601 22.19C33.1801 21.86 33.4601 21.57 33.7101 21.26C33.9501 21.65 33.8201 22.02 33.6401 22.39C33.2501 23.16 32.8901 23.95 32.4801 24.71C31.1201 27.24 30.0201 29.88 29.0101 32.56C27.5601 36.4 26.9001 40.38 27.2301 44.5C27.2701 45.04 27.3901 45.55 27.6401 46.03C27.8801 46.49 28.2701 46.56 28.5601 46.15C28.9001 45.66 29.2401 45.16 29.5101 44.63C31.2101 41.38 33.1601 38.29 35.2001 35.25C35.6101 34.64 36.0901 34.09 36.6801 33.64C37.1701 33.27 37.7801 33.51 37.9201 34.1C38.0601 34.71 37.9301 35.28 37.7001 35.85C37.2201 37.02 36.8201 38.22 36.2801 39.37C35.4601 41.14 35.0101 43.02 34.6101 44.9C34.2001 46.8 34.3501 48.75 34.4901 50.67C34.5301 51.25 34.7901 51.83 35.0101 52.38C35.5401 53.68 36.5401 54.36 37.9401 54.42C38.7401 54.45 39.5401 54.43 40.3401 54.43C40.9401 54.43 41.5501 54.43 42.0401 54.85C43.2501 56.19 43.1201 57.51 41.9801 58.81C41.7201 60.84 41.9501 62.84 42.4701 64.81C42.6401 65.44 42.8501 66.06 42.8201 66.72C41.7301 68.16 40.1901 68.52 38.5501 68.3C35.9801 67.96 33.6601 67.01 32.0201 64.85C31.6001 64.3 31.1701 64.11 30.4801 64.3C29.9801 64.44 29.4301 64.43 28.9001 64.48C26.5301 64.68 24.8001 63.55 23.4501 61.76C22.3101 60.25 21.5801 58.55 21.6001 56.6C21.6001 56.01 21.6201 55.39 21.2701 54.86L21.2801 54.87Z" fill="#003986"/>
<path d="M164.33 108.78C164.45 108.55 164.6 108.33 164.7 108.09C167.22 101.56 171.61 96.74 177.86 93.61C178.59 96.3 179.27 98.99 179.67 101.76C179.96 103.75 180.02 105.73 179.88 107.71C179.67 110.72 178.33 113.15 175.8 114.89C174.42 115.83 172.94 116.57 171.39 117.17C169.28 117.99 167.1 118.56 164.9 119.07C164.31 119.21 163.72 119.33 163.19 118.9C162.56 118.63 162.33 118.09 162.3 117.46C162.15 114.38 162.14 111.33 164.32 108.79L164.33 108.78Z" fill="#2A2A2A"/>
<path d="M164.33 108.78C164.07 109.93 163.78 111.07 163.55 112.22C163.11 114.42 163.05 116.65 163.2 118.89C163.03 119.28 162.79 119.53 162.33 119.59C160.96 119.77 159.59 120.03 158.22 120.18C153.23 120.71 148.23 121.01 143.21 120.59C144.39 119.45 144.5 119.16 143.72 117.94C142.48 116.01 141.38 114 140.31 111.98C139.07 110.35 137.78 108.74 138.46 106.47C138.86 105.41 139.08 104.15 140.68 104.38C141.96 105.78 143.65 106.6 145.29 107.4C147.91 108.68 150.73 109.54 153.62 109.87C156.04 110.14 158.5 110.18 160.93 109.75C162.1 109.54 163.3 109.48 164.33 108.79V108.78Z" fill="#FFCDBC"/>
<path d="M140.68 104.38C139.77 104.72 139.56 105.63 139.08 106.33C137.9 107.05 137.03 106.18 136.16 105.67C130.73 102.44 125.25 99.31 119.73 96.24C112.58 92.27 105.42 88.32 98.26 84.37C83.94 76.46 69.51 68.77 55.19 60.88C51.7 58.96 48.2 57.04 44.67 55.17C43.79 54.7 42.85 54.28 42.73 53.09C42.47 52.34 42.78 51.64 42.96 50.95C44.74 43.96 47.83 37.61 52.29 31.93C53.44 30.47 54.49 28.92 55.94 27.73C56.34 28.21 56.91 28.41 57.43 28.7C88.76 45.96 120.1 63.21 151.44 80.46C151.73 80.62 152.03 80.76 152.33 80.9C152.3 81.03 152.3 81.17 152.25 81.29C151.44 83.03 151.59 84.77 152.22 86.51C152.7 87.82 153.19 89.11 153.7 90.41C154.24 91.77 154.7 93.15 154.94 94.59C155.52 98.1 153.93 100.69 150.53 101.78C148.69 102.37 146.76 102.48 144.86 102.8C143.81 102.98 142.79 103.23 141.8 103.64C141.38 103.82 140.93 103.97 140.67 104.4L140.68 104.38Z" fill="#2A2A2A"/>
<path d="M144.61 69.62C143.96 69.64 143.35 69.36 142.77 69.05C141.13 68.16 139.48 67.3 137.87 66.37C133.21 63.67 128.56 60.95 123.92 58.23C116.81 54.06 109.7 49.88 102.72 45.49C100.58 44.15 98.4199 42.84 96.2999 41.45C94.0199 39.95 91.7899 38.38 89.5399 36.84C89.3799 36.73 89.2199 36.6 89.0999 36.45C89.0399 36.37 89.0199 36.17 89.0799 36.11C89.1499 36.04 89.3299 36 89.4299 36.04C89.9199 36.25 90.3999 36.48 90.8799 36.71C95.3999 38.97 99.9399 41.2 104.45 43.51C106.93 44.78 109.35 46.18 111.8 47.53C113.37 48.39 114.95 49.25 116.52 50.12C120.48 52.3 124.45 54.47 128.39 56.69C131.63 58.51 134.84 60.4 138.07 62.26C140.14 63.45 142.22 64.64 144.31 65.82C144.83 66.12 145.36 66.41 145.75 66.88C145.96 67.13 146.15 67.42 146.25 67.73C146.6 68.85 145.91 69.67 144.63 69.64L144.61 69.62Z" fill="#FFDE4C"/>
<path d="M154.29 72.68C154.26 73.97 152.73 75.05 151.42 74.68C150.32 74.37 149.59 73.64 149.27 72.54C149.07 71.86 149.32 71.19 149.88 70.79C151.01 69.98 153.21 70.4 153.98 71.56C154.21 71.91 154.3 72.28 154.3 72.69L154.29 72.68Z" fill="#FFDE49"/>
<path d="M42.72 53.08C66.23 65.93 89.75 78.76 113.25 91.63C121.18 95.97 129.13 100.29 136.81 105.06C137.54 105.51 138.32 105.9 139.07 106.32C138.98 108.31 139.69 110.13 140.3 111.97C138.08 110.14 135.53 108.83 133.08 107.38C130.22 105.69 127.31 104.08 124.42 102.46C122.8 101.55 121.16 100.67 119.52 99.79C117.29 98.6 115.05 97.44 112.83 96.23C109.33 94.32 105.86 92.36 102.37 90.44C100.57 89.45 98.71 88.55 96.92 87.53C94.21 85.98 91.39 84.62 88.64 83.14C85.77 81.6 82.92 80.03 80.06 78.48C78.25 77.5 76.39 76.61 74.61 75.57C72.14 74.14 69.56 72.89 67.04 71.54C64.47 70.15 61.91 68.73 59.35 67.33C59.18 67.23 59 67.14 58.82 67.04C55.1 65.11 51.4 63.14 47.66 61.28C45.82 60.36 43.89 59.64 42 58.83C41.76 57.51 42.16 56.19 42.06 54.87C42.48 54.35 42.2 53.56 42.73 53.08H42.72Z" fill="#FFC500"/>
<path d="M56.39 12.87C56.05 13.54 55.47 14 54.95 14.52C53.12 16.36 51.3 18.21 49.44 20.01C47.67 21.73 46.17 23.67 44.58 25.54C43.47 26.86 42.18 28.02 40.96 29.24C40.83 29.37 40.62 29.43 40.44 29.51C40.21 29.61 39.82 29.38 39.85 29.15C39.89 28.82 39.94 28.49 40.04 28.18C40.56 26.73 41.2 25.29 42.24 24.18C43.9 22.39 45.31 20.39 47.29 18.83C49.38 17.19 51.5 15.59 53.71 14.12C54.54 13.57 55.39 13.04 56.4 12.86L56.39 12.87Z" fill="#003986"/>
<path d="M56.4 12.88L56.48 12.79L56.39 12.87L56.4 12.88Z" fill="#003986"/>
<path d="M23.38 3.29001C25.61 3.22001 27.53 3.82001 29.21 5.15001C30.39 6.09001 30.97 7.27001 30.8 8.79001C30.69 9.78001 30.23 10.51 29.35 11.02C28.06 11.77 26.69 11.79 25.3 11.57C23.27 11.26 21.25 10.92 19.2 10.86C18.37 10.84 17.65 10.53 16.96 10.11C16 9.53001 15.6 8.47001 15.94 7.37001C16.37 5.94001 17.43 5.00001 18.7 4.39001C20.19 3.67001 21.77 3.11001 23.38 3.27001V3.29001Z" fill="#FF9CE7"/>
<path d="M34.88 11.26C33.53 11.29 32.65 10.71 32.31 9.54C32.05 8.63 32.42 7.6 33.28 7.17C34.22 6.71 35.21 6.68 36.12 7.26C37.06 7.86 37.39 8.86 37.05 9.85C36.74 10.74 35.99 11.23 34.88 11.26Z" fill="#FF9BE7"/>
<path d="M12.39 40.75C12.34 42.16 11.2 43.24 9.75997 43.12C8.66997 43.03 7.70997 42.62 7.18997 41.54C6.66997 40.44 6.67997 39.36 7.33997 38.34C7.92997 37.41 9.10997 37.09 10.13 37.53C11.45 38.11 12.44 39.51 12.39 40.75Z" fill="#FB39B2"/>
<path d="M5.64001 23.11C5.64001 22.34 5.73001 21.83 6.04001 21.38C6.40001 20.87 6.88002 20.52 7.53001 20.6C8.75002 20.74 9.86001 22.56 9.50001 23.77C9.16001 24.88 7.93002 25.52 6.82001 25.14C6.29001 24.96 5.91002 24.59 5.76002 24.05C5.66002 23.68 5.66001 23.27 5.64001 23.11Z" fill="#FB39B2"/>
<path d="M15.47 35.29C16.48 35.33 17.18 36.03 17.19 37.04C17.2 37.94 16.6 38.48 15.68 38.41C14.68 38.33 14.03 37.58 14.06 36.56C14.09 35.75 14.63 35.25 15.47 35.28V35.29Z" fill="#FB3BB2"/>
<path d="M18.31 43.42C18.27 44.03 17.77 44.58 17.17 44.73C16.66 44.86 16.27 44.65 15.96 44.26C15.84 44.1 15.71 43.95 15.61 43.78C15.22 43.15 15.21 42.53 15.56 42.11C15.93 41.66 16.82 41.52 17.4 41.85C18.03 42.21 18.29 42.8 18.33 43.42H18.31Z" fill="#FB3BB3"/>
<path d="M4.82007 29.65C4.87007 29.37 4.88007 29.1 4.97007 28.87C5.15007 28.4 5.51007 28.15 6.02007 28.14C6.51007 28.14 6.96007 28.41 7.10007 28.84C7.31007 29.5 7.25007 30.12 6.77007 30.67C6.25007 31.26 5.28007 31.13 5.00007 30.41C4.91007 30.17 4.88007 29.91 4.83007 29.66L4.82007 29.65Z" fill="#FB3BB2"/>
<path d="M13.59 32.34C13.57 33.07 13.11 33.59 12.54 33.53C11.83 33.45 11.26 32.74 11.3 31.98C11.33 31.35 11.86 30.9 12.51 30.94C13.21 30.99 13.61 31.52 13.59 32.34Z" fill="#FC3BB3"/>
</svg>
