<svg width="180" height="121" viewBox="0 0 180 121" fill="none" xmlns="http://www.w3.org/2000/svg">
<path d="M67.3036 18.4017C67.9536 18.7317 68.6236 19.0217 69.2636 19.3817C100.594 36.9317 131.924 54.4917 163.254 72.0417C164.244 72.5917 165.224 73.1517 166.204 73.7117C166.784 74.0417 167.364 74.3717 167.674 75.0117C167.784 76.7717 167.214 77.4517 165.344 77.6317C163.754 77.7817 162.154 77.6617 160.564 77.7417C157.504 77.8817 154.984 79.2517 152.724 81.2017C151.284 81.5317 150.134 80.7617 148.984 80.1317C141.994 76.2917 135.004 72.4517 128.024 68.5917C120.814 64.6117 113.594 60.6417 106.384 56.6517C93.7736 49.6717 81.1136 42.7717 68.5036 35.7717C65.0736 33.8717 61.6436 31.9717 58.1736 30.1417C57.1236 29.5817 55.9736 29.1217 55.6236 27.7917C55.5436 27.0017 55.9136 26.3817 56.4236 25.8517C59.0436 23.1317 61.9736 20.7917 65.2236 18.8817C65.8536 18.5117 66.5236 18.2117 67.2936 18.4117L67.3036 18.4017Z" fill="#6A81B8"/>
<path d="M67.3036 18.4018C66.9536 18.9218 66.4136 19.1818 65.8936 19.4818C62.1236 21.6818 58.8336 24.4518 55.9336 27.7118C55.8036 29.3718 54.6036 30.4018 53.6536 31.5718C48.4336 38.0318 44.9736 45.3118 43.3336 53.4518C43.0836 54.1418 42.9536 54.9118 42.1136 55.1918C41.0536 55.3218 39.9936 55.3218 38.9336 55.3018C35.5736 55.2218 33.8636 53.5518 33.5736 50.1918C33.2036 45.9118 34.1336 41.8818 35.8336 38.0018C36.1736 37.2118 36.5436 36.4318 36.6636 35.3918C35.9336 35.5918 35.7236 36.1818 35.4336 36.6118C33.5636 39.3518 31.8436 42.1918 30.2836 45.1218C29.7836 46.0518 29.2536 47.2018 27.9636 46.9118C26.6436 46.6218 26.4836 45.4018 26.3736 44.2218C25.8536 38.2518 27.6136 32.8218 30.2836 27.6018C31.3336 25.5518 32.7236 23.6318 32.9836 21.2418C35.1236 17.1018 38.5036 14.0318 41.9036 10.9818C43.0336 9.97175 44.2236 9.01175 45.5736 8.28175C46.3436 7.86175 47.0936 7.41175 47.9636 8.03175C48.8336 7.71175 49.7036 7.39175 50.5936 7.12175C53.2336 6.34175 57.0236 7.65175 58.4236 10.1918C58.8636 10.9818 59.4636 11.2518 60.3236 11.4118C62.4736 11.8018 64.3236 12.7418 65.8036 14.4418C66.8236 15.6118 67.4336 16.8518 67.2936 18.4218L67.3036 18.4018Z" fill="#6A81B8"/>
<path d="M143.214 120.592C142.284 120.652 141.564 120.132 140.814 119.722C129.464 113.572 118.114 107.432 106.764 101.282C85.8135 89.9417 64.8735 78.5918 43.9235 67.2517C43.5735 67.0618 43.2035 66.9117 42.8435 66.7417C40.6035 64.5117 40.9935 61.8117 41.4735 59.0918C42.4235 57.9118 43.4935 58.5017 44.5435 58.9117C49.8135 61.0117 54.6835 63.8918 59.6735 66.5418C65.6635 69.7118 71.5935 72.9918 77.5635 76.1918C90.7935 83.2918 104.054 90.3318 117.214 97.5818C123.964 101.302 130.764 104.922 137.374 108.892C138.644 109.652 139.604 110.772 140.834 111.562C142.214 113.422 143.304 115.462 144.394 117.492C145.324 119.222 144.944 120.002 143.214 120.592Z" fill="#6A81B8"/>
<path d="M152.334 80.8817C153.014 80.1517 153.594 79.3517 154.414 78.7417C156.264 77.3517 158.404 76.9717 160.624 76.8817C161.954 76.8217 163.284 76.8417 164.614 76.8117C165.074 76.8017 165.544 76.7617 166.004 76.6817C166.944 76.5217 167.594 76.0317 167.684 75.0017C168.354 75.3517 168.764 75.9717 169.214 76.5317C171.894 79.8517 173.914 83.5717 175.554 87.4817C176.394 89.4917 177.104 91.5617 177.864 93.6017C177.574 94.6417 176.774 95.2217 175.914 95.7417C171.234 98.5717 167.974 102.612 165.824 107.582C165.504 108.312 165.144 109.022 164.394 109.422C163.204 110.372 161.754 110.642 160.324 110.772C153.964 111.332 147.944 110.272 142.464 106.842C141.574 106.282 140.604 105.782 140.414 104.572C140.754 102.532 142.494 102.362 144.004 102.002C145.804 101.572 147.684 101.522 149.494 101.052C153.304 100.042 154.774 97.5217 153.834 93.7017C153.074 90.6017 151.294 87.8417 150.894 84.6317C150.704 83.1117 150.714 81.6817 152.344 80.8717L152.334 80.8817Z" fill="#6A81B8"/>
<path d="M47.9636 8.02175C46.5236 8.57175 45.2636 9.43175 44.0536 10.3617C40.2136 13.3517 36.8836 16.8517 33.9736 20.7417C33.8536 20.9017 33.7936 21.0917 33.7036 21.2617C31.1436 26.0518 28.6536 30.8817 26.3236 35.8017C26.0936 36.2917 25.7136 36.6717 25.1936 36.8917C23.9536 37.2517 23.0136 36.6217 22.0936 35.9517C14.7036 30.5417 10.8336 23.1017 9.60356 14.1717C9.32356 12.1217 8.35356 10.0517 9.56356 7.98175C13.2336 3.75175 17.8336 1.10175 23.3436 0.221749C26.1136 -0.218251 28.9036 0.0317488 31.6536 0.661749C34.6536 1.34175 37.5136 2.40175 40.3036 3.67175C42.5436 4.69175 44.7136 5.84175 46.9136 6.94175C47.3836 7.18175 47.9136 7.38175 47.9636 8.02175Z" fill="#6A81B8"/>
<path d="M9.57353 7.98175C10.1035 12.2718 10.7435 16.5418 12.0435 20.6718C13.4035 24.9918 15.6635 28.7817 18.9135 31.9718C20.1535 33.1818 21.3935 34.3818 22.8235 35.3717C23.5235 35.8617 24.1735 36.4918 25.1235 36.4518C25.9735 37.2718 25.5435 38.1918 25.2335 39.0418C23.5835 43.6118 22.5135 48.3118 22.0835 53.1418C22.0235 53.8218 21.9235 54.4618 21.2835 54.8717C21.1035 56.8517 21.0835 56.8817 19.4535 55.9618C15.4535 53.7118 11.5435 51.3218 8.14353 48.2018C4.18353 44.5518 1.43353 40.1717 0.433532 34.8018C-0.626468 29.1318 0.333532 23.6918 2.48353 18.4418C3.95353 14.8618 5.89353 11.5318 8.68353 8.77175C8.96353 8.49175 9.27353 8.24175 9.57353 7.98175Z" fill="#6A81B8"/>
<path d="M21.2835 54.8717C21.1235 51.2417 21.8035 47.7317 22.6535 44.2317C23.2935 41.5817 24.2635 39.0317 25.1135 36.4517C25.3935 35.8517 25.6835 35.2618 25.9535 34.6518C27.8535 30.2518 30.2635 26.1417 32.9635 22.1917C33.1835 21.8617 33.4635 21.5717 33.7135 21.2617C33.9535 21.6517 33.8235 22.0217 33.6435 22.3917C33.2535 23.1617 32.8935 23.9517 32.4835 24.7117C31.1235 27.2417 30.0235 29.8818 29.0135 32.5618C27.5635 36.4018 26.9035 40.3817 27.2335 44.5017C27.2735 45.0417 27.3935 45.5517 27.6435 46.0317C27.8835 46.4917 28.2735 46.5618 28.5635 46.1518C28.9035 45.6618 29.2435 45.1618 29.5135 44.6318C31.2135 41.3818 33.1635 38.2917 35.2035 35.2517C35.6135 34.6417 36.0935 34.0917 36.6835 33.6417C37.1735 33.2717 37.7835 33.5117 37.9235 34.1017C38.0635 34.7117 37.9335 35.2817 37.7035 35.8517C37.2235 37.0217 36.8235 38.2217 36.2835 39.3717C35.4635 41.1417 35.0135 43.0218 34.6135 44.9018C34.2035 46.8018 34.3535 48.7517 34.4935 50.6717C34.5335 51.2517 34.7935 51.8318 35.0135 52.3818C35.5435 53.6818 36.5435 54.3617 37.9435 54.4217C38.7435 54.4517 39.5435 54.4317 40.3435 54.4317C40.9435 54.4317 41.5535 54.4317 42.0435 54.8517C43.2535 56.1917 43.1235 57.5118 41.9835 58.8118C41.7235 60.8418 41.9535 62.8417 42.4735 64.8117C42.6435 65.4417 42.8535 66.0617 42.8235 66.7217C41.7335 68.1617 40.1935 68.5218 38.5535 68.3018C35.9835 67.9618 33.6635 67.0117 32.0235 64.8517C31.6035 64.3017 31.1735 64.1118 30.4835 64.3018C29.9835 64.4417 29.4335 64.4318 28.9035 64.4818C26.5335 64.6818 24.8035 63.5518 23.4535 61.7617C22.3135 60.2518 21.5835 58.5517 21.6035 56.6017C21.6035 56.0117 21.6235 55.3917 21.2735 54.8617L21.2835 54.8717Z" fill="#6A81B8"/>
<path d="M164.334 108.782C164.454 108.552 164.604 108.332 164.704 108.092C167.224 101.562 171.614 96.7417 177.864 93.6117C178.594 96.3017 179.274 98.9917 179.674 101.762C179.964 103.752 180.024 105.732 179.884 107.712C179.674 110.722 178.334 113.152 175.804 114.892C174.424 115.832 172.944 116.572 171.394 117.172C169.284 117.992 167.104 118.562 164.904 119.072C164.314 119.212 163.724 119.332 163.194 118.902C162.564 118.632 162.334 118.092 162.304 117.462C162.154 114.382 162.144 111.332 164.324 108.792L164.334 108.782Z" fill="#6A81B8"/>
<path d="M164.333 108.782C164.073 109.932 163.784 111.072 163.554 112.222C163.114 114.422 163.053 116.652 163.203 118.892C163.033 119.282 162.793 119.532 162.333 119.592C160.963 119.772 159.594 120.032 158.223 120.182C153.233 120.712 148.234 121.012 143.214 120.592C144.394 119.452 144.503 119.162 143.723 117.942C142.483 116.012 141.383 114.002 140.313 111.982C139.073 110.352 137.784 108.742 138.464 106.472C138.864 105.412 139.083 104.152 140.683 104.382C141.963 105.782 143.653 106.602 145.293 107.402C147.913 108.682 150.733 109.542 153.623 109.872C156.043 110.142 158.503 110.182 160.933 109.752C162.103 109.542 163.303 109.482 164.333 108.792V108.782Z" fill="#6A81B8"/>
<path d="M140.684 104.382C139.774 104.722 139.564 105.632 139.084 106.332C137.904 107.052 137.034 106.182 136.164 105.672C130.734 102.442 125.254 99.3117 119.734 96.2417C112.584 92.2717 105.424 88.3218 98.2635 84.3718C83.9435 76.4618 69.5135 68.7718 55.1935 60.8818C51.7035 58.9618 48.2035 57.0417 44.6735 55.1717C43.7935 54.7017 42.8535 54.2818 42.7335 53.0918C42.4735 52.3418 42.7835 51.6418 42.9635 50.9518C44.7435 43.9618 47.8335 37.6118 52.2935 31.9318C53.4435 30.4718 54.4935 28.9218 55.9435 27.7318C56.3435 28.2118 56.9135 28.4118 57.4335 28.7018C88.7635 45.9618 120.104 63.2118 151.444 80.4618C151.734 80.6217 152.034 80.7618 152.334 80.9018C152.304 81.0318 152.304 81.1718 152.254 81.2918C151.444 83.0318 151.594 84.7718 152.224 86.5118C152.704 87.8218 153.194 89.1118 153.704 90.4118C154.244 91.7718 154.704 93.1517 154.944 94.5918C155.524 98.1018 153.934 100.692 150.534 101.782C148.694 102.372 146.764 102.482 144.864 102.802C143.814 102.982 142.794 103.232 141.804 103.642C141.384 103.822 140.934 103.972 140.674 104.402L140.684 104.382Z" fill="#6A81B8"/>
<path d="M144.614 69.6217C143.964 69.6417 143.354 69.3617 142.774 69.0517C141.134 68.1617 139.484 67.3017 137.874 66.3717C133.214 63.6717 128.564 60.9517 123.924 58.2317C116.814 54.0617 109.704 49.8817 102.724 45.4917C100.584 44.1517 98.4236 42.8417 96.3036 41.4517C94.0236 39.9517 91.7936 38.3817 89.5436 36.8417C89.3836 36.7317 89.2236 36.6017 89.1036 36.4517C89.0436 36.3717 89.0236 36.1717 89.0836 36.1117C89.1536 36.0417 89.3336 36.0017 89.4336 36.0417C89.9236 36.2517 90.4036 36.4817 90.8836 36.7117C95.4036 38.9717 99.9436 41.2017 104.454 43.5117C106.934 44.7817 109.354 46.1817 111.804 47.5317C113.374 48.3917 114.954 49.2517 116.524 50.1217C120.484 52.3017 124.454 54.4717 128.394 56.6917C131.634 58.5117 134.844 60.4017 138.074 62.2617C140.144 63.4517 142.224 64.6417 144.314 65.8217C144.834 66.1217 145.364 66.4117 145.754 66.8817C145.964 67.1317 146.154 67.4217 146.254 67.7317C146.604 68.8517 145.914 69.6717 144.634 69.6417L144.614 69.6217Z" fill="#6A81B8"/>
<path d="M154.293 72.6817C154.263 73.9717 152.733 75.0517 151.423 74.6817C150.323 74.3717 149.593 73.6417 149.273 72.5417C149.073 71.8617 149.323 71.1917 149.883 70.7917C151.013 69.9817 153.213 70.4017 153.983 71.5617C154.213 71.9117 154.303 72.2817 154.303 72.6917L154.293 72.6817Z" fill="#6A81B8"/>
<path d="M42.7235 53.0818C66.2335 65.9318 89.7535 78.7618 113.254 91.6318C121.184 95.9718 129.134 100.292 136.814 105.062C137.544 105.512 138.324 105.902 139.074 106.322C138.984 108.312 139.694 110.132 140.304 111.972C138.084 110.142 135.534 108.832 133.084 107.382C130.224 105.692 127.314 104.082 124.424 102.462C122.804 101.552 121.164 100.672 119.524 99.7918C117.294 98.6018 115.054 97.4418 112.834 96.2318C109.334 94.3218 105.864 92.3618 102.374 90.4418C100.574 89.4518 98.7135 88.5518 96.9235 87.5318C94.2135 85.9818 91.3935 84.6218 88.6435 83.1418C85.7735 81.6018 82.9235 80.0318 80.0635 78.4818C78.2535 77.5018 76.3935 76.6118 74.6135 75.5718C72.1435 74.1418 69.5635 72.8918 67.0435 71.5418C64.4735 70.1518 61.9135 68.7318 59.3535 67.3318C59.1835 67.2318 59.0035 67.1418 58.8235 67.0418C55.1035 65.1118 51.4035 63.1418 47.6635 61.2818C45.8235 60.3618 43.8935 59.6418 42.0035 58.8318C41.7635 57.5118 42.1635 56.1918 42.0635 54.8718C42.4835 54.3518 42.2035 53.5618 42.7335 53.0818H42.7235Z" fill="#6A81B8"/>
<path d="M56.3936 12.8717C56.0536 13.5417 55.4736 14.0017 54.9536 14.5217C53.1236 16.3617 51.3036 18.2117 49.4436 20.0117C47.6736 21.7317 46.1736 23.6717 44.5836 25.5417C43.4736 26.8617 42.1836 28.0217 40.9636 29.2417C40.8336 29.3717 40.6236 29.4317 40.4436 29.5117C40.2136 29.6117 39.8236 29.3817 39.8536 29.1517C39.8936 28.8217 39.9436 28.4917 40.0436 28.1817C40.5636 26.7317 41.2036 25.2917 42.2436 24.1817C43.9036 22.3917 45.3136 20.3917 47.2936 18.8317C49.3836 17.1917 51.5036 15.5917 53.7136 14.1217C54.5436 13.5717 55.3936 13.0417 56.4036 12.8617L56.3936 12.8717Z" fill="#6A81B8"/>
<path d="M56.4036 12.8817L56.4836 12.7917L56.3936 12.8717L56.4036 12.8817Z" fill="#6A81B8"/>
<path d="M23.3835 3.29175C25.6135 3.22175 27.5335 3.82175 29.2135 5.15175C30.3935 6.09175 30.9735 7.27175 30.8035 8.79175C30.6935 9.78175 30.2335 10.5118 29.3535 11.0218C28.0635 11.7718 26.6935 11.7918 25.3035 11.5718C23.2735 11.2618 21.2535 10.9218 19.2035 10.8618C18.3735 10.8418 17.6535 10.5318 16.9635 10.1118C16.0035 9.53175 15.6035 8.47175 15.9435 7.37175C16.3735 5.94175 17.4335 5.00175 18.7035 4.39175C20.1935 3.67175 21.7735 3.11175 23.3835 3.27175V3.29175Z" fill="#6A81B8"/>
<path d="M34.8836 11.2617C33.5336 11.2917 32.6536 10.7117 32.3136 9.54174C32.0536 8.63174 32.4236 7.60174 33.2836 7.17174C34.2236 6.71174 35.2136 6.68174 36.1236 7.26174C37.0636 7.86174 37.3936 8.86174 37.0536 9.85174C36.7436 10.7417 35.9936 11.2317 34.8836 11.2617Z" fill="#6A81B8"/>
<path d="M12.3935 40.7517C12.3435 42.1617 11.2035 43.2417 9.76351 43.1217C8.67351 43.0317 7.71351 42.6217 7.19351 41.5417C6.67351 40.4417 6.68351 39.3617 7.34351 38.3417C7.93351 37.4117 9.11351 37.0917 10.1335 37.5317C11.4535 38.1117 12.4435 39.5117 12.3935 40.7517Z" fill="#6A81B8"/>
<path d="M5.64355 23.1118C5.64355 22.3418 5.73355 21.8318 6.04355 21.3818C6.40355 20.8718 6.88356 20.5218 7.53356 20.6018C8.75356 20.7418 9.86355 22.5618 9.50355 23.7718C9.16355 24.8818 7.93356 25.5218 6.82355 25.1418C6.29356 24.9618 5.91356 24.5918 5.76356 24.0518C5.66356 23.6818 5.66355 23.2718 5.64355 23.1118Z" fill="#6A81B8"/>
<path d="M15.4735 35.2917C16.4835 35.3317 17.1835 36.0317 17.1935 37.0417C17.2035 37.9417 16.6035 38.4817 15.6835 38.4117C14.6835 38.3317 14.0335 37.5817 14.0635 36.5617C14.0935 35.7517 14.6335 35.2517 15.4735 35.2817V35.2917Z" fill="#6A81B8"/>
<path d="M18.3135 43.4217C18.2735 44.0317 17.7735 44.5817 17.1735 44.7317C16.6635 44.8617 16.2735 44.6517 15.9635 44.2617C15.8435 44.1017 15.7135 43.9517 15.6135 43.7817C15.2235 43.1517 15.2135 42.5317 15.5635 42.1117C15.9335 41.6617 16.8235 41.5217 17.4035 41.8517C18.0335 42.2117 18.2935 42.8017 18.3335 43.4217H18.3135Z" fill="#6A81B8"/>
<path d="M4.82349 29.6518C4.87349 29.3718 4.88349 29.1018 4.97349 28.8718C5.15349 28.4018 5.51349 28.1518 6.02349 28.1418C6.51349 28.1418 6.96349 28.4118 7.10349 28.8418C7.31349 29.5018 7.25349 30.1218 6.77349 30.6718C6.25349 31.2618 5.28349 31.1318 5.00349 30.4118C4.91349 30.1718 4.88349 29.9118 4.83349 29.6618L4.82349 29.6518Z" fill="#6A81B8"/>
<path d="M13.5935 32.3417C13.5735 33.0717 13.1135 33.5917 12.5435 33.5317C11.8335 33.4517 11.2635 32.7417 11.3035 31.9817C11.3335 31.3517 11.8635 30.9017 12.5135 30.9417C13.2135 30.9917 13.6135 31.5217 13.5935 32.3417Z" fill="#6A81B8"/>
</svg>
