<svg width="158" height="176" viewBox="0 0 158 176" fill="none" xmlns="http://www.w3.org/2000/svg">
<path d="M14.1097 110.645C12.6784 108.588 11.218 106.555 9.90318 104.411C7.72472 100.845 5.95866 97.0941 4.4449 93.2078C2.7128 88.7781 1.62114 84.1834 0.796338 79.5208C0.529488 78.0168 0.214121 76.4933 0.359675 74.9359C1.51926 74.703 1.78611 75.7364 2.21306 76.372C4.35271 79.5305 6.50206 82.6697 9.01044 85.5613C13.4984 90.7334 18.6364 95.0709 24.7012 98.2828C25.5988 98.7583 26.6128 99.0833 27.1319 100.073C27.3066 100.597 27.1465 101.082 26.967 101.572C26.3557 103.256 26.0742 104.993 26.1955 106.783C26.3799 109.49 25.036 111.873 24.6139 114.454C24.3276 116.2 24.7254 117.743 25.7152 119.15C26.1519 119.776 26.7875 120.227 27.6074 120.116C28.4759 119.995 28.8834 119.277 28.9659 118.539C29.2085 116.375 30.1012 114.638 31.8527 113.319C32.4786 112.843 32.5271 112.047 32.6436 111.3C32.9493 109.34 33.973 108.7 35.9137 109.185C37.248 109.52 38.4755 110.145 39.7854 110.553C42.7645 111.48 44.9866 110.699 46.7138 108.059C47.3057 107.157 47.9559 106.288 48.4411 105.313C48.6303 105.1 48.8632 104.964 49.1446 104.915C59.6051 106.259 69.6143 104.648 79.2646 100.437C84.6986 98.0693 89.3903 94.7021 93.5144 90.4908C93.9898 90.0056 94.3828 89.4088 95.0766 89.1808C95.2659 89.142 95.4454 89.1565 95.6297 89.2147C96.6195 89.8164 96.7699 90.8595 97.0513 91.8493C97.8858 94.7798 98.7349 95.4493 101.806 95.4784C103.019 95.493 104.208 95.6482 105.362 95.9636C107.526 96.5507 108.38 98.2245 107.26 100.165C105.673 102.911 104.771 105.745 104.766 108.947C104.766 110.815 103.732 112.295 102.029 113.231C101.18 113.702 100.331 114.177 99.5112 114.696C97.4346 116.011 96.6001 117.996 96.8669 120.271C97.1726 122.867 96.6244 125.167 95.2707 127.301C93.9462 129.397 93.1747 131.741 92.0831 133.939C91.462 134.797 90.4723 134.982 89.5601 135.283C80.725 138.194 71.5793 138.854 62.4337 138.082C48.0917 136.869 35.3363 131.43 24.1917 122.285C23.7017 121.882 23.2893 121.406 22.906 120.912C20.8634 119.451 19.1022 117.695 17.506 115.764C16.6084 114.658 15.5749 113.668 14.7356 112.513C14.3183 111.941 13.9593 111.388 14.1145 110.64L14.1097 110.645Z" fill="#0088E5"/>
<path d="M26.8117 100.015C25.4144 99.6461 24.182 98.9134 22.9497 98.2099C20.1259 96.5991 17.5399 94.6536 15.0267 92.5867C12.9937 90.9128 11.1452 89.0546 9.36945 87.143C7.82658 85.4837 6.35648 83.7321 5.0756 81.8448C3.50847 79.5353 1.93163 77.2404 0.359646 74.9358C0.121908 74.1062 0.0248715 73.262 0.0297233 72.3983C0.0394269 69.9967 -0.062461 67.5902 0.063686 65.1982C0.184981 62.8645 0.45183 60.5357 0.796309 58.2262C1.36882 54.3787 2.30522 50.6137 3.56184 46.9263C6.03626 39.668 9.58778 32.9968 14.2261 26.8932C17.0402 23.1913 20.3685 19.9794 23.7162 16.7821C24.2111 16.3115 24.7836 15.9185 25.3367 15.5206C25.5842 15.3411 25.754 15.5206 25.8656 15.7486C26.6758 16.5637 26.3508 17.4371 25.9432 18.2716C25.1475 19.9115 24.3955 21.5563 23.8812 23.3175C23.6871 23.9773 23.6435 24.511 23.92 25.1029C24.0462 25.4668 24.0365 25.8258 23.8861 26.18C22.94 28.5671 21.9647 30.9251 21.5669 33.5063C21.0672 36.7618 21.9065 39.6535 23.6968 42.2783C25.2494 44.5587 28.9368 45.5339 31.9401 44.743C33.0996 44.4374 34.1476 43.7727 35.3751 43.695C35.5595 43.7047 35.7342 43.7533 35.8991 43.8406C36.8258 44.4762 37.0344 45.5193 37.3061 46.4897C37.8641 48.4644 38.5191 50.3905 39.6253 52.142C40.1202 52.928 40.2415 53.8402 40.4695 54.7183C40.324 56.2661 39.635 57.6925 39.4458 59.2354C38.8684 60.4241 38.1746 61.5303 37.1849 62.4376C36.5832 62.9907 36.1708 63.6942 35.9234 64.4608C34.9191 67.6193 33.7886 70.7439 33.2161 74.0188C32.8522 76.1003 33.3907 78.1283 34.0312 80.0787C35.0986 83.3197 35.0404 86.2842 32.8862 89.1662C31.7363 90.7042 31.0522 92.5624 30.533 94.4692C29.9508 96.604 29.3152 98.7776 27.326 100.151C27.1319 100.194 26.9572 100.151 26.802 100.029L26.8117 100.015Z" fill="#008FED"/>
<path d="M23.3863 25.1612C22.8429 23.9143 23.2262 22.7062 23.6289 21.5417C23.9636 20.5908 24.4537 19.6932 24.8903 18.7762C25.3512 17.8107 25.8413 16.8549 25.8655 15.7438C26.0742 14.919 26.6418 14.395 27.292 13.905C35.0888 8.06343 43.7202 4.01703 53.2055 1.78034C59.8282 0.218062 66.5382 -0.257415 73.3114 0.125878C75.3637 0.242321 77.4014 0.567392 79.444 0.80513C80.0166 0.873056 80.5551 1.06713 81.05 1.36794C81.1373 1.38735 81.2198 1.41161 81.3023 1.43101C81.4672 1.49409 81.6176 1.58142 81.7535 1.69301C83.505 2.70704 84.1018 4.42458 84.4608 6.24886C84.8344 8.16047 86.3336 9.63542 88.1821 10.0624C89.4824 10.3632 90.7973 10.2807 92.0975 10.4796C94.3342 10.829 96.3768 11.6635 98.4 12.6096C99.1521 12.7988 99.6809 13.2888 100.142 13.8759C101.025 15.9282 102.641 17.5245 103.655 19.504C104.319 20.8043 104.834 22.09 104.639 23.5747C104.533 25.2679 103.32 26.0733 101.981 26.6119C99.0647 27.7812 94.6496 26.1024 93.1504 23.3466C92.5003 22.1434 92.3741 20.8965 92.6798 19.5331C93.0825 17.7525 92.6992 17.3013 91.0156 17.6894C87.4932 18.5094 84.0193 18.5288 80.5017 17.6457C78.692 17.1897 78.5173 17.4274 78.4009 19.2274C78.3863 19.4555 78.3912 19.6835 78.3669 19.9115C78.0855 22.842 78.3524 23.0992 81.2829 22.614C82.9713 22.3374 84.6452 22.0124 86.3724 21.9639C89.7929 21.8668 92.4323 23.3709 94.6399 25.7968C95.9499 27.2378 96.3332 28.8631 95.3968 30.6923C94.7369 31.9828 94.834 33.351 95.159 34.7144C95.6054 36.5921 95.7316 38.4212 94.703 40.1969C93.4027 42.4336 90.8409 43.3167 88.5024 42.2056C87.4107 41.6864 86.4064 40.9878 85.5961 40.1096C83.7816 38.1495 81.5352 36.7813 79.3421 35.3306C76.9017 33.7198 74.3836 33.4384 71.7248 34.826C70.3081 35.5683 68.8525 36.2476 67.4261 36.9753C65.6649 37.8681 63.7678 38.295 61.8368 38.5182C60.7112 38.6492 59.7263 38.9888 58.8627 39.6972C58.3241 40.1387 57.7128 40.4444 57.1015 40.7549C53.3074 42.6617 50.1391 41.2158 49.1688 37.0772C48.8777 35.8303 48.3876 34.6998 47.7763 33.5985C47.524 32.24 48.4264 31.5025 49.3095 30.7553C52.5068 28.0674 56.1263 25.9617 59.4352 23.4242C60.8325 22.352 61.9048 21.0275 62.6762 19.4894C64.4762 15.9088 62.6908 11.8624 58.6249 10.4166C53.9866 8.76694 49.2949 9.07261 44.6372 10.3632C36.5589 12.5999 30.2031 17.2964 25.2882 24.0307C24.8418 24.6421 24.4294 25.4572 23.396 25.166L23.3863 25.1612Z" fill="#00D100"/>
<path d="M157.767 74.5089C158.092 75.6879 157.99 76.896 157.966 78.0896C157.859 83.7662 157.243 89.3894 155.875 94.9108C153.415 104.818 149.082 113.833 142.848 121.916C134.522 132.711 123.974 140.634 111.505 146.049C104.591 149.052 97.391 151.051 89.9386 152.148C84.6113 152.934 79.2452 153.254 73.8549 153.011C73.0543 152.977 72.2538 152.963 71.4532 152.943C70.9098 153.584 70.2063 153.642 69.4252 153.569C60.5706 152.725 51.9538 150.857 43.6427 147.64C42.5219 147.208 41.4545 146.66 40.3241 146.257C39.6011 145.995 39.0383 145.52 38.7957 144.749C30.1498 140.804 22.3384 135.603 15.3421 129.179C15.1723 129.024 14.9976 128.878 14.8278 128.728C14.7842 128.621 14.7114 128.49 14.755 128.408C15.934 126.195 17.4138 124.303 19.9901 123.609C21.6301 124.114 22.7023 125.438 23.9929 126.438C26.9719 128.747 30.145 130.756 33.386 132.663C34.0313 133.041 34.6474 133.439 35.0987 134.055C36.3213 135.773 38.2669 136.505 40.0087 137.369C48.5576 141.595 57.4606 144.821 66.9944 145.937C79.9294 147.451 92.3791 145.535 104.421 140.576C113.965 136.641 122.785 131.523 130.572 124.754C136.962 119.199 142.173 112.644 146.215 105.153C150.13 97.8995 152.551 90.1026 154.904 82.267C155.545 80.1322 156.239 78.0168 156.86 75.8723C157.015 75.3337 157.102 74.7273 157.762 74.5138L157.767 74.5089Z" fill="#EF8100"/>
<path d="M157.767 74.5089C157.786 76.0324 157.223 77.4297 156.787 78.8416C155.176 84.033 153.682 89.2584 151.862 94.3771C151.018 96.7496 150.096 99.0833 148.985 101.349C147.35 104.692 145.628 107.986 143.57 111.087C141.863 113.658 140.053 116.162 138.001 118.466C136.521 120.13 134.866 121.639 133.294 123.231C130.961 125.594 128.394 127.675 125.692 129.611C123.227 131.377 120.728 133.09 118.123 134.637C114.726 136.651 111.219 138.441 107.604 140.047C103.883 141.702 100.05 143.031 96.1828 144.263C93.2378 145.205 90.2054 145.816 87.1682 146.354C85.6544 146.621 84.1212 146.811 82.5929 147.009C82.0835 147.073 81.5643 147.068 81.05 147.068C78.4737 147.073 75.8974 147.034 73.326 147.082C70.6866 147.131 68.0909 146.777 65.4854 146.461C61.3808 145.961 57.3926 144.962 53.4675 143.725C50.799 142.885 48.1645 141.915 45.6367 140.683C44.2006 139.979 42.7014 139.397 41.2846 138.65C39.2129 137.558 37.1849 136.374 35.152 135.21C34.8754 135.05 34.5212 134.919 34.4387 134.54C34.429 134.501 34.6037 134.424 34.691 134.366C35.807 133.686 36.6657 134.487 37.5536 134.909C44.613 138.271 51.9441 140.819 59.6439 142.196C67.7852 143.652 75.9556 143.996 84.2037 142.973C93.2087 141.852 101.796 139.407 109.889 135.355C115.682 132.459 120.98 128.791 125.856 124.478C131.979 119.058 136.826 112.673 140.621 105.502C144.23 98.6758 146.482 91.3786 147.394 83.6788C147.859 79.7586 148.194 75.8383 147.947 71.8841C148.772 66.9013 148.126 62.001 147.01 57.1491C144.851 47.7949 141.106 39.1586 135.162 31.551C132.736 28.4459 130.33 25.3261 127.006 23.0749C126.448 22.6965 125.92 22.2161 125.779 21.4787C126.196 19.4118 127.783 17.9854 129.52 18.1164C142.629 29.4502 151.561 43.3894 155.797 60.2543C156.884 64.5918 157.582 68.9973 157.767 73.4706C157.781 73.8102 157.762 74.1547 157.757 74.4992L157.767 74.5089Z" fill="#FF8D00"/>
<path d="M99.6325 14.1912C99.1764 13.8516 98.7155 13.5071 98.2594 13.1675C95.5861 10.7853 93.1602 8.15074 90.6324 5.62295C90.0599 5.05044 89.2399 4.51674 89.7106 3.4639C90.9769 3.58519 92.1413 4.08978 93.296 4.54585C95.3581 5.36095 97.3813 6.2828 99.419 7.17553C99.9964 7.42782 100.559 7.70438 100.899 8.28174C103.495 11.3675 106.381 14.2446 108.109 17.9757C108.919 19.7272 110.175 21.1196 111.578 22.4005C113.441 24.0986 114.702 26.1024 115.367 28.5817C116.289 32.0168 117.211 32.73 120.718 32.599C123.212 32.502 124.886 33.6858 126.254 35.4519C127.453 36.9947 128.971 37.8389 130.83 38.2077C132.887 40.4492 133.459 43.3943 134.536 46.0967C134.871 46.9312 135.143 47.8191 134.667 48.7215C133.217 50.3178 132.305 51.9529 133.173 54.2914C133.872 56.1739 132.547 57.6828 130.354 57.7896C127.273 57.94 124.173 58.0128 121.131 57.3966C119.486 57.0667 118.05 57.4257 116.716 58.265C115.309 59.1481 113.8 59.6187 112.174 59.5362C111.025 59.4829 110.011 60.3853 108.836 59.8953C108.109 58.823 108.516 57.6683 108.671 56.5766C110.2 45.9512 109.22 35.6217 105.154 25.6415C104.805 24.7779 104.635 23.8949 104.421 23.0118C104.242 19.3099 102.073 16.6851 99.6374 14.2009L99.6325 14.1912Z" fill="#0088E5"/>
<path d="M73.4666 158.096C76.6009 159.513 79.6575 161.06 82.4037 163.161C83.3158 163.86 84.1358 164.655 84.9169 165.495C85.5088 166.135 85.9358 166.878 86.2608 167.673C86.9741 169.405 86.5519 171.108 85.1013 172.312C84.3492 172.937 83.5002 173.423 82.5783 173.753C81.0112 174.311 79.4004 174.67 77.7508 174.912C74.2187 175.422 70.6671 175.339 67.1253 175.184C63.8746 175.038 60.6288 174.65 57.412 174.126C52.2691 173.292 47.1795 172.215 42.1822 170.744C36.7385 169.143 31.3966 167.266 26.3459 164.66C24.2159 163.564 22.0666 162.462 20.3005 160.784C20.8342 159.454 21.8046 160.143 22.5857 160.357C27.4278 161.701 32.2408 163.156 37.1217 164.359C42.3471 165.65 47.6502 166.519 53.0308 166.538C58.5716 166.557 63.9377 165.568 68.8186 162.7C69.5512 162.268 70.0073 161.657 70.4342 160.983C71.5599 160.138 71.8898 158.45 73.4715 158.086L73.4666 158.096Z" fill="#943D2F"/>
<path d="M71.1427 161.152C69.8715 163.03 67.9599 164.059 65.9949 164.976C63.2246 166.271 60.2601 166.751 57.2277 167.043C55.4083 167.217 53.5986 167.348 51.7743 167.338C51.0902 167.338 50.4061 167.329 49.7365 167.149C49.4115 167.062 49.0621 167.018 48.7225 167.013C45.7435 166.979 42.8421 166.358 39.9359 165.8C35.7294 164.995 31.6393 163.719 27.5201 162.579C25.4338 162.001 23.3621 161.361 21.2807 160.745C20.9459 160.643 20.6208 160.546 20.3103 160.789C19.2235 160.119 18.3987 159.168 17.6273 158.173C17.3507 157.814 17.113 157.412 16.9238 156.999C15.9825 154.952 16.4871 153.016 18.3308 151.716C19.3157 151.022 20.4122 150.517 21.5718 150.187C23.8327 149.552 26.1422 149.168 28.4953 149.12C29.98 149.091 31.4646 149.091 32.9541 149.076C33.3859 149.217 33.6091 149.557 33.6577 149.959C34.0118 152.958 36.1806 154.501 38.4512 155.966C38.9752 156.305 39.5089 156.626 40.0717 156.902C41.3429 158.203 43.109 158.455 44.6955 159.037C51.7743 161.623 59.0374 162.86 66.582 161.764C67.5427 161.623 68.4839 161.371 69.3912 160.997C69.9928 160.75 70.5993 160.609 71.1427 161.148V161.152Z" fill="#AB4736"/>
<path d="M71.1426 161.152C70.9243 161.22 70.6914 161.254 70.4924 161.356C68.2412 162.458 65.8444 162.885 63.3603 162.899C62.5597 162.904 61.7592 162.894 60.9586 162.914C58.261 162.991 55.6023 162.681 52.9629 162.166C48.8 161.356 44.7439 160.206 40.9449 158.27C40.4404 158.013 39.8921 157.819 39.4894 157.387C40.2948 156.257 41.4301 156.713 42.4733 156.791C45.8162 157.028 49.1591 157.625 52.4825 156.665C53.0114 156.509 53.7974 156.534 53.841 155.859C53.8847 155.19 53.0939 155.073 52.599 154.869C48.538 153.195 44.2684 152.041 40.3918 149.911C39.1449 149.222 37.8592 148.586 36.7869 147.626C36.3163 147.208 35.7972 146.801 36.0689 146.044C36.4958 145.632 37.0635 145.52 37.5972 145.336C38.0242 145.185 38.4754 145.088 38.8053 144.739C42.1045 146.165 45.4183 147.553 48.8485 148.62C53.4238 150.047 58.0621 151.197 62.8072 151.929C65.6795 152.376 68.5711 152.642 71.458 152.933C71.5307 153.399 71.8607 153.715 72.1275 154.069C73.0299 155.257 73.5442 156.577 73.4714 158.091C72.9717 159.318 72.2051 160.347 71.1426 161.148V161.152Z" fill="#FF304D"/>
<path d="M130.529 38.494C128.763 38.7269 127.424 37.97 126.303 36.694C125.701 36.005 125.114 35.3015 124.513 34.6125C123.751 33.7392 122.805 33.3219 121.626 33.385C120.772 33.4335 119.908 33.4384 119.054 33.4141C117.565 33.3705 116.449 32.6718 115.682 31.3958C115.115 30.4545 114.717 29.4405 114.489 28.378C114.081 26.4518 113.101 24.8895 111.655 23.5941C111.272 23.2496 110.908 22.8857 110.53 22.5364C109.21 21.3234 108.138 19.9164 107.376 18.2911C106.396 16.1999 105.134 14.3271 103.528 12.6484C102.34 11.4063 101.394 9.96535 100.899 8.27693C101.34 8.10711 101.661 8.38852 102.01 8.57289C104.931 10.1546 107.706 11.9643 110.35 13.9729C111.029 14.4921 111.733 14.9821 112.422 15.4867C113.421 15.4527 114.096 16.0301 114.765 16.6706C116.036 17.8787 117.536 18.8442 118.579 20.2949C120.02 21.5903 121.189 23.1235 122.455 24.579C125.444 28.0189 127.841 31.8616 130.044 35.8255C130.49 36.626 131.174 37.4557 130.534 38.4891L130.529 38.494Z" fill="#00BB32"/>
<path d="M19.8736 124.017C19.5874 124.191 19.2574 124.322 19.0245 124.55C17.6175 125.928 16.2299 127.33 14.8326 128.723C13.8865 129.553 12.9307 130.363 12.0088 131.217C11.2859 131.886 10.4999 132.43 9.58778 132.803C5.83733 134.332 0.970973 132.037 0.42757 127.083C0.340238 126.273 0.476088 125.487 0.762345 124.725C1.04375 124.191 1.48041 123.837 2.06748 123.726C7.43358 122.668 11.7129 119.597 15.8466 116.268C16.4773 115.764 17.0693 115.24 17.9523 115.327C19.6698 116.986 21.3922 118.641 23.1098 120.3C22.9739 122.362 21.4601 123.226 19.8688 124.026L19.8736 124.017Z" fill="#943D2F"/>
<path d="M118.152 20.7121C116.24 18.9703 114.329 17.2333 112.422 15.4915C114.998 12.988 117.56 10.4796 120.146 7.99062C121.335 6.84559 122.552 5.72483 123.78 4.62347C126.735 1.96468 132.508 2.59056 134.255 6.96204C134.056 7.55396 133.92 8.16043 133.372 8.58254C128.7 12.1729 124.454 16.2629 119.996 20.1056C119.457 20.5665 118.928 20.9935 118.157 20.7121H118.152Z" fill="#AB4736"/>
<path d="M36.0689 146.044C37.3401 147.398 38.9655 148.242 40.5568 149.12C43.4146 150.702 46.4906 151.764 49.5521 152.87C50.6777 153.278 51.8033 153.686 52.9193 154.127C53.7732 154.467 54.5543 154.942 55.253 155.534C55.4519 155.704 55.447 155.942 55.2869 156.145C55.185 156.276 55.0638 156.412 54.9182 156.5C54.5786 156.703 54.2292 156.907 53.8654 157.062C52.274 157.761 48.4265 158.178 46.641 157.863C46.5294 157.844 46.4178 157.8 46.3062 157.795C44.0356 157.654 41.7601 157.518 39.4895 157.378C37.311 156.407 35.4673 155.02 34.0166 153.113C33.3325 152.215 32.9541 151.231 32.9541 150.105C32.9541 149.76 32.9541 149.421 32.9492 149.076C33.546 147.611 34.5212 146.529 36.0689 146.039V146.044Z" fill="#FF526B"/>
<path d="M118.152 20.7121C119.457 19.6107 120.82 18.5821 122.033 17.3692C123.765 15.6371 125.701 14.1282 127.516 12.4834C129.675 10.5281 132.004 8.79117 134.255 6.96204C135.521 9.79549 134.91 12.2942 132.853 14.5017C132.077 15.3363 131.237 16.1077 130.427 16.9131C130.068 17.2721 129.646 17.5875 129.529 18.1309C128.161 18.9606 127.137 20.1589 126.094 21.3379C126.021 22.1094 125.585 22.677 125.037 23.1768C124.183 24.0549 123.406 25.0641 121.99 24.9913C120.602 23.662 119.384 22.1822 118.147 20.7169L118.152 20.7121Z" fill="#943D2F"/>
<path d="M17.9524 115.322C17.6419 116.06 16.9044 116.351 16.3464 116.817C13.5954 119.126 10.6941 121.232 7.4191 122.75C5.61423 123.59 3.77054 124.351 1.73278 124.439C1.40286 124.453 1.08264 124.623 0.757568 124.72C0.971048 123.42 1.73763 122.445 2.64007 121.557C4.78457 119.441 6.92421 117.326 9.08327 115.225C10.5097 113.842 11.9652 112.484 13.4159 111.125C13.6197 110.936 13.8769 110.8 14.1049 110.635C15.3858 112.193 16.6666 113.755 17.9475 115.313L17.9524 115.322Z" fill="#AB4736"/>
<path d="M89.7105 3.45907C89.9531 3.99762 90.4043 4.3615 90.807 4.76905C92.3402 6.31193 93.854 7.87421 95.4259 9.37342C96.3866 10.2904 97.1047 11.3918 97.978 12.3767C98.1527 12.5708 98.1721 12.9007 98.2594 13.1675C97.8324 13.0074 97.4006 12.8619 96.9834 12.6872C94.6982 11.7411 92.3208 11.1783 89.8512 11.0133C88.7111 10.9357 87.5757 10.8096 86.4404 10.7174C85.931 10.6737 85.5574 10.5136 85.5186 9.92652C85.4603 8.99498 84.9218 8.49039 84.0582 8.26721C83.5633 8.14106 83.442 7.79173 83.5778 7.34536C83.932 6.14697 83.5584 5.07957 82.9568 4.08495C82.4571 3.25529 81.8749 2.47415 81.3315 1.6736C81.2878 1.62993 81.2441 1.58142 81.2005 1.53775C81.1325 1.49894 81.084 1.44557 81.05 1.37764C81.3654 1.17872 81.6905 1.26605 82.0253 1.32912C84.5142 1.7949 86.9595 2.42078 89.366 3.20192C89.4825 3.29896 89.5941 3.39599 89.7105 3.48818V3.47362V3.45907Z" fill="#008FED"/>
<path d="M22.7507 50.3032C23.4348 47.7997 26.8505 42.5258 27.0494 39.9883C27.1319 38.916 42.5073 39.6584 42.1288 38.8627C42.0124 38.5958 41.9251 38.2659 42.0755 38.0476C43.5407 35.9419 44.972 33.7877 47.6453 33.0162C47.8152 33.0793 47.9704 33.1667 48.116 33.2734C49.0427 33.875 49.4987 34.7726 49.6928 35.8254C49.7656 36.2184 49.8238 36.6163 49.9208 37.0044C50.1295 37.8438 50.4497 38.6395 50.9688 39.3381C52.0314 40.7646 53.5112 41.2643 55.2142 40.75C56.3204 40.4152 57.3635 39.9107 58.232 39.1635C59.3285 38.2222 60.5366 37.7662 61.9727 37.6885C64.0008 37.5769 65.8833 36.8977 67.6785 35.9661C68.5421 35.5198 69.4106 35.0831 70.2839 34.6513C70.7982 34.399 71.3222 34.1661 71.8316 33.909C74.2284 32.696 76.5815 32.8464 78.8716 34.171C81.3508 35.6071 83.7573 37.15 85.8145 39.1732C86.387 39.736 86.9741 40.2794 87.5903 40.7888C89.0216 41.9678 90.5935 42.4579 92.3499 41.5312C93.9849 40.6675 94.9844 38.6686 94.7418 36.7521C94.6545 36.0729 94.4798 35.4033 94.3537 34.7289C94.2615 34.2243 94.1742 33.7149 94.0965 33.2055C93.951 32.2691 94.0674 31.3812 94.5963 30.5709C94.6885 30.4302 94.7661 30.2701 94.8486 30.1197C95.4356 29.0572 95.3774 28.0092 94.6642 27.0534C92.806 24.5498 90.3995 22.9439 87.2118 22.711C85.538 22.5897 83.9078 22.9099 82.2727 23.2059C81.4867 23.3466 80.6959 23.4679 79.9002 23.5892C79.677 23.6231 79.4441 23.6377 79.2161 23.6231C77.6683 23.5213 77.0085 22.7644 77.3336 21.2603C77.6053 20.0134 77.8333 18.8053 77.5082 17.539C77.416 17.1848 77.7071 16.9082 78.0662 16.7773C78.6193 16.5686 79.1966 16.588 79.7595 16.6899C80.7153 16.8597 81.6759 17.0344 82.6172 17.2673C84.6549 17.7719 86.6878 17.7719 88.7353 17.3304C89.9094 17.0781 91.0884 16.8306 92.2771 16.6705C93.2766 16.5347 93.9122 17.2236 93.82 18.2231C93.8006 18.4463 93.7327 18.6695 93.6744 18.8926C93.5774 19.2808 93.4852 19.6689 93.3736 20.0522C92.9758 21.4544 93.3736 22.6722 94.3197 23.7008C95.8626 25.3844 97.7694 26.3256 100.093 26.2528C102.049 26.1898 103.485 25.3504 104.135 23.4145C104.387 23.2544 104.174 22.8226 104.538 22.7304C105.29 23.8803 105.828 25.1272 106.338 26.4032C107.352 28.9504 108.123 31.5704 108.715 34.2438C109.108 36.0195 109.37 37.8244 109.661 39.6196C109.928 41.2643 109.841 42.9139 110.006 44.549C110.195 46.48 110.35 48.3868 109.972 50.3081C110.137 53.1173 109.467 55.8488 109.224 58.6241C109.191 59.0171 109.03 59.3955 108.929 59.7837C109.176 60.1039 109.273 60.4629 109.244 60.8656C109.006 62.1804 108.667 63.4759 108.594 64.815C108.55 65.5767 108.225 66.2026 107.619 66.6732C107.095 66.8964 106.546 67.0274 105.974 67.0808C98.8804 67.7261 94.0577 71.6851 90.6178 77.6383C90.0404 78.6378 89.7784 79.7391 89.7105 80.9036C89.6038 82.7036 90.2102 84.1397 91.6998 85.178C92.5876 85.799 93.5386 86.3376 94.3488 87.0508C95.0087 87.633 95.8383 88.2346 95.2173 89.336C95.1494 89.8794 94.8195 90.2676 94.4507 90.6411C92.6798 92.4218 90.8458 94.1247 88.876 95.7016C86.9401 97.2542 84.8539 98.5544 82.6948 99.6898C79.4586 101.393 76.0915 102.834 72.5448 103.809C70.2305 104.445 67.9016 105.032 65.5291 105.366C63.9523 105.59 62.3851 105.973 60.7695 105.871C60.4299 105.852 60.0708 105.837 59.7458 105.915C57.5382 106.443 55.3015 106.167 53.0794 106.177C52.0023 106.177 50.93 105.949 49.8529 105.808C49.4696 105.759 49.2707 105.483 49.1494 105.143C48.6303 103.804 49.5424 101.082 50.9009 100.025C52.1963 99.0202 53.4384 99.3987 54.7047 100.175C58.5085 102.494 58.9112 102.465 61.997 99.3356C63.7194 97.5841 65.7183 96.3469 68.0035 95.5026C69.5221 94.9398 70.9243 94.1878 71.8219 92.7468C73.8354 89.5058 72.7923 85.406 69.1194 84.0378C65.8396 82.82 64.4083 80.8453 63.9183 77.4685C63.3701 73.6986 62.2202 70.021 61.08 66.3676C61.0315 66.0959 61.0606 65.829 61.1576 65.5719C62.1425 63.9028 48.4896 77.2744 48.5429 75.2415C48.6497 71.2485 45.4329 80.9472 41.4884 81.7138C40.9887 81.8109 40.4792 81.8885 39.9892 82.0631" fill="#008FED"/>
<path d="M135.725 84.5376C135.395 86.7549 134.663 88.8703 133.945 90.9711C131.975 96.735 129.316 102.164 125.891 107.21C118.239 118.486 108.147 126.802 95.6104 132.148C94.3489 132.687 93.0583 133.148 91.7775 133.648C91.9861 131.974 92.7042 130.479 93.4465 129C93.9317 128.029 94.4848 127.093 95.0427 126.161C95.984 124.58 96.3479 122.886 96.1004 121.062C95.9888 120.261 96.0471 119.475 96.1198 118.675C96.2799 116.836 97.1727 115.439 98.6137 114.367C99.2056 113.925 99.8606 113.566 100.496 113.183C100.986 112.887 101.491 112.62 101.981 112.329C103.082 111.679 103.757 110.742 103.897 109.447C103.96 108.879 104.082 108.311 104.082 107.749C104.072 105.163 104.751 102.79 106.187 100.626C106.498 100.156 106.75 99.6316 106.949 99.0979C107.264 98.2488 106.993 97.5065 106.197 97.0553C105.809 96.8369 105.363 96.6671 104.921 96.5895C104.077 96.4488 103.223 96.3712 102.369 96.2984C101.743 96.2499 101.112 96.279 100.486 96.2304C98.5118 96.08 97.1727 95.1048 96.5905 93.1787C96.212 91.922 95.853 90.6606 95.4842 89.404C95.4697 88.6277 95.7462 88.0018 96.2314 87.3711C100.554 81.7381 103.669 75.4696 105.887 68.7401C106.149 67.9493 106.27 67.0323 107.158 66.5908C108.177 66.125 109.098 66.4501 109.86 67.1002C111.985 68.9245 114.537 69.662 117.211 70.0647C121.5 70.71 124.474 72.9418 125.803 77.1143C126.735 80.04 128.656 81.578 131.64 82.1893C133.163 82.4998 135.022 82.6163 135.715 84.5327L135.725 84.5376Z" fill="#00BB32"/>
<path d="M61.5651 66.091C62.2104 67.1875 62.4967 68.4199 62.8315 69.628C63.3361 71.4426 63.7679 73.2814 64.2627 75.096C64.6994 76.6971 64.9857 78.3321 65.2186 79.9672C65.3835 81.1219 65.956 81.8449 67.038 82.2184C67.5232 82.3883 68.0035 82.5775 68.4693 82.7861C69.0951 83.0675 69.7404 83.3198 70.3129 83.6837C72.5787 85.115 73.748 87.1624 73.5491 89.8697C73.355 92.5285 72.0984 94.5226 69.6094 95.6288C68.9836 95.9054 68.348 96.1722 67.7027 96.4003C66.0579 96.9825 64.6315 97.9043 63.37 99.0979C62.7878 99.6461 62.2056 100.194 61.6185 100.738C61.2837 101.048 60.949 101.364 60.5851 101.64C58.9112 102.921 57.6594 102.989 55.8546 101.878C55.3209 101.548 54.8308 101.15 54.3068 100.801C53.9284 100.549 53.55 100.272 53.1376 100.097C52.3613 99.7674 51.7063 99.9615 51.158 100.631C50.9445 100.898 50.7456 101.184 50.5904 101.485C49.9887 102.649 49.4162 103.833 49.1348 105.129C49.0184 105.26 48.9068 105.391 48.7903 105.522C48.31 106.279 47.655 106.502 46.7526 106.405C40.6102 105.755 34.6522 104.362 28.927 102.043C27.9858 101.66 26.9621 101.276 27.1028 99.9324C27.2677 99.6316 27.4084 99.3211 27.6025 99.0397C28.6796 97.4677 29.4462 95.755 29.9071 93.9113C30.3729 92.0628 31.1492 90.3598 32.1826 88.7635C32.5853 88.1425 32.9637 87.4972 33.3228 86.8519C34.1088 85.4352 34.2883 83.9457 33.8516 82.3785C33.6381 81.6071 33.4053 80.8405 33.216 80.0642C32.988 79.123 32.7988 78.172 32.5805 77.2259C32.1778 75.4502 32.3427 73.689 32.823 71.9714C33.546 69.3854 34.3417 66.8237 35.1325 64.2571C35.5109 63.0295 36.1902 61.9719 37.2285 61.1956C38.0436 60.5842 38.5821 59.8225 38.8393 58.8424C39.8582 59.0074 39.8388 59.9244 40.125 60.6133C40.3822 61.2295 40.4258 61.9233 40.7509 62.5153C44.5984 68.8517 52.7349 70.1035 58.0476 67.6388C59.2072 67.1002 60.0562 65.8533 61.5506 66.0813L61.5651 66.091Z" fill="#00D100"/>
<path d="M27.1077 99.9323C27.5298 100.704 28.3207 100.956 29.0533 101.252C33.7935 103.159 38.6938 104.478 43.7543 105.206C44.9963 105.386 46.2335 105.575 47.4707 105.774C47.9511 105.852 48.3732 105.711 48.7953 105.522C48.4265 106.866 47.7473 108.054 46.9273 109.16C45.2146 111.465 42.7014 112.285 39.931 111.451C39.1111 111.203 38.3251 110.849 37.5197 110.558C36.7143 110.272 35.9089 109.951 35.0841 109.738C33.9682 109.452 33.5994 109.728 33.449 110.829C33.4054 111.169 33.3956 111.514 33.3859 111.858C33.3568 112.843 32.959 113.687 32.1342 114.182C30.601 115.104 30.0042 116.472 29.8635 118.17C29.8199 118.728 29.6306 119.301 29.3978 119.81C28.8107 121.086 27.6366 121.45 26.409 120.79C25.6861 120.402 25.1427 119.82 24.7255 119.121C23.8036 117.578 23.5174 115.909 23.8861 114.163C24.1433 112.935 24.5071 111.727 24.8565 110.519C25.1912 109.359 25.5212 108.205 25.4484 106.982C25.298 104.537 25.6861 102.198 26.8117 100.005C26.9088 99.9712 27.0058 99.942 27.1077 99.9226V99.9323Z" fill="#00BB32"/>
<path d="M107.221 66.6829C106.978 68.449 106.289 70.0889 105.668 71.7336C104.741 74.1838 103.694 76.5854 102.481 78.9143C100.52 82.6599 98.342 86.2551 95.4891 89.4039C95.3969 89.3797 95.2999 89.3505 95.2077 89.3263C94.8972 88.3414 94.1306 87.7397 93.3349 87.1818C92.6848 86.7209 92.0006 86.3036 91.336 85.8669C89.3613 84.5764 88.6238 82.7424 88.91 80.4281C89.0459 79.3364 89.3758 78.3175 89.8513 77.3375C90.5208 75.9401 91.3942 74.6738 92.4179 73.5143C95.1155 70.4625 98.4147 68.2889 102.204 66.8333C103.8 66.2171 105.43 66.1977 107.09 66.4258C107.192 66.4549 107.328 66.3336 107.386 66.4694C107.405 66.5131 107.284 66.6101 107.226 66.6878L107.221 66.6829Z" fill="#00D100"/>
<path d="M48.1111 33.2734C48.0092 33.2879 47.9025 33.2928 47.7957 33.2928C44.9429 33.3607 42.1337 33.6373 39.5331 34.9473C39.0382 35.1947 38.3202 35.4227 38.3687 36.0535C38.422 36.7327 39.2177 36.6405 39.7223 36.8492C40.6248 37.2228 41.8183 37.1888 42.1143 38.4697C42.1385 38.5813 42.1773 38.7026 42.1482 38.8093C41.7213 40.5657 37.5875 43.9377 35.7002 44.0832C35.6031 44.0638 35.511 44.0347 35.4188 44.0056C32.9638 42.2832 30.3777 40.6918 28.4031 38.4163C26.6904 36.4368 26.8553 33.9672 27.3842 31.5753C27.7287 30.0178 28.4176 28.5623 29.0726 27.1067C29.6839 25.7531 30.0672 24.3558 29.9993 22.4345C29.354 23.7444 29.3152 24.8167 28.9416 25.7822C28.5583 26.7671 28.078 27.6501 27.1222 28.1741C25.3367 29.1542 23.5415 28.1305 23.4397 26.0879C23.4203 25.7773 23.396 25.4717 23.3766 25.1612C24.0704 24.6954 24.3615 23.9191 24.8418 23.2835C26.3507 21.2749 28.0489 19.4409 29.878 17.7136C31.3384 16.3309 32.8958 15.0985 34.5746 14.0069C38.1552 11.678 42.056 10.0623 46.214 9.14535C49.6976 8.37877 53.2443 8.34481 56.7619 9.02406C59.0034 9.45587 60.9829 10.4262 62.5016 12.1971C63.9328 13.8613 64.4471 15.7632 63.9959 17.9223C63.4525 20.5228 61.9048 22.4684 59.867 24.0307C58.0573 25.4183 56.1797 26.7332 54.2777 27.9946C52.5602 29.1348 50.964 30.4302 49.3435 31.6868C48.8098 32.0992 48.2518 32.5408 48.1062 33.2734H48.1111Z" fill="#2EDE39"/>
<path d="M27.1465 57.8332C27.2047 58.8473 26.8457 59.7206 26.3217 60.5697C24.7448 63.112 22.3675 64.3929 19.4806 64.4802C17.5253 64.5384 15.5992 63.864 14.0806 62.588C12.79 61.5061 12.0234 59.9535 11.7954 58.2796C11.4751 55.9313 11.6013 53.6025 12.9452 51.5016C14.1679 49.5852 15.8272 48.3189 18.059 47.7852C20.32 47.2466 22.3189 47.7415 24.2208 49.0175C25.0651 49.5852 25.5308 50.2499 25.5066 51.2591C25.7492 51.4192 26.0354 51.6278 26.0306 51.8946C25.9966 53.9518 26.7874 55.8489 27.1465 57.8332Z" fill="#31B0F2"/>
<path d="M23.4494 26.0879C23.7647 26.4906 24.0413 26.937 24.4003 27.296C25.2785 28.1596 26.4478 28.1111 27.2871 27.2135C27.7287 26.7429 28.0198 26.1849 28.1896 25.5736C28.4516 24.6372 28.6651 23.6911 28.9028 22.745C29.0581 22.1385 29.1745 21.5126 29.5384 20.9789C29.6354 20.8382 29.7664 20.683 29.9556 20.7509C30.1012 20.8043 30.2856 20.9013 30.3438 21.0275C30.761 21.925 30.926 22.8711 30.795 23.8609C30.6203 25.1757 30.2565 26.4324 29.713 27.6405C29.2473 28.6836 28.8009 29.7413 28.3788 30.8038C27.9276 31.9343 27.7626 33.1133 27.782 34.3311C27.8111 36.495 28.733 38.1883 30.4457 39.4595C31.0861 39.9349 31.7751 40.357 32.4446 40.7937C33.2161 41.2983 33.9244 41.8757 34.5454 42.5549C34.9287 42.977 35.346 43.3846 35.4139 43.9959C33.8516 45.1458 32.1001 45.6552 30.1691 45.7474C28.2818 45.8396 26.5642 45.4272 24.9486 44.4617C24.051 43.9231 23.2941 43.2293 22.7507 42.3511C21.3485 40.0756 20.5189 37.6061 20.6499 34.9036C20.7906 31.9634 21.5863 29.1882 23.003 26.6022C23.1097 26.4081 23.2941 26.2528 23.4397 26.083L23.4494 26.0879Z" fill="#31B0F2"/>
<path d="M104.533 22.7207C104.397 22.9487 104.266 23.1768 104.13 23.4048C104.334 21.8183 103.64 20.5083 102.83 19.242C102.029 17.9902 101.18 16.7724 100.37 15.5303C100.093 15.1034 99.7247 14.7201 99.6373 14.1864C101.539 15.1567 102.815 16.719 103.8 18.5627C104.499 19.8678 104.547 21.2894 104.538 22.7207H104.533Z" fill="#00BB36"/>
<path d="M81.2004 1.52805C81.2732 1.54745 81.3169 1.59597 81.3314 1.66875C81.2393 1.66875 81.2004 1.62023 81.2004 1.52805Z" fill="#6E63B3"/>
<path d="M148.742 71.9423C148.665 71.5541 148.548 71.166 148.519 70.773C147.593 57.3626 142.93 45.3204 135.153 34.4329C132.086 30.1439 128.583 26.2334 124.702 22.6625C125.1 22.1482 125.522 21.6581 126.094 21.3282C127.205 22.2258 128.297 23.1476 129.432 24.0113C130.534 24.8506 131.489 25.8161 132.343 26.8981C133.192 27.9752 134.119 28.9844 134.983 30.0469C137.113 32.6717 138.922 35.5149 140.669 38.4017C142.246 41.0071 143.478 43.7678 144.58 46.5916C146.205 50.7593 147.408 55.0386 148.146 59.4586C148.835 63.602 148.854 67.76 148.742 71.9326V71.9423Z" fill="#EF8100"/>
<path d="M134.367 48.4352C134.658 48.7361 134.745 49.1388 134.852 49.5172C135.905 53.2579 136.691 57.0423 137.156 60.9044C137.69 65.3486 137.554 69.7929 137.413 74.2371C137.375 75.4889 137.195 76.7358 137.011 77.9779C136.923 78.5698 136.928 79.2733 136.186 79.545C134.847 80.1127 134.299 79.1569 133.823 78.2399C133.319 77.2598 133.26 76.1585 133.26 74.766C132.615 75.4938 132.285 76.1827 131.756 76.6922C130.737 77.6722 129.602 78.2641 128.195 77.7159C126.744 77.1482 125.929 76.0226 125.774 74.4603C125.658 73.2813 125.963 72.1994 126.565 71.1854C126.89 70.6468 127.191 70.0889 127.394 69.4921C127.734 68.4926 127.443 67.9007 126.288 68.0171C125.376 68.1093 124.459 68.0802 123.547 68.119C121.99 68.1821 120.587 67.7891 119.447 66.712C118.545 65.8581 117.89 66.057 117.206 66.9788C116.114 68.4489 114.663 69.5163 112.805 68.8759C110.738 68.1627 109.157 66.6635 108.647 64.4462C108.356 63.1944 108.244 61.8505 108.516 60.5405C108.652 60.2834 108.788 60.0262 108.924 59.7691C109.841 59.0025 110.903 58.658 112.092 58.7211C113.746 58.8036 115.231 58.3475 116.604 57.4062C117.885 56.5281 119.326 56.2806 120.859 56.5572C123.794 57.086 126.759 57.1297 129.728 57.0618C130.417 57.0472 131.096 56.9987 131.737 56.7076C132.494 56.3631 132.765 55.8731 132.62 55.0628C132.557 54.728 132.431 54.4078 132.324 54.0827C131.465 51.4288 131.999 49.949 134.371 48.4304L134.367 48.4352Z" fill="#00BB32"/>
<path d="M108.511 60.5454C108.317 62.719 109.118 64.5724 110.384 66.2657C110.656 66.6296 110.971 66.9692 111.301 67.2797C112.912 68.7644 114.591 68.7256 116.114 67.1148C116.662 66.5374 117.089 65.8484 117.579 65.2225C117.972 64.718 118.196 64.6986 118.705 65.1255C119.098 65.4554 119.462 65.8242 119.85 66.1589C120.985 67.1342 122.281 67.6242 123.794 67.4689C124.532 67.3913 125.269 67.304 126.007 67.2263C126.347 67.1875 126.691 67.1099 127.026 67.139C128.273 67.2506 128.865 68.1385 128.413 69.3078C128.151 69.9967 127.724 70.6178 127.385 71.2776C127.099 71.8356 126.769 72.379 126.575 72.9709C126.085 74.4846 126.584 75.9644 127.778 76.765C128.743 77.4151 129.694 77.4103 130.64 76.7262C131.203 76.3186 131.63 75.7801 131.984 75.1882C132.339 74.6011 132.668 74.0043 133.027 73.4173C133.197 73.1358 133.353 72.6895 133.721 72.7623C134.236 72.869 134.08 73.4027 134.105 73.7714C134.139 74.3391 134.085 74.9116 134.105 75.4841C134.124 76.0518 134.173 76.6194 134.245 77.1871C134.401 78.3661 134.992 79.2055 136.176 79.5499C136.419 79.7877 136.744 80.0012 136.652 80.3941C136.327 81.7721 136.235 83.2033 135.725 84.5376C133.896 83.5575 131.921 82.9899 129.927 82.5047C128.544 82.1699 127.375 81.5392 126.521 80.3796C126.075 79.778 125.764 79.1036 125.488 78.4146C125.192 77.6723 124.925 76.9203 124.619 76.1828C123.547 73.5677 121.601 71.9374 118.894 71.2194C117.904 70.9574 116.895 70.7342 115.881 70.5935C113.907 70.3218 112.179 69.497 110.53 68.4296C109.666 67.8716 108.773 67.367 107.881 66.8625C107.691 66.7557 107.449 66.7412 107.226 66.6829C107.167 66.6053 107.119 66.518 107.09 66.4209C108.016 65.2953 108.104 63.9126 108.24 62.5541C108.308 61.8797 108.113 61.1713 108.516 60.5454H108.511Z" fill="#0088E5"/>
<path d="M42.289 38.4406C42.1726 38.4551 42.0561 38.4697 41.9348 38.4891C41.11 37.9263 40.1202 37.8341 39.2081 37.5139C38.6696 37.3247 38.1116 37.184 37.5925 36.9559C36.8889 36.6454 36.7822 36.1408 37.2916 35.6168C37.607 35.2918 37.966 34.991 38.3493 34.7484C40.5909 33.3462 43.0556 32.7203 45.6853 32.7155C46.4373 32.7155 47.1602 32.861 47.8007 33.288C47.364 33.4335 46.9855 33.6616 46.6653 33.9915C45.2098 35.4761 43.7494 36.9559 42.2939 38.4406H42.289Z" fill="#31B0F1"/>
</svg>
