<svg width="135" height="163" viewBox="0 0 135 163" fill="none" xmlns="http://www.w3.org/2000/svg">
<path d="M1.53475 126.467C1.68248 127.131 2.18312 127.401 2.77403 127.548C3.96407 127.851 5.15412 128.146 6.35237 128.425C8.68321 128.957 11.014 129.473 13.3449 129.997C13.6732 130.791 12.9838 131.152 12.6883 131.61C12.836 131.496 12.4995 131.741 12.6144 131.668C17.0792 128.932 20.0666 129.276 20.4031 135.304C20.4113 135.468 20.4031 135.566 20.4031 135.599C20.3867 134.313 20.6 133.003 19.8942 131.799C19.6973 131.455 19.7219 131.045 20.083 130.742C23.0047 131.299 25.9183 131.332 28.8565 130.841C30.0793 130.636 31.3186 130.603 32.5579 130.439C36.4153 129.915 40.1003 128.834 43.6951 127.368C47.7084 125.722 51.4837 123.626 55.0374 121.161C57.4503 119.49 59.7811 117.697 62.0299 115.789C66.1827 112.259 69.8267 108.23 73.7005 104.43C75.1368 103.021 76.294 101.326 77.6646 99.844C79.6179 97.723 81.366 95.4464 83.0978 93.1534C84.9936 90.6556 86.988 88.2316 88.7935 85.6684C92.1503 80.9104 95.4414 76.1196 98.675 71.2797C100.85 68.0204 102.893 64.671 104.962 61.3379C106.923 58.1768 108.868 54.9912 110.781 51.7974C112.496 48.9393 114.146 46.0485 115.828 43.174C117.248 40.75 118.668 38.326 120.096 35.9019C121.663 33.2568 123.223 30.6198 124.815 27.991C125.488 26.8691 126.21 25.7799 126.941 24.6908C127.343 24.0847 127.704 23.4705 127.835 22.7417C130.65 25.3541 132.768 28.4824 134.606 31.8155C135.082 32.6835 135.156 33.5352 134.622 34.4197C134.286 34.9765 134.007 35.5743 133.67 36.1312C126.867 47.457 120.063 58.7747 113.259 70.0923C105.208 83.4818 97.1567 96.8795 89.0972 110.269C80.2334 125.01 71.3779 139.742 62.5141 154.483C61.201 156.67 59.8222 158.815 58.5911 161.051C57.9509 162.214 57.0482 162.82 55.7925 162.877C53.1744 163 50.5563 163.106 47.9464 162.746C35.7669 161.043 25.0647 155.933 15.331 148.636C11.4408 145.721 7.93635 142.387 4.89969 138.588C3.17618 136.434 1.73172 134.108 0.517056 131.627C-0.147726 130.276 -0.254419 129.023 0.664786 127.761C0.968452 127.344 1.2475 126.902 1.53475 126.467Z" fill="#FFB84E"/>
<path d="M127.843 22.7417C127.499 22.3486 127.17 21.9392 126.809 21.5706C122.87 17.5169 118.38 14.1429 113.604 11.162C105.553 6.1338 96.9597 2.41585 87.5789 0.638774C84.6736 0.0900903 81.7436 -0.0736958 78.7972 0.0327652C77.9355 0.0655224 77.2789 0.32758 76.8603 1.10556C76.7372 1.33487 76.5813 1.54779 76.4418 1.7689C73.1343 7.24755 69.8268 12.7262 66.5357 18.213C66.3387 18.5406 66.2402 18.9255 66.1007 19.2858C66.1007 19.6216 66.15 19.9901 66.429 20.1703C67.2333 20.719 68.0376 21.2758 68.8583 21.7999C68.1689 21.4314 67.4713 21.0711 66.8065 20.6698C66.4208 20.4405 65.9284 20.4651 65.5262 20.7763C65.3046 20.8909 64.9928 20.9483 64.8696 21.1366C64.0407 22.4305 63.2446 23.7408 62.4485 25.0511C62.2598 25.3541 62.3747 25.6653 62.5142 25.9601C62.6783 26.5497 62.982 26.951 63.3595 27.254C62.7686 27.0002 62.1038 26.8855 61.3077 27.1148C60.6511 27.8519 60.1998 28.7281 59.7155 29.5716C59.4939 29.9565 59.5186 30.3086 59.7484 30.669C59.9453 31.275 60.2818 31.6844 60.684 31.9956C60.0438 31.6517 59.3708 31.4142 58.5419 31.7991C57.6555 32.659 57.1959 33.8137 56.5558 34.8373C56.3588 35.1485 56.4983 35.4515 56.646 35.7463C56.7117 36.4179 57.1056 36.811 57.5899 37.114C56.9497 36.8683 56.2439 36.7373 55.4314 36.8928C54.5696 37.8838 54.028 39.0794 53.3303 40.1768C53.0759 40.5862 53.2647 40.922 53.4699 41.2578C53.4617 42.0275 53.9869 42.4043 54.5778 42.7073C54.939 42.8874 55.3001 43.0758 55.653 43.2641C55.5955 43.2396 55.5299 43.2068 55.4724 43.1822C54.4301 42.7646 53.5355 41.7655 52.2388 42.3715C52.0993 42.5025 51.9187 42.609 51.8202 42.7646C50.704 44.5826 49.5961 46.4006 48.5127 48.235C48.3568 48.4971 48.3732 48.8492 48.3158 49.1604C48.3814 50.0776 49.0626 50.5199 49.752 50.8802C52.92 52.5426 55.9895 54.377 59.1656 56.0149C56.0387 54.4016 53.0103 52.6081 49.8915 50.9785C49.1365 50.5854 48.406 50.1186 47.5032 50.5362C47.3391 50.6427 47.1093 50.7 47.019 50.8556C45.9849 52.5099 44.959 54.1641 43.9742 55.8429C43.8675 56.0231 43.9988 56.3343 44.0152 56.5881C44.2122 57.2187 44.5651 57.6364 44.9918 57.9476C44.3435 57.62 43.6623 57.3989 42.8416 57.7592C42.0208 59.0777 41.2083 60.388 40.3876 61.7065C40.166 62.0504 40.1004 62.4189 40.1578 62.812C40.4204 63.549 40.8718 64.0404 41.3889 64.4171C41.3314 64.3844 41.274 64.3598 41.2165 64.327C40.5764 64.0158 39.9772 63.549 39.2304 64.024C38.065 65.2934 37.2607 66.792 36.5713 68.3562C36.5713 68.4544 36.5713 68.5445 36.5795 68.6428C36.6123 68.8311 36.6698 69.0113 36.7764 69.1669C37.8023 70.1087 39.0827 70.6492 40.1332 71.2306C39.6079 70.9604 38.976 70.6901 38.4097 70.3298C37.589 69.8139 36.8011 69.1915 35.7505 69.7565C34.6836 70.9276 34.0106 72.3444 33.2227 73.6956C33.0258 74.0396 33.3212 74.3016 33.4689 74.58C33.5839 75.6692 34.4866 75.9968 35.2581 76.4718C35.9721 76.914 36.6862 77.3644 37.195 77.6347C36.3825 77.3644 35.5618 76.57 34.5605 76.0951C33.8054 75.7429 33.116 75.1124 32.205 75.6774C31.9917 75.9149 31.7372 76.1278 31.5731 76.3981C30.3666 78.3717 29.1684 80.3617 27.9783 82.3435C27.7485 82.7284 27.5269 83.1297 27.5762 83.6047C27.6993 84.6856 28.5693 85.0378 29.3736 85.48C32.3282 87.0933 35.2417 88.7721 37.3263 89.9022C34.9134 88.6738 31.7619 86.7166 28.4708 85.0214C27.8881 84.7184 27.3218 84.3745 26.657 84.8331C25.6557 85.9222 25.0566 87.2653 24.2933 88.5019C24.0881 88.8294 23.9322 89.1734 23.9486 89.5747C24.1538 90.2953 24.5477 90.7539 25.032 91.0979C24.4 90.8604 23.9486 90.885 23.1279 90.9587C22.0035 91.9004 21.4536 93.2353 20.7396 94.4637C20.5426 94.7994 20.7478 95.0779 20.8955 95.3645C21.2156 96.249 21.8312 96.7567 22.5124 97.1498C22.3975 97.0843 22.2744 97.0188 22.1595 96.9614C21.3634 96.552 20.6083 95.8968 19.6316 96.5192C18.5565 97.8459 17.7686 99.3527 16.9561 100.843C17.03 101.007 17.0956 101.171 17.1531 101.335C17.2187 101.605 17.35 101.834 17.5552 102.022C17.744 102.162 17.941 102.284 18.1461 102.407C17.6291 102.145 17.0628 102.022 16.3816 102.309C15.0849 103.365 14.4037 104.815 13.8127 106.322C13.7717 106.428 13.8374 106.576 13.8538 106.707C14.0261 107.345 14.3544 107.796 14.7648 108.156C14.2149 107.837 13.6322 107.624 12.8935 107.935C11.367 109.557 10.497 111.588 9.38086 113.463C9.29058 113.618 9.47935 113.93 9.5368 114.175C9.61066 114.814 9.94716 115.207 10.3657 115.518C9.78301 115.174 9.17568 115.043 8.53552 115.379C8.0595 115.527 7.8215 115.911 7.5917 116.305C6.99257 117.304 6.38524 118.295 5.79432 119.294C4.38269 121.685 2.97926 124.076 1.56762 126.476C1.06698 127.983 2.2324 128.245 3.20085 128.531C6.44269 129.498 9.75019 130.185 13.1069 130.619C15.4296 130.267 17.7932 129.473 19.845 131.397C20.8463 131.365 21.6998 131.971 22.7093 132.003C26.9196 132.143 31.0889 131.741 35.1925 130.89C47.1914 128.4 56.9497 121.865 65.7396 113.684C76.9178 103.292 86.1509 91.2862 94.7848 78.7894C106.726 61.5017 116.673 43.0103 127.687 25.1576C128.172 24.3714 128.328 23.5934 127.868 22.7581L127.843 22.7417ZM20.6986 103.922C20.3785 103.718 20.0502 103.529 19.7055 103.365C19.3772 103.21 19.0653 102.989 18.7535 102.784C19.41 103.161 20.0666 103.513 20.6986 103.922ZM17.8507 110.146C17.3665 109.835 16.7591 109.368 16.0943 108.992C16.7591 109.327 17.4157 109.63 17.8507 110.146ZM11.8266 116.386C13.8538 117.549 15.8727 118.729 17.8917 119.908C15.8727 118.737 13.8456 117.566 11.8266 116.386ZM20.7889 103.98C21.0843 104.176 21.3716 104.381 21.6424 104.61C21.3716 104.389 21.0843 104.176 20.7889 103.98ZM22.8981 97.3709C23.6039 97.7312 24.3426 98.026 24.8842 98.5174C24.2851 98.1734 23.6039 97.764 22.8981 97.3709ZM26.3944 91.8267C27.0427 92.1052 27.6583 92.3672 28.044 92.8504C27.371 92.4245 26.8375 92.097 26.3944 91.8267ZM42.5297 65.0477C43.2601 65.3916 43.9988 65.6783 44.5322 66.1614C43.9003 65.8994 43.2355 65.4735 42.5297 65.0477ZM46.2804 58.6109C46.1819 58.5699 46.0916 58.529 46.0013 58.4799C46.7482 58.7992 47.5114 59.0531 47.9464 59.6427C47.5032 59.479 46.978 58.8975 46.2804 58.6109ZM56.2603 43.5917C56.7117 43.8374 57.1385 44.0831 57.5406 44.3287C57.1303 44.1568 56.7117 43.8619 56.2603 43.5917ZM58.9441 37.8264C59.6499 38.1704 60.3229 38.5061 60.7907 38.8828C60.1751 38.6454 59.576 38.2277 58.9441 37.8264ZM62.112 32.7491C61.9479 32.6917 61.7837 32.6098 61.6196 32.5279C62.506 32.9128 63.4498 33.1421 63.9669 33.8137C63.5483 33.5598 62.8917 33.0357 62.112 32.7491ZM64.4265 27.86C65.0994 28.1549 65.7806 28.3842 66.1992 28.8509C65.5919 28.6872 65.0256 28.2613 64.4265 27.86ZM88.5228 9.97459C88.3668 11.2194 87.9647 12.3904 87.5461 13.5533C85.5928 18.9173 82.9501 23.9374 79.897 28.7445C77.4513 32.6016 74.9481 36.4424 71.4846 39.5134C70.7624 40.1522 70.0155 41.1677 68.9897 40.6681C67.7832 40.0785 68.3085 38.7764 68.5383 37.8346C69.1046 35.558 69.9499 33.3633 70.8363 31.1849C71.6652 29.154 73.1261 27.3605 73.241 25.0593C73.1999 24.8628 73.1343 24.6826 73.0194 24.5188C72.4777 24.0111 71.8786 23.577 71.263 23.1839C71.9853 23.5361 72.7321 23.8391 73.52 24.0602C73.717 24.0274 73.9058 23.9701 74.0781 23.8718C74.6608 23.4214 75.0876 22.8564 75.4651 22.2422C77.164 19.4578 78.8875 16.6898 80.8244 14.0529C82.3017 12.0465 83.9267 10.1793 85.7816 8.52508C86.4217 7.95183 87.1768 7.3622 88.0632 7.86993C88.8921 8.34491 88.6212 9.1966 88.5145 9.99096L88.5228 9.97459ZM103.846 27.0411C100.875 27.0657 98.355 24.5925 98.2975 21.587C98.2401 18.4751 100.669 15.8463 103.739 15.8381C106.882 15.8299 109.476 18.3359 109.369 21.3741C109.394 24.5024 106.948 27.0083 103.846 27.0329V27.0411Z" fill="#F9D453"/>
<path d="M9.50393 114.167C13.5829 116.517 17.6619 118.868 21.7326 121.218C21.9542 121.349 22.1676 121.505 22.3564 121.685C22.6108 121.939 22.6847 122.25 22.4795 122.561C22.2743 122.864 21.946 122.971 21.6177 122.848C21.191 122.692 20.7806 122.479 20.3867 122.25C16.4226 119.957 12.4667 117.656 8.51086 115.363C8.60114 114.765 8.84736 114.29 9.50393 114.159V114.167Z" fill="#0047A6"/>
<path d="M48.2993 49.1522C52.1239 51.2569 55.9484 53.3533 59.7648 55.4744C60.2736 55.7528 60.7578 56.0886 61.201 56.4653C61.4719 56.6946 61.439 57.0713 61.2256 57.3579C61.0697 57.5708 60.8071 57.71 60.5362 57.6036C60.1095 57.4398 59.6909 57.2596 59.297 57.0385C55.3575 54.8765 51.4263 52.7064 47.4868 50.528C47.5525 49.9466 47.7248 49.4307 48.2993 49.1522Z" fill="#0047A6"/>
<path d="M27.5597 83.6047C31.5648 85.8322 35.5617 88.0597 39.5586 90.2953C39.8377 90.4509 40.1003 90.6639 40.3137 90.8932C40.5025 91.0979 40.5025 91.3845 40.3712 91.6302C40.2398 91.8759 39.9936 91.966 39.7146 91.966C39.2304 91.966 38.8446 91.7039 38.4425 91.4746C34.503 89.2635 30.5718 87.0524 26.6323 84.8331C26.7801 84.3008 27.0509 83.8667 27.5515 83.6047H27.5597Z" fill="#0047A5"/>
<path d="M72.7649 24.9119C70.352 23.5279 67.9309 22.1439 65.5179 20.7599C65.3702 20.1293 65.6 19.6461 66.1007 19.2694C68.571 20.7108 71.0414 22.1521 73.5117 23.5934C73.9713 24.4287 73.6102 24.7972 72.7731 24.9037L72.7649 24.9119Z" fill="#0049A6"/>
<path d="M20.8709 95.3645C22.7996 96.4455 24.7365 97.5101 26.657 98.6075C27.0592 98.8368 27.4367 99.1234 27.2725 99.6803C27.133 100.139 26.5667 100.294 25.943 99.9751C25.0156 99.5001 24.121 98.976 23.21 98.4683C22.0117 97.8131 20.8135 97.158 19.6152 96.5028C19.7794 95.8395 20.1897 95.4382 20.8791 95.3563L20.8709 95.3645Z" fill="#004BA7"/>
<path d="M37.0391 68.6674C39.0498 69.5846 40.8882 70.813 42.7923 71.9267C43.3668 72.2625 43.5145 72.631 43.3586 73.0159C43.178 73.4663 42.661 73.5973 42.0126 73.2698C41.2083 72.8521 40.4286 72.3771 39.6407 71.9349C38.3358 71.206 37.0391 70.4772 35.7341 69.7483C35.8983 69.216 36.1199 68.7165 36.5466 68.3398H36.5302C36.6533 68.5199 36.8175 68.6346 37.0391 68.6674Z" fill="#004AA7"/>
<path d="M23.924 89.5828C25.7295 90.6065 27.5433 91.622 29.3489 92.662C29.7346 92.8831 30.1204 93.1534 30.4405 93.4646C30.6867 93.702 30.6867 94.0542 30.4651 94.349C30.3009 94.5701 30.0219 94.6766 29.7757 94.5947C29.3489 94.4473 28.9386 94.2507 28.5446 94.0378C26.7308 93.0223 24.9252 91.9987 23.1115 90.975C23.1853 90.3936 23.3577 89.8776 23.9322 89.591L23.924 89.5828Z" fill="#004AA6"/>
<path d="M40.1414 62.7956C42.1275 63.9339 44.1301 65.0477 46.108 66.2105C46.7317 66.5791 46.8959 67.1359 46.6004 67.4881C46.346 67.7911 45.8864 67.8484 45.3447 67.5454C43.2929 66.3825 41.2576 65.1869 39.2222 64.0076C39.3617 63.4753 39.6407 63.0413 40.1496 62.7956H40.1414Z" fill="#004AA6"/>
<path d="M59.7401 30.669C61.5867 31.6435 63.4415 32.618 65.2881 33.5926C65.5179 33.7154 65.7559 33.8464 65.9365 34.0266C66.1663 34.2641 66.314 34.5589 66.1335 34.911C65.9611 35.2386 65.6574 35.4024 65.3209 35.2959C64.8285 35.1321 64.3607 34.8947 63.8929 34.6572C62.1037 33.7154 60.3146 32.7491 58.5254 31.7991C58.6813 31.1603 59.0424 30.7345 59.7318 30.669H59.7401Z" fill="#004AA7"/>
<path d="M16.9396 100.835C17.0545 100.86 17.1612 100.909 17.2597 100.982C17.4074 101.089 17.5551 101.187 17.7029 101.285C19.3853 102.268 21.0678 103.251 22.7421 104.25C23.0704 104.446 23.3576 104.717 23.6202 105.003C23.8008 105.2 23.7926 105.486 23.6367 105.724C23.4807 105.953 23.2427 106.052 22.9637 106.035C22.4138 106.002 21.9952 105.667 21.552 105.405C19.8203 104.381 18.0886 103.341 16.3569 102.309C16.1763 101.67 16.7016 101.31 16.9396 100.835Z" fill="#004BA7"/>
<path d="M56.6378 35.7382C58.468 36.7209 60.2982 37.7036 62.1284 38.6945C62.3007 38.7846 62.4649 38.891 62.6208 39.0139C62.9409 39.2759 63.1379 39.5953 62.9655 40.0294C62.8014 40.4388 62.35 40.5699 61.7919 40.2914C60.8645 39.8246 59.9617 39.3087 59.0425 38.8173C57.836 38.1704 56.6296 37.5316 55.4231 36.8929C55.6939 36.3769 55.9566 35.8364 56.6378 35.7464V35.7382Z" fill="#004BA7"/>
<path d="M13.829 106.707C15.6592 107.829 17.4894 108.942 19.3197 110.072C19.5412 110.212 19.7628 110.359 19.927 110.556C20.1568 110.81 20.2306 111.137 20.0337 111.448C19.8449 111.751 19.5412 111.907 19.2048 111.768C18.7862 111.596 18.3758 111.383 17.9901 111.145C16.2748 110.081 14.5677 109.008 12.8606 107.935C13.0001 107.386 13.2956 106.952 13.8208 106.707H13.829Z" fill="#004AA7"/>
<path d="M33.4525 74.5718C35.2663 75.4481 36.957 76.5373 38.6559 77.6101C39.5504 78.1751 39.8131 78.6993 39.493 79.0923C39.1729 79.4854 38.6723 79.4445 37.7367 78.904C36.4974 78.1915 35.2827 77.4463 34.0516 76.7256C33.4361 76.3653 32.8041 76.0295 32.1886 75.6774C32.3609 75.0223 32.7713 74.6455 33.4525 74.5718Z" fill="#004AA7"/>
<path d="M53.4615 41.2496C55.3082 42.2323 57.163 43.1986 58.9932 44.2141C59.6416 44.5744 59.8221 45.1067 59.5349 45.4753C59.2722 45.811 58.8619 45.8929 58.2874 45.5899C56.2602 44.5335 54.2494 43.4361 52.2305 42.3633C52.3946 41.7164 52.7639 41.3069 53.4615 41.2496Z" fill="#004BA7"/>
<path d="M43.9987 56.58C45.8535 57.4071 47.5852 58.4553 49.3334 59.4708C49.6699 59.6673 49.9817 59.913 50.2608 60.1751C50.4413 60.3552 50.5234 60.6173 50.3921 60.8957C50.228 61.2479 49.8997 61.3789 49.5878 61.2724C49.0954 61.1168 48.6276 60.8712 48.1679 60.6337C46.3788 59.6755 44.606 58.7092 42.8251 57.7428C43.0959 57.2351 43.3339 56.6946 43.9987 56.5718V56.58Z" fill="#0049A6"/>
<path d="M62.5059 25.9519C64.2869 26.9019 66.0678 27.8355 67.8324 28.81C68.6367 29.2522 68.8747 29.7518 68.571 30.153C68.292 30.5297 67.8734 30.5871 67.1594 30.2185C65.1979 29.2031 63.2527 28.1466 61.2994 27.1066C61.5703 26.5907 61.8247 26.042 62.5059 25.9437V25.9519Z" fill="#004AA7"/>
<path d="M73.8975 23.6016C74.234 22.1603 75.2025 21.0547 75.9411 19.8263C77.1804 17.7544 78.5264 15.7398 79.9462 13.7744C81.5302 11.5879 83.3194 9.61425 85.2727 7.76346C85.8554 7.20659 86.5448 6.84626 87.3327 6.67428C88.137 6.49412 88.7525 6.74799 89.1793 7.43589C89.5733 8.07466 89.6964 8.76256 89.5404 9.50778C89.2204 11.1129 88.8346 12.6934 88.2355 14.2248C87.0619 17.2139 85.7651 20.1375 84.255 22.971C81.5959 27.9419 78.5838 32.6835 75.063 37.0976C74.0042 38.4242 72.6993 39.538 71.4764 40.7336C70.9101 41.2905 70.1797 41.6099 69.4328 41.8801C68.8665 42.0849 68.3823 41.8801 68.0376 41.4379C67.5452 40.7991 67.2661 40.0539 67.3646 39.2432C67.4467 38.5307 67.5616 37.81 67.7832 37.1303C68.4726 35.0175 69.1045 32.8883 70.0484 30.8655C70.9347 28.9738 71.7719 27.0575 72.7814 25.2313C73.52 24.5679 74.2504 24.8627 74.9234 25.305C75.6375 25.7718 76.4007 26.1157 76.885 26.386C76.0314 25.5752 73.996 25.6571 73.8893 23.6098L73.8975 23.6016Z" fill="#F5F5F5"/>
<path d="M62.4813 47.5963C62.6619 46.0485 63.2938 44.7382 64.5906 43.821C65.2471 43.3542 65.994 43.0185 66.7655 43.518C67.578 44.0503 68.0458 44.8611 67.8981 45.8438C67.7011 47.1704 67.0363 48.276 66.0679 49.2014C65.9283 49.3324 65.7478 49.4307 65.5836 49.5208C64.8614 49.9057 64.1063 50.0776 63.3513 49.6436C62.5716 49.1932 62.4567 48.4234 62.4731 47.5963H62.4813Z" fill="#F5F5F5"/>
<path d="M73.8975 23.6016C75.1204 24.6007 76.5731 25.2313 77.878 26.0993C78.313 26.386 78.8218 26.5907 79.0845 27.0739C79.1666 27.2295 79.1912 27.4588 79.1501 27.6225C79.0763 27.901 78.8136 28.0074 78.5428 28.0402C78.1242 28.0893 77.7877 27.8682 77.4513 27.6717C76.4336 27.0821 75.4077 26.5006 74.39 25.911C73.8811 25.6162 73.3969 25.264 72.7814 25.2231C72.7567 25.1248 72.7485 25.0183 72.7567 24.9119C73.1671 24.5679 73.4461 24.1503 73.4954 23.6016C73.6267 23.6016 73.758 23.6016 73.8893 23.6016H73.8975Z" fill="#6997CD"/>
<path d="M37.039 68.6674C36.8666 68.5609 36.7025 68.4462 36.5302 68.3398C36.6943 68.4462 36.8666 68.5609 37.039 68.6674Z" fill="#6E63B3"/>
</svg>
