<svg width="135" height="163" viewBox="0 0 135 163" fill="none" xmlns="http://www.w3.org/2000/svg">
<path d="M1.53792 126.465C1.68565 127.129 2.18629 127.399 2.77721 127.546C3.96725 127.849 5.15729 128.144 6.35554 128.423C8.68638 128.955 11.0172 129.471 13.3481 129.995C13.6763 130.789 12.9869 131.15 12.6915 131.608C12.8392 131.494 12.5027 131.739 12.6176 131.666C17.0823 128.93 20.0697 129.274 20.4062 135.302C20.4144 135.465 20.4062 135.564 20.4062 135.596C20.3898 134.311 20.6032 133 19.8974 131.797C19.7004 131.453 19.725 131.043 20.0862 130.74C23.0079 131.297 25.9215 131.33 28.8596 130.838C30.0825 130.634 31.3218 130.601 32.5611 130.437C36.4185 129.913 40.1035 128.832 43.6982 127.366C47.7116 125.72 51.4869 123.624 55.0406 121.159C57.4535 119.488 59.7843 117.695 62.0331 115.786C66.1859 112.257 69.8299 108.228 73.7037 104.428C75.14 103.019 76.2972 101.324 77.6678 99.8419C79.6211 97.7209 81.3692 95.4442 83.1009 93.1512C84.9968 90.6535 86.9911 88.2295 88.7967 85.6662C92.1535 80.9082 95.4445 76.1175 98.6782 71.2776C100.853 68.0183 102.897 64.6688 104.965 61.3358C106.926 58.1747 108.871 54.9891 110.784 51.7952C112.499 48.9372 114.149 46.0463 115.831 43.1719C117.251 40.7479 118.671 38.3238 120.099 35.8998C121.667 33.2546 123.226 30.6177 124.818 27.9889C125.491 26.867 126.213 25.7778 126.944 24.6886C127.346 24.0826 127.707 23.4684 127.838 22.7396C130.653 25.352 132.771 28.4803 134.609 31.8133C135.085 32.6814 135.159 33.5331 134.626 34.4175C134.289 34.9744 134.01 35.5722 133.674 36.1291C126.87 47.4549 120.066 58.7725 113.262 70.0901C105.211 83.4797 97.1598 96.8774 89.1004 110.267C80.2366 125.008 71.3811 139.74 62.5173 154.481C61.2042 156.668 59.8254 158.813 58.5943 161.049C57.9541 162.212 57.0513 162.818 55.7956 162.875C53.1775 162.998 50.5594 163.104 47.9496 162.744C35.7701 161.041 25.0679 155.93 15.3342 148.634C11.444 145.718 7.93953 142.385 4.90287 138.586C3.17936 136.432 1.73489 134.106 0.52023 131.625C-0.144552 130.273 -0.251245 129.02 0.66796 127.759C0.971625 127.342 1.25067 126.899 1.53792 126.465Z" fill="#6A81B8"/>
<path d="M127.847 22.7396C127.502 22.3465 127.174 21.937 126.812 21.5685C122.873 17.5148 118.384 14.1408 113.607 11.1599C105.556 6.13166 96.9629 2.41372 87.5821 0.636638C84.6768 0.0879541 81.7468 -0.075832 78.8004 0.030629C77.9387 0.0633862 77.2821 0.325444 76.8635 1.10343C76.7404 1.33273 76.5845 1.54565 76.445 1.76676C73.1375 7.24541 69.83 12.7241 66.5389 18.2109C66.3419 18.5385 66.2434 18.9234 66.1039 19.2837C66.1039 19.6195 66.1531 19.988 66.4322 20.1681C67.2365 20.7168 68.0408 21.2737 68.8615 21.7978C68.1721 21.4293 67.4745 21.069 66.8097 20.6677C66.424 20.4384 65.9315 20.463 65.5294 20.7741C65.3078 20.8888 64.9959 20.9461 64.8728 21.1345C64.0439 22.4284 63.2478 23.7387 62.4517 25.049C62.2629 25.352 62.3778 25.6632 62.5174 25.958C62.6815 26.5476 62.9852 26.9489 63.3627 27.2519C62.7718 26.998 62.107 26.8834 61.3109 27.1127C60.6543 27.8497 60.2029 28.726 59.7187 29.5695C59.4971 29.9544 59.5217 30.3065 59.7515 30.6668C59.9485 31.2728 60.285 31.6823 60.6872 31.9935C60.047 31.6496 59.374 31.4121 58.5451 31.797C57.6587 32.6568 57.1991 33.8115 56.5589 34.8352C56.362 35.1464 56.5015 35.4494 56.6492 35.7442C56.7149 36.4157 57.1088 36.8088 57.593 37.1118C56.9529 36.8661 56.2471 36.7351 55.4346 36.8907C54.5728 37.8816 54.0311 39.0773 53.3335 40.1746C53.0791 40.5841 53.2679 40.9199 53.473 41.2556C53.4648 42.0254 53.9901 42.4021 54.581 42.7051C54.9421 42.8853 55.3032 43.0736 55.6562 43.262C55.5987 43.2374 55.533 43.2047 55.4756 43.1801C54.4333 42.7624 53.5387 41.7634 52.242 42.3694C52.1024 42.5004 51.9219 42.6068 51.8234 42.7624C50.7072 44.5805 49.5992 46.3985 48.5159 48.2329C48.36 48.495 48.3764 48.8471 48.3189 49.1583C48.3846 50.0755 49.0658 50.5177 49.7552 50.8781C52.9232 52.5405 55.9926 54.3749 59.1688 56.0127C56.0419 54.3995 53.0134 52.606 49.8947 50.9763C49.1396 50.5832 48.4092 50.1164 47.5064 50.5341C47.3423 50.6406 47.1125 50.6979 47.0222 50.8535C45.9881 52.5077 44.9622 54.162 43.9773 55.8408C43.8706 56.0209 44.0019 56.3321 44.0184 56.586C44.2153 57.2166 44.5682 57.6342 44.995 57.9454C44.3466 57.6179 43.6655 57.3967 42.8447 57.7571C42.024 59.0755 41.2115 60.3858 40.3908 61.7043C40.1692 62.0483 40.1035 62.4168 40.161 62.8099C40.4236 63.5469 40.875 64.0383 41.3921 64.415C41.3346 64.3822 41.2772 64.3577 41.2197 64.3249C40.5795 64.0137 39.9804 63.5469 39.2336 64.0219C38.0681 65.2912 37.2638 66.7899 36.5744 68.354C36.5744 68.4523 36.5744 68.5424 36.5826 68.6407C36.6155 68.829 36.6729 69.0092 36.7796 69.1648C37.8055 70.1065 39.0858 70.647 40.1364 71.2285C39.6111 70.9582 38.9791 70.688 38.4128 70.3277C37.5921 69.8117 36.8042 69.1893 35.7537 69.7544C34.6868 70.9255 34.0138 72.3422 33.2259 73.6935C33.0289 74.0374 33.3244 74.2995 33.4721 74.5779C33.587 75.6671 34.4898 75.9947 35.2613 76.4696C35.9753 76.9119 36.6893 77.3623 37.1982 77.6325C36.3857 77.3623 35.565 76.5679 34.5637 76.0929C33.8086 75.7408 33.1192 75.1102 32.2082 75.6753C31.9948 75.9128 31.7404 76.1257 31.5763 76.3959C30.3698 78.3696 29.1716 80.3596 27.9815 82.3414C27.7517 82.7263 27.5301 83.1275 27.5794 83.6025C27.7025 84.6835 28.5724 85.0357 29.3767 85.4779C32.3313 87.0912 35.2449 88.77 37.3295 89.9001C34.9166 88.6717 31.765 86.7145 28.4739 85.0193C27.8912 84.7163 27.3249 84.3723 26.6602 84.8309C25.6589 85.9201 25.0598 87.2631 24.2965 88.4997C24.0913 88.8273 23.9354 89.1713 23.9518 89.5725C24.157 90.2932 24.5509 90.7518 25.0351 91.0957C24.4032 90.8583 23.9518 90.8828 23.1311 90.9565C22.0067 91.8983 21.4568 93.2332 20.7428 94.4615C20.5458 94.7973 20.751 95.0757 20.8987 95.3624C21.2188 96.2468 21.8343 96.7546 22.5155 97.1476C22.4006 97.0821 22.2775 97.0166 22.1626 96.9593C21.3665 96.5498 20.6115 95.8947 19.6348 96.5171C18.5597 97.8437 17.7718 99.3506 16.9593 100.841C17.0331 101.005 17.0988 101.169 17.1562 101.332C17.2219 101.603 17.3532 101.832 17.5584 102.02C17.7472 102.16 17.9441 102.282 18.1493 102.405C17.6323 102.143 17.066 102.02 16.3848 102.307C15.088 103.363 14.4068 104.813 13.8159 106.32C13.7749 106.426 13.8405 106.574 13.857 106.705C14.0293 107.343 14.3576 107.794 14.768 108.154C14.2181 107.835 13.6354 107.622 12.8967 107.933C11.3702 109.554 10.5002 111.585 9.38404 113.461C9.29376 113.616 9.48252 113.928 9.53997 114.173C9.61384 114.812 9.95033 115.205 10.3689 115.516C9.78619 115.172 9.17886 115.041 8.53869 115.377C8.06268 115.524 7.82467 115.909 7.59487 116.302C6.99574 117.302 6.38841 118.292 5.7975 119.292C4.38586 121.683 2.98243 124.074 1.57079 126.474C1.07016 127.98 2.23558 128.242 3.20402 128.529C6.44586 129.495 9.75336 130.183 13.1101 130.617C15.4327 130.265 17.7964 129.471 19.8482 131.395C20.8495 131.363 21.703 131.969 22.7125 132.001C26.9228 132.141 31.092 131.739 35.1956 130.888C47.1945 128.398 56.9529 121.863 65.7428 113.682C76.921 103.29 86.1541 91.2841 94.788 78.7872C106.729 61.4996 116.677 43.0081 127.691 25.1554C128.175 24.3693 128.331 23.5913 127.871 22.756L127.847 22.7396ZM20.7017 103.92C20.3817 103.715 20.0534 103.527 19.7087 103.363C19.3804 103.208 19.0685 102.987 18.7566 102.782C19.4132 103.159 20.0698 103.511 20.7017 103.92ZM17.8539 110.144C17.3696 109.833 16.7623 109.366 16.0975 108.989C16.7623 109.325 17.4189 109.628 17.8539 110.144ZM11.8298 116.384C13.857 117.547 15.8759 118.726 17.8949 119.906C15.8759 118.735 13.8487 117.564 11.8298 116.384ZM20.792 103.978C21.0875 104.174 21.3747 104.379 21.6456 104.608C21.3747 104.387 21.0875 104.174 20.792 103.978ZM22.9013 97.3688C23.6071 97.7291 24.3457 98.0239 24.8874 98.5153C24.2883 98.1713 23.6071 97.7618 22.9013 97.3688ZM26.3975 91.8246C27.0459 92.103 27.6614 92.3651 28.0472 92.8483C27.3742 92.4224 26.8407 92.0948 26.3975 91.8246ZM42.5329 65.0456C43.2633 65.3895 44.0019 65.6761 44.5354 66.1593C43.9035 65.8972 43.2387 65.4714 42.5329 65.0456ZM46.2835 58.6088C46.1851 58.5678 46.0948 58.5269 46.0045 58.4777C46.7514 58.7971 47.5146 59.051 47.9496 59.6406C47.5064 59.4768 46.9812 58.8954 46.2835 58.6088ZM56.2635 43.5896C56.7149 43.8352 57.1417 44.0809 57.5438 44.3266C57.1334 44.1546 56.7149 43.8598 56.2635 43.5896ZM58.9472 37.8243C59.653 38.1682 60.326 38.504 60.7938 38.8807C60.1783 38.6432 59.5792 38.2256 58.9472 37.8243ZM62.1152 32.7469C61.9511 32.6896 61.7869 32.6077 61.6228 32.5258C62.5092 32.9107 63.453 33.14 63.97 33.8115C63.5515 33.5577 62.8949 33.0335 62.1152 32.7469ZM64.4296 27.8579C65.1026 28.1527 65.7838 28.382 66.2024 28.8488C65.5951 28.685 65.0288 28.2592 64.4296 27.8579ZM88.5259 9.97245C88.37 11.2172 87.9678 12.3883 87.5493 13.5512C85.596 18.9152 82.9532 23.9352 79.9002 28.7423C77.4544 32.5995 74.9512 36.4403 71.4878 39.5113C70.7656 40.1501 70.0187 41.1655 68.9928 40.666C67.7864 40.0764 68.3116 38.7743 68.5414 37.8325C69.1077 35.5559 69.9531 33.3611 70.8394 31.1828C71.6684 29.1518 73.1292 27.3584 73.2441 25.0572C73.2031 24.8606 73.1375 24.6805 73.0226 24.5167C72.4809 24.0089 71.8818 23.5749 71.2662 23.1818C71.9884 23.5339 72.7353 23.837 73.5232 24.0581C73.7202 24.0253 73.9089 23.968 74.0813 23.8697C74.664 23.4193 75.0908 22.8542 75.4683 22.24C77.1672 19.4557 78.8907 16.6877 80.8276 14.0507C82.3049 12.0443 83.9299 10.1772 85.7847 8.52294C86.4249 7.94969 87.18 7.36006 88.0663 7.8678C88.8953 8.34278 88.6244 9.19447 88.5177 9.98883L88.5259 9.97245ZM103.849 27.039C100.878 27.0635 98.3581 24.5904 98.3007 21.5849C98.2432 18.473 100.673 15.8442 103.742 15.836C106.885 15.8278 109.479 18.3337 109.372 21.372C109.397 24.5003 106.951 27.0062 103.849 27.0308V27.039Z" fill="#6A81B8"/>
<path d="M9.50711 114.165C13.5861 116.515 17.6651 118.866 21.7358 121.216C21.9574 121.347 22.1708 121.503 22.3596 121.683C22.614 121.937 22.6878 122.248 22.4827 122.559C22.2775 122.862 21.9492 122.968 21.6209 122.846C21.1941 122.69 20.7838 122.477 20.3898 122.248C16.4258 119.955 12.4699 117.654 8.51404 115.361C8.60432 114.763 8.85053 114.288 9.50711 114.157V114.165Z" fill="#6A81B8"/>
<path d="M48.3024 49.1501C52.127 51.2547 55.9515 53.3512 59.7679 55.4722C60.2767 55.7507 60.7609 56.0864 61.2041 56.4631C61.475 56.6924 61.4421 57.0691 61.2288 57.3558C61.0728 57.5687 60.8102 57.7079 60.5394 57.6014C60.1126 57.4377 59.694 57.2575 59.3001 57.0364C55.3606 54.8744 51.4294 52.7042 47.4899 50.5259C47.5556 49.9444 47.7279 49.4285 48.3024 49.1501Z" fill="#6A81B8"/>
<path d="M27.5629 83.6025C31.568 85.83 35.5649 88.0575 39.5618 90.2932C39.8409 90.4488 40.1035 90.6617 40.3169 90.891C40.5056 91.0958 40.5056 91.3824 40.3743 91.6281C40.243 91.8737 39.9968 91.9638 39.7178 91.9638C39.2335 91.9638 38.8478 91.7018 38.4456 91.4725C34.5062 89.2614 30.5749 87.0502 26.6355 84.8309C26.7832 84.2986 27.0541 83.8646 27.5547 83.6025H27.5629Z" fill="#6A81B8"/>
<path d="M72.7681 24.9098C70.3552 23.5258 67.934 22.1418 65.5211 20.7578C65.3734 20.1272 65.6032 19.644 66.1038 19.2673C68.5742 20.7087 71.0446 22.15 73.5149 23.5913C73.9745 24.4266 73.6134 24.7951 72.7763 24.9016L72.7681 24.9098Z" fill="#6A81B8"/>
<path d="M20.8741 95.3624C22.8028 96.4434 24.7397 97.508 26.6602 98.6053C27.0623 98.8346 27.4399 99.1213 27.2757 99.6781C27.1362 100.137 26.5699 100.292 25.9461 99.973C25.0187 99.498 24.1242 98.9739 23.2132 98.4661C22.0149 97.811 20.8167 97.1558 19.6184 96.5007C19.7826 95.8374 20.1929 95.4361 20.8823 95.3542L20.8741 95.3624Z" fill="#6A81B8"/>
<path d="M37.0422 68.6652C39.0529 69.5824 40.8914 70.8108 42.7954 71.9246C43.3699 72.2603 43.5177 72.6288 43.3617 73.0137C43.1812 73.4642 42.6641 73.5952 42.0157 73.2676C41.2114 72.85 40.4318 72.375 39.6439 71.9328C38.3389 71.2039 37.0422 70.4751 35.7372 69.7462C35.9014 69.2139 36.123 68.7144 36.5498 68.3376H36.5333C36.6564 68.5178 36.8206 68.6325 37.0422 68.6652Z" fill="#6A81B8"/>
<path d="M23.9271 89.5807C25.7327 90.6044 27.5465 91.6198 29.3521 92.6599C29.7378 92.881 30.1236 93.1512 30.4436 93.4624C30.6899 93.6999 30.6899 94.0521 30.4683 94.3469C30.3041 94.568 30.0251 94.6744 29.7789 94.5925C29.3521 94.4451 28.9417 94.2486 28.5478 94.0357C26.734 93.0202 24.9284 91.9965 23.1146 90.9729C23.1885 90.3914 23.3608 89.8755 23.9353 89.5889L23.9271 89.5807Z" fill="#6A81B8"/>
<path d="M40.1445 62.7935C42.1307 63.9318 44.1332 65.0455 46.1112 66.2084C46.7349 66.5769 46.8991 67.1338 46.6036 67.4859C46.3492 67.7889 45.8896 67.8463 45.3479 67.5433C43.2961 66.3804 41.2607 65.1847 39.2253 64.0055C39.3649 63.4732 39.6439 63.0391 40.1528 62.7935H40.1445Z" fill="#6A81B8"/>
<path d="M59.7433 30.6668C61.5899 31.6413 63.4447 32.6159 65.2914 33.5904C65.5212 33.7132 65.7592 33.8443 65.9397 34.0244C66.1695 34.2619 66.3172 34.5567 66.1367 34.9089C65.9643 35.2364 65.6607 35.4002 65.3242 35.2938C64.8317 35.13 64.3639 34.8925 63.8961 34.655C62.107 33.7132 60.3178 32.7469 58.5286 31.7969C58.6846 31.1582 59.0457 30.7323 59.7351 30.6668H59.7433Z" fill="#6A81B8"/>
<path d="M16.9428 100.833C17.0577 100.857 17.1644 100.907 17.2629 100.98C17.4106 101.087 17.5583 101.185 17.706 101.283C19.3885 102.266 21.071 103.249 22.7453 104.248C23.0735 104.444 23.3608 104.715 23.6234 105.001C23.804 105.198 23.7958 105.484 23.6398 105.722C23.4839 105.951 23.2459 106.049 22.9668 106.033C22.417 106 21.9984 105.665 21.5552 105.402C19.8235 104.379 18.0918 103.339 16.3601 102.307C16.1795 101.668 16.7048 101.308 16.9428 100.833Z" fill="#6A81B8"/>
<path d="M56.6409 35.736C58.4711 36.7187 60.3013 37.7015 62.1315 38.6924C62.3039 38.7824 62.468 38.8889 62.624 39.0117C62.9441 39.2738 63.141 39.5932 62.9687 40.0272C62.8045 40.4367 62.3531 40.5677 61.795 40.2893C60.8676 39.8225 59.9648 39.3066 59.0456 38.8152C57.8392 38.1682 56.6327 37.5295 55.4263 36.8907C55.6971 36.3748 55.9597 35.8343 56.6409 35.7442V35.736Z" fill="#6A81B8"/>
<path d="M13.8322 106.705C15.6624 107.826 17.4926 108.94 19.3228 110.07C19.5444 110.21 19.766 110.357 19.9302 110.554C20.16 110.807 20.2338 111.135 20.0368 111.446C19.8481 111.749 19.5444 111.905 19.2079 111.766C18.7894 111.594 18.379 111.381 17.9933 111.143C16.278 110.079 14.5709 109.006 12.8638 107.933C13.0033 107.384 13.2988 106.95 13.824 106.705H13.8322Z" fill="#6A81B8"/>
<path d="M33.4557 74.5697C35.2695 75.446 36.9601 76.5351 38.659 77.6079C39.5536 78.173 39.8162 78.6971 39.4962 79.0902C39.1761 79.4833 38.6754 79.4423 37.7398 78.9018C36.5005 78.1894 35.2859 77.4442 34.0548 76.7235C33.4393 76.3632 32.8073 76.0274 32.1918 75.6753C32.3641 75.0201 32.7745 74.6434 33.4557 74.5697Z" fill="#6A81B8"/>
<path d="M53.4648 41.2474C55.3114 42.2302 57.1662 43.1965 58.9964 44.212C59.6448 44.5723 59.8254 45.1046 59.5381 45.4731C59.2755 45.8089 58.8651 45.8908 58.2906 45.5878C56.2634 44.5313 54.2527 43.434 52.2337 42.3612C52.3978 41.7142 52.7672 41.3048 53.4648 41.2474Z" fill="#6A81B8"/>
<path d="M44.0019 56.5778C45.8567 57.4049 47.5884 58.4532 49.3365 59.4687C49.673 59.6652 49.9849 59.9109 50.264 60.1729C50.4445 60.3531 50.5266 60.6152 50.3953 60.8936C50.2311 61.2457 49.9028 61.3768 49.591 61.2703C49.0985 61.1147 48.6307 60.869 48.1711 60.6315C46.382 59.6734 44.6092 58.7071 42.8282 57.7407C43.0991 57.233 43.3371 56.6925 44.0019 56.5696V56.5778Z" fill="#6A81B8"/>
<path d="M62.5091 25.9498C64.2901 26.8997 66.071 27.8333 67.8356 28.8078C68.6399 29.2501 68.8779 29.7496 68.5742 30.1509C68.2952 30.5276 67.8766 30.5849 67.1626 30.2164C65.2011 29.2009 63.256 28.1445 61.3027 27.1045C61.5735 26.5885 61.8279 26.0399 62.5091 25.9416V25.9498Z" fill="#6A81B8"/>
<path d="M73.9007 23.5994C74.2371 22.1581 75.2056 21.0526 75.9442 19.8242C77.1835 17.7523 78.5295 15.7377 79.9493 13.7723C81.5333 11.5857 83.3225 9.61211 85.2758 7.76133C85.8585 7.20445 86.5479 6.84412 87.3358 6.67215C88.1401 6.49198 88.7557 6.74585 89.1824 7.43375C89.5764 8.07252 89.6995 8.76042 89.5435 9.50565C89.2235 11.1108 88.8377 12.6913 88.2386 14.2227C87.065 17.2118 85.7682 20.1354 84.2581 22.9689C81.599 27.9398 78.587 32.6814 75.0661 37.0954C74.0073 38.4221 72.7024 39.5358 71.4795 40.7315C70.9132 41.2884 70.1828 41.6077 69.4359 41.878C68.8696 42.0827 68.3854 41.878 68.0407 41.4358C67.5483 40.797 67.2692 40.0518 67.3677 39.241C67.4498 38.5286 67.5647 37.8079 67.7863 37.1282C68.4757 35.0153 69.1077 32.8861 70.0515 30.8634C70.9379 28.9716 71.775 27.0553 72.7845 25.2291C73.5231 24.5658 74.2536 24.8606 74.9265 25.3028C75.6406 25.7696 76.4038 26.1136 76.8881 26.3838C76.0345 25.5731 73.9991 25.655 73.8924 23.6076L73.9007 23.5994Z" fill="#6A81B8"/>
<path d="M62.4845 47.5941C62.665 46.0464 63.297 44.7361 64.5937 43.8189C65.2503 43.3521 65.9972 43.0163 66.7686 43.5159C67.5811 44.0482 68.049 44.8589 67.9012 45.8416C67.7043 47.1683 67.0395 48.2739 66.071 49.1993C65.9315 49.3303 65.751 49.4286 65.5868 49.5186C64.8646 49.9035 64.1095 50.0755 63.3545 49.6415C62.5748 49.1911 62.4599 48.4213 62.4763 47.5941H62.4845Z" fill="#6A81B8"/>
<path d="M73.9007 23.5994C75.1235 24.5985 76.5762 25.2291 77.8811 26.0972C78.3161 26.3838 78.825 26.5885 79.0876 27.0717C79.1697 27.2273 79.1943 27.4566 79.1533 27.6204C79.0794 27.8988 78.8168 28.0053 78.5459 28.038C78.1273 28.0872 77.7909 27.8661 77.4544 27.6695C76.4367 27.0799 75.4108 26.4984 74.3931 25.9088C73.8842 25.614 73.4 25.2619 72.7845 25.2209C72.7599 25.1226 72.7516 25.0162 72.7599 24.9097C73.1702 24.5658 73.4493 24.1481 73.4985 23.5994C73.6298 23.5994 73.7611 23.5994 73.8924 23.5994H73.9007Z" fill="#6A81B8"/>
<path d="M37.0422 68.6652C36.8698 68.5588 36.7057 68.4441 36.5333 68.3376C36.6975 68.4441 36.8698 68.5588 37.0422 68.6652Z" fill="#6A81B8"/>
</svg>
