<svg width="197" height="210" viewBox="0 0 197 210" fill="none" xmlns="http://www.w3.org/2000/svg">
<path d="M182.284 135.077C174.014 143.937 161.957 154.046 145.08 162.527C132.708 168.749 117.759 174.096 99.7501 177.407C59.6465 184.783 28.02 162.563 11.8913 147.603C9.92329 151.681 8.1993 155.277 6.74792 158.308C24.9381 173.66 56.0453 191.936 98.9997 188.641C110.195 187.788 120.467 185.545 129.863 182.408C155.954 173.691 175.203 157.951 188.126 145.013C186.399 142.065 184.439 138.73 182.284 135.075V135.077Z" fill="#6A81B8"/>
<path d="M182.284 135.077C174.014 143.937 161.957 154.046 145.08 162.527C140.607 164.777 135.79 166.908 130.621 168.876C130.2 173.538 129.681 178.14 129.071 182.667C129.333 182.582 129.601 182.496 129.863 182.41C155.954 173.694 175.203 157.953 188.125 145.015C186.399 142.067 184.439 138.733 182.284 135.077Z" fill="#6A81B8"/>
<path d="M182.234 135.435C179.576 138.246 176.844 141.017 173.921 143.576L171.685 145.557C170.922 146.195 170.143 146.815 169.372 147.445L167.048 149.322L164.647 151.098L162.242 152.871L159.763 154.536L157.281 156.203C156.439 156.735 155.58 157.24 154.728 157.759C153.023 158.788 151.335 159.854 149.564 160.769L146.937 162.195L145.623 162.908C145.169 163.159 144.73 163.354 144.281 163.579C142.492 164.445 140.737 165.361 138.896 166.151L136.159 167.378C135.25 167.795 134.316 168.14 133.394 168.524L130.621 169.649C129.692 170.012 128.749 170.339 127.814 170.686L125.002 171.71C124.06 172.034 123.107 172.33 122.159 172.644L119.311 173.569C118.358 173.867 117.395 174.124 116.437 174.404L113.558 175.226C112.6 175.511 111.623 175.719 110.658 175.97C106.784 176.974 102.9 177.785 98.9453 178.547C97.9638 178.711 96.9902 178.887 96.0036 179.043L92.997 179.426C91.9948 179.559 90.9926 179.61 89.9904 179.704C88.9908 179.802 87.9834 179.841 86.9786 179.88C82.9594 180.043 78.9272 179.963 74.9184 179.566C66.9034 178.786 59.0026 176.922 51.4498 174.153C43.8917 171.384 36.6764 167.725 29.8895 163.429C26.496 161.28 23.2038 158.969 20.0181 156.524C16.8297 154.085 13.766 151.482 10.7957 148.78L13.335 148.3L8.26166 159.034L7.83066 157.03L10.2479 158.977L11.4578 159.947L12.6989 160.878L15.181 162.739L17.728 164.51C19.4053 165.721 21.176 166.789 22.9104 167.912C23.7698 168.485 24.6759 168.983 25.5665 169.509L28.2434 171.07C30.0608 172.047 31.8887 173.014 33.7217 173.958L36.5232 175.275L37.9227 175.931C38.3874 176.152 38.8548 176.375 39.3351 176.561L42.1963 177.741L43.6243 178.33L44.3383 178.623L45.0679 178.882L47.981 179.916L49.4376 180.435L50.1646 180.694L50.9045 180.915L53.867 181.793L55.3469 182.234C55.8402 182.379 56.331 182.538 56.8347 182.646L62.8375 184.101L68.9078 185.226C70.9408 185.537 72.9893 185.758 75.0275 186.03C75.5389 186.087 76.0452 186.173 76.5593 186.209L78.099 186.313L81.1783 186.525L82.7179 186.639L83.489 186.696L84.2602 186.709L87.3473 186.751L90.4343 186.795C90.9484 186.816 91.4625 186.787 91.9792 186.761L93.5214 186.691L96.6085 186.562L98.1534 186.497L98.8933 186.463L99.6749 186.396L102.806 186.123L105.852 185.763C106.864 185.657 107.885 185.486 108.902 185.338C109.92 185.187 110.943 185.047 111.953 184.85C116.019 184.168 120.041 183.238 124.016 182.141C125.01 181.871 126.005 181.594 126.989 181.28L128.469 180.826L129.209 180.598L129.915 180.354C131.883 179.662 133.918 179.035 135.798 178.267L138.67 177.16L141.518 175.939L142.943 175.327C143.416 175.117 143.878 174.889 144.348 174.669L147.155 173.344C150.844 171.472 154.528 169.566 158.06 167.388L159.397 166.592L160.708 165.755L163.33 164.075C165.041 162.9 166.786 161.77 168.461 160.538C170.166 159.348 171.81 158.072 173.472 156.823C175.1 155.526 176.74 154.243 178.337 152.905C181.549 150.25 184.675 147.481 187.708 144.611L187.619 145.311L184.841 140.258L182.227 135.438L182.234 135.435ZM182.32 134.735L185.56 139.838L188.624 144.722L188.853 145.085L188.536 145.422C185.649 148.474 182.658 151.432 179.563 154.292C178.031 155.736 176.426 157.103 174.835 158.487C173.207 159.825 171.597 161.191 169.922 162.475C168.274 163.795 166.563 165.034 164.859 166.284L162.253 168.088L160.947 168.988L159.615 169.849C158.724 170.419 157.841 171.002 156.943 171.565L154.22 173.201C153.319 173.759 152.392 174.272 151.465 174.783C150.535 175.293 149.614 175.815 148.676 176.31L145.838 177.746C145.363 177.985 144.893 178.231 144.416 178.459L142.969 179.126L140.077 180.458L137.117 181.692C135.134 182.556 133.181 183.222 131.213 183.964L130.439 184.246L129.681 184.495L128.165 184.993C127.157 185.335 126.14 185.639 125.117 185.937C121.038 187.145 116.902 188.182 112.716 188.968C111.675 189.188 110.621 189.354 109.572 189.53C108.521 189.707 107.474 189.888 106.405 190.015L103.211 190.425L100.082 190.731L99.301 190.808L99.2023 190.819L99.0673 190.827L98.8674 190.837L98.4675 190.858L96.8734 190.941L93.6824 191.107L92.0856 191.182C91.5534 191.208 91.0211 191.239 90.4889 191.221L87.2927 191.184L84.0966 191.146L83.2969 191.133L82.4998 191.076L80.9057 190.961L77.7147 190.72L76.1205 190.598C75.5883 190.554 75.0638 190.464 74.5341 190.396C72.4233 190.098 70.3047 189.847 68.199 189.504L61.921 188.278L55.7208 186.712C55.2015 186.59 54.6952 186.419 54.1889 186.258L52.6649 185.776L49.6193 184.811L48.8586 184.57L48.1108 184.29L46.6153 183.73L43.6243 182.61L42.8765 182.33L42.1444 182.014L40.68 181.381L37.7513 180.113C35.8144 179.234 33.9268 178.254 32.0107 177.337C30.1361 176.338 28.2693 175.317 26.4155 174.285L23.6867 172.641C22.7806 172.086 21.8563 171.562 20.9813 170.961C19.2158 169.781 17.4139 168.659 15.7107 167.393L13.1247 165.539L10.6062 163.595L9.34695 162.623L8.11886 161.614L5.66788 159.589L4.66309 158.759L5.23689 157.585L10.4478 146.905L11.4033 144.95L12.9871 146.428C15.8561 149.104 18.8211 151.686 21.9082 154.111C24.9927 156.54 28.1811 158.837 31.4707 160.979C38.0473 165.259 45.0419 168.913 52.3715 171.7C59.6985 174.49 67.363 176.398 75.1573 177.254C79.0544 177.687 82.9828 177.814 86.9033 177.705C87.8847 177.681 88.8635 177.655 89.8424 177.57C90.8186 177.489 91.8052 177.458 92.7737 177.344L95.6842 177.023C96.6631 176.888 97.6471 176.725 98.6285 176.577C102.487 175.898 106.397 175.148 110.232 174.22C111.192 173.987 112.163 173.8 113.116 173.533L115.98 172.765C116.933 172.504 117.894 172.265 118.841 171.988L121.677 171.119C122.619 170.826 123.569 170.549 124.509 170.243L127.311 169.273C128.243 168.944 129.183 168.638 130.11 168.29L132.875 167.222C133.791 166.857 134.729 166.53 135.632 166.131L138.353 164.966C140.176 164.22 141.959 163.328 143.759 162.493C144.2 162.278 144.673 162.076 145.091 161.853L146.404 161.166L149.035 159.791C150.808 158.912 152.498 157.883 154.209 156.887C155.061 156.384 155.923 155.9 156.767 155.384L159.257 153.771L161.749 152.156L164.166 150.434L166.583 148.707L168.923 146.879C169.699 146.265 170.486 145.663 171.254 145.041L173.511 143.11C176.535 140.551 179.358 137.776 182.133 134.929L182.323 134.735H182.32Z" fill="#6A81B8"/>
<path d="M95.7086 0.0431295C94.0896 -0.343926 91.4681 1.89009 88.1058 6.10354C70.0145 28.8021 30.5783 109.008 11.9948 147.678C28.0863 162.666 59.6399 184.926 99.6512 177.538C117.618 174.221 132.536 168.864 144.877 162.63C161.717 154.135 173.744 144.004 181.995 135.128C156.241 91.2324 102.988 1.78878 95.7086 0.0431295Z" fill="#6A81B8"/>
<path d="M91.1068 12.5671C94.4769 8.35904 99.8773 9.35206 101.5 9.73838C106.791 11.001 103.458 8.77128 116.756 29.6429C104.418 10.2854 101.484 1.6101 95.7984 0.251498C94.1757 -0.134822 91.5482 2.09494 88.1781 6.30039C70.045 28.9559 30.5178 109.01 11.8914 147.605C14.0386 149.597 23.1441 134.263 24.6084 131.149C46.4569 84.6637 73.4618 34.6107 91.1068 12.5671Z" fill="#6A81B8"/>
<path d="M96.1385 0.381134C117.943 32.6194 131.956 82.7607 131.956 139.075C131.956 149.234 131.499 159.187 130.624 168.876C135.793 166.908 140.609 164.777 145.083 162.527C161.962 154.048 174.017 143.937 182.286 135.077C156.837 91.8897 104.608 4.52695 96.1385 0.381134Z" fill="#6A81B8"/>
<path d="M95.7699 0.464105C95.6608 0.451141 95.5466 0.430399 95.4401 0.422621L95.1623 0.44077L94.8637 0.505589C94.7651 0.53411 94.6664 0.573001 94.5677 0.606707C94.1783 0.764865 93.7966 0.972285 93.4409 1.22119C92.7217 1.71381 92.0648 2.30496 91.4365 2.92203C90.1876 4.16656 89.0219 5.51738 87.9548 6.92524L84.7612 11.2033C83.7564 12.6682 82.7802 14.1512 81.7936 15.6291C81.308 16.3732 80.794 17.0966 80.3318 17.8563L78.9272 20.1224L76.1179 24.6571L73.4228 29.2618C72.5375 30.8045 71.6158 32.3264 70.7616 33.8847C69.035 36.996 67.2668 40.0814 65.5766 43.2108C63.889 46.3429 62.1702 49.4568 60.5085 52.6018L55.5572 62.0523L50.6812 71.5444L41.0824 90.6037L36.3414 100.163L31.6394 109.741C28.5081 116.127 25.3769 122.515 22.2794 128.919C19.1768 135.321 16.1001 141.735 13.0363 148.155L12.7559 146.68C15.6613 149.33 18.6601 151.883 21.7809 154.277C24.8966 156.675 28.1135 158.938 31.4291 161.044C38.0576 165.252 45.0886 168.827 52.4389 171.526C59.7815 174.228 67.4434 176.04 75.204 176.808C79.0855 177.196 82.9905 177.277 86.8825 177.124C90.7718 176.958 94.6586 176.574 98.4909 175.856L99.2101 175.734L99.3892 175.703L99.4333 175.695C99.3892 175.703 99.4463 175.693 99.4489 175.693L99.5398 175.675L99.9033 175.599L101.362 175.296L104.281 174.689C106.246 174.313 108.113 173.797 110.024 173.346C110.974 173.103 111.927 172.905 112.872 172.625L115.71 171.822C116.655 171.549 117.605 171.298 118.543 171.008L121.347 170.105C122.281 169.802 123.219 169.512 124.148 169.195L126.916 168.192C127.838 167.852 128.765 167.533 129.679 167.176L132.407 166.071C133.313 165.695 134.235 165.358 135.126 164.948L137.81 163.75C139.615 162.98 141.352 162.076 143.117 161.225L143.777 160.901L144.107 160.74L144.148 160.72C144.096 160.748 144.172 160.709 144.148 160.72L144.231 160.675L144.395 160.587L145.706 159.88L148.326 158.461C150.109 157.541 151.737 156.512 153.402 155.511C154.23 155.005 155.068 154.52 155.894 154.004L158.335 152.381L160.775 150.758L163.141 149.029L165.503 147.297L167.788 145.466C168.546 144.852 169.315 144.25 170.065 143.628L172.264 141.697C175.211 139.14 177.958 136.371 180.661 133.571L180.37 136.21L160.033 101.639L139.765 67.0253C132.994 55.4953 126.145 44.012 119.109 32.6454L116.455 28.3906L113.752 24.1696C111.94 21.3617 110.11 18.5667 108.24 15.7976C106.368 13.0312 104.444 10.2984 102.445 7.62788C101.44 6.29521 100.42 4.97549 99.3399 3.71023C98.7998 3.08019 98.2468 2.45793 97.6574 1.87716C97.5146 1.72678 97.3588 1.59455 97.2083 1.45454C97.0603 1.31194 96.9045 1.17711 96.7435 1.05785C96.5877 0.925615 96.4241 0.808941 96.2554 0.710417C96.0892 0.588557 95.9178 0.539295 95.7491 0.466698H95.7699V0.464105ZM95.8477 0.0440793C96.0684 0.124455 96.2995 0.199644 96.4761 0.326689C96.6734 0.435585 96.8499 0.56263 97.0161 0.697453C97.1901 0.824498 97.3562 0.961914 97.512 1.10711C97.6704 1.24971 97.8366 1.38713 97.982 1.5375C98.5947 2.12347 99.1607 2.74573 99.7189 3.37577C100.828 4.63844 101.874 5.95037 102.902 7.27527C104.956 9.92247 106.901 12.65 108.848 15.375C110.792 18.1 112.698 20.8509 114.586 23.6148L120.22 31.9246C127.7 43.0267 134.991 54.2533 142.224 65.5137L147.632 73.9712C149.434 76.7896 151.223 79.6183 152.991 82.4599L158.304 90.9771L163.553 99.5306L168.777 108.1L173.947 116.702C177.395 122.435 178.989 128.191 182.388 133.952L182.98 135.396L183.135 136.591C180.342 139.516 178.246 142.371 175.172 144.994L172.88 146.975C172.098 147.616 171.301 148.233 170.512 148.863L168.133 150.737L165.68 152.511L163.224 154.279L160.692 155.936L158.161 157.593C157.299 158.124 156.416 158.632 155.541 159.148C153.788 160.17 152.039 161.236 150.276 162.112L147.638 163.494L146.319 164.186L145.945 164.378L145.605 164.539L144.922 164.863C143.097 165.713 141.297 166.618 139.436 167.383L136.663 168.576C135.744 168.983 134.793 169.315 133.859 169.688L131.047 170.779C130.107 171.132 129.151 171.446 128.204 171.783L125.358 172.776C124.405 173.09 123.442 173.375 122.481 173.676L119.605 174.565C118.641 174.85 117.668 175.096 116.702 175.363L113.796 176.149C112.833 176.421 111.839 176.618 110.86 176.857C108.9 177.298 106.926 177.814 104.984 178.161L102.061 178.734L100.599 179.019L100.233 179.092L100.142 179.11L100.02 179.133L99.8332 179.162L99.0828 179.278C95.0922 179.976 91.047 180.336 87.0019 180.471C82.9567 180.59 78.8986 180.466 74.8742 180.023C66.8281 179.149 58.9221 177.194 51.3848 174.334C43.8423 171.479 36.6686 167.738 29.931 163.369C26.5609 161.184 23.2998 158.84 20.1478 156.364C16.9906 153.893 13.9633 151.261 11.0293 148.534L10.3413 147.893L10.7515 147.058C13.8828 140.665 17.0218 134.276 20.1894 127.903L24.9537 118.346C26.5531 115.165 28.1317 111.976 29.757 108.81L34.62 99.305L39.522 89.8181L44.4681 80.3546L49.4895 70.9299L54.5758 61.539L59.7322 52.1869C61.4432 49.0653 63.2139 45.9747 64.9509 42.8686C66.693 39.765 68.5105 36.7004 70.2838 33.615C72.0753 30.54 73.9577 27.5169 75.7596 24.4471L78.5922 19.9201L80.0098 17.6566C80.4772 16.8996 80.9965 16.1736 81.4872 15.4295L84.4678 10.9907L87.6458 6.69968C88.7233 5.26848 89.8839 3.91247 91.1509 2.63942C91.787 2.00939 92.4569 1.40009 93.2072 0.884131C93.5785 0.61967 93.9836 0.394101 94.4171 0.217794C94.5288 0.178902 94.6378 0.134826 94.7521 0.10112L95.1052 0.02593C95.2324 0.015559 95.3648 0.0103735 95.4946 0.00518799C95.6115 0.015559 95.7179 0.0337083 95.8296 0.046672H95.8503L95.8477 0.0440793Z" fill="#6A81B8"/>
<path d="M188.126 145.015C175.203 157.953 155.954 173.691 129.863 182.411C120.467 185.548 110.195 187.79 98.9997 188.644C56.0453 191.936 24.9407 173.663 6.74789 158.311C3.62185 164.85 1.79919 170.149 1.79919 170.149C1.79919 170.149 18.0966 198.729 82.9307 206.961C84.7508 207.192 86.5994 206.938 88.5 207.14C157.992 214.444 196.198 158.829 196.198 158.829C196.198 158.829 193.149 153.579 188.126 145.015Z" fill="#6A81B8"/>
<path d="M188.125 145.015C175.203 157.953 155.954 173.691 129.863 182.411C129.601 182.499 129.336 182.582 129.071 182.667C128.027 190.394 126.713 197.913 125.15 205.193C171.298 195.061 196.198 158.832 196.198 158.832C196.198 158.832 193.149 153.582 188.125 145.018V145.015Z" fill="#6A81B8"/>
<path d="M188.074 145.365C185.199 148.274 182.221 151.108 179.158 153.828C177.6 155.233 175.985 156.574 174.383 157.927C172.745 159.236 171.125 160.574 169.439 161.827C167.783 163.118 166.059 164.318 164.356 165.547L161.746 167.316L160.438 168.194L159.106 169.037C155.583 171.329 151.901 173.372 148.188 175.353L145.363 176.761C144.891 176.994 144.423 177.235 143.948 177.461L142.51 178.114L139.636 179.421L136.715 180.622C132.812 182.208 128.832 183.606 124.792 184.791C120.737 185.986 116.647 187.005 112.496 187.775C108.349 188.545 104.169 189.178 99.9605 189.535L99.1738 189.613L99.0751 189.624L98.9479 189.631L98.7532 189.642L98.3611 189.662L96.7929 189.748L93.6539 189.919L92.0857 190.005C91.5638 190.036 91.0419 190.07 90.5097 190.054L87.3291 190.038L84.1459 190.015L83.3514 190.005L82.5596 189.953L80.9784 189.847L77.8134 189.637L76.2322 189.53C75.7051 189.494 75.1833 189.406 74.6562 189.346C72.5609 189.071 70.4552 188.846 68.3652 188.527L62.1235 187.376L55.9519 185.885C55.4352 185.771 54.9315 185.607 54.4226 185.457L52.9037 185.001L49.8634 184.085L49.1027 183.857L48.3549 183.59L46.8594 183.054L43.871 181.983L43.1232 181.716L42.391 181.412L40.9241 180.803L37.9928 179.584C37.4995 179.39 37.0217 179.162 36.544 178.934L35.1082 178.254L32.2366 176.896C30.3568 175.923 28.4848 174.93 26.6232 173.924L23.8815 172.32C22.9701 171.78 22.0432 171.267 21.1631 170.678C19.3897 169.525 17.5749 168.425 15.8587 167.186L13.2545 165.368L10.7152 163.46L9.44561 162.506L8.20714 161.513L5.73539 159.519L8.17079 158.995L6.8778 161.889L6.2313 163.336C6.0158 163.818 5.82886 164.313 5.62635 164.801L5.02918 166.268C4.83185 166.758 4.62414 167.246 4.44499 167.741C4.07891 168.726 3.68945 169.719 3.35971 170.689L3.23249 169.343C3.32855 169.501 3.49213 169.748 3.63233 169.955C3.79071 170.173 3.93611 170.393 4.10227 170.608C4.42163 171.044 4.76435 171.472 5.10967 171.897C5.81069 172.745 6.54546 173.572 7.31399 174.373C8.84845 175.98 10.4971 177.492 12.2159 178.923C15.6458 181.804 19.3949 184.324 23.2739 186.611C31.0501 191.182 39.4805 194.638 48.1108 197.384C52.4338 198.753 56.8321 199.886 61.2459 200.938C65.6805 201.921 70.1307 202.844 74.6276 203.534C75.7519 203.707 76.8683 203.915 77.9977 204.063L81.3808 204.519L83.071 204.747L83.1775 204.76C83.2943 204.773 83.0788 204.752 83.1204 204.755H83.1749L83.3904 204.773L83.8214 204.802L84.2498 204.83L84.4653 204.846H84.6522L86.236 204.84H87.137L88.1158 204.895C90.437 205.056 92.7036 205.253 94.9988 205.429L98.3481 205.52L100.023 205.566C100.581 205.579 101.137 205.616 101.7 205.59C106.205 205.525 110.712 205.33 115.18 204.734L118.535 204.314L121.863 203.728L123.528 203.435C124.083 203.339 124.629 203.194 125.179 203.075L128.476 202.325C129.577 202.077 130.652 201.734 131.743 201.444C132.825 201.13 133.926 200.871 134.991 200.492L138.208 199.435C138.748 199.269 139.275 199.066 139.802 198.864L141.388 198.268C143.52 197.516 145.581 196.585 147.666 195.709C148.702 195.255 149.712 194.747 150.738 194.27L152.272 193.541L153.776 192.756C157.813 190.705 161.702 188.363 165.501 185.88C169.294 183.388 172.958 180.692 176.47 177.803C179.994 174.928 183.377 171.874 186.596 168.648C189.798 165.42 192.921 162.05 195.65 158.451L195.624 159.161L191.763 152.153L188.074 145.363V145.365ZM188.165 144.676L192.563 151.689L196.777 158.495L196.995 158.848L196.751 159.205C194.115 163.061 191.166 166.603 188.061 170.043C184.927 173.447 181.614 176.691 178.143 179.766C174.671 182.841 171.013 185.709 167.22 188.387C163.424 191.065 159.501 193.58 155.396 195.787L153.869 196.634L152.309 197.423C151.265 197.941 150.237 198.488 149.18 198.983C147.054 199.943 144.95 200.951 142.77 201.786C138.457 203.583 133.989 204.975 129.484 206.228L126.077 207.062C125.509 207.195 124.945 207.355 124.369 207.464L122.648 207.799L119.202 208.465L115.728 208.963C111.091 209.627 106.41 209.878 101.731 209.987C101.147 210.018 100.555 209.987 99.9657 209.982L98.1949 209.94L94.6561 209.847C92.3713 209.676 90.0631 209.479 87.799 209.328L87.0591 209.287H86.236L84.3744 209.282C84.2031 209.282 84.0525 209.274 83.9149 209.261L83.4865 209.23L83.0581 209.199L82.8426 209.183L82.788 209.178L82.6245 209.16L82.518 209.144L80.7966 208.895L77.3538 208.4C76.2062 208.24 75.0664 208.019 73.9214 207.832C69.3414 207.091 64.8003 206.108 60.2749 205.066C55.7676 203.938 51.2862 202.691 46.8698 201.221C38.0551 198.252 29.4299 194.576 21.4175 189.732C17.4217 187.303 13.5557 184.63 9.99085 181.558C8.20455 180.028 6.48315 178.415 4.86561 176.681C4.05554 175.817 3.27403 174.92 2.52368 173.989C2.1524 173.52 1.78371 173.048 1.42801 172.553C1.24886 172.312 1.0775 172.052 0.903539 171.804C0.726985 171.534 0.571203 171.303 0.376474 170.969L0 170.326L0.249252 169.623C0.620534 168.573 1.02557 167.58 1.41502 166.564C1.60456 166.055 1.82525 165.56 2.03037 165.06L2.65869 163.561C2.87159 163.063 3.06892 162.56 3.2948 162.068L3.97505 160.593L5.33296 157.642L6.17937 155.806L7.76836 157.118L10.1648 159.096L11.3643 160.082L12.595 161.028L15.0564 162.923L17.5853 164.728C19.2495 165.962 21.0125 167.056 22.7339 168.205C23.5881 168.791 24.4916 169.302 25.3744 169.841L28.0383 171.443C29.8505 172.447 31.668 173.44 33.4984 174.412L36.2921 175.773L37.689 176.452C38.1537 176.681 38.6185 176.911 39.0988 177.106L41.9548 178.332L43.3828 178.947L44.0968 179.253L44.8264 179.522L47.7396 180.603L49.1961 181.145L49.9257 181.415L50.6683 181.648L53.6359 182.579L55.1211 183.043C55.617 183.196 56.1077 183.362 56.614 183.479L62.6454 185.008L68.752 186.206C70.798 186.541 72.8621 186.784 74.9158 187.08C75.4299 187.145 75.944 187.236 76.4607 187.277L78.0133 187.399L81.1186 187.643L82.6712 187.765L83.4475 187.824L84.2238 187.842L87.3265 187.899L90.4318 187.964C90.9459 187.988 91.4703 187.964 91.9948 187.941L93.5656 187.879L96.7072 187.754L98.278 187.692L98.6701 187.676L98.8648 187.669H98.9141C98.9141 187.669 98.9764 187.663 98.9349 187.669L99.031 187.661L99.8073 187.596C103.956 187.308 108.085 186.746 112.187 186.048C116.286 185.353 120.355 184.404 124.356 183.289C128.375 182.177 132.332 180.852 136.214 179.343L139.124 178.2L141.991 176.95L143.424 176.325C143.899 176.11 144.364 175.877 144.836 175.654L147.656 174.3C151.366 172.395 155.048 170.422 158.581 168.2L159.919 167.386L161.23 166.53L163.849 164.814C165.56 163.618 167.292 162.449 168.959 161.189C170.655 159.968 172.288 158.664 173.939 157.383C175.554 156.058 177.184 154.748 178.758 153.372C181.928 150.642 184.997 147.81 187.983 144.87L188.172 144.683L188.165 144.676Z" fill="#6A81B8"/>
<path d="M93.9342 18.3489C93.9342 18.3489 104.553 34.3877 95.8555 34.3851C86.9266 34.3773 93.9342 18.3489 93.9342 18.3489Z" fill="#6A81B8"/>
<path d="M83.933 43.4182C83.933 43.4182 87.1032 62.3842 79.1609 58.8503C71.0057 55.2179 83.933 43.4182 83.933 43.4182Z" fill="#6A81B8"/>
<path d="M105.95 44.4216C105.95 44.4216 119.947 57.6239 111.478 59.5996C102.783 61.6245 105.95 44.4216 105.95 44.4216Z" fill="#6A81B8"/>
<path d="M129.699 70.0354C129.699 70.0354 143.696 83.2377 135.227 85.2134C126.532 87.2358 129.699 70.0354 129.699 70.0354Z" fill="#6A81B8"/>
<path d="M150.598 119.365C150.598 119.365 164.595 132.567 156.125 134.543C147.43 136.568 150.598 119.365 150.598 119.365Z" fill="#6A81B8"/>
<path d="M95.0143 73.3256C95.0143 73.3256 104.997 89.7663 96.3073 89.424C87.3861 89.0688 95.0143 73.3256 95.0143 73.3256Z" fill="#6A81B8"/>
<path d="M66.4334 70.6966C66.4334 70.6966 70.9381 89.3903 62.7647 86.4268C54.3732 83.3803 66.4334 70.6966 66.4334 70.6966Z" fill="#6A81B8"/>
<path d="M75.609 95.2914C75.609 95.2914 80.8043 113.806 72.5245 111.146C64.0265 108.411 75.609 95.2914 75.609 95.2914Z" fill="#6A81B8"/>
<path d="M99.384 127.377C99.384 127.377 104.579 145.892 96.2995 143.231C87.8016 140.496 99.384 127.377 99.384 127.377Z" fill="#6A81B8"/>
<path d="M41.4095 126.596C41.4095 126.596 46.6049 145.111 38.325 142.451C29.8271 139.716 41.4095 126.596 41.4095 126.596Z" fill="#6A81B8"/>
<path d="M116.987 93.2406C116.987 93.2406 126.747 109.816 118.062 109.357C109.146 108.883 116.987 93.2406 116.987 93.2406Z" fill="#6A81B8"/>
<path d="M127.573 139.718C127.573 139.718 137.333 156.294 128.648 155.835C119.732 155.36 127.573 139.718 127.573 139.718Z" fill="#6A81B8"/>
<path d="M72.5686 134.652C72.5686 134.652 82.3284 151.227 73.6435 150.769C64.7275 150.294 72.5686 134.652 72.5686 134.652Z" fill="#6A81B8"/>
</svg>
