<svg width="197" height="210" viewBox="0 0 197 210" fill="none" xmlns="http://www.w3.org/2000/svg">
<path d="M182.289 135.077C174.019 143.937 161.962 154.046 145.085 162.527C132.714 168.749 117.764 174.096 99.7553 177.407C59.6517 184.783 28.0253 162.563 11.8966 147.603C9.92854 151.681 8.20455 155.277 6.75317 158.308C24.9434 173.66 56.0506 191.936 99.005 188.641C110.201 187.788 120.472 185.545 129.868 182.408C155.959 173.691 175.209 157.951 188.131 145.013C186.404 142.065 184.444 138.73 182.289 135.075V135.077Z" fill="#FFF3F6"/>
<path d="M182.289 135.077C174.019 143.937 161.962 154.046 145.085 162.527C140.612 164.777 135.796 166.908 130.626 168.876C130.206 173.538 129.686 178.14 129.076 182.667C129.338 182.582 129.606 182.496 129.868 182.41C155.959 173.694 175.209 157.953 188.131 145.015C186.404 142.067 184.444 138.733 182.289 135.077Z" fill="#E6E7E8"/>
<path d="M182.24 135.435C179.581 138.246 176.85 141.017 173.926 143.576L171.691 145.557C170.927 146.195 170.148 146.815 169.377 147.445L167.053 149.322L164.652 151.098L162.248 152.871L159.768 154.536L157.286 156.203C156.445 156.735 155.585 157.24 154.734 157.759C153.028 158.788 151.34 159.854 149.569 160.769L146.942 162.195L145.628 162.908C145.174 163.159 144.735 163.354 144.286 163.579C142.497 164.445 140.742 165.361 138.901 166.151L136.164 167.378C135.256 167.795 134.321 168.14 133.399 168.524L130.626 169.649C129.697 170.012 128.754 170.339 127.82 170.686L125.008 171.71C124.065 172.034 123.112 172.33 122.165 172.644L119.316 173.569C118.364 173.867 117.4 174.124 116.442 174.404L113.563 175.226C112.605 175.511 111.629 175.719 110.663 175.97C106.789 176.974 102.905 177.785 98.9505 178.547C97.9691 178.711 96.9954 178.887 96.0088 179.043L93.0022 179.426C92 179.559 90.9978 179.61 89.9956 179.704C88.996 179.802 87.9886 179.841 86.9838 179.88C82.9646 180.043 78.9325 179.963 74.9237 179.566C66.9087 178.786 59.0079 176.922 51.455 174.153C43.897 171.384 36.6816 167.725 29.8947 163.429C26.5013 161.28 23.2091 158.969 20.0233 156.524C16.835 154.085 13.7712 151.482 10.801 148.78L13.3402 148.3L8.26691 159.034L7.83591 157.03L10.2531 158.977L11.4631 159.947L12.7041 160.878L15.1863 162.739L17.7333 164.51C19.4106 165.721 21.1813 166.789 22.9157 167.912C23.7751 168.485 24.6812 168.983 25.5718 169.509L28.2486 171.07C30.0661 172.047 31.8939 173.014 33.727 173.958L36.5285 175.275L37.9279 175.931C38.3927 176.152 38.86 176.375 39.3403 176.561L42.2015 177.741L43.6295 178.33L44.3436 178.623L45.0731 178.882L47.9863 179.916L49.4428 180.435L50.1698 180.694L50.9098 180.915L53.8723 181.793L55.3522 182.234C55.8455 182.379 56.3362 182.538 56.8399 182.646L62.8427 184.101L68.9131 185.226C70.946 185.537 72.9946 185.758 75.0327 186.03C75.5442 186.087 76.0505 186.173 76.5646 186.209L78.1042 186.313L81.1835 186.525L82.7232 186.639L83.4943 186.696L84.2654 186.709L87.3525 186.751L90.4396 186.795C90.9537 186.816 91.4678 186.787 91.9844 186.761L93.5267 186.691L96.6138 186.562L98.1586 186.497L98.8986 186.463L99.6801 186.396L102.811 186.123L105.857 185.763C106.869 185.657 107.89 185.486 108.908 185.338C109.925 185.187 110.948 185.047 111.958 184.85C116.024 184.168 120.046 183.238 124.021 182.141C125.016 181.871 126.01 181.594 126.994 181.28L128.474 180.826L129.214 180.598L129.92 180.354C131.888 179.662 133.924 179.035 135.803 178.267L138.675 177.16L141.523 175.939L142.949 175.327C143.421 175.117 143.883 174.889 144.353 174.669L147.16 173.344C150.849 171.472 154.534 169.566 158.065 167.388L159.402 166.592L160.713 165.755L163.335 164.075C165.046 162.9 166.791 161.77 168.466 160.538C170.172 159.348 171.815 158.072 173.477 156.823C175.105 155.526 176.746 154.243 178.343 152.905C181.554 150.25 184.68 147.481 187.713 144.611L187.625 145.311L184.846 140.258L182.232 135.438L182.24 135.435ZM182.325 134.735L185.566 139.838L188.629 144.722L188.858 145.085L188.541 145.422C185.654 148.474 182.663 151.432 179.568 154.292C178.036 155.736 176.432 157.103 174.84 158.487C173.212 159.825 171.602 161.191 169.928 162.475C168.279 163.795 166.568 165.034 164.865 166.284L162.258 168.088L160.952 168.988L159.62 169.849C158.729 170.419 157.847 171.002 156.948 171.565L154.225 173.201C153.324 173.759 152.397 174.272 151.47 174.783C150.541 175.293 149.619 175.815 148.682 176.31L145.844 177.746C145.369 177.985 144.899 178.231 144.421 178.459L142.975 179.126L140.082 180.458L137.122 181.692C135.139 182.556 133.186 183.222 131.218 183.964L130.445 184.246L129.686 184.495L128.17 184.993C127.163 185.335 126.145 185.639 125.122 185.937C121.043 187.145 116.907 188.182 112.722 188.968C111.681 189.188 110.626 189.354 109.577 189.53C108.526 189.707 107.48 189.888 106.41 190.015L103.216 190.425L100.088 190.731L99.3062 190.808L99.2076 190.819L99.0725 190.827L98.8726 190.837L98.4728 190.858L96.8786 190.941L93.6877 191.107L92.0909 191.182C91.5586 191.208 91.0264 191.239 90.4941 191.221L87.298 191.184L84.1019 191.146L83.3022 191.133L82.5051 191.076L80.9109 190.961L77.72 190.72L76.1258 190.598C75.5935 190.554 75.0691 190.464 74.5394 190.396C72.4285 190.098 70.3099 189.847 68.2042 189.504L61.9262 188.278L55.7261 186.712C55.2068 186.59 54.7005 186.419 54.1942 186.258L52.6701 185.776L49.6246 184.811L48.8638 184.57L48.1161 184.29L46.6206 183.73L43.6295 182.61L42.8818 182.33L42.1496 182.014L40.6853 181.381L37.7565 180.113C35.8197 179.234 33.9321 178.254 32.016 177.337C30.1414 176.338 28.2746 175.317 26.4208 174.285L23.692 172.641C22.7858 172.086 21.8615 171.562 20.9866 170.961C19.221 169.781 17.4191 168.659 15.7159 167.393L13.1299 165.539L10.6114 163.595L9.3522 162.623L8.12411 161.614L5.67313 159.589L4.66833 158.759L5.24213 157.585L10.4531 146.905L11.4085 144.95L12.9923 146.428C15.8613 149.104 18.8264 151.686 21.9135 154.111C24.998 156.54 28.1863 158.837 31.4759 160.979C38.0525 165.259 45.0472 168.913 52.3767 171.7C59.7037 174.49 67.3682 176.398 75.1625 177.254C79.0597 177.687 82.988 177.814 86.9085 177.705C87.89 177.681 88.8688 177.655 89.8476 177.57C90.8239 177.489 91.8105 177.458 92.7789 177.344L95.6895 177.023C96.6683 176.888 97.6523 176.725 98.6338 176.577C102.492 175.898 106.402 175.148 110.237 174.22C111.198 173.987 112.169 173.8 113.122 173.533L115.985 172.765C116.938 172.504 117.899 172.265 118.847 171.988L121.682 171.119C122.624 170.826 123.575 170.549 124.514 170.243L127.316 169.273C128.248 168.944 129.188 168.638 130.115 168.29L132.88 167.222C133.796 166.857 134.734 166.53 135.637 166.131L138.358 164.966C140.181 164.22 141.965 163.328 143.764 162.493C144.205 162.278 144.678 162.076 145.096 161.853L146.41 161.166L149.04 159.791C150.813 158.912 152.503 157.883 154.214 156.887C155.066 156.384 155.928 155.9 156.772 155.384L159.262 153.771L161.754 152.156L164.171 150.434L166.589 148.707L168.928 146.879C169.704 146.265 170.491 145.663 171.26 145.041L173.516 143.11C176.541 140.551 179.363 137.776 182.138 134.929L182.328 134.735H182.325Z" fill="#5B0030"/>
<path d="M95.7139 0.0431295C94.0949 -0.343926 91.4734 1.89009 88.1111 6.10354C70.0197 28.8021 30.5835 109.008 12 147.678C28.0915 162.666 59.6452 184.926 99.6565 177.538C117.623 174.221 132.542 168.864 144.882 162.63C161.722 154.135 173.75 144.004 182 135.128C156.246 91.2324 102.993 1.78878 95.7139 0.0431295Z" fill="#FF3159"/>
<path d="M91.112 12.5671C94.4821 8.35904 99.8826 9.35206 101.505 9.73838C106.797 11.0011 103.463 8.77128 116.762 29.6429C104.424 10.2854 101.49 1.6101 95.8037 0.251498C94.1809 -0.134822 91.5534 2.09494 88.1833 6.30039C70.0502 28.9559 30.523 109.01 11.8966 147.605C14.0438 149.597 23.1493 134.263 24.6137 131.149C46.4622 84.6637 73.4671 34.6107 91.112 12.5671Z" fill="#F97D9A"/>
<path d="M96.1438 0.381134C117.948 32.6194 131.961 82.7607 131.961 139.075C131.961 149.234 131.504 159.187 130.629 168.876C135.798 166.908 140.615 164.777 145.088 162.527C161.967 154.048 174.022 143.937 182.292 135.077C156.842 91.8897 104.613 4.52695 96.1438 0.381134Z" fill="#F42A5A"/>
<path d="M95.7751 0.464105C95.6661 0.451141 95.5518 0.430399 95.4454 0.422621L95.1676 0.44077L94.869 0.505589C94.7703 0.53411 94.6716 0.573001 94.573 0.606707C94.1835 0.764864 93.8019 0.972285 93.4462 1.22119C92.727 1.71381 92.0701 2.30496 91.4418 2.92203C90.1929 4.16656 89.0271 5.51738 87.96 6.92524L84.7665 11.2033C83.7617 12.6682 82.7854 14.1512 81.7988 15.6291C81.3133 16.3732 80.7992 17.0966 80.3371 17.8563L78.9324 20.1224L76.1231 24.6571L73.4281 29.2618C72.5427 30.8045 71.621 32.3264 70.7668 33.8847C69.0402 36.996 67.2721 40.0814 65.5819 43.2108C63.8942 46.3429 62.1754 49.4568 60.5137 52.6018L55.5624 62.0523L50.6864 71.5444L41.0876 90.6037L36.3467 100.163L31.6446 109.741C28.5134 116.127 25.3822 122.515 22.2847 128.919C19.182 135.321 16.1053 141.735 13.0416 148.155L12.7612 146.68C15.6665 149.33 18.6653 151.883 21.7862 154.277C24.9018 156.675 28.1187 158.938 31.4343 161.044C38.0629 165.252 45.0939 168.827 52.4442 171.526C59.7867 174.228 67.4486 176.04 75.2092 176.808C79.0908 177.196 82.9957 177.277 86.8877 177.124C90.7771 176.958 94.6639 176.574 98.4961 175.856L99.2153 175.734L99.3945 175.703L99.4386 175.695C99.3944 175.703 99.4516 175.693 99.4542 175.693L99.545 175.675L99.9085 175.599L101.368 175.296L104.286 174.689C106.251 174.313 108.118 173.797 110.029 173.346C110.979 173.103 111.932 172.905 112.877 172.625L115.715 171.822C116.66 171.549 117.611 171.298 118.548 171.008L121.352 170.105C122.287 169.802 123.224 169.512 124.153 169.195L126.921 168.192C127.843 167.852 128.77 167.533 129.684 167.176L132.413 166.071C133.319 165.695 134.24 165.358 135.131 164.948L137.816 163.75C139.62 162.98 141.357 162.076 143.123 161.225L143.782 160.901L144.112 160.74L144.153 160.72C144.177 160.709 144.101 160.748 144.153 160.72L144.236 160.675L144.4 160.587L145.711 159.879L148.331 158.461C150.115 157.541 151.743 156.512 153.407 155.511C154.235 155.005 155.074 154.52 155.899 154.004L158.34 152.381L160.781 150.758L163.146 149.029L165.509 147.297L167.793 145.466C168.552 144.852 169.32 144.25 170.07 143.628L172.27 141.697C175.216 139.14 177.963 136.371 180.666 133.571L180.375 136.21L160.038 101.639L139.771 67.0253C132.999 55.4953 126.15 44.012 119.114 32.6454L116.46 28.3906L113.758 24.1696C111.945 21.3617 110.115 18.5667 108.245 15.7976C106.374 13.0312 104.45 10.2984 102.45 7.62788C101.446 6.29521 100.425 4.97549 99.3451 3.71023C98.8051 3.08019 98.252 2.45793 97.6627 1.87716C97.5199 1.72678 97.3641 1.59455 97.2135 1.45454C97.0655 1.31194 96.9097 1.17711 96.7487 1.05785C96.593 0.925615 96.4294 0.808941 96.2606 0.710417C96.0945 0.588557 95.9231 0.539295 95.7543 0.466698H95.7751V0.464105ZM95.853 0.0440793C96.0737 0.124455 96.3048 0.199644 96.4813 0.326689C96.6786 0.435585 96.8552 0.56263 97.0214 0.697453C97.1953 0.824498 97.3615 0.961914 97.5173 1.10711C97.6756 1.24971 97.8418 1.38713 97.9872 1.5375C98.6 2.12347 99.166 2.74573 99.7242 3.37577C100.833 4.63844 101.879 5.95037 102.907 7.27527C104.961 9.92247 106.906 12.65 108.853 15.375C110.798 18.1 112.703 20.8509 114.591 23.6148L120.225 31.9246C127.705 43.0267 134.996 54.2533 142.229 65.5137L147.638 73.9712C149.44 76.7896 151.229 79.6183 152.997 82.4599L158.309 90.9771L163.559 99.5306L168.783 108.1L173.952 116.702C177.4 122.435 178.994 128.191 182.393 133.952L182.985 135.396L183.141 136.591C180.347 139.516 178.252 142.371 175.177 144.994L172.885 146.975C172.103 147.616 171.306 148.233 170.517 148.863L168.139 150.737L165.685 152.511L163.229 154.279L160.697 155.936L158.166 157.593C157.304 158.124 156.421 158.632 155.546 159.148C153.794 160.17 152.044 161.236 150.281 162.112L147.643 163.494L146.324 164.186L145.95 164.378L145.61 164.539L144.927 164.863C143.102 165.713 141.303 166.618 139.441 167.383L136.668 168.576C135.749 168.983 134.799 169.315 133.864 169.688L131.052 170.779C130.112 171.132 129.157 171.446 128.209 171.783L125.363 172.776C124.411 173.09 123.447 173.375 122.487 173.676L119.61 174.565C118.647 174.85 117.673 175.096 116.707 175.363L113.802 176.149C112.838 176.421 111.844 176.618 110.865 176.857C108.905 177.298 106.932 177.814 104.99 178.161L102.066 178.734L100.604 179.019L100.238 179.092L100.147 179.11L100.025 179.133L99.8384 179.162L99.0881 179.278C95.0975 179.976 91.0523 180.336 87.0071 180.471C82.962 180.59 78.9039 180.466 74.8795 180.023C66.8333 179.149 58.9273 177.194 51.3901 174.334C43.8476 171.479 36.6738 167.738 29.9362 163.369C26.5661 161.184 23.3051 158.84 20.1531 156.364C16.9959 153.893 13.9685 151.261 11.0346 148.534L10.3466 147.893L10.7568 147.058C13.888 140.665 17.027 134.276 20.1946 127.903L24.959 118.346C26.5583 115.165 28.1369 111.976 29.7623 108.81L34.6253 99.305L39.5272 89.8181L44.4733 80.3546L49.4947 70.9299L54.581 61.539L59.7374 52.1869C61.4484 49.0653 63.2191 45.9747 64.9561 42.8686C66.6983 39.765 68.5158 36.7004 70.2891 33.615C72.0806 30.54 73.963 27.5169 75.7648 24.4471L78.5975 19.9201L80.0151 17.6566C80.4824 16.8996 81.0017 16.1736 81.4924 15.4295L84.4731 10.9907L87.651 6.69968C88.7285 5.26848 89.8891 3.91247 91.1562 2.63942C91.7923 2.00939 92.4621 1.40009 93.2125 0.884131C93.5838 0.61967 93.9888 0.394101 94.4224 0.217794C94.534 0.178902 94.6431 0.134826 94.7573 0.10112L95.1104 0.02593C95.2377 0.015559 95.3701 0.0103735 95.4999 0.00518799C95.6167 0.015559 95.7232 0.0337083 95.8348 0.046672H95.8556L95.853 0.0440793Z" fill="#5B0030"/>
<path d="M188.131 145.015C175.209 157.953 155.959 173.691 129.868 182.411C120.472 185.548 110.201 187.79 99.005 188.644C56.0505 191.936 24.9459 173.663 6.75314 158.311C3.6271 164.85 1.80444 170.149 1.80444 170.149C1.80444 170.149 18.1019 198.729 82.936 206.961C84.756 207.192 86.6047 206.938 88.5052 207.14C157.997 214.444 196.203 158.829 196.203 158.829C196.203 158.829 193.155 153.579 188.131 145.015Z" fill="#B4CD38"/>
<path d="M188.131 145.015C175.209 157.953 155.959 173.691 129.868 182.411C129.606 182.499 129.341 182.582 129.076 182.667C128.032 190.394 126.719 197.913 125.156 205.193C171.304 195.061 196.203 158.832 196.203 158.832C196.203 158.832 193.155 153.582 188.131 145.018V145.015Z" fill="#93A842"/>
<path d="M188.079 145.365C185.205 148.274 182.227 151.108 179.163 153.828C177.605 155.233 175.99 156.574 174.388 157.927C172.75 159.236 171.13 160.574 169.445 161.827C167.788 163.118 166.064 164.318 164.361 165.547L161.752 167.316L160.443 168.194L159.111 169.037C155.588 171.329 151.906 173.372 148.193 175.353L145.369 176.761C144.896 176.994 144.429 177.235 143.954 177.461L142.515 178.114L139.641 179.421L136.72 180.622C132.818 182.208 128.837 183.606 124.797 184.791C120.742 185.986 116.653 187.005 112.501 187.775C108.355 188.545 104.174 189.178 99.9657 189.535L99.179 189.613L99.0803 189.624L98.9531 189.631L98.7584 189.642L98.3663 189.662L96.7981 189.748L93.6591 189.919L92.0909 190.005C91.569 190.036 91.0472 190.07 90.5149 190.054L87.3343 190.038L84.1512 190.015L83.3567 190.005L82.5648 189.953L80.9836 189.847L77.8186 189.637L76.2374 189.53C75.7104 189.494 75.1885 189.406 74.6614 189.346C72.5662 189.071 70.4605 188.846 68.3704 188.527L62.1287 187.376L55.9571 185.885C55.4405 185.771 54.9368 185.607 54.4279 185.457L52.909 185.001L49.8686 184.085L49.1079 183.857L48.3601 183.59L46.8646 183.054L43.8762 181.983L43.1285 181.716L42.3963 181.412L40.9293 180.803L37.998 179.584C37.5047 179.39 37.027 179.162 36.5492 178.934L35.1134 178.254L32.2418 176.896C30.3621 175.923 28.4901 174.93 26.6285 173.924L23.8867 172.32C22.9754 171.78 22.0485 171.267 21.1683 170.678C19.395 169.525 17.5801 168.425 15.8639 167.186L13.2597 165.368L10.7205 163.46L9.45086 162.506L8.21239 161.513L5.74064 159.519L8.17604 158.995L6.88305 161.889L6.23655 163.336C6.02105 163.818 5.83411 164.313 5.6316 164.801L5.03443 166.268C4.8371 166.758 4.62939 167.246 4.45024 167.741C4.08415 168.726 3.6947 169.719 3.36496 170.689L3.23774 169.343C3.3338 169.501 3.49737 169.748 3.63758 169.955C3.79596 170.173 3.94135 170.393 4.10752 170.608C4.42688 171.044 4.7696 171.472 5.11492 171.897C5.81594 172.745 6.55071 173.572 7.31924 174.373C8.8537 175.98 10.5024 177.492 12.2212 178.923C15.651 181.804 19.4002 184.324 23.2792 186.611C31.0553 191.182 39.4857 194.638 48.1161 197.384C52.4391 198.753 56.8373 199.886 61.2512 200.938C65.6858 201.921 70.136 202.844 74.6329 203.534C75.7571 203.707 76.8735 203.915 78.003 204.063L81.386 204.519L83.0763 204.747L83.1827 204.76C83.2996 204.773 83.0841 204.752 83.1256 204.755H83.1801L83.3956 204.773L83.8266 204.802L84.255 204.83L84.4705 204.846H84.6575L86.2413 204.84H87.1422L88.121 204.895C90.4422 205.056 92.7088 205.253 95.004 205.429L98.3534 205.52L100.028 205.566C100.586 205.579 101.142 205.616 101.705 205.59C106.21 205.525 110.717 205.33 115.186 204.734L118.54 204.314L121.869 203.728L123.533 203.435C124.089 203.339 124.634 203.194 125.184 203.075L128.482 202.325C129.583 202.077 130.657 201.734 131.748 201.444C132.831 201.13 133.931 200.871 134.996 200.492L138.213 199.435C138.753 199.269 139.28 199.066 139.807 198.864L141.393 198.268C143.525 197.516 145.587 196.585 147.672 195.709C148.707 195.255 149.717 194.747 150.743 194.27L152.277 193.541L153.781 192.756C157.818 190.705 161.708 188.363 165.506 185.88C169.299 183.388 172.963 180.692 176.476 177.803C179.999 174.928 183.382 171.874 186.602 168.648C189.803 165.42 192.926 162.05 195.655 158.451L195.629 159.161L191.768 152.153L188.079 145.363V145.365ZM188.17 144.676L192.568 151.689L196.782 158.495L197 158.848L196.756 159.205C194.121 163.061 191.171 166.603 188.066 170.043C184.932 173.447 181.619 176.691 178.148 179.766C174.676 182.841 171.018 185.709 167.225 188.387C163.429 191.065 159.506 193.58 155.401 195.787L153.874 196.634L152.314 197.423C151.27 197.941 150.242 198.488 149.185 198.983C147.059 199.943 144.956 200.951 142.775 201.786C138.462 203.583 133.994 204.975 129.489 206.228L126.083 207.062C125.514 207.195 124.951 207.355 124.374 207.464L122.653 207.799L119.207 208.465L115.734 208.963C111.096 209.627 106.415 209.878 101.736 209.987C101.152 210.018 100.56 209.987 99.9709 209.982L98.2002 209.94L94.6613 209.847C92.3765 209.676 90.0683 209.479 87.8043 209.328L87.0643 209.287H86.2413L84.3797 209.282C84.2083 209.282 84.0577 209.274 83.9201 209.261L83.4917 209.23L83.0633 209.199L82.8478 209.183L82.7933 209.178L82.6297 209.16L82.5233 209.144L80.8019 208.895L77.3591 208.4C76.2115 208.24 75.0717 208.019 73.9267 207.832C69.3467 207.091 64.8056 206.108 60.2801 205.066C55.7728 203.938 51.2915 202.691 46.875 201.221C38.0603 198.252 29.4352 194.576 21.4228 189.732C17.4269 187.303 13.5609 184.63 9.9961 181.558C8.2098 180.028 6.4884 178.415 4.87086 176.681C4.06079 175.817 3.27928 174.92 2.52893 173.989C2.15764 173.52 1.78896 173.048 1.43326 172.553C1.25411 172.312 1.08274 172.052 0.908788 171.804C0.732234 171.534 0.576452 171.303 0.381724 170.969L0.00524902 170.326L0.254501 169.623C0.625783 168.573 1.03082 167.58 1.42027 166.564C1.60981 166.055 1.8305 165.56 2.03561 165.06L2.66394 163.561C2.87684 163.063 3.07416 162.56 3.30005 162.068L3.9803 160.593L5.3382 157.642L6.18462 155.806L7.7736 157.118L10.1701 159.096L11.3696 160.082L12.6003 161.028L15.0616 162.923L17.5905 164.728C19.2548 165.962 21.0177 167.056 22.7391 168.205C23.5933 168.791 24.4969 169.302 25.3796 169.841L28.0435 171.443C29.8558 172.447 31.6732 173.44 33.5037 174.412L36.2974 175.773L37.6942 176.452C38.159 176.681 38.6237 176.911 39.1041 177.106L41.9601 178.332L43.3881 178.947L44.1021 179.253L44.8317 179.522L47.7448 180.603L49.2014 181.145L49.931 181.415L50.6735 181.648L53.6412 182.579L55.1263 183.043C55.6222 183.196 56.1129 183.362 56.6192 183.479L62.6506 185.008L68.7573 186.206C70.8032 186.541 72.8673 186.784 74.9211 187.08C75.4352 187.145 75.9492 187.236 76.4659 187.277L78.0185 187.399L81.1238 187.643L82.6764 187.765L83.4528 187.824L84.2291 187.842L87.3317 187.899L90.437 187.964C90.9511 187.988 91.4756 187.964 92 187.941L93.5708 187.879L96.7125 187.754L98.2833 187.692L98.6753 187.676L98.87 187.669H98.9194C98.9194 187.669 98.9817 187.663 98.9401 187.669L99.0362 187.661L99.8125 187.596C103.962 187.308 108.09 186.746 112.192 186.048C116.292 185.353 120.36 184.404 124.361 183.289C128.38 182.177 132.337 180.852 136.219 179.343L139.129 178.2L141.996 176.95L143.429 176.325C143.904 176.11 144.369 175.877 144.841 175.654L147.661 174.3C151.371 172.395 155.053 170.422 158.587 168.2L159.924 167.386L161.235 166.53L163.855 164.814C165.566 163.618 167.298 162.449 168.964 161.189C170.66 159.968 172.293 158.664 173.944 157.383C175.559 156.058 177.19 154.748 178.763 153.372C181.933 150.642 185.002 147.81 187.988 144.87L188.178 144.683L188.17 144.676Z" fill="#5B0030"/>
<path d="M93.9394 18.3489C93.9394 18.3489 104.559 34.3877 95.8608 34.3851C86.9318 34.3773 93.9394 18.3489 93.9394 18.3489Z" fill="#5B0030"/>
<path d="M83.9383 43.4182C83.9383 43.4182 87.1084 62.3842 79.1661 58.8503C71.0109 55.2179 83.9383 43.4182 83.9383 43.4182Z" fill="#5B0030"/>
<path d="M105.956 44.4216C105.956 44.4216 119.953 57.6239 111.483 59.5996C102.788 61.6245 105.956 44.4216 105.956 44.4216Z" fill="#5B0030"/>
<path d="M129.705 70.0354C129.705 70.0354 143.702 83.2377 135.232 85.2134C126.537 87.2358 129.705 70.0354 129.705 70.0354Z" fill="#5B0030"/>
<path d="M150.603 119.365C150.603 119.365 164.6 132.567 156.13 134.543C147.435 136.568 150.603 119.365 150.603 119.365Z" fill="black"/>
<path d="M95.0195 73.3256C95.0195 73.3256 105.003 89.7663 96.3125 89.424C87.3914 89.0688 95.0195 73.3256 95.0195 73.3256Z" fill="#5B0030"/>
<path d="M66.4387 70.6966C66.4387 70.6966 70.9434 89.3903 62.77 86.4268C54.3785 83.3803 66.4387 70.6966 66.4387 70.6966Z" fill="#5B0030"/>
<path d="M75.6142 95.2914C75.6142 95.2914 80.8096 113.806 72.5297 111.146C64.0318 108.411 75.6142 95.2914 75.6142 95.2914Z" fill="#5B0030"/>
<path d="M99.3892 127.377C99.3892 127.377 104.585 145.892 96.3048 143.231C87.8068 140.496 99.3892 127.377 99.3892 127.377Z" fill="#5B0030"/>
<path d="M41.4148 126.596C41.4148 126.596 46.6101 145.111 38.3303 142.451C29.8323 139.716 41.4148 126.596 41.4148 126.596Z" fill="#5B0030"/>
<path d="M116.993 93.2406C116.993 93.2406 126.752 109.816 118.068 109.357C109.152 108.883 116.993 93.2406 116.993 93.2406Z" fill="#5B0030"/>
<path d="M127.578 139.718C127.578 139.718 137.338 156.294 128.653 155.835C119.737 155.36 127.578 139.718 127.578 139.718Z" fill="#5B0030"/>
<path d="M72.5738 134.652C72.5738 134.652 82.3336 151.227 73.6487 150.769C64.7328 150.294 72.5738 134.652 72.5738 134.652Z" fill="#5B0030"/>
</svg>
